<svg width="167" height="167" viewBox="0 0 167 167" fill="none" xmlns="http://www.w3.org/2000/svg">
<g clip-path="url(#clip0)">
<path d="M166.486 113.817C166.229 110.991 165.458 108.422 163.917 105.853V105.596C162.632 103.283 160.577 101.485 158.265 99.9433C157.494 99.4295 156.723 99.1726 155.695 98.9156L142.849 94.291L137.711 104.311C137.197 104.054 136.683 103.797 136.169 103.54L122.038 98.4018L115.872 110.22L100.971 104.825L86.3262 132.059H80.6739L66.0293 104.825L51.1277 110.22L44.9616 98.4018L30.8308 103.54C30.3169 103.797 29.8031 104.054 29.2893 104.311L24.1508 94.291L11.3046 98.9156C10.5339 99.1726 9.50618 99.6864 8.73541 99.9433C6.4231 101.228 4.36772 103.283 3.0831 105.339L2.82618 105.853C1.28464 108.422 0.513869 110.991 0.256946 113.303V113.56C2.3067e-05 114.588 -0.2569 117.928 -0.770746 123.323C-1.02767 126.149 2.30074e-05 128.719 1.79848 130.774C3.59695 132.829 6.16618 133.857 8.99233 133.857H17.4708C17.7277 135.913 18.4985 137.711 20.04 139.253C21.8385 141.308 24.4077 142.336 27.2339 142.336H34.6846C34.6846 142.849 34.6846 143.62 34.4277 144.134C34.1708 146.703 35.1985 149.529 36.9969 151.585C38.7954 153.64 41.3646 154.668 44.1908 154.668H122.552C125.122 154.668 127.948 153.64 129.746 151.585C131.545 149.529 132.572 146.96 132.315 144.134C132.315 143.363 132.315 142.849 132.058 142.336H139.766C142.592 142.336 145.162 141.308 146.96 139.253C148.245 137.711 149.272 135.913 149.529 133.857H158.008C160.834 133.857 163.403 132.829 165.202 130.774C167 128.719 168.028 126.149 167.771 123.323C167 118.185 166.743 115.102 166.486 113.817ZM19.0123 119.726V120.24C18.7554 121.525 18.4985 124.865 17.9846 130.26H8.99233C7.45079 130.26 5.90925 129.489 4.62464 128.462C3.59695 127.177 3.0831 125.636 3.0831 124.094C3.59695 118.699 4.11079 115.616 4.11079 114.588C4.11079 114.331 4.11079 114.074 4.11079 114.074C4.36772 112.019 5.13848 109.963 6.4231 107.651C7.45079 105.853 8.73541 104.568 10.5339 103.54C11.0477 103.283 11.8185 103.026 12.3323 102.769L22.0954 99.4295L25.9493 106.623C24.1508 107.908 22.8662 109.449 21.8385 111.248L21.5816 111.762C20.04 114.074 19.2693 116.9 19.0123 119.726ZM36.2262 130.517C35.9693 131.288 35.4554 134.114 34.9416 138.739H26.9769C25.4354 138.739 23.8939 137.968 22.6093 136.94C21.5816 135.656 21.0677 134.114 21.0677 132.573C21.5816 126.149 22.0954 122.039 22.3523 120.754C22.3523 120.497 22.3523 120.24 22.3523 120.24C22.6093 117.928 23.38 115.616 24.9216 113.046C25.9493 111.248 27.7477 109.449 29.8031 108.422C30.5739 108.165 31.0877 107.651 31.8585 107.394L42.9062 103.54L47.2739 112.019C43.9339 113.817 41.1077 116.386 39.3093 119.469C37.5108 123.066 36.4831 126.92 36.2262 130.517ZM126.92 149.273C125.892 150.557 124.351 151.071 122.552 151.071H44.1908C42.6493 151.071 41.1077 150.3 39.8231 149.273C38.7954 147.988 38.0246 146.446 38.2816 144.905C39.0523 135.913 40.08 131.288 40.08 131.288V130.774C40.08 127.691 41.1077 124.608 42.9062 121.268C44.7046 118.185 47.5308 115.873 51.1277 114.331L63.9739 109.706L78.1046 136.169H88.3816L102.769 109.706L115.615 114.331C116.643 114.588 117.414 115.102 118.185 115.359C120.497 116.643 122.295 118.442 123.837 120.754V121.011C125.378 123.837 126.406 126.663 126.663 129.233C126.663 129.233 126.663 129.489 126.663 130.003C126.92 131.545 127.691 136.426 128.205 144.905C128.718 146.446 128.205 147.988 126.92 149.273ZM144.134 136.94C143.106 138.225 141.565 138.739 139.766 138.739H131.802C131.288 133.857 130.774 130.774 130.774 129.489V128.976C130.517 125.893 129.489 122.553 127.434 119.213V118.956C125.892 116.129 123.323 113.817 120.497 112.019C120.24 111.762 119.983 111.762 119.726 111.762L124.094 103.283L135.142 107.137C135.912 107.394 136.683 107.651 137.197 108.165C139.252 109.193 140.794 110.734 142.078 112.789V113.046C143.363 115.359 144.391 117.928 144.391 119.983C144.391 119.983 144.391 120.24 144.391 120.497C144.648 121.782 145.162 125.636 145.675 132.316C145.675 134.114 145.162 135.656 144.134 136.94ZM162.375 128.205C161.348 129.489 159.806 130.003 158.008 130.003H149.272C148.758 124.608 148.245 121.011 148.245 119.983V119.469C147.988 116.643 146.96 113.817 145.418 110.991V110.734C144.391 108.936 142.849 107.394 141.308 106.109L145.162 98.9156L154.668 102.256C155.438 102.513 155.952 102.769 156.466 103.026C158.265 104.054 159.549 105.339 160.577 107.137V107.394C161.862 109.449 162.632 111.505 162.632 113.56C162.632 113.56 162.632 113.817 162.632 114.074C162.889 115.359 163.146 118.442 163.66 123.58C163.917 125.636 163.403 127.177 162.375 128.205Z" fill="#4F4F4F"/>
<path d="M37.5107 94.2911C40.5937 94.2911 43.4199 93.5203 45.9891 92.2357C49.5861 95.8326 54.7245 98.1449 60.1199 98.1449C62.6891 98.1449 65.0014 97.6311 67.0568 96.8603C71.1676 101.228 77.0768 103.797 83.4999 103.797C89.923 103.797 95.5753 101.228 99.943 96.8603C102.255 97.6311 104.568 98.1449 106.88 98.1449C112.532 98.1449 117.414 95.8326 121.011 92.2357C123.58 93.5203 126.406 94.2911 129.489 94.2911C139.509 94.2911 147.474 86.0696 147.474 76.3065C147.474 66.2865 139.252 58.3219 129.489 58.3219C125.635 58.3219 121.781 59.6065 118.698 61.9188C115.358 59.6065 111.505 58.0649 107.137 58.0649C103.026 58.0649 98.9153 59.3496 95.5753 61.6619C92.2353 59.6065 88.1245 58.3219 83.7568 58.3219C79.3891 58.3219 75.2784 59.6065 71.9384 61.6619C68.5984 59.3496 64.4876 58.0649 60.3768 58.0649C56.0091 58.0649 51.8984 59.6065 48.8153 61.9188C45.7322 59.6065 41.8784 58.3219 38.0245 58.3219C28.0045 58.3219 20.0399 66.5434 20.0399 76.3065C19.526 86.0696 27.4907 94.2911 37.5107 94.2911ZM143.62 76.3065C143.62 84.2711 137.197 90.4373 129.489 90.4373C127.434 90.4373 125.378 89.9234 123.58 89.1526C125.635 86.0696 126.92 82.2157 126.92 78.1049C126.92 72.9665 124.865 68.0849 121.525 64.488C123.837 62.9465 126.663 61.9188 129.489 61.9188C137.197 61.9188 143.62 68.3419 143.62 76.3065ZM106.88 61.9188C115.872 61.9188 123.066 69.1126 123.066 78.1049C123.066 87.0972 115.872 94.2911 106.88 94.2911C105.338 94.2911 103.797 94.0342 102.512 93.5203C104.825 89.9234 106.366 85.5557 106.366 80.9311C106.366 74.2511 103.54 68.3419 98.9153 63.9742C101.228 62.6896 104.054 61.9188 106.88 61.9188ZM102.512 80.9311C102.512 91.4649 94.0337 99.6865 83.4999 99.6865C72.966 99.6865 64.7445 91.208 64.7445 80.9311C64.7445 70.3972 73.223 61.9188 83.4999 61.9188C93.7768 61.9188 102.512 70.6542 102.512 80.9311ZM68.3414 63.9742C63.7168 68.0849 60.8907 74.2511 60.8907 80.9311C60.8907 85.5557 62.1753 89.9234 64.7445 93.5203C63.203 94.0342 61.9184 94.2911 60.3768 94.2911C51.3845 94.2911 44.1907 87.0972 44.1907 78.1049C44.1907 69.1126 51.3845 61.9188 60.3768 61.9188C62.946 61.9188 65.7722 62.6896 68.3414 63.9742ZM37.5107 61.9188C40.3368 61.9188 43.163 62.6896 45.4753 64.488C42.1353 68.0849 40.0799 72.7096 40.0799 78.1049C40.0799 82.2157 41.3645 86.0696 43.4199 89.1526C41.6214 89.9234 39.566 90.4373 37.5107 90.4373C29.5461 90.4373 23.3799 84.0142 23.3799 76.3065C23.3799 68.5988 29.803 61.9188 37.5107 61.9188Z" fill="#4F4F4F"/>
<path d="M85.5555 11.0479H81.7017V28.7755H85.5555V11.0479Z" fill="#4F4F4F"/>
<path d="M111.381 16.173L104.595 32.5498L108.155 34.0251L114.942 17.6482L111.381 16.173Z" fill="#4F4F4F"/>
<path d="M137.093 32.3876L124.558 44.9229L127.283 47.6479L139.818 35.1127L137.093 32.3876Z" fill="#4F4F4F"/>
<path d="M55.5806 16.3581L52.02 17.833L58.8044 34.2116L62.365 32.7368L55.5806 16.3581Z" fill="#4F4F4F"/>
<path d="M29.9477 32.5733L27.2227 35.2983L39.7579 47.8336L42.483 45.1085L29.9477 32.5733Z" fill="#4F4F4F"/>
</g>
<defs>
<clipPath id="clip0">
<rect width="167" height="167" fill="white"/>
</clipPath>
</defs>
</svg>
