<?xml version="1.0" encoding="utf-8"?>
<!-- Generator: Adobe Illustrator 24.1.2, SVG Export Plug-In . SVG Version: 6.00 Build 0)  -->
<svg version="1.1" id="Capa_1" xmlns="http://www.w3.org/2000/svg" xmlns:xlink="http://www.w3.org/1999/xlink" x="0px" y="0px"
	 viewBox="0 0 65 66" style="enable-background:new 0 0 65 66;" xml:space="preserve">
<g>
	<path d="M12.4,12.9c4.4-4.5,10.2-7.4,16.4-8.2c0.5,1.6,1.9,2.9,3.7,2.9c2.1,0,3.9-1.7,3.9-3.9s-1.7-3.9-3.9-3.9
		c-2,0-3.6,1.5-3.8,3.4C22.1,4,15.9,7.1,11.3,11.8L12.4,12.9z M32.5,1.3c1.3,0,2.4,1.1,2.4,2.4s-1.1,2.4-2.4,2.4
		c-1.3,0-2.4-1.1-2.4-2.4C30.1,2.3,31.2,1.3,32.5,1.3z"/>
	<path d="M4.1,40.9l1.4-0.4c-0.8-2.6-1.1-5.2-1.1-7.9c0-3.7,0.7-7.4,2.1-10.8c0.3,0.1,0.7,0.1,1,0.1c1.4,0,2.7-0.7,3.4-1.9
		c0.5-0.9,0.7-1.9,0.4-2.9s-0.9-1.8-1.8-2.4c-0.6-0.3-1.3-0.5-2-0.5c-1.4,0-2.7,0.7-3.4,1.9c-1,1.7-0.5,3.8,1,5
		c-1.5,3.6-2.3,7.5-2.3,11.5C2.9,35.3,3.3,38.2,4.1,40.9z M5.5,16.8c0.4-0.7,1.2-1.2,2.1-1.2c0.4,0,0.8,0.1,1.2,0.3
		c0.5,0.3,0.9,0.8,1.1,1.5c0.2,0.6,0.1,1.3-0.2,1.8C9,20.3,7.5,20.7,6.4,20C5.2,19.4,4.8,17.9,5.5,16.8z"/>
	<path d="M10.1,49.5c1.2-1.2,1.5-3.1,0.6-4.7c-0.7-1.2-2-2-3.4-2c-0.7,0-1.3,0.2-1.9,0.5c-0.9,0.5-1.6,1.3-1.8,2.3
		c-0.3,1-0.1,2,0.4,3c0.7,1.2,2,2,3.4,2c0.5,0,1-0.1,1.5-0.3c3.9,5.1,9.3,8.9,15.5,10.6l0.4-1.4C19,57.9,13.8,54.3,10.1,49.5z
		 M5.3,47.9c-0.3-0.6-0.4-1.2-0.2-1.8c0.2-0.6,0.6-1.1,1.1-1.4c0.4-0.2,0.8-0.3,1.2-0.3c0.9,0,1.7,0.5,2.1,1.2
		c0.6,1.1,0.2,2.6-0.9,3.3C7.5,49.5,6,49,5.3,47.9z"/>
	<path d="M52.4,52.3c-4.4,4.4-10.1,7.2-16.2,8c-0.4-1.6-1.9-2.9-3.7-2.9c-2.1,0-3.9,1.7-3.9,3.8c0,1,0.4,2,1.1,2.8
		c0.7,0.7,1.7,1.2,2.7,1.2l0,0c2,0,3.6-1.5,3.8-3.4c6.5-0.8,12.5-3.8,17.2-8.5L52.4,52.3z M32.5,63.8v0.8V63.8
		c-0.7,0-1.3-0.3-1.7-0.7c-0.4-0.5-0.7-1.1-0.7-1.7c0-1.3,1.1-2.4,2.4-2.4c1.3,0,2.4,1.1,2.4,2.4S33.8,63.8,32.5,63.8z"/>
	<path d="M55,15.7c-0.5,0.5-0.8,1-1,1.7c-0.3,1-0.2,2,0.3,3c0.7,1.2,2,2,3.4,2c0.7,0,1.3-0.2,1.9-0.5c0.9-0.5,1.6-1.3,1.8-2.3
		c0.3-1,0.2-2-0.3-3c-0.7-1.2-2-2-3.4-2c-0.5,0-1,0.1-1.4,0.3c-4.1-5.5-10-9.5-16.6-11.1l-0.4,1.5C45.6,6.8,51.2,10.5,55,15.7z
		 M59.8,17.3c0.3,0.6,0.4,1.2,0.2,1.8c-0.2,0.6-0.6,1.1-1.1,1.4c-1.1,0.6-2.6,0.2-3.2-0.9c-0.3-0.6-0.4-1.2-0.2-1.8
		c0.2-0.6,0.6-1.1,1.1-1.4c0.4-0.2,0.8-0.3,1.2-0.3C58.6,16.1,59.4,16.6,59.8,17.3z"/>
	<path d="M59.7,44.2c1.6-3.7,2.4-7.6,2.4-11.7c0-2.5-0.3-5.1-1-7.5l-1.5,0.4c0.6,2.3,0.9,4.7,0.9,7.1c0,3.8-0.8,7.5-2.3,11
		c-0.3-0.1-0.7-0.1-1.1-0.1c-1.4,0-2.6,0.7-3.3,1.9c-0.5,0.9-0.7,1.9-0.4,2.9s0.9,1.9,1.8,2.4c0.6,0.4,1.3,0.5,2,0.5
		c1.4,0,2.6-0.7,3.3-1.9c0.5-0.9,0.7-1.9,0.4-2.9C60.9,45.5,60.4,44.8,59.7,44.2z M59.3,48.5c-0.6,1.1-2.2,1.5-3.3,0.8
		s-1.5-2.1-0.8-3.3c0.4-0.7,1.2-1.2,2.1-1.2c0.4,0,0.8,0.1,1.2,0.3c0.5,0.3,0.9,0.8,1.1,1.5C59.8,47.3,59.7,47.9,59.3,48.5z"/>
	<path d="M32.5,18.6c-1.2,0-2.4,0.3-3.4,0.9c-1-0.6-2.1-1-3.2-1c-3.2,0-5.9,2.6-5.9,5.9s2.6,5.9,5.9,5.9c0.7,0,1.3-0.1,1.9-0.3
		c1.2,1.2,2.9,1.9,4.7,1.9c1.8,0,3.5-0.7,4.7-1.9c0.6,0.2,1.3,0.3,1.9,0.3c3.2,0,5.9-2.6,5.9-5.9s-2.6-5.9-5.9-5.9
		c-1.2,0-2.3,0.4-3.2,1C34.9,18.9,33.7,18.6,32.5,18.6z M21.5,24.4c0-2.4,2-4.4,4.4-4.4c0.7,0,1.4,0.2,2,0.5c-1.2,1.2-2,2.9-2,4.7
		c0,1.3,0.4,2.4,1,3.4c-0.3,0.1-0.6,0.1-1,0.1C23.4,28.8,21.5,26.8,21.5,24.4z M32.5,30.4c-2.8,0-5.2-2.3-5.2-5.2
		c0-2.8,2.3-5.2,5.2-5.2c2.8,0,5.2,2.3,5.2,5.2S35.3,30.4,32.5,30.4z M39.1,20c2.4,0,4.4,2,4.4,4.4s-2,4.4-4.4,4.4
		c-0.3,0-0.6,0-1-0.1c0.6-1,1-2.2,1-3.4c0-1.9-0.8-3.5-2-4.7C37.8,20.2,38.4,20,39.1,20z"/>
	<path d="M51.6,42.2C51.5,40,51.3,38,51,36.4v-0.1c-0.1-0.8-0.4-1.6-0.8-2.5v-0.1c-0.4-0.7-1.1-1.4-1.8-1.8
		c-0.2-0.1-0.5-0.3-0.8-0.4L43.3,30l-1.7,3.3l-4.2-1.5l-4.2,7.8h-1.4l-4.2-7.8l-4.2,1.5L21.7,30l-4.2,1.5c-0.3,0.1-0.6,0.2-0.8,0.4
		c-0.8,0.4-1.4,1.1-1.8,1.8l-0.1,0.2c-0.5,0.8-0.7,1.7-0.8,2.5v0.1c-0.2,1.6-0.4,3.6-0.6,5.8v0.8h5.1c-0.1,0.8-0.1,1.7-0.2,2.7v0.8
		h28.6v-0.8c-0.1-1-0.1-1.9-0.2-2.7h5.1L51.6,42.2z M14.9,41.5c0.1-1.9,0.3-3.5,0.5-4.9c0-0.1,0-0.2,0-0.2c0.1-0.6,0.3-1.2,0.7-2
		c0.3-0.5,0.7-0.9,1.3-1.3c0.2-0.1,0.4-0.2,0.6-0.3l3-1.1l1.1,2.1c-0.9,0.5-1.7,1.2-2.2,2.1c-0.6,1.1-1,2.2-1,3.3
		c0,0.2-0.2,1-0.3,2.2h-3.7V41.5z M19.8,45c0.2-3.6,0.6-5.4,0.6-5.4v-0.2c0-0.8,0.3-1.7,0.8-2.6c0.5-0.8,1.3-1.5,2.2-1.8l3.5-1.3
		l4,7.5H34l4-7.5l3.5,1.2c0.3,0.1,0.5,0.2,0.7,0.3c0.6,0.4,1.1,0.8,1.5,1.5v0.1c0.4,0.8,0.7,1.5,0.8,2.2c0,0,0,0.1,0,0.2
		c0.2,1.6,0.4,3.6,0.6,5.8H19.8z M46.4,41.5c-0.1-0.9-0.2-1.7-0.3-2.5v-0.1c-0.1-0.9-0.4-1.9-1-2.8V36c-0.5-0.8-1.2-1.5-2.1-2l0,0
		l1.1-2.1L47,33c0.2,0.1,0.4,0.2,0.6,0.3c0.5,0.3,0.9,0.7,1.3,1.2v0.1c0.4,0.7,0.6,1.3,0.7,1.9c0,0,0,0.1,0,0.2
		c0.2,1.4,0.4,3,0.5,4.9h-3.7V41.5z"/>
</g>
</svg>
