<svg width="194" height="198" viewBox="0 0 194 198" fill="none" xmlns="http://www.w3.org/2000/svg">
<path d="M30.0864 84.625L59.9692 51.1875" stroke="#F9F9F9" stroke-width="4" stroke-miterlimit="10"/>
<path d="M131.063 85.2109L163.915 33.2578" stroke="#F9F9F9" stroke-width="4" stroke-miterlimit="10"/>
<path d="M19.6567 115.094C29.0628 115.094 36.688 107.469 36.688 98.0625C36.688 88.6564 29.0628 81.0312 19.6567 81.0312C10.2506 81.0312 2.62549 88.6564 2.62549 98.0625C2.62549 107.469 10.2506 115.094 19.6567 115.094Z" stroke="#F9F9F9" stroke-width="4" stroke-miterlimit="10"/>
<path d="M72.1958 56.5391C81.6019 56.5391 89.2271 48.9139 89.2271 39.5078C89.2271 30.1017 81.6019 22.4766 72.1958 22.4766C62.7897 22.4766 55.1646 30.1017 55.1646 39.5078C55.1646 48.9139 62.7897 56.5391 72.1958 56.5391Z" stroke="#F9F9F9" stroke-width="4" stroke-miterlimit="10"/>
<path d="M118.798 113.922C128.204 113.922 135.829 106.297 135.829 96.8906C135.829 87.4845 128.204 79.8594 118.798 79.8594C109.392 79.8594 101.767 87.4845 101.767 96.8906C101.767 106.297 109.392 113.922 118.798 113.922Z" stroke="#F9F9F9" stroke-width="4" stroke-miterlimit="10"/>
<path d="M83.8755 51.7734L108.368 82.8281" stroke="#F9F9F9" stroke-width="4" stroke-miterlimit="10"/>
<path d="M174.344 36.8516C183.75 36.8516 191.375 29.2264 191.375 19.8203C191.375 10.4142 183.75 2.78906 174.344 2.78906C164.938 2.78906 157.313 10.4142 157.313 19.8203C157.313 29.2264 164.938 36.8516 174.344 36.8516Z" stroke="#F9F9F9" stroke-width="4" stroke-miterlimit="10"/>
<path d="M92.7422 195.133H66.6484C65.2813 195.133 64.1875 194.039 64.1875 192.672V87.7109C64.1875 86.3438 65.2813 85.25 66.6484 85.25H92.7422C94.1094 85.25 95.2031 86.3438 95.2031 87.7109V192.672C95.2031 194.039 94.1094 195.133 92.7422 195.133Z" stroke="#F9F9F9" stroke-width="4" stroke-miterlimit="10"/>
<path d="M170.243 195.133H144.423C142.978 195.133 141.806 193.961 141.806 192.516V87.8281C141.806 86.3828 142.978 85.2109 144.423 85.2109H170.243C171.688 85.2109 172.86 86.3828 172.86 87.8281V192.516C172.86 193.961 171.688 195.133 170.243 195.133Z" stroke="#F9F9F9" stroke-width="4" stroke-miterlimit="10"/>
<path d="M131.649 194.977H105.751C104.345 194.977 103.173 193.805 103.173 192.398V133.805C103.173 132.398 104.345 131.227 105.751 131.227H131.649C133.056 131.227 134.228 132.398 134.228 133.805V192.398C134.228 193.844 133.056 194.977 131.649 194.977Z" stroke="#F9F9F9" stroke-width="4" stroke-miterlimit="10"/>
<path d="M53.9927 195.211H28.0552C26.6489 195.211 25.4771 194.078 25.4771 192.633V120.055C25.4771 118.648 26.6099 117.477 28.0552 117.477H53.9927C55.3989 117.477 56.5708 118.609 56.5708 120.055V192.672C56.5708 194.078 55.3989 195.211 53.9927 195.211Z" stroke="#F9F9F9" stroke-width="4" stroke-miterlimit="10"/>
</svg>
