<?xml version="1.0" encoding="utf-8"?>
<!-- Generator: Adobe Illustrator 24.1.2, SVG Export Plug-In . SVG Version: 6.00 Build 0)  -->
<svg version="1.1" id="Capa_1" xmlns:figma="http://www.figma.com/figma/ns"
	 xmlns="http://www.w3.org/2000/svg" xmlns:xlink="http://www.w3.org/1999/xlink" x="0px" y="0px" width="66px" height="75px"
	 viewBox="0 0 66 75" style="enable-background:new 0 0 66 75;" xml:space="preserve">
<style type="text/css">
	.st0{fill-rule:evenodd;clip-rule:evenodd;}
</style>
<desc>Created using Figma</desc>
<g transform="translate(73 -114)" figma:type="canvas">
	<g figma:type="vector">
		<g transform="translate(-72.8904 114)">
			<path id="a" class="st0" d="M-40,114c-17.1,0-29.3,11.4-29.3,28v11.1c0,3.4-0.9,6.6-2.6,9.5c-2.9,5,0.7,11.4,6.5,11.4h18.1
				c-1.1,1.6-1.8,3.5-1.8,5.6c0,5.2,4,9.4,9,9.4s9-4.2,9-9.4c0-2.1-0.7-4.1-1.8-5.6h18.1c5.8,0,9.5-6.3,6.5-11.4
				c-1.7-2.9-2.6-6.2-2.6-9.5V142C-10.7,125.4-22.9,114-40,114z M-65.3,142c0-14.2,10.2-24,25.3-24c15.1,0,25.3,9.8,25.3,24v11.1
				c0,3.9,1.2,8.2,3.1,11.6c1.4,2.4-0.3,5.4-3.1,5.4h-50.6c-2.8,0-4.5-3-3.1-5.4c1.9-3.4,3.1-7.7,3.1-11.6V142z M-35,179.6
				c0,3.1-2.4,5.4-5,5.4c-2.6,0-5-2.2-5-5.4s2.4-5.4,5-5.4C-37.4,174.3-35,176.5-35,179.6z"/>
		</g>
	</g>
</g>
</svg>
