<svg width="1440" height="408" viewBox="0 0 1440 408" fill="none" xmlns="http://www.w3.org/2000/svg">
<path id="Cufras Naranjas" fill-rule="evenodd" clip-rule="evenodd" d="M0 183.955C0 183.955 7.31454 197.162 29.5 218.5C51.6855 239.838 76.7377 269.306 121.109 290.644C165.479 311.981 284.57 308.938 333 290.644C385 271 391 279 440 212C476.607 161.946 480 90.0002 530 90.0002C580 90.0002 592.207 212 667 212C758.621 212 769 -0.999756 824 1.00024C879 3.00024 900.523 152.251 928.413 204C940 225.5 983 290.644 1084 290.644C1158.12 290.644 1183.4 265.338 1229 244C1273.37 222.662 1291.7 208.402 1331.45 183C1369 159 1418.31 99.3379 1440.5 78.0002V102V408.001H1416.5C1394.31 408.001 1375.82 408.001 1331.45 408.001C1287.08 408.001 1241.47 408.001 1197.1 408.001C1151.5 408.001 1107.13 408.001 1062.76 408.001C1017.15 408.001 972.784 408.001 928.413 408.001C882.809 408.001 838.438 408.001 794.067 408.001C748.464 408.001 704.093 408.001 658.49 408.001C614.119 408.001 569.748 408.001 524.144 408.001C479.773 408.001 435.402 408.001 389.799 408.001C345.428 408.001 301.057 408.001 255.454 408.001C211.083 408.001 165.479 408.001 121.109 408.001C76.7377 408.001 31.1342 408.001 8.94878 408.001H0V183.955Z" fill="url(#paint0_linear)"/>
<defs>
<linearGradient id="paint0_linear" x1="720.25" y1="0.986328" x2="720.25" y2="408.001" gradientUnits="userSpaceOnUse">
<stop stop-color="#FEC163"/>
<stop offset="1" stop-color="#FB784F"/>
</linearGradient>
</defs>
</svg>
