<svg fill="#F9F9F9" width="115" height="115" viewBox="0 0 115 115" xmlns="http://www.w3.org/2000/svg">
<g id="Comida Sana-01 1">
<path id="Vector" d="M18.6875 13.2825C18.6875 12.42 18.6875 11.73 18.6875 10.9825C18.745 8.51002 20.6425 6.61252 23.115 6.55502C25.5875 6.49752 27.6 8.33752 27.7725 10.81C27.83 11.615 27.7725 12.3625 27.7725 13.225C31.97 13.225 36.0525 13.225 40.25 13.225C40.25 12.535 40.25 11.7875 40.25 11.0975C40.3075 8.56752 42.205 6.61252 44.735 6.55502C47.265 6.55502 49.22 8.45252 49.335 10.9825C49.335 11.6725 49.335 12.42 49.335 13.2825C51.4625 13.2825 53.475 13.2825 55.545 13.2825C57.615 13.2825 59.6275 13.2825 61.8125 13.2825C61.8125 12.535 61.8125 11.9025 61.8125 11.2125C61.8125 8.56752 63.71 6.61252 66.2975 6.55502C68.885 6.49752 70.84 8.51002 70.8975 11.155C70.8975 11.7875 70.8975 12.4775 70.8975 13.1675C71.2425 13.1675 71.53 13.225 71.76 13.225C73.485 13.225 75.21 13.225 76.935 13.225C80.845 13.225 83.2025 15.525 83.2025 19.435C83.2025 32.085 83.2025 44.7925 83.2025 57.4425C83.2025 58.3625 83.49 58.995 84.0075 59.7425C84.8125 61.0075 85.79 61.5825 87.285 61.6975C89.355 61.9275 91.1375 63.02 92.69 64.5725C93.7825 61.6975 95.565 59.5125 98.67 58.5925C98.4975 58.2475 98.325 57.96 98.1525 57.6725C96.5425 54.74 94.875 51.8075 93.265 48.8175C93.15 48.645 93.035 48.415 92.92 48.2425C92.575 47.5525 92.575 46.92 93.3225 46.575C94.0125 46.23 94.53 46.5175 94.875 47.15C95.9675 49.1625 97.1175 51.175 98.21 53.1875C98.4975 53.705 98.785 54.28 99.3025 54.74C99.3025 54.165 99.3025 53.6475 99.3025 53.0725C99.3025 50.3125 99.3025 47.61 99.3025 44.85C99.3025 44.045 99.475 43.47 100.395 43.4125C101.143 43.355 101.545 43.8725 101.603 44.9075C101.603 48.185 101.603 51.4625 101.603 54.97C101.89 54.5675 102.063 54.3375 102.178 54.1075C103.328 52.0375 104.478 49.91 105.628 47.84C105.743 47.6675 105.8 47.495 105.915 47.3225C106.433 46.46 107.008 46.1725 107.64 46.575C108.273 46.9775 108.33 47.5525 107.87 48.4725C106.605 50.7725 105.34 53.015 104.075 55.315C103.5 56.35 102.925 57.385 102.35 58.42C102.408 58.535 102.408 58.5925 102.465 58.65C106.548 60.0875 108.445 63.25 108.733 67.275C108.963 69.7475 108.618 72.2775 108.273 74.8075C107.41 81.88 106.433 88.9525 105.513 95.9675C105.11 99.1875 104.65 102.465 103.443 105.513C103.04 106.49 102.523 107.468 101.948 108.33C100.97 109.653 99.82 109.71 98.8425 108.33C98.095 107.295 97.4625 106.088 97.06 104.823C95.795 101.258 95.45 97.52 94.9325 93.7825C94.8175 92.805 94.645 91.77 94.53 90.7925C93.38 91.0225 92.23 91.2525 91.1375 91.4825C90.9075 91.54 90.62 91.77 90.4475 91.9425C87.745 94.645 85.0425 97.3475 82.34 100.05C82.0525 100.338 81.88 100.798 81.88 101.2C81.8225 102.81 81.88 104.478 81.88 106.088C81.88 107.18 81.4775 107.583 80.385 107.583C76.3025 107.583 72.2775 107.583 68.195 107.583C67.1025 107.583 66.7575 107.18 66.7575 106.088C66.7575 104.42 66.7575 102.81 66.7575 101.2C66.7575 100.798 66.585 100.338 66.2975 100.05C63.6525 97.3475 60.95 94.7025 58.305 92C58.0175 91.7125 57.615 91.4825 57.27 91.425C55.545 91.195 53.9925 90.62 52.555 89.6425C51.98 89.24 50.83 89.7575 50.7725 90.4475C50.715 92.6325 50.7725 94.875 50.7725 97.0025C54.625 98.3825 56.1775 101.373 54.74 104.478C53.36 107.583 50.0825 108.388 46.6325 106.49C44.62 107.87 42.55 108.043 40.48 106.663C38.5825 105.398 37.835 103.558 38.2375 101.315C38.6975 99.015 40.1925 97.6925 42.4925 97.06C42.4925 94.76 42.4925 92.4025 42.4925 89.93C42.09 89.93 41.745 89.93 41.3425 89.93C31.625 89.93 21.85 89.93 12.1325 89.93C9.25753 89.93 7.01503 88.2625 6.32503 85.6175C6.21003 85.1 6.15253 84.4675 6.15253 83.95C6.15253 62.3875 6.15253 40.7675 6.15253 19.205C6.15253 15.41 8.51003 13.11 12.305 13.11C14.5475 13.2825 16.56 13.2825 18.6875 13.2825ZM8.62503 31.05C8.62503 31.4525 8.62503 31.6825 8.62503 31.97C8.62503 49.335 8.62503 66.7575 8.62503 84.1225C8.62503 86.5375 10.005 87.9175 12.4775 87.9175C21.16 87.9175 29.8425 87.9175 38.5825 87.9175C38.87 87.9175 39.1 87.86 39.5025 87.86C37.7775 85.9625 36.455 84.0075 35.765 81.7075C35.305 80.155 34.6725 79.4075 33.005 79.695C32.1425 79.81 31.625 79.2925 31.625 78.3725C31.625 75.325 31.625 72.2775 31.625 69.23C31.625 68.3675 32.085 67.965 32.89 67.9075C33.4075 67.9075 33.925 67.9075 34.4425 67.9075C34.6725 66.93 34.845 66.125 35.075 65.1475C34.4425 65.1475 33.8675 65.1475 33.2925 65.1475C31.9125 65.1475 31.5675 64.8025 31.5675 63.48C31.5675 60.6625 31.5675 57.7875 31.5675 54.97C31.5675 53.6475 31.855 53.36 33.1775 53.36C35.88 53.36 38.5825 53.36 41.285 53.36C42.2625 53.36 43.24 53.3025 43.355 54.625C44.275 54.3375 45.08 54.165 45.8275 53.8775C46.345 53.705 46.805 53.36 47.3225 53.36C50.14 53.3025 53.015 53.3025 55.8325 53.36C57.155 53.36 57.4425 53.705 57.4425 54.97C57.4425 57.3275 57.4425 59.6275 57.4425 61.985C57.4425 62.3875 57.5 62.7325 57.5575 63.25C58.305 62.905 58.8225 62.56 59.455 62.33C60.03 62.1 60.145 61.755 60.145 61.18C60.0875 59.0525 60.145 56.8675 60.145 54.74C60.145 53.935 60.49 53.36 61.3525 53.36C64.4575 53.36 67.5625 53.36 70.725 53.36C71.4725 53.36 71.875 53.7625 71.9325 54.51C71.9325 54.74 71.99 54.97 71.99 55.2575C75.095 54.6825 77.97 55.2575 80.73 56.81C80.73 48.07 80.73 39.5025 80.73 30.8775C56.81 31.05 32.775 31.05 8.62503 31.05ZM92.0575 70.265C92.0575 67.16 91.655 66.47 89.815 65.205C88.3775 64.2275 86.7675 63.71 84.985 63.825C84.1225 63.8825 83.6625 63.5375 83.26 62.79C81.3625 59.34 78.43 57.4425 74.4625 57.4425C70.495 57.4425 67.5625 59.34 65.665 62.79C65.2625 63.5375 64.8025 63.825 63.94 63.7675C59.0525 63.595 55.2 67.6775 55.7175 72.565C55.8325 73.5425 55.545 74.1175 54.625 74.5775C51.635 76.1875 50.14 79.35 50.6 82.7425C51.06 85.8475 53.6475 88.55 56.7525 89.125C60.0875 89.7575 63.365 88.32 65.09 85.445C65.9525 84.065 66.4125 84.0075 67.5625 85.0425C71.415 88.665 77.3375 88.665 81.19 85.0425C82.34 83.95 82.8575 84.0075 83.6625 85.3875C85.7325 88.8375 90.045 90.2175 93.61 88.55C94.07 88.32 94.3 88.09 94.185 87.5725C93.7825 84.525 93.38 81.535 92.9775 78.4875C92.69 75.555 92.345 72.5075 92.0575 70.265ZM8.68253 28.635C32.8325 28.635 56.8675 28.635 80.96 28.635C80.96 25.2425 81.0175 21.9075 80.96 18.5725C80.96 17.135 79.7525 15.8125 78.2575 15.6975C75.8425 15.525 73.4275 15.64 70.955 15.64C70.955 16.5025 70.955 17.365 70.955 18.17C70.955 20.93 69 22.9425 66.4125 23C63.825 23 61.87 20.93 61.87 18.2275C61.87 17.365 61.87 16.5025 61.87 15.5825C57.6725 15.5825 53.59 15.5825 49.3925 15.5825C49.3925 16.56 49.3925 17.4225 49.3925 18.3425C49.335 20.93 47.4375 22.9425 44.9075 23C42.3775 23.0575 40.365 20.9875 40.3075 18.3425C40.3075 17.4225 40.3075 16.56 40.3075 15.64C36.11 15.64 31.97 15.64 27.83 15.64C27.83 16.6175 27.83 17.48 27.83 18.3425C27.7725 20.9875 25.8175 23.0575 23.23 23C20.7 23 18.745 20.9875 18.745 18.3425C18.745 17.4225 18.745 16.56 18.745 15.5825C16.2725 15.5825 13.8575 15.4675 11.5 15.64C10.005 15.755 8.79753 17.02 8.74003 18.4575C8.62503 21.85 8.68253 25.2425 8.68253 28.635ZM53.59 69.1725C53.245 69.1725 52.9 69.1725 52.555 69.1725C49.9675 69.1725 47.38 69.1725 44.7925 69.1725C43.7575 69.1725 43.1825 68.54 43.47 67.735C43.7 67.045 44.275 66.93 44.9075 66.93C47.725 66.93 50.6 66.93 53.4175 66.93C54.395 66.93 55.66 66.01 55.89 65.09C55.9475 64.975 55.89 64.8025 55.8325 64.63C54.855 61.985 53.4175 59.6275 51.1175 57.9025C48.3575 55.89 45.1375 55.89 42.3775 57.96C40.8825 59.0525 39.79 60.5475 38.9275 62.1575C37.26 65.2625 36.5125 68.5975 36.455 72.1625C36.3975 76.82 37.3175 81.2475 40.135 85.1C41.285 86.71 42.78 87.975 44.6775 88.6075C46.7475 89.2975 48.7025 89.0675 50.5425 87.86C48.415 84.985 47.84 81.88 48.76 78.4875C47.495 78.4875 46.4025 78.4875 45.2525 78.4875C43.9875 78.4875 43.47 78.1425 43.47 77.3375C43.47 76.5325 43.9875 76.245 45.31 76.245C46.6325 76.245 47.955 76.245 49.2775 76.245C49.565 76.245 49.91 76.015 50.14 75.8425C51.1175 74.9225 52.095 74.0025 53.015 73.025C53.1875 72.8525 53.4175 72.6225 53.4175 72.3925C53.475 71.3575 53.5325 70.3225 53.59 69.1725ZM106.318 72.7375C107.065 69.69 106.835 66.5275 105.628 64.2275C104.535 62.1575 102.925 60.7775 100.51 60.7775C98.095 60.7775 96.485 62.1575 95.3925 64.2275C94.2425 66.4125 94.07 68.8275 94.415 71.2425C94.9325 75.3825 95.45 79.5225 96.025 83.72C96.7725 89.1825 97.4625 94.7025 98.325 100.165C98.67 102.465 99.3025 104.765 100.568 107.065C102.638 102.638 103.155 98.095 103.73 93.38C103.155 93.38 102.753 93.38 102.293 93.38C101.545 93.38 100.97 93.0925 100.97 92.23C100.97 91.3675 101.545 91.1375 102.293 91.08C104.018 91.0225 104.018 91.0225 104.305 89.2975C104.535 87.515 104.765 85.675 104.995 83.7775C104.075 83.7775 103.27 83.7775 102.408 83.7775C101.603 83.7775 101.028 83.605 100.97 82.685C100.913 81.9375 101.43 81.535 102.465 81.4775C103.385 81.4775 104.363 81.4775 105.283 81.4775C105.57 79.235 105.858 77.165 106.145 74.9225C104.823 74.9225 103.615 74.9225 102.465 74.9225C101.43 74.9225 100.913 74.52 100.97 73.7725C101.028 72.8525 101.66 72.68 102.465 72.68C103.73 72.7375 104.995 72.7375 106.318 72.7375ZM72.8525 90.16C72.8525 90.4475 72.795 90.735 72.795 91.0225C72.795 92.575 72.8525 94.1275 72.7375 95.6225C72.7375 96.025 72.3925 96.6575 72.0475 96.7725C71.7025 96.8875 71.1275 96.6575 70.725 96.4275C70.4375 96.3125 70.265 96.025 70.035 95.795C68.08 93.84 66.125 91.885 64.2275 89.93C63.0775 90.4475 62.0425 90.9075 60.95 91.425C63.48 93.955 65.9525 96.4275 68.4825 98.9C69 99.4175 69.23 99.935 69.23 100.625C69.1725 102.178 69.23 103.73 69.23 105.283C72.8525 105.283 76.3025 105.283 79.81 105.283C79.81 103.73 79.8675 102.293 79.81 100.855C79.7525 99.935 80.0975 99.245 80.73 98.6125C83.03 96.37 85.215 94.1275 87.515 91.885C87.6875 91.7125 87.86 91.4825 88.0325 91.31C86.94 90.7925 85.905 90.3325 84.8125 89.815C82.7425 91.885 80.615 94.0125 78.4875 96.14C78.0275 96.6 77.625 97.0025 76.935 96.715C76.245 96.4275 76.245 95.8525 76.245 95.22C76.245 93.495 76.245 91.77 76.245 90.045C75.0375 90.16 73.945 90.16 72.8525 90.16ZM44.965 91.195C44.965 93.5525 44.965 95.8525 44.965 98.21C44.965 99.245 44.62 99.59 43.6425 99.6475C42.09 99.705 40.94 100.568 40.6525 101.89C40.365 103.213 40.94 104.535 42.09 105.225C43.355 105.973 44.6775 105.685 45.8275 104.535C46.575 103.788 47.035 103.903 47.84 104.535C48.4725 104.995 49.22 105.513 49.9675 105.57C51.5775 105.8 53.015 104.42 53.0725 102.753C53.13 101.085 51.8075 99.705 50.0825 99.6475C48.9325 99.59 48.645 99.3025 48.645 98.1525C48.645 97.75 48.645 97.405 48.645 97.0025C48.645 95.105 48.645 93.15 48.645 91.2525C47.38 91.195 46.23 91.195 44.965 91.195ZM42.4925 14.7775C42.4925 15.985 42.4925 17.25 42.4925 18.4575C42.4925 19.78 43.5275 20.7575 44.735 20.7575C46 20.7575 46.9775 19.78 46.9775 18.4575C47.035 16.0425 46.9775 13.6275 46.9775 11.2125C46.9775 9.83252 46 8.85502 44.6775 8.91252C43.4125 8.91252 42.4925 9.89002 42.4925 11.2125C42.4925 12.3625 42.4925 13.57 42.4925 14.7775ZM64.055 14.72C64.055 15.9275 64.055 17.135 64.055 18.285C64.055 19.665 64.975 20.7 66.2975 20.7C67.5625 20.7 68.5975 19.7225 68.5975 18.3425C68.5975 15.9275 68.5975 13.57 68.5975 11.155C68.5975 9.77502 67.62 8.79752 66.2975 8.79752C64.975 8.79752 64.055 9.77502 64.055 11.2125C64.055 12.42 64.055 13.57 64.055 14.72ZM20.9875 14.7775C20.9875 15.985 20.9875 17.1925 20.9875 18.3425C20.9875 19.7225 21.965 20.7 23.2875 20.7C24.5525 20.7 25.53 19.7225 25.53 18.4C25.53 15.985 25.53 13.57 25.53 11.155C25.53 9.77502 24.5525 8.85502 23.2875 8.85502C21.965 8.85502 21.045 9.77502 20.9875 11.2125C20.93 12.42 20.9875 13.6275 20.9875 14.7775ZM33.9825 62.8475C35.8225 63.135 35.8225 63.135 36.6275 61.64C37.6625 59.6275 38.9275 57.845 40.71 56.4075C40.8825 56.2925 40.9975 56.0625 41.285 55.775C38.755 55.775 36.3975 55.775 33.9825 55.775C33.9825 58.19 33.9825 60.5475 33.9825 62.8475ZM62.6175 61.4675C63.4225 61.64 63.8825 61.3525 64.285 60.72C65.435 58.8225 67.1025 57.4425 69.0575 56.4075C69.2875 56.2925 69.5175 56.12 69.805 56.005C69.805 55.9475 69.7475 55.89 69.7475 55.775C67.39 55.775 65.0325 55.775 62.6175 55.775C62.6175 57.73 62.6175 59.57 62.6175 61.4675ZM70.5525 92.8625C70.5525 91.885 70.5525 90.965 70.5525 90.045C70.5525 89.815 70.4375 89.5275 70.265 89.4125C69.115 88.78 67.9075 88.1475 66.6425 87.515C66.4125 87.8025 66.1825 88.09 66.01 88.2625C67.5625 89.8725 69 91.3675 70.5525 92.8625ZM82.34 87.5725C81.075 88.205 79.9825 88.8375 78.8325 89.4125C78.66 89.5275 78.43 89.7575 78.43 89.93C78.3725 90.9075 78.43 91.8275 78.43 92.7475C79.925 91.2525 81.42 89.7575 82.915 88.2625C82.8 88.09 82.57 87.8025 82.34 87.5725ZM55.2575 55.8325C54.2225 55.8325 53.245 55.8325 52.2675 55.8325C53.3025 56.81 54.2225 57.73 55.2575 58.65C55.2575 57.6725 55.2575 56.7525 55.2575 55.8325ZM34.385 77.74C34.27 75.095 34.155 72.7375 34.04 70.38C33.925 72.6225 33.925 74.865 33.925 77.05C33.925 77.2225 34.155 77.395 34.385 77.74Z" fill="#F9F9F9"/>
<path id="Vector_2" d="M17.48 73.8875C17.48 72.3925 17.48 70.955 17.48 69.46C17.48 68.3675 17.825 68.0225 18.9175 68.0225C21.85 68.0225 24.84 68.0225 27.7725 68.0225C28.865 68.0225 29.2675 68.425 29.2675 69.5175C29.2675 72.45 29.2675 75.3825 29.2675 78.315C29.2675 79.4075 28.865 79.81 27.7725 79.81C24.84 79.81 21.85 79.81 18.9175 79.81C17.8825 79.81 17.5375 79.4075 17.48 78.3725C17.48 76.82 17.48 75.325 17.48 73.8875ZM26.9675 70.265C24.6675 70.265 22.4825 70.265 20.2975 70.3225C20.125 70.3225 19.78 70.7825 19.78 71.0125C19.7225 72.9675 19.78 74.9225 19.7225 76.8775C19.7225 77.395 19.895 77.625 20.4125 77.5675C21.4475 77.51 22.4825 77.5675 23.5175 77.5675C24.61 77.5675 25.76 77.5675 26.91 77.5675C26.9675 75.0375 26.9675 72.7375 26.9675 70.265Z" fill="#F9F9F9"/>
<path id="Vector_3" d="M23.2875 50.715C21.7925 50.715 20.355 50.715 18.86 50.715C17.8825 50.715 17.48 50.3125 17.48 49.335C17.48 46.2875 17.48 43.2975 17.48 40.25C17.48 39.33 17.8825 38.9275 18.8025 38.9275C21.85 38.9275 24.84 38.9275 27.8875 38.9275C28.8075 38.9275 29.21 39.33 29.21 40.25C29.21 43.2975 29.21 46.2875 29.21 49.335C29.21 50.3125 28.8075 50.715 27.7725 50.715C26.335 50.715 24.84 50.715 23.2875 50.715ZM26.91 41.285C24.495 41.285 22.1375 41.285 19.78 41.285C19.78 43.7 19.78 46 19.78 48.3575C22.195 48.3575 24.5525 48.3575 26.91 48.3575C26.91 45.9425 26.91 43.6425 26.91 41.285Z" fill="#F9F9F9"/>
<path id="Vector_4" d="M23.345 53.4751C24.7825 53.4751 26.22 53.4751 27.715 53.4751C28.865 53.4751 29.2675 53.8201 29.2675 54.9701C29.2675 57.9026 29.2675 60.8351 29.2675 63.7676C29.2675 64.8601 28.865 65.2626 27.7725 65.2626C24.84 65.2626 21.9075 65.2626 18.975 65.2626C17.8825 65.2626 17.48 64.8601 17.48 63.7676C17.48 60.8351 17.48 57.8451 17.48 54.9126C17.48 53.8201 17.825 53.5326 18.9175 53.4751C20.4125 53.4751 21.85 53.4751 23.345 53.4751ZM19.78 62.9051C22.2525 62.9051 24.5525 62.9051 26.91 62.9051C26.91 60.4901 26.91 58.1326 26.91 55.8326C24.495 55.8326 22.1375 55.8326 19.78 55.8326C19.78 58.1901 19.78 60.5476 19.78 62.9051Z" fill="#F9F9F9"/>
<path id="Vector_5" d="M37.605 50.715C36.11 50.715 34.5575 50.715 33.0625 50.715C32.085 50.715 31.6825 50.3125 31.625 49.335C31.625 46.2875 31.625 43.2975 31.625 40.25C31.625 39.33 32.0275 38.9275 32.9475 38.9275C35.995 38.9275 38.985 38.9275 42.0325 38.9275C43.01 38.9275 43.4125 39.33 43.4125 40.3075C43.4125 43.2975 43.4125 46.2875 43.4125 49.2775C43.4125 50.255 43.01 50.6575 42.0325 50.6575C40.5375 50.715 39.0425 50.715 37.605 50.715ZM41.055 48.415C41.055 45.9425 41.055 43.6425 41.055 41.285C38.64 41.285 36.34 41.285 33.9825 41.285C33.9825 43.7 33.9825 46.0575 33.9825 48.415C36.3975 48.415 38.6975 48.415 41.055 48.415Z" fill="#F9F9F9"/>
<path id="Vector_6" d="M51.75 38.9275C53.245 38.9275 54.6825 38.9275 56.1775 38.9275C57.155 38.9275 57.5575 39.2725 57.5575 40.25C57.5575 43.2975 57.5575 46.2875 57.5575 49.335C57.5575 50.255 57.155 50.6575 56.235 50.6575C53.1875 50.6575 50.1975 50.6575 47.15 50.6575C46.23 50.6575 45.8275 50.255 45.77 49.335C45.77 46.2875 45.77 43.24 45.77 40.1925C45.77 39.3875 46.23 38.9275 47.0925 38.9275C48.645 38.985 50.1975 38.9275 51.75 38.9275ZM55.2575 41.285C52.8425 41.285 50.485 41.285 48.1275 41.285C48.1275 43.7 48.1275 46 48.1275 48.3575C50.5425 48.3575 52.9 48.3575 55.2575 48.3575C55.2575 45.9425 55.2575 43.6425 55.2575 41.285Z" fill="#F9F9F9"/>
<path id="Vector_7" d="M66.2401 50.715C64.7451 50.715 63.1926 50.715 61.6976 50.715C60.7201 50.715 60.3176 50.3125 60.3176 49.335C60.3176 46.2875 60.3176 43.2975 60.3176 40.25C60.3176 39.33 60.7201 38.9275 61.6401 38.9275C64.6876 38.9275 67.6776 38.9275 70.7251 38.9275C71.7026 38.9275 72.0476 39.2725 72.0476 40.25C72.0476 43.2975 72.0476 46.2875 72.0476 49.335C72.0476 50.3125 71.6451 50.715 70.6676 50.715C69.2301 50.715 67.7351 50.715 66.2401 50.715ZM69.7476 48.415C69.7476 46 69.7476 43.6425 69.7476 41.285C67.3326 41.285 65.0326 41.285 62.6751 41.285C62.6751 43.7 62.6751 46 62.6751 48.415C65.0326 48.415 67.3326 48.415 69.7476 48.415Z" fill="#F9F9F9"/>
</g>
</svg>
