<?xml version="1.0" encoding="utf-8"?>
<!-- Generator: Adobe Illustrator 24.1.2, SVG Export Plug-In . SVG Version: 6.00 Build 0)  -->
<svg version="1.1" xmlns="http://www.w3.org/2000/svg" xmlns:xlink="http://www.w3.org/1999/xlink" x="0px" y="0px" width="512px"
	 height="512px" viewBox="0 0 512 512" style="enable-background:new 0 0 512 512;" xml:space="preserve">
<style type="text/css">
	.st0{fill:url(#SVGID_1_);}
	.st1{fill:url(#SVGID_2_);}
	.st2{fill:url(#SVGID_3_);}
	.st3{fill:url(#SVGID_4_);}
	.st4{fill:url(#SVGID_5_);}
	.st5{fill:url(#SVGID_6_);}
</style>
<g id="Capa_1">
</g>
<g id="Capa_2">
	<linearGradient id="SVGID_1_" gradientUnits="userSpaceOnUse" x1="256" y1="0" x2="256" y2="512">
		<stop  offset="0" style="stop-color:#FF9029"/>
		<stop  offset="1" style="stop-color:#F34B14"/>
	</linearGradient>
	<path class="st0" d="M464.8,0H47.2C21.1,0,0,21.1,0,47.2v417.6C0,490.9,21.1,512,47.2,512h417.6c26.1,0,47.2-21.1,47.2-47.2V47.2
		C512,21.1,490.9,0,464.8,0z M127.5,129.5c7.1-1,251.2,0,257.4,0c6.1,0,12.3,3.6,12.3,3.6L256.7,298l-142-164.9
		C114.7,133.1,120.3,130.6,127.5,129.5z M95.8,158.5l95,108.8l-95,93.4V158.5z M119.3,385.4l92.4-92.4l45,52.6l44.4-52.6l92.4,92.4
		H119.3z M416.8,362l-95-93.4l95-108.8V362z"/>
</g>
</svg>
