<?xml version="1.0" encoding="utf-8"?>
<!-- Generator: Adobe Illustrator 24.1.2, SVG Export Plug-In . SVG Version: 6.00 Build 0)  -->
<svg version="1.1" xmlns="http://www.w3.org/2000/svg" xmlns:xlink="http://www.w3.org/1999/xlink" x="0px" y="0px" width="512px"
	 height="512px" viewBox="0 0 512 512" style="enable-background:new 0 0 512 512;" xml:space="preserve">
<style type="text/css">
	.st0{fill:url(#SVGID_1_);}
	.st1{fill:url(#SVGID_2_);}
	.st2{fill:url(#SVGID_3_);}
	.st3{fill:url(#SVGID_4_);}
	.st4{fill:url(#SVGID_5_);}
	.st5{fill:url(#SVGID_6_);}
</style>
<g id="Capa_1">
	<g>
		<linearGradient id="SVGID_1_" gradientUnits="userSpaceOnUse" x1="256.7132" y1="111.205" x2="256.7132" y2="397.791">
			<stop  offset="0" style="stop-color:#FF9029"/>
			<stop  offset="1" style="stop-color:#F34B14"/>
		</linearGradient>
		<path class="st0" d="M256.8,111.2c-79.1,0-143.3,64.3-143.3,143.2c0,27.1,7.5,53.4,21.9,76.2l3.4,5.4l-14.5,52.8l54.2-14.2
			l5.2,3.1c22,13,47.2,20,72.9,20v0c78.9,0,143.2-64.2,143.2-143.3c0-38.3-14.9-74.2-41.9-101.3C331,126.2,295,111.2,256.8,111.2z
			 M340.9,316.1c-3.6,10.1-20.8,19.2-29.1,20.5c-7.4,1.1-16.8,1.6-27.1-1.7c-6.2-2-14.2-4.7-24.5-9.1c-43.2-18.6-71.3-62.2-73.5-65
			c-2.2-2.9-17.6-23.4-17.6-44.6c0-21.2,11.1-31.6,15.1-35.9c4-4.3,8.6-5.4,11.5-5.4c2.9,0,5.7,0,8.2,0.1c2.7,0.2,6.2-1,9.7,7.4
			c3.5,8.6,12.1,29.8,13.2,32c1.1,2.2,1.8,4.7,0.4,7.5c-1.4,2.9-2.1,4.7-4.3,7.2c-2.2,2.5-4.5,5.6-6.5,7.5c-2.2,2.1-4.5,4.5-1.9,8.7
			c2.5,4.3,11.2,18.4,24,29.8c16.4,14.6,30.4,19.2,34.6,21.4c4.3,2.2,6.8,1.8,9.3-1.1c2.5-2.9,10.8-12.6,13.6-16.9
			c2.9-4.4,5.8-3.6,9.7-2.2c3.9,1.5,25.1,11.8,29.4,14l0,0c4.4,2.2,7.2,3.3,8.2,5.2C344.5,297.5,344.5,306,340.9,316.1z"/>
		<linearGradient id="SVGID_2_" gradientUnits="userSpaceOnUse" x1="256" y1="0" x2="256" y2="512.0008">
			<stop  offset="0" style="stop-color:#FF9029"/>
			<stop  offset="1" style="stop-color:#F34B14"/>
		</linearGradient>
		<path class="st1" d="M464,0H48C21.6,0,0,21.6,0,48v416c0,26.4,21.6,48,48,48h416c26.4,0,48-21.6,48-48V48C512,21.6,490.4,0,464,0z
			 M256.7,426.9L256.7,426.9c-28.8,0-57.2-7.3-82.3-21L83,429.8l24.5-89.3c-15.1-26.1-23-55.8-23-86.1c0-95,77.3-172.3,172.2-172.3
			c46.1,0,89.3,17.9,121.9,50.5c0,0,0,0,0,0c32.6,32.6,50.5,75.8,50.5,121.9C429,349.6,351.6,426.9,256.7,426.9z"/>
	</g>
</g>
<g id="Capa_2">
</g>
</svg>
