<svg xmlns="http://www.w3.org/2000/svg" xmlns:xlink="http://www.w3.org/1999/xlink" viewBox="0 0 512 512"><defs><style>.cls-1{fill:url(#Nueva_muestra_de_degradado_1);}.cls-2{fill:url(#Nueva_muestra_de_degradado_1-2);}.cls-3{fill:url(#Nueva_muestra_de_degradado_1-3);}.cls-4{fill:url(#Nueva_muestra_de_degradado_1-4);}.cls-5{fill:url(#Nueva_muestra_de_degradado_1-5);}</style><linearGradient id="Nueva_muestra_de_degradado_1" x1="256.43" y1="292.94" x2="256.43" y2="385.36" gradientUnits="userSpaceOnUse"><stop offset="0" stop-color="#ff9029"/><stop offset="1" stop-color="#f34b14"/></linearGradient><linearGradient id="Nueva_muestra_de_degradado_1-2" x1="143.3" y1="158.47" x2="143.3" y2="360.68" xlink:href="#Nueva_muestra_de_degradado_1"/><linearGradient id="Nueva_muestra_de_degradado_1-3" x1="255.91" y1="129.08" x2="255.91" y2="298.04" xlink:href="#Nueva_muestra_de_degradado_1"/><linearGradient id="Nueva_muestra_de_degradado_1-4" x1="369.34" y1="159.83" x2="369.34" y2="362.04" xlink:href="#Nueva_muestra_de_degradado_1"/><linearGradient id="Nueva_muestra_de_degradado_1-5" x1="256" y1="0" x2="256" y2="512" xlink:href="#Nueva_muestra_de_degradado_1"/></defs><g id="Capa_3" data-name="Capa 3"><polygon class="cls-1" points="256.7 345.53 211.75 292.94 119.32 385.36 393.53 385.36 301.11 292.94 256.7 345.53"/><polygon class="cls-2" points="95.81 158.47 95.81 360.68 190.79 267.23 95.81 158.47"/><path class="cls-3" d="M397.11,133.11s-6.13-3.58-12.26-3.58-250.21-1-257.36,0a52,52,0,0,0-12.77,3.58L256.7,298Z"/><polygon class="cls-4" points="416.83 362.04 416.83 159.83 321.85 268.6 416.83 362.04"/><path class="cls-5" d="M464.81,0H47.19A47.19,47.19,0,0,0,0,47.19V464.81A47.19,47.19,0,0,0,47.19,512H464.81A47.19,47.19,0,0,0,512,464.81V47.19A47.19,47.19,0,0,0,464.81,0ZM441,362.64a47.23,47.23,0,0,1-47.23,47.23H118.53A47.23,47.23,0,0,1,71.3,362.64v-214a47.23,47.23,0,0,1,47.23-47.23H393.79A47.23,47.23,0,0,1,441,148.68Z"/></g></svg>