<svg width="1079" height="517" viewBox="0 0 1079 517" fill="none" xmlns="http://www.w3.org/2000/svg">
<g id="Group 1">
<g id="Frame" clip-path="url(#clip0)">
<g id="Group">
<path id="Vector" d="M566.351 270.671V238.153L463.393 118.828V155.114L557.538 282.534L566.351 270.671Z" fill="#6D6D6D"/>
<path id="Vector_2" d="M463.393 118.968C463.393 118.968 520.467 110.315 566.351 112.548V242.061L463.393 118.968Z" fill="#969696"/>
<path id="Vector_3" d="M556.699 284.069V244.434L418.209 124.132C418.209 124.132 415.97 127.063 418.209 140.181L548.306 290.908L556.699 284.069Z" fill="#2D2D2D"/>
<path id="Vector_4" d="M418.208 124.132C418.208 124.132 444.648 119.526 455.419 119.526L556.699 244.294L418.208 124.132Z" fill="#515151"/>
<path id="Vector_5" d="M276.92 177.584C276.92 177.584 333.156 138.088 411.494 126.504L549.565 250.156L276.92 177.584Z" fill="#9658B7"/>
<path id="Vector_6" d="M549.565 297.327V250.156L284.754 174.792C284.754 174.792 276.92 171.583 276.92 182.887V216.8L542.29 306.399L549.565 297.327Z" fill="#694182"/>
<path id="Vector_7" d="M191.868 289.233C191.868 289.233 197.323 364.317 206.136 382.879C206.136 382.879 225.581 417.211 237.192 422.235V349.105L191.868 289.233Z" fill="#5B4382"/>
<path id="Vector_8" d="M533.757 254.063L266.149 185.26C266.149 185.26 128.778 268.299 227.679 358.316L533.757 254.063Z" fill="#7D61A3"/>
<path id="Vector_9" d="M533.757 282.394V254.063L232.156 350.779C232.156 350.779 225.441 350.221 228.239 375.342L232.716 417.908C232.716 417.908 236.073 426.701 249.362 421.677L326.581 395.997L533.757 321.192V282.394Z" fill="#342D3B"/>
<path id="Vector_10" d="M303.499 352.454C303.499 352.454 299.163 352.873 299.862 367.108L304.618 421.816C304.618 421.816 376.941 510.437 606.22 518.113C606.22 518.113 917.194 516.857 930.343 357.059L935.519 299.002L303.499 352.454Z" fill="url(#paint0_linear)"/>
<path id="Vector_11" d="M935.799 295.234C935.659 278.068 925.727 205.356 767.092 153.719C767.092 153.719 686.096 129.435 597.406 128.319L596.987 259.925L303.499 352.315C303.499 352.315 360.574 414.14 532.078 437.307C595.448 447.077 645.668 448.193 683.438 446.1C683.438 446.1 683.858 446.1 684.837 445.96C686.236 445.821 687.495 445.821 688.894 445.681C689.454 445.681 690.013 445.681 690.713 445.681C690.713 445.681 692.112 445.542 694.63 445.262C723.307 443.029 743.731 438.703 756.6 435.354C809.199 423.77 877.185 399.905 912.857 351.338C924.468 336.265 932.721 318.959 935.799 298.863C935.519 299.002 935.799 297.746 935.799 295.234C935.799 295.374 935.799 295.374 935.799 295.234Z" fill="#FF9029"/>
</g>
<path id="Vector_12" d="M983.414 145.465V151.043H982.758C979.695 151.09 977.227 151.887 975.352 153.434C973.492 154.98 972.375 157.129 972 159.879C973.812 158.035 976.102 157.113 978.867 157.113C981.836 157.113 984.195 158.176 985.945 160.301C987.695 162.426 988.57 165.223 988.57 168.691C988.57 170.91 988.086 172.918 987.117 174.715C986.164 176.512 984.805 177.91 983.039 178.91C981.289 179.91 979.305 180.41 977.086 180.41C973.492 180.41 970.586 179.16 968.367 176.66C966.164 174.16 965.062 170.824 965.062 166.652V164.215C965.062 160.512 965.758 157.246 967.148 154.418C968.555 151.574 970.562 149.379 973.172 147.832C975.797 146.27 978.836 145.48 982.289 145.465H983.414ZM976.805 162.551C975.711 162.551 974.719 162.84 973.828 163.418C972.938 163.98 972.281 164.73 971.859 165.668V167.73C971.859 169.996 972.305 171.77 973.195 173.051C974.086 174.316 975.336 174.949 976.945 174.949C978.398 174.949 979.57 174.379 980.461 173.238C981.367 172.082 981.82 170.59 981.82 168.762C981.82 166.902 981.367 165.402 980.461 164.262C979.555 163.121 978.336 162.551 976.805 162.551ZM993.609 163.16L995.578 145.816H1014.7V151.465H1001.13L1000.29 158.801C1001.9 157.941 1003.61 157.512 1005.42 157.512C1008.67 157.512 1011.22 158.52 1013.06 160.535C1014.91 162.551 1015.83 165.371 1015.83 168.996C1015.83 171.199 1015.36 173.176 1014.42 174.926C1013.5 176.66 1012.17 178.012 1010.44 178.98C1008.7 179.934 1006.66 180.41 1004.3 180.41C1002.23 180.41 1000.32 179.996 998.555 179.168C996.789 178.324 995.391 177.145 994.359 175.629C993.344 174.113 992.805 172.387 992.742 170.449H999.445C999.586 171.871 1000.08 172.98 1000.92 173.777C1001.78 174.559 1002.9 174.949 1004.27 174.949C1005.8 174.949 1006.98 174.402 1007.81 173.309C1008.64 172.199 1009.05 170.637 1009.05 168.621C1009.05 166.684 1008.58 165.199 1007.62 164.168C1006.67 163.137 1005.32 162.621 1003.57 162.621C1001.96 162.621 1000.66 163.043 999.656 163.887L999 164.496L993.609 163.16ZM1020.07 152.379C1020.07 150.285 1020.75 148.59 1022.11 147.293C1023.47 145.98 1025.25 145.324 1027.45 145.324C1029.69 145.324 1031.48 145.973 1032.84 147.27C1034.2 148.551 1034.88 150.293 1034.88 152.496V154.184C1034.88 156.293 1034.2 157.988 1032.84 159.27C1031.48 160.551 1029.7 161.191 1027.5 161.191C1025.28 161.191 1023.48 160.551 1022.11 159.27C1020.75 157.973 1020.07 156.23 1020.07 154.043V152.379ZM1024.57 154.184C1024.57 155.121 1024.84 155.879 1025.37 156.457C1025.91 157.02 1026.62 157.301 1027.5 157.301C1028.38 157.301 1029.07 157.012 1029.59 156.434C1030.1 155.855 1030.36 155.082 1030.36 154.113V152.379C1030.36 151.441 1030.1 150.684 1029.59 150.105C1029.07 149.527 1028.36 149.238 1027.45 149.238C1026.59 149.238 1025.9 149.527 1025.37 150.105C1024.84 150.668 1024.57 151.457 1024.57 152.473V154.184ZM1036.38 171.574C1036.38 169.465 1037.07 167.77 1038.45 166.488C1039.82 165.191 1041.6 164.543 1043.79 164.543C1046.01 164.543 1047.8 165.184 1049.16 166.465C1050.53 167.73 1051.22 169.48 1051.22 171.715V173.402C1051.22 175.496 1050.55 177.191 1049.2 178.488C1047.86 179.77 1046.07 180.41 1043.84 180.41C1041.59 180.41 1039.78 179.762 1038.42 178.465C1037.06 177.168 1036.38 175.449 1036.38 173.309V171.574ZM1040.88 173.402C1040.88 174.262 1041.16 174.996 1041.73 175.605C1042.29 176.215 1042.99 176.52 1043.84 176.52C1045.74 176.52 1046.7 175.465 1046.7 173.355V171.574C1046.7 170.637 1046.43 169.887 1045.9 169.324C1045.37 168.746 1044.66 168.457 1043.79 168.457C1042.91 168.457 1042.21 168.746 1041.68 169.324C1041.15 169.887 1040.88 170.66 1040.88 171.645V173.402ZM1028.84 177.387L1025.53 175.605L1042.2 148.934L1045.5 150.715L1028.84 177.387Z" fill="url(#paint1_linear)"/>
<path id="Vector_13" d="M944.215 201.695H941.414V207.941H937.898V190.879H944.238C946.254 190.879 947.809 191.328 948.902 192.227C949.996 193.125 950.543 194.395 950.543 196.035C950.543 197.199 950.289 198.172 949.781 198.953C949.281 199.727 948.52 200.344 947.496 200.805L951.188 207.777V207.941H947.414L944.215 201.695ZM941.414 198.848H944.25C945.133 198.848 945.816 198.625 946.301 198.18C946.785 197.727 947.027 197.105 947.027 196.316C947.027 195.512 946.797 194.879 946.336 194.418C945.883 193.957 945.184 193.727 944.238 193.727H941.414V198.848ZM958.84 208.176C956.98 208.176 955.465 207.605 954.293 206.465C953.129 205.324 952.547 203.805 952.547 201.906V201.578C952.547 200.305 952.793 199.168 953.285 198.168C953.777 197.16 954.473 196.387 955.371 195.848C956.277 195.301 957.309 195.027 958.465 195.027C960.199 195.027 961.562 195.574 962.555 196.668C963.555 197.762 964.055 199.312 964.055 201.32V202.703H955.98C956.09 203.531 956.418 204.195 956.965 204.695C957.52 205.195 958.219 205.445 959.062 205.445C960.367 205.445 961.387 204.973 962.121 204.027L963.785 205.891C963.277 206.609 962.59 207.172 961.723 207.578C960.855 207.977 959.895 208.176 958.84 208.176ZM958.453 197.77C957.781 197.77 957.234 197.996 956.812 198.449C956.398 198.902 956.133 199.551 956.016 200.395H960.727V200.125C960.711 199.375 960.508 198.797 960.117 198.391C959.727 197.977 959.172 197.77 958.453 197.77ZM972.855 204.438C972.855 204.023 972.648 203.699 972.234 203.465C971.828 203.223 971.172 203.008 970.266 202.82C967.25 202.188 965.742 200.906 965.742 198.977C965.742 197.852 966.207 196.914 967.137 196.164C968.074 195.406 969.297 195.027 970.805 195.027C972.414 195.027 973.699 195.406 974.66 196.164C975.629 196.922 976.113 197.906 976.113 199.117H972.727C972.727 198.633 972.57 198.234 972.258 197.922C971.945 197.602 971.457 197.441 970.793 197.441C970.223 197.441 969.781 197.57 969.469 197.828C969.156 198.086 969 198.414 969 198.812C969 199.188 969.176 199.492 969.527 199.727C969.887 199.953 970.488 200.152 971.332 200.324C972.176 200.488 972.887 200.676 973.465 200.887C975.254 201.543 976.148 202.68 976.148 204.297C976.148 205.453 975.652 206.391 974.66 207.109C973.668 207.82 972.387 208.176 970.816 208.176C969.754 208.176 968.809 207.988 967.98 207.613C967.16 207.23 966.516 206.711 966.047 206.055C965.578 205.391 965.344 204.676 965.344 203.91H968.555C968.586 204.512 968.809 204.973 969.223 205.293C969.637 205.613 970.191 205.773 970.887 205.773C971.535 205.773 972.023 205.652 972.352 205.41C972.688 205.16 972.855 204.836 972.855 204.438ZM982.395 192.145V195.262H984.562V197.746H982.395V204.074C982.395 204.543 982.484 204.879 982.664 205.082C982.844 205.285 983.188 205.387 983.695 205.387C984.07 205.387 984.402 205.359 984.691 205.305V207.871C984.027 208.074 983.344 208.176 982.641 208.176C980.266 208.176 979.055 206.977 979.008 204.578V197.746H977.156V195.262H979.008V192.145H982.395ZM993.797 207.941C993.641 207.637 993.527 207.258 993.457 206.805C992.637 207.719 991.57 208.176 990.258 208.176C989.016 208.176 987.984 207.816 987.164 207.098C986.352 206.379 985.945 205.473 985.945 204.379C985.945 203.035 986.441 202.004 987.434 201.285C988.434 200.566 989.875 200.203 991.758 200.195H993.316V199.469C993.316 198.883 993.164 198.414 992.859 198.062C992.562 197.711 992.09 197.535 991.441 197.535C990.871 197.535 990.422 197.672 990.094 197.945C989.773 198.219 989.613 198.594 989.613 199.07H986.227C986.227 198.336 986.453 197.656 986.906 197.031C987.359 196.406 988 195.918 988.828 195.566C989.656 195.207 990.586 195.027 991.617 195.027C993.18 195.027 994.418 195.422 995.332 196.211C996.254 196.992 996.715 198.094 996.715 199.516V205.012C996.723 206.215 996.891 207.125 997.219 207.742V207.941H993.797ZM990.996 205.586C991.496 205.586 991.957 205.477 992.379 205.258C992.801 205.031 993.113 204.73 993.316 204.355V202.176H992.051C990.355 202.176 989.453 202.762 989.344 203.934L989.332 204.133C989.332 204.555 989.48 204.902 989.777 205.176C990.074 205.449 990.48 205.586 990.996 205.586ZM1006.91 206.652C1006.07 207.668 1004.92 208.176 1003.44 208.176C1002.08 208.176 1001.04 207.785 1000.32 207.004C999.613 206.223 999.25 205.078 999.234 203.57V195.262H1002.62V203.453C1002.62 204.773 1003.22 205.434 1004.43 205.434C1005.57 205.434 1006.36 205.035 1006.79 204.238V195.262H1010.19V207.941H1007L1006.91 206.652ZM1019.87 198.438C1019.41 198.375 1019 198.344 1018.65 198.344C1017.37 198.344 1016.53 198.777 1016.13 199.645V207.941H1012.75V195.262H1015.95L1016.04 196.773C1016.72 195.609 1017.66 195.027 1018.86 195.027C1019.24 195.027 1019.59 195.078 1019.92 195.18L1019.87 198.438ZM1028.51 207.941C1028.35 207.637 1028.24 207.258 1028.17 206.805C1027.35 207.719 1026.28 208.176 1024.97 208.176C1023.73 208.176 1022.7 207.816 1021.88 207.098C1021.06 206.379 1020.66 205.473 1020.66 204.379C1020.66 203.035 1021.15 202.004 1022.14 201.285C1023.14 200.566 1024.59 200.203 1026.47 200.195H1028.03V199.469C1028.03 198.883 1027.88 198.414 1027.57 198.062C1027.27 197.711 1026.8 197.535 1026.15 197.535C1025.58 197.535 1025.13 197.672 1024.8 197.945C1024.48 198.219 1024.32 198.594 1024.32 199.07H1020.94C1020.94 198.336 1021.16 197.656 1021.62 197.031C1022.07 196.406 1022.71 195.918 1023.54 195.566C1024.37 195.207 1025.3 195.027 1026.33 195.027C1027.89 195.027 1029.13 195.422 1030.04 196.211C1030.96 196.992 1031.43 198.094 1031.43 199.516V205.012C1031.43 206.215 1031.6 207.125 1031.93 207.742V207.941H1028.51ZM1025.71 205.586C1026.21 205.586 1026.67 205.477 1027.09 205.258C1027.51 205.031 1027.82 204.73 1028.03 204.355V202.176H1026.76C1025.07 202.176 1024.16 202.762 1024.05 203.934L1024.04 204.133C1024.04 204.555 1024.19 204.902 1024.49 205.176C1024.79 205.449 1025.19 205.586 1025.71 205.586ZM1037.14 195.262L1037.25 196.727C1038.16 195.594 1039.37 195.027 1040.89 195.027C1042.24 195.027 1043.24 195.422 1043.89 196.211C1044.55 197 1044.89 198.18 1044.9 199.75V207.941H1041.52V199.832C1041.52 199.113 1041.36 198.594 1041.05 198.273C1040.73 197.945 1040.21 197.781 1039.49 197.781C1038.54 197.781 1037.82 198.188 1037.34 199V207.941H1033.96V195.262H1037.14ZM1051.54 192.145V195.262H1053.7V197.746H1051.54V204.074C1051.54 204.543 1051.62 204.879 1051.8 205.082C1051.98 205.285 1052.33 205.387 1052.84 205.387C1053.21 205.387 1053.54 205.359 1053.83 205.305V207.871C1053.17 208.074 1052.48 208.176 1051.78 208.176C1049.41 208.176 1048.2 206.977 1048.15 204.578V197.746H1046.3V195.262H1048.15V192.145H1051.54ZM1061.43 208.176C1059.57 208.176 1058.05 207.605 1056.88 206.465C1055.71 205.324 1055.13 203.805 1055.13 201.906V201.578C1055.13 200.305 1055.38 199.168 1055.87 198.168C1056.36 197.16 1057.06 196.387 1057.96 195.848C1058.86 195.301 1059.89 195.027 1061.05 195.027C1062.79 195.027 1064.15 195.574 1065.14 196.668C1066.14 197.762 1066.64 199.312 1066.64 201.32V202.703H1058.57C1058.68 203.531 1059 204.195 1059.55 204.695C1060.11 205.195 1060.8 205.445 1061.65 205.445C1062.95 205.445 1063.97 204.973 1064.71 204.027L1066.37 205.891C1065.86 206.609 1065.18 207.172 1064.31 207.578C1063.44 207.977 1062.48 208.176 1061.43 208.176ZM1061.04 197.77C1060.37 197.77 1059.82 197.996 1059.4 198.449C1058.98 198.902 1058.72 199.551 1058.6 200.395H1063.31V200.125C1063.3 199.375 1063.09 198.797 1062.7 198.391C1062.31 197.977 1061.76 197.77 1061.04 197.77ZM1075.44 204.438C1075.44 204.023 1075.23 203.699 1074.82 203.465C1074.41 203.223 1073.76 203.008 1072.85 202.82C1069.84 202.188 1068.33 200.906 1068.33 198.977C1068.33 197.852 1068.79 196.914 1069.72 196.164C1070.66 195.406 1071.88 195.027 1073.39 195.027C1075 195.027 1076.29 195.406 1077.25 196.164C1078.21 196.922 1078.7 197.906 1078.7 199.117H1075.31C1075.31 198.633 1075.16 198.234 1074.84 197.922C1074.53 197.602 1074.04 197.441 1073.38 197.441C1072.81 197.441 1072.37 197.57 1072.05 197.828C1071.74 198.086 1071.59 198.414 1071.59 198.812C1071.59 199.188 1071.76 199.492 1072.11 199.727C1072.47 199.953 1073.07 200.152 1073.92 200.324C1074.76 200.488 1075.47 200.676 1076.05 200.887C1077.84 201.543 1078.73 202.68 1078.73 204.297C1078.73 205.453 1078.24 206.391 1077.25 207.109C1076.25 207.82 1074.97 208.176 1073.4 208.176C1072.34 208.176 1071.39 207.988 1070.57 207.613C1069.75 207.23 1069.1 206.711 1068.63 206.055C1068.16 205.391 1067.93 204.676 1067.93 203.91H1071.14C1071.17 204.512 1071.39 204.973 1071.81 205.293C1072.22 205.613 1072.78 205.773 1073.47 205.773C1074.12 205.773 1074.61 205.652 1074.94 205.41C1075.27 205.16 1075.44 204.836 1075.44 204.438Z" fill="#4F4F4F"/>
<path id="Vector_14" d="M543.695 0.748047V6.32617H543.039C539.977 6.37305 537.508 7.16992 535.633 8.7168C533.773 10.2637 532.656 12.4121 532.281 15.1621C534.094 13.3184 536.383 12.3965 539.148 12.3965C542.117 12.3965 544.477 13.459 546.227 15.584C547.977 17.709 548.852 20.5059 548.852 23.9746C548.852 26.1934 548.367 28.2012 547.398 29.998C546.445 31.7949 545.086 33.1934 543.32 34.1934C541.57 35.1934 539.586 35.6934 537.367 35.6934C533.773 35.6934 530.867 34.4434 528.648 31.9434C526.445 29.4434 525.344 26.1074 525.344 21.9355V19.498C525.344 15.7949 526.039 12.5293 527.43 9.70117C528.836 6.85742 530.844 4.66211 533.453 3.11523C536.078 1.55273 539.117 0.763672 542.57 0.748047H543.695ZM537.086 17.834C535.992 17.834 535 18.123 534.109 18.7012C533.219 19.2637 532.562 20.0137 532.141 20.9512V23.0137C532.141 25.2793 532.586 27.0527 533.477 28.334C534.367 29.5996 535.617 30.2324 537.227 30.2324C538.68 30.2324 539.852 29.6621 540.742 28.5215C541.648 27.3652 542.102 25.873 542.102 24.0449C542.102 22.1855 541.648 20.6855 540.742 19.5449C539.836 18.4043 538.617 17.834 537.086 17.834ZM552.789 7.66211C552.789 5.56836 553.469 3.87305 554.828 2.57617C556.188 1.26367 557.969 0.607422 560.172 0.607422C562.406 0.607422 564.203 1.25586 565.562 2.55273C566.922 3.83398 567.602 5.57617 567.602 7.7793V9.4668C567.602 11.5762 566.922 13.2715 565.562 14.5527C564.203 15.834 562.422 16.4746 560.219 16.4746C558 16.4746 556.203 15.834 554.828 14.5527C553.469 13.2559 552.789 11.5137 552.789 9.32617V7.66211ZM557.289 9.4668C557.289 10.4043 557.555 11.1621 558.086 11.7402C558.633 12.3027 559.344 12.584 560.219 12.584C561.094 12.584 561.789 12.2949 562.305 11.7168C562.82 11.1387 563.078 10.3652 563.078 9.39648V7.66211C563.078 6.72461 562.82 5.9668 562.305 5.38867C561.789 4.81055 561.078 4.52148 560.172 4.52148C559.312 4.52148 558.617 4.81055 558.086 5.38867C557.555 5.95117 557.289 6.74023 557.289 7.75586V9.4668ZM569.102 26.8574C569.102 24.748 569.789 23.0527 571.164 21.7715C572.539 20.4746 574.32 19.8262 576.508 19.8262C578.727 19.8262 580.516 20.4668 581.875 21.748C583.25 23.0137 583.938 24.7637 583.938 26.998V28.6855C583.938 30.7793 583.266 32.4746 581.922 33.7715C580.578 35.0527 578.789 35.6934 576.555 35.6934C574.305 35.6934 572.5 35.0449 571.141 33.748C569.781 32.4512 569.102 30.7324 569.102 28.5918V26.8574ZM573.602 28.6855C573.602 29.5449 573.883 30.2793 574.445 30.8887C575.008 31.498 575.711 31.8027 576.555 31.8027C578.461 31.8027 579.414 30.748 579.414 28.6387V26.8574C579.414 25.9199 579.148 25.1699 578.617 24.6074C578.086 24.0293 577.383 23.7402 576.508 23.7402C575.633 23.7402 574.93 24.0293 574.398 24.6074C573.867 25.1699 573.602 25.9434 573.602 26.9277V28.6855ZM561.555 32.6699L558.25 30.8887L574.914 4.2168L578.219 5.99805L561.555 32.6699Z" fill="url(#paint2_linear)"/>
<path id="Vector_15" d="M509.512 49.0098H504.285V63.2246H500.77V49.0098H495.613V46.1621H509.512V49.0098ZM517.656 53.7207C517.195 53.6582 516.789 53.627 516.438 53.627C515.156 53.627 514.316 54.0605 513.918 54.9277V63.2246H510.531V50.5449H513.73L513.824 52.0566C514.504 50.8926 515.445 50.3105 516.648 50.3105C517.023 50.3105 517.375 50.3613 517.703 50.4629L517.656 53.7207ZM526.293 63.2246C526.137 62.9199 526.023 62.541 525.953 62.0879C525.133 63.002 524.066 63.459 522.754 63.459C521.512 63.459 520.48 63.0996 519.66 62.3809C518.848 61.6621 518.441 60.7559 518.441 59.6621C518.441 58.3184 518.938 57.2871 519.93 56.5684C520.93 55.8496 522.371 55.4863 524.254 55.4785H525.812V54.752C525.812 54.166 525.66 53.6973 525.355 53.3457C525.059 52.9941 524.586 52.8184 523.938 52.8184C523.367 52.8184 522.918 52.9551 522.59 53.2285C522.27 53.502 522.109 53.877 522.109 54.3535H518.723C518.723 53.6191 518.949 52.9395 519.402 52.3145C519.855 51.6895 520.496 51.2012 521.324 50.8496C522.152 50.4902 523.082 50.3105 524.113 50.3105C525.676 50.3105 526.914 50.7051 527.828 51.4941C528.75 52.2754 529.211 53.377 529.211 54.7988V60.2949C529.219 61.498 529.387 62.4082 529.715 63.0254V63.2246H526.293ZM523.492 60.8691C523.992 60.8691 524.453 60.7598 524.875 60.541C525.297 60.3145 525.609 60.0137 525.812 59.6387V57.459H524.547C522.852 57.459 521.949 58.0449 521.84 59.2168L521.828 59.416C521.828 59.8379 521.977 60.1855 522.273 60.459C522.57 60.7324 522.977 60.8691 523.492 60.8691ZM534.93 50.5449L535.035 52.0098C535.941 50.877 537.156 50.3105 538.68 50.3105C540.023 50.3105 541.023 50.7051 541.68 51.4941C542.336 52.2832 542.672 53.4629 542.688 55.0332V63.2246H539.301V55.1152C539.301 54.3965 539.145 53.877 538.832 53.5566C538.52 53.2285 538 53.0645 537.273 53.0645C536.32 53.0645 535.605 53.4707 535.129 54.2832V63.2246H531.742V50.5449H534.93ZM552.133 59.7207C552.133 59.3066 551.926 58.9824 551.512 58.748C551.105 58.5059 550.449 58.291 549.543 58.1035C546.527 57.4707 545.02 56.1895 545.02 54.2598C545.02 53.1348 545.484 52.1973 546.414 51.4473C547.352 50.6895 548.574 50.3105 550.082 50.3105C551.691 50.3105 552.977 50.6895 553.938 51.4473C554.906 52.2051 555.391 53.1895 555.391 54.4004H552.004C552.004 53.916 551.848 53.5176 551.535 53.2051C551.223 52.8848 550.734 52.7246 550.07 52.7246C549.5 52.7246 549.059 52.8535 548.746 53.1113C548.434 53.3691 548.277 53.6973 548.277 54.0957C548.277 54.4707 548.453 54.7754 548.805 55.0098C549.164 55.2363 549.766 55.4355 550.609 55.6074C551.453 55.7715 552.164 55.959 552.742 56.1699C554.531 56.8262 555.426 57.9629 555.426 59.5801C555.426 60.7363 554.93 61.6738 553.938 62.3926C552.945 63.1035 551.664 63.459 550.094 63.459C549.031 63.459 548.086 63.2715 547.258 62.8965C546.438 62.5137 545.793 61.9941 545.324 61.3379C544.855 60.6738 544.621 59.959 544.621 59.1934H547.832C547.863 59.7949 548.086 60.2559 548.5 60.5762C548.914 60.8965 549.469 61.0566 550.164 61.0566C550.812 61.0566 551.301 60.9355 551.629 60.6934C551.965 60.4434 552.133 60.1191 552.133 59.7207ZM569.031 57.002C569.031 58.9551 568.586 60.5215 567.695 61.7012C566.812 62.873 565.617 63.459 564.109 63.459C562.828 63.459 561.793 63.0137 561.004 62.123V68.0996H557.617V50.5449H560.758L560.875 51.7871C561.695 50.8027 562.766 50.3105 564.086 50.3105C565.648 50.3105 566.863 50.8887 567.73 52.0449C568.598 53.2012 569.031 54.7949 569.031 56.8262V57.002ZM565.645 56.7559C565.645 55.5762 565.434 54.666 565.012 54.0254C564.598 53.3848 563.992 53.0645 563.195 53.0645C562.133 53.0645 561.402 53.4707 561.004 54.2832V59.4746C561.418 60.3105 562.156 60.7285 563.219 60.7285C564.836 60.7285 565.645 59.4043 565.645 56.7559ZM570.613 56.7676C570.613 55.5098 570.855 54.3887 571.34 53.4043C571.824 52.4199 572.52 51.6582 573.426 51.1191C574.34 50.5801 575.398 50.3105 576.602 50.3105C578.312 50.3105 579.707 50.834 580.785 51.8809C581.871 52.9277 582.477 54.3496 582.602 56.1465L582.625 57.0137C582.625 58.959 582.082 60.5215 580.996 61.7012C579.91 62.873 578.453 63.459 576.625 63.459C574.797 63.459 573.336 62.873 572.242 61.7012C571.156 60.5293 570.613 58.9355 570.613 56.9199V56.7676ZM574 57.0137C574 58.2168 574.227 59.1387 574.68 59.7793C575.133 60.4121 575.781 60.7285 576.625 60.7285C577.445 60.7285 578.086 60.416 578.547 59.791C579.008 59.1582 579.238 58.1504 579.238 56.7676C579.238 55.5879 579.008 54.6738 578.547 54.0254C578.086 53.377 577.438 53.0527 576.602 53.0527C575.773 53.0527 575.133 53.377 574.68 54.0254C574.227 54.666 574 55.6621 574 57.0137ZM591.836 53.7207C591.375 53.6582 590.969 53.627 590.617 53.627C589.336 53.627 588.496 54.0605 588.098 54.9277V63.2246H584.711V50.5449H587.91L588.004 52.0566C588.684 50.8926 589.625 50.3105 590.828 50.3105C591.203 50.3105 591.555 50.3613 591.883 50.4629L591.836 53.7207ZM598.117 47.4277V50.5449H600.285V53.0293H598.117V59.3574C598.117 59.8262 598.207 60.1621 598.387 60.3652C598.566 60.5684 598.91 60.6699 599.418 60.6699C599.793 60.6699 600.125 60.6426 600.414 60.5879V63.1543C599.75 63.3574 599.066 63.459 598.363 63.459C595.988 63.459 594.777 62.2598 594.73 59.8613V53.0293H592.879V50.5449H594.73V47.4277H598.117ZM608.008 63.459C606.148 63.459 604.633 62.8887 603.461 61.748C602.297 60.6074 601.715 59.0879 601.715 57.1895V56.8613C601.715 55.5879 601.961 54.4512 602.453 53.4512C602.945 52.4434 603.641 51.6699 604.539 51.1309C605.445 50.584 606.477 50.3105 607.633 50.3105C609.367 50.3105 610.73 50.8574 611.723 51.9512C612.723 53.0449 613.223 54.5957 613.223 56.6035V57.9863H605.148C605.258 58.8145 605.586 59.4785 606.133 59.9785C606.688 60.4785 607.387 60.7285 608.23 60.7285C609.535 60.7285 610.555 60.2559 611.289 59.3105L612.953 61.1738C612.445 61.8926 611.758 62.4551 610.891 62.8613C610.023 63.2598 609.062 63.459 608.008 63.459ZM607.621 53.0527C606.949 53.0527 606.402 53.2793 605.98 53.7324C605.566 54.1855 605.301 54.834 605.184 55.6777H609.895V55.4082C609.879 54.6582 609.676 54.0801 609.285 53.6738C608.895 53.2598 608.34 53.0527 607.621 53.0527Z" fill="#4F4F4F"/>
<path id="Vector_16" d="M388.711 53.1895H365.32V48.5488L376.359 36.7832C377.875 35.127 378.992 33.6816 379.711 32.4473C380.445 31.2129 380.812 30.041 380.812 28.9316C380.812 27.416 380.43 26.2285 379.664 25.3691C378.898 24.4941 377.805 24.0566 376.383 24.0566C374.852 24.0566 373.641 24.5879 372.75 25.6504C371.875 26.6973 371.438 28.0801 371.438 29.7988H364.641C364.641 27.7207 365.133 25.8223 366.117 24.1035C367.117 22.3848 368.523 21.041 370.336 20.0723C372.148 19.0879 374.203 18.5957 376.5 18.5957C380.016 18.5957 382.742 19.4395 384.68 21.127C386.633 22.8145 387.609 25.1973 387.609 28.2754C387.609 29.9629 387.172 31.6816 386.297 33.4316C385.422 35.1816 383.922 37.2207 381.797 39.5488L374.039 47.7285H388.711V53.1895ZM392.789 25.627C392.789 23.5332 393.469 21.8379 394.828 20.541C396.188 19.2285 397.969 18.5723 400.172 18.5723C402.406 18.5723 404.203 19.2207 405.562 20.5176C406.922 21.7988 407.602 23.541 407.602 25.7441V27.4316C407.602 29.541 406.922 31.2363 405.562 32.5176C404.203 33.7988 402.422 34.4395 400.219 34.4395C398 34.4395 396.203 33.7988 394.828 32.5176C393.469 31.2207 392.789 29.4785 392.789 27.291V25.627ZM397.289 27.4316C397.289 28.3691 397.555 29.127 398.086 29.7051C398.633 30.2676 399.344 30.5488 400.219 30.5488C401.094 30.5488 401.789 30.2598 402.305 29.6816C402.82 29.1035 403.078 28.3301 403.078 27.3613V25.627C403.078 24.6895 402.82 23.9316 402.305 23.3535C401.789 22.7754 401.078 22.4863 400.172 22.4863C399.312 22.4863 398.617 22.7754 398.086 23.3535C397.555 23.916 397.289 24.7051 397.289 25.7207V27.4316ZM409.102 44.8223C409.102 42.7129 409.789 41.0176 411.164 39.7363C412.539 38.4395 414.32 37.791 416.508 37.791C418.727 37.791 420.516 38.4316 421.875 39.7129C423.25 40.9785 423.938 42.7285 423.938 44.9629V46.6504C423.938 48.7441 423.266 50.4395 421.922 51.7363C420.578 53.0176 418.789 53.6582 416.555 53.6582C414.305 53.6582 412.5 53.0098 411.141 51.7129C409.781 50.416 409.102 48.6973 409.102 46.5566V44.8223ZM413.602 46.6504C413.602 47.5098 413.883 48.2441 414.445 48.8535C415.008 49.4629 415.711 49.7676 416.555 49.7676C418.461 49.7676 419.414 48.7129 419.414 46.6035V44.8223C419.414 43.8848 419.148 43.1348 418.617 42.5723C418.086 41.9941 417.383 41.7051 416.508 41.7051C415.633 41.7051 414.93 41.9941 414.398 42.5723C413.867 43.1348 413.602 43.9082 413.602 44.8926V46.6504ZM401.555 50.6348L398.25 48.8535L414.914 22.1816L418.219 23.9629L401.555 50.6348Z" fill="url(#paint3_linear)"/>
<path id="Vector_17" d="M332.109 75.5059C331.977 77.3418 331.297 78.7871 330.07 79.8418C328.852 80.8965 327.242 81.4238 325.242 81.4238C323.055 81.4238 321.332 80.6895 320.074 79.2207C318.824 77.7441 318.199 75.7207 318.199 73.1504V72.1074C318.199 70.4668 318.488 69.0215 319.066 67.7715C319.645 66.5215 320.469 65.5645 321.539 64.9004C322.617 64.2285 323.867 63.8926 325.289 63.8926C327.258 63.8926 328.844 64.4199 330.047 65.4746C331.25 66.5293 331.945 68.0098 332.133 69.916H328.617C328.531 68.8145 328.223 68.0176 327.691 67.5254C327.168 67.0254 326.367 66.7754 325.289 66.7754C324.117 66.7754 323.238 67.1973 322.652 68.041C322.074 68.877 321.777 70.1777 321.762 71.9434V73.2324C321.762 75.0762 322.039 76.4238 322.594 77.2754C323.156 78.127 324.039 78.5527 325.242 78.5527C326.328 78.5527 327.137 78.3066 327.668 77.8145C328.207 77.3145 328.516 76.5449 328.594 75.5059H332.109ZM333.668 74.7324C333.668 73.4746 333.91 72.3535 334.395 71.3691C334.879 70.3848 335.574 69.623 336.48 69.084C337.395 68.5449 338.453 68.2754 339.656 68.2754C341.367 68.2754 342.762 68.7988 343.84 69.8457C344.926 70.8926 345.531 72.3145 345.656 74.1113L345.68 74.9785C345.68 76.9238 345.137 78.4863 344.051 79.666C342.965 80.8379 341.508 81.4238 339.68 81.4238C337.852 81.4238 336.391 80.8379 335.297 79.666C334.211 78.4941 333.668 76.9004 333.668 74.8848V74.7324ZM337.055 74.9785C337.055 76.1816 337.281 77.1035 337.734 77.7441C338.188 78.377 338.836 78.6934 339.68 78.6934C340.5 78.6934 341.141 78.3809 341.602 77.7559C342.062 77.123 342.293 76.1152 342.293 74.7324C342.293 73.5527 342.062 72.6387 341.602 71.9902C341.141 71.3418 340.492 71.0176 339.656 71.0176C338.828 71.0176 338.188 71.3418 337.734 71.9902C337.281 72.6309 337.055 73.627 337.055 74.9785ZM350.941 68.5098L351.047 69.9277C351.945 68.8262 353.16 68.2754 354.691 68.2754C356.324 68.2754 357.445 68.9199 358.055 70.209C358.945 68.9199 360.215 68.2754 361.863 68.2754C363.238 68.2754 364.262 68.6777 364.934 69.4824C365.605 70.2793 365.941 71.4824 365.941 73.0918V81.1895H362.543V73.1035C362.543 72.3848 362.402 71.8613 362.121 71.5332C361.84 71.1973 361.344 71.0293 360.633 71.0293C359.617 71.0293 358.914 71.5137 358.523 72.4824L358.535 81.1895H355.148V73.1152C355.148 72.3809 355.004 71.8496 354.715 71.5215C354.426 71.1934 353.934 71.0293 353.238 71.0293C352.277 71.0293 351.582 71.4277 351.152 72.2246V81.1895H347.766V68.5098H350.941ZM376.148 79.9004C375.312 80.916 374.156 81.4238 372.68 81.4238C371.32 81.4238 370.281 81.0332 369.562 80.252C368.852 79.4707 368.488 78.3262 368.473 76.8184V68.5098H371.859V76.7012C371.859 78.0215 372.461 78.6816 373.664 78.6816C374.812 78.6816 375.602 78.2832 376.031 77.4863V68.5098H379.43V81.1895H376.242L376.148 79.9004ZM385.102 68.5098L385.207 69.9746C386.113 68.8418 387.328 68.2754 388.852 68.2754C390.195 68.2754 391.195 68.6699 391.852 69.459C392.508 70.248 392.844 71.4277 392.859 72.998V81.1895H389.473V73.0801C389.473 72.3613 389.316 71.8418 389.004 71.5215C388.691 71.1934 388.172 71.0293 387.445 71.0293C386.492 71.0293 385.777 71.4355 385.301 72.248V81.1895H381.914V68.5098H385.102ZM399.012 81.1895H395.613V68.5098H399.012V81.1895ZM395.414 65.2285C395.414 64.7207 395.582 64.3027 395.918 63.9746C396.262 63.6465 396.727 63.4824 397.312 63.4824C397.891 63.4824 398.352 63.6465 398.695 63.9746C399.039 64.3027 399.211 64.7207 399.211 65.2285C399.211 65.7441 399.035 66.166 398.684 66.4941C398.34 66.8223 397.883 66.9863 397.312 66.9863C396.742 66.9863 396.281 66.8223 395.93 66.4941C395.586 66.166 395.414 65.7441 395.414 65.2285ZM407.086 78.6934C407.711 78.6934 408.219 78.5215 408.609 78.1777C409 77.834 409.203 77.377 409.219 76.8066H412.395C412.387 77.666 412.152 78.4551 411.691 79.1738C411.23 79.8848 410.598 80.4395 409.793 80.8379C408.996 81.2285 408.113 81.4238 407.145 81.4238C405.332 81.4238 403.902 80.8496 402.855 79.7012C401.809 78.5449 401.285 76.9512 401.285 74.9199V74.6973C401.285 72.7441 401.805 71.1855 402.844 70.0215C403.883 68.8574 405.309 68.2754 407.121 68.2754C408.707 68.2754 409.977 68.7285 410.93 69.6348C411.891 70.5332 412.379 71.7324 412.395 73.2324H409.219C409.203 72.5762 409 72.0449 408.609 71.6387C408.219 71.2246 407.703 71.0176 407.062 71.0176C406.273 71.0176 405.676 71.3066 405.27 71.8848C404.871 72.4551 404.672 73.3848 404.672 74.6738V75.0254C404.672 76.3301 404.871 77.2676 405.27 77.8379C405.668 78.4082 406.273 78.6934 407.086 78.6934ZM421.676 81.1895C421.52 80.8848 421.406 80.5059 421.336 80.0527C420.516 80.9668 419.449 81.4238 418.137 81.4238C416.895 81.4238 415.863 81.0645 415.043 80.3457C414.23 79.627 413.824 78.7207 413.824 77.627C413.824 76.2832 414.32 75.252 415.312 74.5332C416.312 73.8145 417.754 73.4512 419.637 73.4434H421.195V72.7168C421.195 72.1309 421.043 71.6621 420.738 71.3105C420.441 70.959 419.969 70.7832 419.32 70.7832C418.75 70.7832 418.301 70.9199 417.973 71.1934C417.652 71.4668 417.492 71.8418 417.492 72.3184H414.105C414.105 71.584 414.332 70.9043 414.785 70.2793C415.238 69.6543 415.879 69.166 416.707 68.8145C417.535 68.4551 418.465 68.2754 419.496 68.2754C421.059 68.2754 422.297 68.6699 423.211 69.459C424.133 70.2402 424.594 71.3418 424.594 72.7637V78.2598C424.602 79.4629 424.77 80.373 425.098 80.9902V81.1895H421.676ZM418.875 78.834C419.375 78.834 419.836 78.7246 420.258 78.5059C420.68 78.2793 420.992 77.9785 421.195 77.6035V75.4238H419.93C418.234 75.4238 417.332 76.0098 417.223 77.1816L417.211 77.3809C417.211 77.8027 417.359 78.1504 417.656 78.4238C417.953 78.6973 418.359 78.834 418.875 78.834ZM432.469 78.6934C433.094 78.6934 433.602 78.5215 433.992 78.1777C434.383 77.834 434.586 77.377 434.602 76.8066H437.777C437.77 77.666 437.535 78.4551 437.074 79.1738C436.613 79.8848 435.98 80.4395 435.176 80.8379C434.379 81.2285 433.496 81.4238 432.527 81.4238C430.715 81.4238 429.285 80.8496 428.238 79.7012C427.191 78.5449 426.668 76.9512 426.668 74.9199V74.6973C426.668 72.7441 427.188 71.1855 428.227 70.0215C429.266 68.8574 430.691 68.2754 432.504 68.2754C434.09 68.2754 435.359 68.7285 436.312 69.6348C437.273 70.5332 437.762 71.7324 437.777 73.2324H434.602C434.586 72.5762 434.383 72.0449 433.992 71.6387C433.602 71.2246 433.086 71.0176 432.445 71.0176C431.656 71.0176 431.059 71.3066 430.652 71.8848C430.254 72.4551 430.055 73.3848 430.055 74.6738V75.0254C430.055 76.3301 430.254 77.2676 430.652 77.8379C431.051 78.4082 431.656 78.6934 432.469 78.6934ZM443.285 81.1895H439.887V68.5098H443.285V81.1895ZM439.688 65.2285C439.688 64.7207 439.855 64.3027 440.191 63.9746C440.535 63.6465 441 63.4824 441.586 63.4824C442.164 63.4824 442.625 63.6465 442.969 63.9746C443.312 64.3027 443.484 64.7207 443.484 65.2285C443.484 65.7441 443.309 66.166 442.957 66.4941C442.613 66.8223 442.156 66.9863 441.586 66.9863C441.016 66.9863 440.555 66.8223 440.203 66.4941C439.859 66.166 439.688 65.7441 439.688 65.2285ZM445.559 74.7324C445.559 73.4746 445.801 72.3535 446.285 71.3691C446.77 70.3848 447.465 69.623 448.371 69.084C449.285 68.5449 450.344 68.2754 451.547 68.2754C453.258 68.2754 454.652 68.7988 455.73 69.8457C456.816 70.8926 457.422 72.3145 457.547 74.1113L457.57 74.9785C457.57 76.9238 457.027 78.4863 455.941 79.666C454.855 80.8379 453.398 81.4238 451.57 81.4238C449.742 81.4238 448.281 80.8379 447.188 79.666C446.102 78.4941 445.559 76.9004 445.559 74.8848V74.7324ZM448.945 74.9785C448.945 76.1816 449.172 77.1035 449.625 77.7441C450.078 78.377 450.727 78.6934 451.57 78.6934C452.391 78.6934 453.031 78.3809 453.492 77.7559C453.953 77.123 454.184 76.1152 454.184 74.7324C454.184 73.5527 453.953 72.6387 453.492 71.9902C453.031 71.3418 452.383 71.0176 451.547 71.0176C450.719 71.0176 450.078 71.3418 449.625 71.9902C449.172 72.6309 448.945 73.627 448.945 74.9785ZM452.215 63.1895H455.906L452.66 66.8223H449.906L452.215 63.1895ZM462.773 68.5098L462.879 69.9746C463.785 68.8418 465 68.2754 466.523 68.2754C467.867 68.2754 468.867 68.6699 469.523 69.459C470.18 70.248 470.516 71.4277 470.531 72.998V81.1895H467.145V73.0801C467.145 72.3613 466.988 71.8418 466.676 71.5215C466.363 71.1934 465.844 71.0293 465.117 71.0293C464.164 71.0293 463.449 71.4355 462.973 72.248V81.1895H459.586V68.5098H462.773Z" fill="#4F4F4F"/>
<path id="Vector_18" d="M200.664 105.42C198.898 107.154 196.836 108.021 194.477 108.021C191.461 108.021 189.047 106.99 187.234 104.928C185.422 102.85 184.516 100.053 184.516 96.5371C184.516 94.3027 185 92.2559 185.969 90.3965C186.953 88.5215 188.32 87.0684 190.07 86.0371C191.82 84.9902 193.789 84.4668 195.977 84.4668C198.227 84.4668 200.227 85.0293 201.977 86.1543C203.727 87.2793 205.086 88.8965 206.055 91.0059C207.023 93.1152 207.516 95.5293 207.531 98.248V100.756C207.531 106.443 206.117 110.912 203.289 114.162C200.461 117.412 196.453 119.146 191.266 119.365L189.602 119.389V113.74L191.102 113.717C196.992 113.451 200.18 110.686 200.664 105.42ZM196.141 102.842C197.234 102.842 198.172 102.561 198.953 101.998C199.75 101.436 200.352 100.756 200.758 99.959V97.1699C200.758 94.873 200.32 93.0918 199.445 91.8262C198.57 90.5605 197.398 89.9277 195.93 89.9277C194.57 89.9277 193.453 90.5527 192.578 91.8027C191.703 93.0371 191.266 94.5918 191.266 96.4668C191.266 98.3262 191.688 99.8574 192.531 101.061C193.391 102.248 194.594 102.842 196.141 102.842ZM212.289 91.498C212.289 89.4043 212.969 87.709 214.328 86.4121C215.688 85.0996 217.469 84.4434 219.672 84.4434C221.906 84.4434 223.703 85.0918 225.062 86.3887C226.422 87.6699 227.102 89.4121 227.102 91.6152V93.3027C227.102 95.4121 226.422 97.1074 225.062 98.3887C223.703 99.6699 221.922 100.311 219.719 100.311C217.5 100.311 215.703 99.6699 214.328 98.3887C212.969 97.0918 212.289 95.3496 212.289 93.1621V91.498ZM216.789 93.3027C216.789 94.2402 217.055 94.998 217.586 95.5762C218.133 96.1387 218.844 96.4199 219.719 96.4199C220.594 96.4199 221.289 96.1309 221.805 95.5527C222.32 94.9746 222.578 94.2012 222.578 93.2324V91.498C222.578 90.5605 222.32 89.8027 221.805 89.2246C221.289 88.6465 220.578 88.3574 219.672 88.3574C218.812 88.3574 218.117 88.6465 217.586 89.2246C217.055 89.7871 216.789 90.5762 216.789 91.5918V93.3027ZM228.602 110.693C228.602 108.584 229.289 106.889 230.664 105.607C232.039 104.311 233.82 103.662 236.008 103.662C238.227 103.662 240.016 104.303 241.375 105.584C242.75 106.85 243.438 108.6 243.438 110.834V112.521C243.438 114.615 242.766 116.311 241.422 117.607C240.078 118.889 238.289 119.529 236.055 119.529C233.805 119.529 232 118.881 230.641 117.584C229.281 116.287 228.602 114.568 228.602 112.428V110.693ZM233.102 112.521C233.102 113.381 233.383 114.115 233.945 114.725C234.508 115.334 235.211 115.639 236.055 115.639C237.961 115.639 238.914 114.584 238.914 112.475V110.693C238.914 109.756 238.648 109.006 238.117 108.443C237.586 107.865 236.883 107.576 236.008 107.576C235.133 107.576 234.43 107.865 233.898 108.443C233.367 109.006 233.102 109.779 233.102 110.764V112.521ZM221.055 116.506L217.75 114.725L234.414 88.0527L237.719 89.834L221.055 116.506Z" fill="url(#paint4_linear)"/>
<path id="Vector_19" d="M161.734 138.916C161.734 140.596 161.438 142.068 160.844 143.334C160.25 144.6 159.398 145.576 158.289 146.264C157.188 146.951 155.922 147.295 154.492 147.295C153.078 147.295 151.816 146.955 150.707 146.275C149.598 145.596 148.738 144.627 148.129 143.369C147.52 142.104 147.211 140.65 147.203 139.01V138.166C147.203 136.486 147.504 135.01 148.105 133.736C148.715 132.455 149.57 131.475 150.672 130.795C151.781 130.107 153.047 129.764 154.469 129.764C155.891 129.764 157.152 130.107 158.254 130.795C159.363 131.475 160.219 132.455 160.82 133.736C161.43 135.01 161.734 136.482 161.734 138.154V138.916ZM158.172 138.143C158.172 136.354 157.852 134.994 157.211 134.064C156.57 133.135 155.656 132.67 154.469 132.67C153.289 132.67 152.379 133.131 151.738 134.053C151.098 134.967 150.773 136.311 150.766 138.084V138.916C150.766 140.658 151.086 142.01 151.727 142.971C152.367 143.932 153.289 144.412 154.492 144.412C155.672 144.412 156.578 143.951 157.211 143.029C157.844 142.1 158.164 140.748 158.172 138.975V138.143ZM175.48 140.838C175.48 142.791 175.035 144.357 174.145 145.537C173.262 146.709 172.066 147.295 170.559 147.295C169.277 147.295 168.242 146.85 167.453 145.959V151.936H164.066V134.381H167.207L167.324 135.623C168.145 134.639 169.215 134.146 170.535 134.146C172.098 134.146 173.312 134.725 174.18 135.881C175.047 137.037 175.48 138.631 175.48 140.662V140.838ZM172.094 140.592C172.094 139.412 171.883 138.502 171.461 137.861C171.047 137.221 170.441 136.9 169.645 136.9C168.582 136.9 167.852 137.307 167.453 138.119V143.311C167.867 144.146 168.605 144.564 169.668 144.564C171.285 144.564 172.094 143.24 172.094 140.592ZM183.426 147.295C181.566 147.295 180.051 146.725 178.879 145.584C177.715 144.443 177.133 142.924 177.133 141.025V140.697C177.133 139.424 177.379 138.287 177.871 137.287C178.363 136.279 179.059 135.506 179.957 134.967C180.863 134.42 181.895 134.146 183.051 134.146C184.785 134.146 186.148 134.693 187.141 135.787C188.141 136.881 188.641 138.432 188.641 140.439V141.822H180.566C180.676 142.65 181.004 143.314 181.551 143.814C182.105 144.314 182.805 144.564 183.648 144.564C184.953 144.564 185.973 144.092 186.707 143.146L188.371 145.01C187.863 145.729 187.176 146.291 186.309 146.697C185.441 147.096 184.48 147.295 183.426 147.295ZM183.039 136.889C182.367 136.889 181.82 137.115 181.398 137.568C180.984 138.021 180.719 138.67 180.602 139.514H185.312V139.244C185.297 138.494 185.094 137.916 184.703 137.51C184.312 137.096 183.758 136.889 183.039 136.889ZM197.699 137.557C197.238 137.494 196.832 137.463 196.48 137.463C195.199 137.463 194.359 137.896 193.961 138.764V147.061H190.574V134.381H193.773L193.867 135.893C194.547 134.729 195.488 134.146 196.691 134.146C197.066 134.146 197.418 134.197 197.746 134.299L197.699 137.557ZM206.336 147.061C206.18 146.756 206.066 146.377 205.996 145.924C205.176 146.838 204.109 147.295 202.797 147.295C201.555 147.295 200.523 146.936 199.703 146.217C198.891 145.498 198.484 144.592 198.484 143.498C198.484 142.154 198.98 141.123 199.973 140.404C200.973 139.686 202.414 139.322 204.297 139.314H205.855V138.588C205.855 138.002 205.703 137.533 205.398 137.182C205.102 136.83 204.629 136.654 203.98 136.654C203.41 136.654 202.961 136.791 202.633 137.064C202.312 137.338 202.152 137.713 202.152 138.189H198.766C198.766 137.455 198.992 136.775 199.445 136.15C199.898 135.525 200.539 135.037 201.367 134.686C202.195 134.326 203.125 134.146 204.156 134.146C205.719 134.146 206.957 134.541 207.871 135.33C208.793 136.111 209.254 137.213 209.254 138.635V144.131C209.262 145.334 209.43 146.244 209.758 146.861V147.061H206.336ZM203.535 144.705C204.035 144.705 204.496 144.596 204.918 144.377C205.34 144.15 205.652 143.85 205.855 143.475V141.295H204.59C202.895 141.295 201.992 141.881 201.883 143.053L201.871 143.252C201.871 143.674 202.02 144.021 202.316 144.295C202.613 144.568 203.02 144.705 203.535 144.705ZM217.129 144.564C217.754 144.564 218.262 144.393 218.652 144.049C219.043 143.705 219.246 143.248 219.262 142.678H222.438C222.43 143.537 222.195 144.326 221.734 145.045C221.273 145.756 220.641 146.311 219.836 146.709C219.039 147.1 218.156 147.295 217.188 147.295C215.375 147.295 213.945 146.721 212.898 145.572C211.852 144.416 211.328 142.822 211.328 140.791V140.568C211.328 138.615 211.848 137.057 212.887 135.893C213.926 134.729 215.352 134.146 217.164 134.146C218.75 134.146 220.02 134.6 220.973 135.506C221.934 136.404 222.422 137.604 222.438 139.104H219.262C219.246 138.447 219.043 137.916 218.652 137.51C218.262 137.096 217.746 136.889 217.105 136.889C216.316 136.889 215.719 137.178 215.312 137.756C214.914 138.326 214.715 139.256 214.715 140.545V140.896C214.715 142.201 214.914 143.139 215.312 143.709C215.711 144.279 216.316 144.564 217.129 144.564ZM227.945 147.061H224.547V134.381H227.945V147.061ZM224.348 131.1C224.348 130.592 224.516 130.174 224.852 129.846C225.195 129.518 225.66 129.354 226.246 129.354C226.824 129.354 227.285 129.518 227.629 129.846C227.973 130.174 228.145 130.592 228.145 131.1C228.145 131.615 227.969 132.037 227.617 132.365C227.273 132.693 226.816 132.857 226.246 132.857C225.676 132.857 225.215 132.693 224.863 132.365C224.52 132.037 224.348 131.615 224.348 131.1ZM230.219 140.604C230.219 139.346 230.461 138.225 230.945 137.24C231.43 136.256 232.125 135.494 233.031 134.955C233.945 134.416 235.004 134.146 236.207 134.146C237.918 134.146 239.312 134.67 240.391 135.717C241.477 136.764 242.082 138.186 242.207 139.982L242.23 140.85C242.23 142.795 241.688 144.357 240.602 145.537C239.516 146.709 238.059 147.295 236.23 147.295C234.402 147.295 232.941 146.709 231.848 145.537C230.762 144.365 230.219 142.771 230.219 140.756V140.604ZM233.605 140.85C233.605 142.053 233.832 142.975 234.285 143.615C234.738 144.248 235.387 144.564 236.23 144.564C237.051 144.564 237.691 144.252 238.152 143.627C238.613 142.994 238.844 141.986 238.844 140.604C238.844 139.424 238.613 138.51 238.152 137.861C237.691 137.213 237.043 136.889 236.207 136.889C235.379 136.889 234.738 137.213 234.285 137.861C233.832 138.502 233.605 139.498 233.605 140.85ZM247.434 134.381L247.539 135.846C248.445 134.713 249.66 134.146 251.184 134.146C252.527 134.146 253.527 134.541 254.184 135.33C254.84 136.119 255.176 137.299 255.191 138.869V147.061H251.805V138.951C251.805 138.232 251.648 137.713 251.336 137.393C251.023 137.064 250.504 136.9 249.777 136.9C248.824 136.9 248.109 137.307 247.633 138.119V147.061H244.246V134.381H247.434ZM263.605 147.295C261.746 147.295 260.23 146.725 259.059 145.584C257.895 144.443 257.312 142.924 257.312 141.025V140.697C257.312 139.424 257.559 138.287 258.051 137.287C258.543 136.279 259.238 135.506 260.137 134.967C261.043 134.42 262.074 134.146 263.23 134.146C264.965 134.146 266.328 134.693 267.32 135.787C268.32 136.881 268.82 138.432 268.82 140.439V141.822H260.746C260.855 142.65 261.184 143.314 261.73 143.814C262.285 144.314 262.984 144.564 263.828 144.564C265.133 144.564 266.152 144.092 266.887 143.146L268.551 145.01C268.043 145.729 267.355 146.291 266.488 146.697C265.621 147.096 264.66 147.295 263.605 147.295ZM263.219 136.889C262.547 136.889 262 137.115 261.578 137.568C261.164 138.021 260.898 138.67 260.781 139.514H265.492V139.244C265.477 138.494 265.273 137.916 264.883 137.51C264.492 137.096 263.938 136.889 263.219 136.889ZM277.621 143.557C277.621 143.143 277.414 142.818 277 142.584C276.594 142.342 275.938 142.127 275.031 141.939C272.016 141.307 270.508 140.025 270.508 138.096C270.508 136.971 270.973 136.033 271.902 135.283C272.84 134.525 274.062 134.146 275.57 134.146C277.18 134.146 278.465 134.525 279.426 135.283C280.395 136.041 280.879 137.025 280.879 138.236H277.492C277.492 137.752 277.336 137.354 277.023 137.041C276.711 136.721 276.223 136.561 275.559 136.561C274.988 136.561 274.547 136.689 274.234 136.947C273.922 137.205 273.766 137.533 273.766 137.932C273.766 138.307 273.941 138.611 274.293 138.846C274.652 139.072 275.254 139.271 276.098 139.443C276.941 139.607 277.652 139.795 278.23 140.006C280.02 140.662 280.914 141.799 280.914 143.416C280.914 144.572 280.418 145.51 279.426 146.229C278.434 146.939 277.152 147.295 275.582 147.295C274.52 147.295 273.574 147.107 272.746 146.732C271.926 146.35 271.281 145.83 270.812 145.174C270.344 144.51 270.109 143.795 270.109 143.029H273.32C273.352 143.631 273.574 144.092 273.988 144.412C274.402 144.732 274.957 144.893 275.652 144.893C276.301 144.893 276.789 144.771 277.117 144.529C277.453 144.279 277.621 143.955 277.621 143.557Z" fill="#4F4F4F"/>
<path id="Vector_20" d="M55.9922 262.779H49.2188V236.67L41.1328 239.178V233.67L55.2656 228.607H55.9922V262.779ZM89.3438 237.725C89.3438 239.381 88.9297 240.85 88.1016 242.131C87.2734 243.412 86.1328 244.436 84.6797 245.201C86.3359 245.998 87.6484 247.1 88.6172 248.506C89.5859 249.896 90.0703 251.537 90.0703 253.428C90.0703 256.459 89.0391 258.857 86.9766 260.623C84.9141 262.373 82.1094 263.248 78.5625 263.248C75.0156 263.248 72.2031 262.365 70.125 260.6C68.0469 258.834 67.0078 256.443 67.0078 253.428C67.0078 251.537 67.4922 249.889 68.4609 248.482C69.4297 247.076 70.7344 245.982 72.375 245.201C70.9219 244.436 69.7812 243.412 68.9531 242.131C68.1406 240.85 67.7344 239.381 67.7344 237.725C67.7344 234.818 68.7031 232.506 70.6406 230.787C72.5781 229.053 75.2109 228.186 78.5391 228.186C81.8516 228.186 84.4766 229.045 86.4141 230.764C88.3672 232.467 89.3438 234.787 89.3438 237.725ZM83.2734 252.936C83.2734 251.451 82.8438 250.264 81.9844 249.373C81.125 248.482 79.9688 248.037 78.5156 248.037C77.0781 248.037 75.9297 248.482 75.0703 249.373C74.2109 250.248 73.7812 251.436 73.7812 252.936C73.7812 254.389 74.2031 255.561 75.0469 256.451C75.8906 257.342 77.0625 257.787 78.5625 257.787C80.0312 257.787 81.1797 257.357 82.0078 256.498C82.8516 255.639 83.2734 254.451 83.2734 252.936ZM82.5703 238.053C82.5703 236.725 82.2188 235.662 81.5156 234.865C80.8125 234.053 79.8203 233.646 78.5391 233.646C77.2734 233.646 76.2891 234.037 75.5859 234.818C74.8828 235.6 74.5312 236.678 74.5312 238.053C74.5312 239.412 74.8828 240.506 75.5859 241.334C76.2891 242.162 77.2812 242.576 78.5625 242.576C79.8438 242.576 80.8281 242.162 81.5156 241.334C82.2188 240.506 82.5703 239.412 82.5703 238.053ZM94.5703 235.217C94.5703 233.123 95.25 231.428 96.6094 230.131C97.9688 228.818 99.75 228.162 101.953 228.162C104.188 228.162 105.984 228.811 107.344 230.107C108.703 231.389 109.383 233.131 109.383 235.334V237.021C109.383 239.131 108.703 240.826 107.344 242.107C105.984 243.389 104.203 244.029 102 244.029C99.7812 244.029 97.9844 243.389 96.6094 242.107C95.25 240.811 94.5703 239.068 94.5703 236.881V235.217ZM99.0703 237.021C99.0703 237.959 99.3359 238.717 99.8672 239.295C100.414 239.857 101.125 240.139 102 240.139C102.875 240.139 103.57 239.85 104.086 239.271C104.602 238.693 104.859 237.92 104.859 236.951V235.217C104.859 234.279 104.602 233.521 104.086 232.943C103.57 232.365 102.859 232.076 101.953 232.076C101.094 232.076 100.398 232.365 99.8672 232.943C99.3359 233.506 99.0703 234.295 99.0703 235.311V237.021ZM110.883 254.412C110.883 252.303 111.57 250.607 112.945 249.326C114.32 248.029 116.102 247.381 118.289 247.381C120.508 247.381 122.297 248.021 123.656 249.303C125.031 250.568 125.719 252.318 125.719 254.553V256.24C125.719 258.334 125.047 260.029 123.703 261.326C122.359 262.607 120.57 263.248 118.336 263.248C116.086 263.248 114.281 262.6 112.922 261.303C111.562 260.006 110.883 258.287 110.883 256.146V254.412ZM115.383 256.24C115.383 257.1 115.664 257.834 116.227 258.443C116.789 259.053 117.492 259.357 118.336 259.357C120.242 259.357 121.195 258.303 121.195 256.193V254.412C121.195 253.475 120.93 252.725 120.398 252.162C119.867 251.584 119.164 251.295 118.289 251.295C117.414 251.295 116.711 251.584 116.18 252.162C115.648 252.725 115.383 253.498 115.383 254.482V256.24ZM103.336 260.225L100.031 258.443L116.695 231.771L120 233.553L103.336 260.225Z" fill="url(#paint5_linear)"/>
<path id="Vector_21" d="M11.4961 287.264H5.33203L4.16016 290.779H0.421875L6.77344 273.717H10.0312L16.418 290.779H12.6797L11.4961 287.264ZM6.28125 284.416H10.5469L8.40234 278.029L6.28125 284.416ZM17.2617 284.346C17.2617 282.369 17.7031 280.795 18.5859 279.623C19.4766 278.451 20.6914 277.865 22.2305 277.865C23.4648 277.865 24.4844 278.326 25.2891 279.248V272.779H28.6875V290.779H25.6289L25.4648 289.432C24.6211 290.486 23.5352 291.014 22.207 291.014C20.7148 291.014 19.5156 290.428 18.6094 289.256C17.7109 288.076 17.2617 286.439 17.2617 284.346ZM20.6484 284.592C20.6484 285.779 20.8555 286.689 21.2695 287.322C21.6836 287.955 22.2852 288.271 23.0742 288.271C24.1211 288.271 24.8594 287.83 25.2891 286.947V281.943C24.8672 281.061 24.1367 280.619 23.0977 280.619C21.4648 280.619 20.6484 281.943 20.6484 284.592ZM34.4883 278.1L34.5938 279.518C35.4922 278.416 36.707 277.865 38.2383 277.865C39.8711 277.865 40.9922 278.51 41.6016 279.799C42.4922 278.51 43.7617 277.865 45.4102 277.865C46.7852 277.865 47.8086 278.268 48.4805 279.072C49.1523 279.869 49.4883 281.072 49.4883 282.682V290.779H46.0898V282.693C46.0898 281.975 45.9492 281.451 45.668 281.123C45.3867 280.787 44.8906 280.619 44.1797 280.619C43.1641 280.619 42.4609 281.104 42.0703 282.072L42.082 290.779H38.6953V282.705C38.6953 281.971 38.5508 281.439 38.2617 281.111C37.9727 280.783 37.4805 280.619 36.7852 280.619C35.8242 280.619 35.1289 281.018 34.6992 281.814V290.779H31.3125V278.1H34.4883ZM55.6758 290.779H52.2773V278.1H55.6758V290.779ZM52.0781 274.818C52.0781 274.311 52.2461 273.893 52.582 273.564C52.9258 273.236 53.3906 273.072 53.9766 273.072C54.5547 273.072 55.0156 273.236 55.3594 273.564C55.7031 273.893 55.875 274.311 55.875 274.818C55.875 275.334 55.6992 275.756 55.3477 276.084C55.0039 276.412 54.5469 276.576 53.9766 276.576C53.4062 276.576 52.9453 276.412 52.5938 276.084C52.25 275.756 52.0781 275.334 52.0781 274.818ZM61.5938 278.1L61.6992 279.564C62.6055 278.432 63.8203 277.865 65.3438 277.865C66.6875 277.865 67.6875 278.26 68.3438 279.049C69 279.838 69.3359 281.018 69.3516 282.588V290.779H65.9648V282.67C65.9648 281.951 65.8086 281.432 65.4961 281.111C65.1836 280.783 64.6641 280.619 63.9375 280.619C62.9844 280.619 62.2695 281.025 61.793 281.838V290.779H58.4062V278.1H61.5938ZM75.5039 290.779H72.1055V278.1H75.5039V290.779ZM71.9062 274.818C71.9062 274.311 72.0742 273.893 72.4102 273.564C72.7539 273.236 73.2188 273.072 73.8047 273.072C74.3828 273.072 74.8438 273.236 75.1875 273.564C75.5312 273.893 75.7031 274.311 75.7031 274.818C75.7031 275.334 75.5273 275.756 75.1758 276.084C74.832 276.412 74.375 276.576 73.8047 276.576C73.2344 276.576 72.7734 276.412 72.4219 276.084C72.0781 275.756 71.9062 275.334 71.9062 274.818ZM85.1719 287.275C85.1719 286.861 84.9648 286.537 84.5508 286.303C84.1445 286.061 83.4883 285.846 82.582 285.658C79.5664 285.025 78.0586 283.744 78.0586 281.814C78.0586 280.689 78.5234 279.752 79.4531 279.002C80.3906 278.244 81.6133 277.865 83.1211 277.865C84.7305 277.865 86.0156 278.244 86.9766 279.002C87.9453 279.76 88.4297 280.744 88.4297 281.955H85.043C85.043 281.471 84.8867 281.072 84.5742 280.76C84.2617 280.439 83.7734 280.279 83.1094 280.279C82.5391 280.279 82.0977 280.408 81.7852 280.666C81.4727 280.924 81.3164 281.252 81.3164 281.65C81.3164 282.025 81.4922 282.33 81.8438 282.564C82.2031 282.791 82.8047 282.99 83.6484 283.162C84.4922 283.326 85.2031 283.514 85.7812 283.725C87.5703 284.381 88.4648 285.518 88.4648 287.135C88.4648 288.291 87.9688 289.229 86.9766 289.947C85.9844 290.658 84.7031 291.014 83.1328 291.014C82.0703 291.014 81.125 290.826 80.2969 290.451C79.4766 290.068 78.832 289.549 78.3633 288.893C77.8945 288.229 77.6602 287.514 77.6602 286.748H80.8711C80.9023 287.35 81.125 287.811 81.5391 288.131C81.9531 288.451 82.5078 288.611 83.2031 288.611C83.8516 288.611 84.3398 288.49 84.668 288.248C85.0039 287.998 85.1719 287.674 85.1719 287.275ZM94.7109 274.982V278.1H96.8789V280.584H94.7109V286.912C94.7109 287.381 94.8008 287.717 94.9805 287.92C95.1602 288.123 95.5039 288.225 96.0117 288.225C96.3867 288.225 96.7188 288.197 97.0078 288.143V290.709C96.3438 290.912 95.6602 291.014 94.957 291.014C92.582 291.014 91.3711 289.814 91.3242 287.416V280.584H89.4727V278.1H91.3242V274.982H94.7109ZM105.891 281.275C105.43 281.213 105.023 281.182 104.672 281.182C103.391 281.182 102.551 281.615 102.152 282.482V290.779H98.7656V278.1H101.965L102.059 279.611C102.738 278.447 103.68 277.865 104.883 277.865C105.258 277.865 105.609 277.916 105.938 278.018L105.891 281.275ZM114.527 290.779C114.371 290.475 114.258 290.096 114.188 289.643C113.367 290.557 112.301 291.014 110.988 291.014C109.746 291.014 108.715 290.654 107.895 289.936C107.082 289.217 106.676 288.311 106.676 287.217C106.676 285.873 107.172 284.842 108.164 284.123C109.164 283.404 110.605 283.041 112.488 283.033H114.047V282.307C114.047 281.721 113.895 281.252 113.59 280.9C113.293 280.549 112.82 280.373 112.172 280.373C111.602 280.373 111.152 280.51 110.824 280.783C110.504 281.057 110.344 281.432 110.344 281.908H106.957C106.957 281.174 107.184 280.494 107.637 279.869C108.09 279.244 108.73 278.756 109.559 278.404C110.387 278.045 111.316 277.865 112.348 277.865C113.91 277.865 115.148 278.26 116.062 279.049C116.984 279.83 117.445 280.932 117.445 282.354V287.85C117.453 289.053 117.621 289.963 117.949 290.58V290.779H114.527ZM111.727 288.424C112.227 288.424 112.688 288.314 113.109 288.096C113.531 287.869 113.844 287.568 114.047 287.193V285.014H112.781C111.086 285.014 110.184 285.6 110.074 286.771L110.062 286.971C110.062 287.393 110.211 287.74 110.508 288.014C110.805 288.287 111.211 288.424 111.727 288.424ZM125.32 288.283C125.945 288.283 126.453 288.111 126.844 287.768C127.234 287.424 127.438 286.967 127.453 286.396H130.629C130.621 287.256 130.387 288.045 129.926 288.764C129.465 289.475 128.832 290.029 128.027 290.428C127.23 290.818 126.348 291.014 125.379 291.014C123.566 291.014 122.137 290.439 121.09 289.291C120.043 288.135 119.52 286.541 119.52 284.51V284.287C119.52 282.334 120.039 280.775 121.078 279.611C122.117 278.447 123.543 277.865 125.355 277.865C126.941 277.865 128.211 278.318 129.164 279.225C130.125 280.123 130.613 281.322 130.629 282.822H127.453C127.438 282.166 127.234 281.635 126.844 281.229C126.453 280.814 125.938 280.607 125.297 280.607C124.508 280.607 123.91 280.896 123.504 281.475C123.105 282.045 122.906 282.975 122.906 284.264V284.615C122.906 285.92 123.105 286.857 123.504 287.428C123.902 287.998 124.508 288.283 125.32 288.283ZM136.137 290.779H132.738V278.1H136.137V290.779ZM132.539 274.818C132.539 274.311 132.707 273.893 133.043 273.564C133.387 273.236 133.852 273.072 134.438 273.072C135.016 273.072 135.477 273.236 135.82 273.564C136.164 273.893 136.336 274.311 136.336 274.818C136.336 275.334 136.16 275.756 135.809 276.084C135.465 276.412 135.008 276.576 134.438 276.576C133.867 276.576 133.406 276.412 133.055 276.084C132.711 275.756 132.539 275.334 132.539 274.818ZM138.41 284.322C138.41 283.064 138.652 281.943 139.137 280.959C139.621 279.975 140.316 279.213 141.223 278.674C142.137 278.135 143.195 277.865 144.398 277.865C146.109 277.865 147.504 278.389 148.582 279.436C149.668 280.482 150.273 281.904 150.398 283.701L150.422 284.568C150.422 286.514 149.879 288.076 148.793 289.256C147.707 290.428 146.25 291.014 144.422 291.014C142.594 291.014 141.133 290.428 140.039 289.256C138.953 288.084 138.41 286.49 138.41 284.475V284.322ZM141.797 284.568C141.797 285.771 142.023 286.693 142.477 287.334C142.93 287.967 143.578 288.283 144.422 288.283C145.242 288.283 145.883 287.971 146.344 287.346C146.805 286.713 147.035 285.705 147.035 284.322C147.035 283.143 146.805 282.229 146.344 281.58C145.883 280.932 145.234 280.607 144.398 280.607C143.57 280.607 142.93 280.932 142.477 281.58C142.023 282.221 141.797 283.217 141.797 284.568ZM145.066 272.779H148.758L145.512 276.412H142.758L145.066 272.779ZM155.625 278.1L155.73 279.564C156.637 278.432 157.852 277.865 159.375 277.865C160.719 277.865 161.719 278.26 162.375 279.049C163.031 279.838 163.367 281.018 163.383 282.588V290.779H159.996V282.67C159.996 281.951 159.84 281.432 159.527 281.111C159.215 280.783 158.695 280.619 157.969 280.619C157.016 280.619 156.301 281.025 155.824 281.838V290.779H152.438V278.1H155.625Z" fill="#4F4F4F"/>
</g>
</g>
<defs>
<linearGradient id="paint0_linear" x1="298.982" y1="397.307" x2="932.847" y2="412.49" gradientUnits="userSpaceOnUse">
<stop stop-color="#FE8827"/>
<stop offset="1" stop-color="#F34B14"/>
</linearGradient>
<linearGradient id="paint1_linear" x1="1008" y1="135.941" x2="1008" y2="214.787" gradientUnits="userSpaceOnUse">
<stop stop-color="#FF9029"/>
<stop offset="1" stop-color="#F34B14"/>
</linearGradient>
<linearGradient id="paint2_linear" x1="554.5" y1="-8.77539" x2="554.5" y2="70.0703" gradientUnits="userSpaceOnUse">
<stop stop-color="#FF9029"/>
<stop offset="1" stop-color="#F34B14"/>
</linearGradient>
<linearGradient id="paint3_linear" x1="394.5" y1="9.18948" x2="394.5" y2="88.0352" gradientUnits="userSpaceOnUse">
<stop stop-color="#FF9029"/>
<stop offset="1" stop-color="#F34B14"/>
</linearGradient>
<linearGradient id="paint4_linear" x1="214" y1="75.0605" x2="214" y2="153.906" gradientUnits="userSpaceOnUse">
<stop stop-color="#FF9029"/>
<stop offset="1" stop-color="#F34B14"/>
</linearGradient>
<linearGradient id="paint5_linear" x1="82.5" y1="218.779" x2="82.5" y2="297.625" gradientUnits="userSpaceOnUse">
<stop stop-color="#FF9029"/>
<stop offset="1" stop-color="#F34B14"/>
</linearGradient>
<clipPath id="clip0">
<rect width="1079" height="517" fill="white"/>
</clipPath>
</defs>
</svg>
