<svg width="147" height="147" viewBox="0 0 147 147" fill="none" xmlns="http://www.w3.org/2000/svg">
<g clip-path="url(#clip0)">
<path d="M73.5 122.883C74.7633 122.883 75.7969 121.849 75.7969 120.586V114.844H81.5391C82.8023 114.844 83.8359 113.81 83.8359 112.547C83.8359 111.284 82.8023 110.25 81.5391 110.25H75.7969V104.508C75.7969 103.245 74.7633 102.211 73.5 102.211C72.2367 102.211 71.2031 103.245 71.2031 104.508V110.25H65.4609C64.1977 110.25 63.1641 111.284 63.1641 112.547C63.1641 113.81 64.1977 114.844 65.4609 114.844H71.2031V120.586C71.2031 121.849 72.2367 122.883 73.5 122.883Z" fill="#4F4F4F"/>
<path d="M15.7335 102.67C14.4703 102.555 13.4367 103.589 13.3218 104.852C13.3218 104.852 13.3218 104.852 13.3218 104.967V106.23C0.459316 83.2614 2.06713 54.895 17.4562 33.4192L14.1257 30.2036C-2.75631 53.0575 -4.59381 83.606 9.18744 108.412L8.039 107.608C7.00541 106.919 5.51244 107.264 4.82338 108.297C4.13432 109.331 4.47885 110.824 5.51244 111.513L13.896 116.796C14.9296 117.485 16.4226 117.14 17.1117 116.107C17.3413 115.762 17.4562 115.418 17.4562 114.958L17.9156 105.082C17.9156 103.818 16.9968 102.67 15.7335 102.67Z" fill="#4F4F4F"/>
<path d="M73.4999 4.59365C82.228 4.59365 90.8413 6.20146 98.9952 9.41709C99.2249 7.92412 99.6843 6.43115 100.373 5.05303C83.0319 -1.72275 63.853 -1.72275 46.6265 5.05303C47.3155 6.43115 47.7749 7.92412 48.0046 9.41709C56.1585 6.20146 64.7718 4.59365 73.4999 4.59365Z" fill="#4F4F4F"/>
<path d="M22.9688 32.3859C24.232 33.6492 26.2992 33.6492 27.5625 32.3859L40.425 19.868C42.4922 17.8008 43.6406 14.9297 43.6406 12.0586C43.6406 9.1875 42.4922 6.31641 40.425 4.24922C36.1758 0.114844 29.4 0.114844 25.2656 4.24922C21.0164 0.114844 14.2406 0.114844 10.1063 4.24922C8.03906 6.31641 6.89062 9.1875 6.89062 12.0586C6.89062 14.9297 8.03906 17.8008 10.1063 19.868L22.9688 32.3859ZM13.3219 7.57969C15.7336 5.16797 19.6383 5.16797 22.05 7.57969L23.6578 9.1875C24.5766 10.1062 25.9547 10.1062 26.8734 9.1875L28.4812 7.57969C30.893 5.16797 34.7977 5.16797 37.2094 7.57969C38.3578 8.84297 39.0469 10.4508 39.0469 12.0586C39.0469 13.7812 38.4727 15.3891 37.2094 16.5375L25.2656 28.2516L13.3219 16.5375C12.1734 15.2742 11.4844 13.6664 11.4844 12.0586C11.4844 10.3359 12.0586 8.72813 13.3219 7.57969Z" fill="#4F4F4F"/>
<path d="M119.438 32.3859C120.701 33.6492 122.768 33.6492 124.031 32.3859L136.894 19.868C138.961 17.8008 140.109 14.9297 140.109 12.0586C140.109 9.1875 138.961 6.31641 136.894 4.24922C132.645 0.114844 125.869 0.114844 121.734 4.24922C117.485 0.114844 110.709 0.114844 106.575 4.24922C104.508 6.31641 103.359 9.1875 103.359 12.0586C103.359 14.9297 104.508 17.8008 106.575 19.868L119.438 32.3859ZM109.791 7.57969C112.202 5.16797 116.107 5.16797 118.519 7.57969L120.127 9.1875C121.045 10.1062 122.423 10.1062 123.342 9.1875L124.95 7.57969C127.362 5.16797 131.266 5.16797 133.678 7.57969C134.827 8.84297 135.516 10.4508 135.516 12.0586C135.516 13.7812 134.941 15.3891 133.678 16.5375L121.734 28.2516L109.791 16.5375C108.642 15.2742 107.953 13.6664 107.953 12.0586C107.953 10.3359 108.527 8.72813 109.791 7.57969Z" fill="#4F4F4F"/>
<path d="M139.305 101.637C136.32 101.177 133.219 101.062 130.118 101.062C116.337 101.062 83.8359 105.197 79.2421 143.21V143.325C79.1273 144.473 79.9312 145.507 80.9648 145.852C84.8695 146.655 88.889 147 92.9086 147C108.298 147 134.941 141.488 141.143 104.278C141.487 103.015 140.569 101.866 139.305 101.637ZM92.9086 142.406C90.8414 142.406 89.1187 142.291 87.5109 142.177L105.656 129.429C106.69 128.74 106.92 127.247 106.23 126.213C105.541 125.18 104.048 124.95 103.015 125.639L84.7546 138.502C90.8414 110.135 115.418 105.656 130.233 105.656C132.759 105.656 134.827 105.771 136.32 105.886C130.233 135.975 109.446 142.406 92.9086 142.406Z" fill="#4F4F4F"/>
<path d="M132.989 30.0894L129.659 33.305C137.927 44.7894 142.406 58.6854 142.406 72.9261C142.406 81.08 140.913 89.2339 138.042 96.8136C139.191 96.9284 139.88 97.0433 139.995 97.0433C140.913 97.1581 141.717 97.5026 142.406 97.962C150.905 75.2229 147.345 49.7276 132.989 30.0894Z" fill="#4F4F4F"/>
<path d="M30.4336 130.463L23.6578 93.0234H123.342L122.653 96.8133C124.376 96.6984 125.869 96.5836 127.362 96.4688L128.051 93.0234H128.625C132.415 93.0234 135.516 89.9227 135.516 86.1328V83.8359C135.516 80.0461 132.415 76.9453 128.625 76.9453H123.802C123.916 76.0266 124.031 74.993 124.031 74.0742C124.031 65.2313 118.748 57.7664 111.858 56.5031C111.169 48.5789 106.116 42.2625 99.7992 40.9992C98.9953 32.1563 92.9086 25.2656 85.5586 25.2656C80.5055 25.2656 76.0266 28.4813 73.5 33.4195C70.9734 28.4813 66.4945 25.2656 61.4414 25.2656C54.0914 25.2656 48.0047 32.1563 47.2008 40.9992C40.8844 42.2625 35.8313 48.5789 35.1422 56.5031C28.2516 57.7664 22.9688 65.2313 22.9688 74.0742C22.9688 74.993 23.0836 76.0266 23.1984 76.9453H18.375C14.5852 76.9453 11.4844 80.0461 11.4844 83.8359V86.1328C11.4844 89.9227 14.5852 93.0234 18.375 93.0234H18.9492L25.8398 131.152C26.5289 136.205 30.5484 140.109 34.7977 140.109H74.993C75.2227 138.502 75.5672 137.009 75.9117 135.516H34.9125C32.9602 135.516 30.7781 133.219 30.4336 130.463ZM119.438 74.0742C119.438 74.993 119.323 76.0266 119.208 76.9453H100.144C100.029 76.0266 99.9141 74.993 99.9141 74.0742C99.9141 66.8391 104.278 60.8672 109.676 60.8672C115.073 60.8672 119.438 66.8391 119.438 74.0742ZM51.9094 76.9453C51.7945 76.0266 51.6797 74.993 51.6797 74.0742C51.6797 66.8391 56.0438 60.8672 61.4414 60.8672C66.8391 60.8672 71.2031 66.8391 71.2031 74.0742C71.2031 74.993 71.0883 76.0266 70.9734 76.9453H51.9094ZM73.5 45.3633C78.3234 45.3633 82.4578 50.1867 83.1469 56.5031C78.8977 57.5367 75.3375 60.5227 73.5 64.4273C71.6625 60.5227 68.1023 57.5367 63.8531 56.5031C64.5422 50.1867 68.6766 45.3633 73.5 45.3633ZM76.0266 76.9453C75.9117 76.0266 75.7969 74.993 75.7969 74.0742C75.7969 66.8391 80.1609 60.8672 85.5586 60.8672C90.9563 60.8672 95.3203 66.8391 95.3203 74.0742C95.3203 74.993 95.2055 76.0266 95.0906 76.9453H76.0266ZM107.264 56.5031C103.015 57.5367 99.4547 60.5227 97.6172 64.4273C95.7797 60.5227 92.2195 57.5367 87.9703 56.5031C88.6594 50.1867 92.6789 45.3633 97.6172 45.3633C102.555 45.3633 106.575 50.1867 107.264 56.5031ZM85.5586 29.8594C90.382 29.8594 94.5164 34.6828 95.2055 40.9992C90.9563 42.0328 87.3961 45.0187 85.5586 48.9234C83.7211 45.0187 80.1609 42.0328 75.9117 40.9992C76.6008 34.6828 80.7352 29.8594 85.5586 29.8594ZM61.4414 29.8594C66.2648 29.8594 70.3992 34.6828 71.0883 40.9992C66.8391 42.0328 63.2789 45.0187 61.4414 48.9234C59.6039 45.0187 56.0437 42.0328 51.7945 40.9992C52.4836 34.6828 56.618 29.8594 61.4414 29.8594ZM49.3828 45.3633C54.2062 45.3633 58.3406 50.1867 59.0297 56.5031C54.7805 57.5367 51.2203 60.5227 49.3828 64.4273C47.5453 60.5227 43.9852 57.5367 39.7359 56.5031C40.425 50.1867 44.5594 45.3633 49.3828 45.3633ZM27.5625 74.0742C27.5625 66.8391 31.9266 60.8672 37.3242 60.8672C42.7219 60.8672 47.0859 66.8391 47.0859 74.0742C47.0859 74.993 46.9711 76.0266 46.8563 76.9453H27.7922C27.6773 76.0266 27.5625 74.993 27.5625 74.0742ZM16.0781 86.1328V83.8359C16.0781 82.5727 17.1117 81.5391 18.375 81.5391H128.625C129.888 81.5391 130.922 82.5727 130.922 83.8359V86.1328C130.922 87.3961 129.888 88.4297 128.625 88.4297H18.375C17.1117 88.4297 16.0781 87.3961 16.0781 86.1328Z" fill="#4F4F4F"/>
</g>
<defs>
<clipPath id="clip0">
<rect width="147" height="147" fill="white"/>
</clipPath>
</defs>
</svg>
