<?xml version="1.0" encoding="utf-8"?>
<!-- Generator: Adobe Illustrator 24.1.2, SVG Export Plug-In . SVG Version: 6.00 Build 0)  -->
<svg version="1.1" id="Capa_1" xmlns="http://www.w3.org/2000/svg" xmlns:xlink="http://www.w3.org/1999/xlink" x="0px" y="0px"
	 viewBox="0 0 64 80" style="enable-background:new 0 0 64 80;" xml:space="preserve">
<g>
	<path d="M63,1H53v2h-1.8l-2.5-1.3c-1-0.5-2-0.7-3.1-0.7H37c-1.1,0-2,0.9-2,2c0,0.7,0.2,1.4,0.6,2H31c-1.7,0-3,1.3-3,3
		c0,0.4,0.1,0.7,0.2,1H28c-1.7,0-3,1.3-3,3c0,1.1,0.6,2,1.4,2.5C26.2,15,26,15.5,26,16c0,1.7,1.3,3,3,3h0.2c-0.1,0.3-0.2,0.6-0.2,1
		c0,1.7,1.3,3,3,3h0.3c-0.2,0.7-0.3,1.4-0.3,2.1v0.6c0,2.4,1,4.6,2.9,6.2l6,5.1H28.3c0.5-1,0.7-2.1,0.7-3.3v-0.6
		c0-4.5-3.6-8.1-8.1-8.1c-2.2,0-4.2,0.8-5.7,2.4L15,27.6l-0.2-0.2c-1.5-1.5-3.6-2.4-5.7-2.4C4.6,25,1,28.6,1,33.1v0.6
		c0,2.4,1,4.6,2.9,6.2l0.3,0.2L1.6,47H5v16h54V47h3.4l-3.8-10h-7.6l6-5.1c1.8-1.5,2.9-3.8,2.9-6.2v-0.6c0-0.7-0.1-1.4-0.3-2.1H63V1z
		 M28,16c0-0.6,0.4-1,1-1h11v-2H29h-1c-0.6,0-1-0.4-1-1s0.4-1,1-1h3h9V9h-9c-0.6,0-1-0.4-1-1s0.4-1,1-1h8h1h4V5h-4h-1
		c-1.1,0-2-0.9-2-2h8.6c0.8,0,1.5,0.2,2.2,0.5L50.8,5H53v12.1c-0.4,0-0.7-0.1-1.1-0.1c-2.2,0-4.2,0.8-5.7,2.4L46,19.6l-0.2-0.2
		c-1.5-1.5-3.6-2.4-5.7-2.4c0,0,0,0-0.1,0v0h-8h-3C28.4,17,28,16.6,28,16z M32,21c-0.6,0-1-0.4-1-1s0.4-1,1-1h2.8
		c-0.7,0.6-1.2,1.2-1.7,2H32z M3,33.7v-0.6C3,29.7,5.7,27,9.1,27c1.6,0,3.1,0.6,4.3,1.8l1.6,1.6l1.6-1.6c1.1-1.1,2.7-1.8,4.3-1.8
		c3.3,0,6.1,2.7,6.1,6.1v0.6c0,1.2-0.4,2.3-1,3.3h-8h-4c-0.6,0-1-0.4-1-1v-1h3c0.6,0,1,0.4,1,1h2c0-1.7-1.3-3-3-3v-2h-2v2h-3v3
		c0,0.4,0.1,0.7,0.2,1H5.3l-0.4,1.1C3.7,37,3,35.4,3,33.7z M4.4,45l2.3-6H14h4h9.6l-2.3,6H4.4z M7,47h19.7l2.3-6.2V61H7V47z M57,61
		H31V40.8l2.3,6.2H57V61z M59.6,45H34.7l-2.3-6h24.9L59.6,45z M58,25.7c0,1.8-0.8,3.5-2.1,4.6L48,37h-1v-2h3v-3c0-1.7-1.3-3-3-3h-2
		c-0.6,0-1-0.4-1-1v-1h3c0.6,0,1,0.4,1,1h2c0-1.7-1.3-3-3-3v-2h-2v2h-3v3c0,1.7,1.3,3,3,3h2c0.6,0,1,0.4,1,1v1h-3c-0.6,0-1-0.4-1-1
		h-2c0,1.7,1.3,3,3,3v2h-1l-7.9-6.6c-1.4-1.2-2.1-2.8-2.1-4.6v-0.6c0-3.3,2.7-6.1,6.1-6.1c1.6,0,3.1,0.6,4.3,1.8l1.6,1.6l1.6-1.6
		c1.1-1.1,2.7-1.8,4.3-1.8c3.3,0,6.1,2.7,6.1,6.1V25.7z M61,21h-2.1c-0.9-1.5-2.3-2.7-3.9-3.4V3h6V21z"/>
	<path d="M11,15c-0.6,0-1-0.4-1-1H8c0,1.7,1.3,3,3,3v2h2v-2h3v-3c0-1.7-1.3-3-3-3h-2c-0.6,0-1-0.4-1-1V9h3c0.6,0,1,0.4,1,1h2
		c0-1.7-1.3-3-3-3V5h-2v2H8v3c0,1.7,1.3,3,3,3h2c0.6,0,1,0.4,1,1v1H11z"/>
	<path d="M12,23c6.1,0,11-4.9,11-11S18.1,1,12,1S1,5.9,1,12S5.9,23,12,23z M12,3c5,0,9,4,9,9s-4,9-9,9s-9-4-9-9S7,3,12,3z"/>
	<path d="M55,53H45v6h10V53z M53,57h-6v-2h6V57z"/>
	<rect x="17" y="57" width="2" height="2"/>
	<rect x="25" y="57" width="2" height="2"/>
	<rect x="21" y="57" width="2" height="2"/>
	<rect x="17" y="53" width="10" height="2"/>
</g>
</svg>
