<?xml version="1.0" encoding="utf-8"?>
<!-- Generator: Adobe Illustrator 24.1.2, SVG Export Plug-In . SVG Version: 6.00 Build 0)  -->
<svg version="1.1" id="Capa_1" xmlns="http://www.w3.org/2000/svg" xmlns:xlink="http://www.w3.org/1999/xlink" x="0px" y="0px"
	 viewBox="0 0 64 64" style="enable-background:new 0 0 64 64;" xml:space="preserve">
<path d="M62,54.9h-7V40c0-2.2-1.5-4.2-3.7-4.8L50.8,35c0.1-0.3,0.2-0.7,0.2-1.1v-4c0-1.7-1.3-3-3-3h-4c-1.7,0-3,1.3-3,3v2.4l-4-1.1
	v-2.6c2.5-1.4,4.2-3.8,4.8-6.6H43c1.7,0,3-1.3,3-3s-1.3-3-3-3h-0.9l1-2.3c1.7-4-0.1-8.7-4.1-10.6l-2.8-1.3C32.8,0.3,28.9,0.8,26,2.9
	l-1.6,1.2l0,0c-3.3,0.9-5.3,4.3-4.5,7.6c0.1,0.4,0.3,0.8,0.5,1.2l1.5,3H21c-1.7,0-3,1.3-3,3s1.3,3,3,3h1.2c0.6,2.8,2.3,5.2,4.8,6.6
	v2.6l-4,1.1v-4.4c0-0.6-0.4-1-1-1h-8c-0.6,0-1,0.4-1,1v6c0,0.4,0.1,0.7,0.2,1.1l-0.5,0.2C10.5,35.8,9,37.7,9,40v15H2
	c-0.6,0-1,0.4-1,1v6c0,0.6,0.4,1,1,1h60c0.6,0,1-0.4,1-1v-6C63,55.4,62.6,54.9,62,54.9z M53,40v15h-2.2c0.1-0.3,0.2-0.7,0.2-1v-4
	c0-1.3-0.8-2.4-2-2.8V36.7c0.1,0,0.2-0.1,0.2-0.1l1.6,0.4C52.1,37.4,53,38.6,53,40z M28.2,54.5c-1.2-1.6-2-3.6-2.2-5.6H38
	c-0.2,2-0.9,4-2.2,5.6l-0.3,0.4h-7L28.2,54.5z M28.2,45.5c-0.3-0.5-0.2-1.1,0.3-1.4c0.3-0.2,0.8-0.2,1.1,0c0.5,0.3,1.1,0.2,1.4-0.3
	c0-0.1,0.1-0.1,0.1-0.2c0.2-0.5,0.7-0.8,1.3-0.6c0.3,0.1,0.5,0.3,0.6,0.6c0.2,0.5,0.8,0.8,1.3,0.6c0.1,0,0.2-0.1,0.2-0.1
	c0.5-0.3,1.1-0.2,1.4,0.3c0.2,0.3,0.2,0.8,0,1.1c-0.2,0.3-0.2,0.6-0.1,0.9c0.1,0.3,0.3,0.5,0.5,0.6h-8.4c0.2-0.1,0.4-0.3,0.5-0.6
	C28.4,46.1,28.3,45.7,28.2,45.5L28.2,45.5z M40,47.9c0-0.6-0.4-1-1-1h-0.2c-0.2-0.5-0.5-1-0.9-1.3c0.4-1.6-0.6-3.2-2.2-3.6
	c-0.5-0.1-0.9-0.1-1.4,0c-1-1.3-2.9-1.4-4.2-0.4c-0.1,0.1-0.3,0.3-0.4,0.4c-1.6-0.4-3.2,0.6-3.6,2.2c-0.1,0.5-0.1,0.9,0,1.4
	c-0.4,0.3-0.7,0.8-0.9,1.3H25c-0.6,0-1,0.4-1,1c0,2.5,0.7,4.9,2,7h-3.2c0.1-0.3,0.2-0.7,0.2-1v-4c0-1.3-0.8-2.4-2-2.8V36.7
	c1-0.4,1.8-1.3,2-2.4l4.7-1.3l3.6,3.6c0.4,0.4,1,0.4,1.4,0c0,0,0,0,0,0l3.6-3.6l4.7,1.3c0.2,1.1,0.9,2,2,2.4v10.4
	c-1.2,0.4-2,1.5-2,2.8v4c0,0.3,0.1,0.7,0.2,1H38C39.3,52.8,40,50.4,40,47.9z M19,46.9h-2v-10h2V46.9z M15,53.9v-1h4v-2h-4v-1
	c0-0.6,0.4-1,1-1h4c0.6,0,1,0.4,1,1v4c0,0.6-0.4,1-1,1h-4C15.4,54.9,15,54.5,15,53.9z M47,46.9h-2v-10h2V46.9z M43,53.9v-4
	c0-0.6,0.4-1,1-1h4c0.6,0,1,0.4,1,1v1h-4v2h4v1c0,0.6-0.4,1-1,1h-4C43.4,54.9,43,54.5,43,53.9z M43,29.9c0-0.6,0.4-1,1-1h4
	c0.6,0,1,0.4,1,1v4c0,0.6-0.4,1-1,1h-4c-0.6,0-1-0.4-1-1V29.9z M44,18.9c0,0.6-0.4,1-1,1h-1v-2h1C43.6,17.9,44,18.4,44,18.9z
	 M22.3,8c0.8-1.3,2.1-2,3.6-2.1c1.6,0,3,0.8,3.9,2.1l0.3,0.5l1.7-1.1l-0.3-0.5c-0.9-1.3-2.2-2.3-3.8-2.7c2.3-1.4,5.2-1.6,7.6-0.5
	l2.8,1.3c3,1.4,4.4,4.9,3.1,7.9l-0.3,0.7l-1-2.1c-0.1-0.3-0.4-0.5-0.7-0.5c-0.3-0.1-0.6,0-0.8,0.2l-1.6,1.2c-2.8,2.1-6.8,2.1-9.6,0
	l-1.6-1.2c-0.4-0.3-1.1-0.2-1.4,0.2c0,0.1-0.1,0.1-0.1,0.2L23,13.7L22.2,12C21.5,10.8,21.6,9.2,22.3,8z M20,18.9c0-0.6,0.4-1,1-1h1
	v2h-1C20.4,19.9,20,19.5,20,18.9z M24,19.9v-3.8l1.4-2.7l0.6,0.5c3.6,2.7,8.4,2.7,12,0l0.6-0.5l1.4,2.7v3.8c0,4.4-3.6,8-8,8
	S24,24.3,24,19.9z M32,29.9c1,0,2-0.2,3-0.5v2l-3,3l-3-3v-2C30,29.8,31,29.9,32,29.9z M15,28.9h2v3h2v-3h2v5c0,0.6-0.4,1-1,1h-4
	c-0.6,0-1-0.4-1-1V28.9z M11,40c0-1.3,0.9-2.5,2.2-2.9l1.6-0.4c0.1,0,0.2,0.1,0.2,0.1v10.4c-1.2,0.4-2,1.5-2,2.8v4
	c0,0.3,0.1,0.7,0.2,1H11V40z M61,60.9H3v-4h58V60.9z"/>
</svg>
