<svg width="37" height="42" viewBox="0 0 37 42" fill="none" xmlns="http://www.w3.org/2000/svg">
<path fill-rule="evenodd" clip-rule="evenodd" d="M18.4576 0C8.87123 0 2.03183 6.384 2.03183 15.68V21.896C2.03183 23.8 1.52729 25.592 0.574256 27.216C-1.0515 30.016 0.96668 33.6 4.2182 33.6H14.3652C13.7485 34.496 13.3561 35.56 13.3561 36.736C13.3561 39.648 15.5985 42 18.4015 42C21.2046 42 23.447 39.648 23.447 36.736C23.447 35.56 23.0546 34.44 22.4379 33.6H32.5849C35.8364 33.6 37.9106 30.072 36.2288 27.216C35.2758 25.592 34.7712 23.744 34.7712 21.896V15.68C34.8833 6.384 28.044 0 18.4576 0ZM4.27425 15.68C4.27425 7.728 9.99244 2.24 18.4576 2.24C26.9227 2.24 32.6409 7.728 32.6409 15.68V21.896C32.6409 24.08 33.3136 26.488 34.3788 28.392C35.1637 29.736 34.2106 31.416 32.6409 31.416H4.27425C2.70456 31.416 1.75153 29.736 2.53638 28.392C3.60153 26.488 4.27425 24.08 4.27425 21.896V15.68ZM21.2606 36.736C21.2606 38.472 19.9152 39.76 18.4576 39.76C17 39.76 15.6546 38.528 15.6546 36.736C15.6546 34.944 17 33.712 18.4576 33.712C19.9152 33.768 21.2606 35 21.2606 36.736Z" fill="#F9F9F9"/>
</svg>
