<svg width="100" height="100" viewBox="0 0 100 100" fill="none" xmlns="http://www.w3.org/2000/svg">
<g id="Icon">
<circle id="Ellipse 22" cx="50" cy="50" r="50" fill="url(#paint0_linear)"/>
<g id="Huerta_02 1">
<g id="Group">
<path id="Vector" d="M81.8195 53.6909C81.8195 49.1239 79.6398 44.8683 76.007 42.1697C75.2804 41.6507 74.3463 41.3393 73.4121 41.3393C72.2704 41.3393 71.1286 41.8583 70.2983 42.5849C70.1945 42.4811 69.9869 42.2735 69.8831 42.1697C69.2603 41.7545 68.6376 41.4431 67.911 41.3393L68.3262 36.3572C68.3262 36.2534 68.3262 36.1496 68.3262 35.942C68.3262 33.7623 66.5617 31.894 64.2782 31.894H63.9668C61.7871 31.894 59.9188 33.6585 59.9188 35.942C59.9188 36.0458 59.9188 36.1496 59.9188 36.3572L60.334 41.4431C59.7112 41.5469 59.0884 41.8583 58.4657 42.2735C58.2581 42.3773 58.1543 42.5849 57.9467 42.6887C57.8429 42.5849 57.7391 42.4811 57.6353 42.3773C57.7391 42.0659 57.7391 41.6507 57.7391 41.3393C57.7391 39.99 57.3239 38.7445 56.5974 37.7065C57.3239 36.6686 57.7391 35.423 57.7391 34.0737C57.7391 30.5447 54.7291 27.6384 51.2001 27.846C50.5773 25.9777 49.0204 24.5246 47.0483 23.9018C45.8027 22.3449 43.8306 21.4107 41.8585 21.6183C41.0282 19.1273 38.6409 17.4666 35.9422 17.4666C33.6588 17.4666 31.6867 18.7121 30.5449 20.5804C27.8463 20.6842 25.459 22.6563 24.7324 25.2512C21.7224 26.3929 19.5427 29.5067 19.5427 32.932C19.5427 35.7344 20.892 38.2255 23.1755 39.7824C22.8641 40.6128 22.6565 41.4431 22.6565 42.2735C22.6565 44.1418 23.4869 45.9063 24.94 47.048C24.8362 47.567 24.7324 48.086 24.7324 48.5012C24.7324 51.7188 27.1197 54.3137 30.2335 54.7288L32.517 61.1641C31.3753 61.9945 30.3373 63.1362 29.6108 64.3817L24.1097 63.1362C23.9021 63.1362 23.6945 63.0324 23.4869 63.0324C21.93 63.0324 20.5806 64.3817 20.5806 65.9387V66.3538C20.5806 66.6652 20.6844 66.8728 20.6844 67.1842H20.5806C18.8161 67.1842 17.4668 68.5335 17.4668 70.298C17.4668 72.0625 18.8161 73.4119 20.5806 73.4119H20.6844C20.6844 73.7233 20.5806 73.9308 20.5806 74.2422V74.6574C20.5806 76.2143 21.93 77.5637 23.4869 77.5637C23.6945 77.5637 23.9021 77.5637 24.1097 77.4599L29.507 76.2143C31.4791 79.432 35.1119 81.6116 39.1599 81.6116H39.3675C39.9902 81.6116 40.5092 81.6116 41.132 81.5079L76.7335 76.0067C79.6398 75.5916 81.7157 73.1005 81.7157 70.1942C81.7157 67.807 80.3663 65.8349 78.3942 64.9007C80.5739 62.3058 81.7157 59.0882 81.7157 55.7668V53.6909H81.8195ZM68.5338 43.8304C71.6476 46.2177 73.5159 49.9543 73.5159 53.8985V57.7389C73.5159 59.8148 72.9969 61.9945 71.959 63.759L63.6554 62.5134C63.344 60.9565 63.1364 59.3996 63.1364 57.9465V53.6909C63.1364 52.6529 63.2402 51.615 63.4478 50.577C63.6554 50.577 63.9668 50.577 64.1744 50.577C67.1844 50.577 69.3641 49.2277 69.3641 47.4632C69.3641 46.5291 68.6376 45.5949 67.4958 45.0759L67.5996 43.4152C68.0148 43.4152 68.3262 43.6228 68.5338 43.8304ZM64.0706 33.9699H64.382C65.4199 33.9699 66.3541 34.8003 66.3541 35.942C66.3541 36.0458 66.3541 36.0458 66.3541 36.1496L65.4199 46.5291L66.2503 46.7366C67.1844 47.048 67.4958 47.3594 67.4958 47.4632C67.4958 47.6708 66.3541 48.5012 64.382 48.5012C62.4099 48.5012 61.2681 47.6708 61.2681 47.4632C61.2681 47.3594 61.5795 47.048 62.5137 46.7366L63.344 46.5291L62.0985 36.1496C62.0985 36.0458 62.0985 36.0458 62.0985 35.942C62.0985 34.9041 62.9288 33.9699 64.0706 33.9699ZM60.6454 43.4152L60.7492 45.0759C59.7112 45.5949 58.9846 46.5291 58.9846 47.4632C58.9846 48.6049 59.9188 49.5391 61.3719 50.0581C61.1643 51.1998 61.0605 52.4453 61.0605 53.5871V57.9465C61.0605 59.3996 61.1643 60.7489 61.4757 62.202L55.3518 61.2679C55.0405 60.0224 54.8329 58.8806 54.8329 57.7389V53.8985C54.8329 49.9543 56.7012 46.2177 59.9188 43.8304C60.1264 43.6228 60.4378 43.519 60.6454 43.4152ZM49.4355 60.3337C48.9166 58.8806 48.6052 57.4275 48.6052 55.8706V53.6909C48.6052 49.8505 50.4735 46.1139 53.5873 43.8304C54.0025 43.519 54.5215 43.4152 54.9367 43.4152C55.5594 43.4152 56.1822 43.6228 56.5974 44.038C54.1063 46.7366 52.757 50.2657 52.757 53.8985V57.7389C52.757 58.7768 52.8608 59.9186 53.0684 60.9565L49.4355 60.3337ZM49.5393 29.0916L49.7469 30.1295L50.7849 29.9219C51.0963 29.8181 51.4076 29.8181 51.719 29.8181C54.0025 29.8181 55.8708 31.6864 55.8708 33.9699C55.8708 35.1116 55.4556 36.0458 54.7291 36.8762L54.0025 37.6027L54.7291 38.3293C55.4556 39.1596 55.8708 40.0938 55.8708 41.2355V41.3393C55.5594 41.2355 55.3518 41.2355 55.0405 41.2355C54.1063 41.2355 53.1722 41.5469 52.4456 42.0659C50.5773 43.4152 49.0204 45.2835 48.0862 47.3594C47.671 46.1139 47.2559 44.9721 46.8407 43.8304C47.7748 38.7445 51.4076 35.8382 51.4076 35.8382L50.6811 35.0078L50.0583 34.1775C49.9545 34.2813 47.1521 36.5648 45.4913 40.7166C43.3117 35.7344 41.3396 32.5168 41.132 32.3092L39.3675 33.4509C39.3675 33.4509 41.0282 35.942 42.7927 39.99C39.6788 38.8483 36.1498 39.1596 35.9422 39.1596L36.1498 41.2355C37.7068 41.0279 42.1699 41.1317 44.2458 43.3114C44.9724 45.0759 45.6989 47.048 46.3217 49.1239C43.2079 47.4632 39.3675 47.4632 39.1599 47.4632V49.5391C39.1599 49.5391 43.8306 49.5391 46.5293 51.7188C46.4255 52.3416 46.4255 52.9643 46.4255 53.5871V55.8706C46.4255 57.3237 46.6331 58.673 47.0483 60.0224L41.132 59.0882C40.9244 58.9844 40.613 58.9844 40.3016 58.9844C38.0181 58.9844 36.1498 57.1161 36.1498 54.8326C36.1498 54.3137 36.2536 53.8985 36.4612 53.3795L36.7726 52.5491L36.046 52.134C34.8005 51.4074 34.0739 50.0581 34.0739 48.6049C34.0739 47.7746 34.2815 47.048 34.8005 46.3215L35.4233 45.3873L34.3853 44.8683C32.3094 43.8304 30.9601 41.6507 30.9601 39.3672C30.9601 36.5648 32.8284 34.1775 35.4233 33.3471L36.1498 33.0357L36.2536 32.413C36.565 30.4409 38.3295 28.884 40.3016 28.884H40.4054C40.5092 28.884 40.5092 28.884 40.613 28.884H41.3396L41.6509 28.1574C42.3775 26.7043 43.8306 25.6663 45.4913 25.6663C47.4634 25.6663 49.228 27.1195 49.5393 29.0916ZM31.6867 52.6529H30.9601C28.6766 52.6529 26.8083 50.7846 26.8083 48.5012C26.8083 47.9822 26.9121 47.567 27.1197 47.048L27.4311 46.2177L26.7045 45.8025C25.459 45.0759 24.7324 43.7266 24.7324 42.2735C24.7324 41.4431 24.94 40.7166 25.459 39.99L26.0818 39.0558L25.0438 38.5369C22.9679 37.4989 21.6186 35.3192 21.6186 33.0357C21.6186 30.2333 23.4869 27.846 26.0818 27.0157L26.8083 26.8081L26.9121 26.1853C27.2235 24.2132 28.988 22.6563 30.9601 22.6563H31.0639C31.1677 22.6563 31.1677 22.6563 31.2715 22.6563H31.998L32.3094 21.9297C33.036 20.4766 34.4891 19.4387 36.1498 19.4387C38.1219 19.4387 39.8864 20.8918 40.1978 22.8639L40.4054 23.9018L41.4434 23.6942C41.7547 23.6942 42.0661 23.5904 42.3775 23.5904C42.8965 23.5904 43.3117 23.6942 43.7268 23.798C42.1699 24.2132 40.9244 25.2512 40.094 26.7043C37.3954 26.8081 35.0081 28.7802 34.2815 31.375C31.0639 32.6206 28.8842 35.7344 28.8842 39.1596C28.8842 41.9621 30.2335 44.4532 32.517 46.0101C32.2056 46.8404 31.998 47.6708 31.998 48.5012C31.998 50.3695 32.8284 52.134 34.2815 53.2757C34.1777 53.7947 34.0739 54.3137 34.0739 54.7288C34.0739 56.5971 34.9043 58.1541 36.1498 59.2958C35.5271 59.5034 34.9043 59.711 34.3853 60.0224L31.6867 52.6529ZM22.6565 66.3538V65.9387C22.6565 65.4197 23.1755 65.0045 23.6945 65.1083L28.6766 66.25C28.5728 66.5614 28.469 66.8728 28.3652 67.1842H23.4869C23.0717 67.1842 22.6565 66.8728 22.6565 66.3538ZM19.5427 70.298C19.5427 69.6753 19.9579 69.2601 20.5806 69.2601H23.4869H27.8463C27.8463 69.5715 27.7425 69.9866 27.7425 70.298C27.7425 70.6094 27.7425 71.0246 27.8463 71.336H23.4869H20.5806C19.9579 71.336 19.5427 70.9208 19.5427 70.298ZM23.6945 75.4878C23.1755 75.5916 22.6565 75.1764 22.6565 74.6574V74.2422C22.6565 73.827 23.0717 73.4119 23.4869 73.4119H28.2614C28.3652 73.7233 28.469 74.0346 28.5728 74.346L23.6945 75.4878ZM79.7436 70.298C79.7436 72.1663 78.3942 73.7233 76.5259 74.0346L40.9244 79.5358C40.4054 79.6395 39.9902 79.6395 39.4713 79.6395H39.2637C34.0739 79.6395 29.9222 75.4878 29.9222 70.298C29.9222 65.1083 34.0739 60.9565 39.2637 60.9565H39.4713C39.9902 60.9565 40.4054 60.9565 40.9244 61.0603L76.5259 66.5614C78.3942 66.8728 79.7436 68.4297 79.7436 70.298ZM79.7436 55.8706C79.7436 59.0882 78.498 62.202 76.2146 64.4855L74.1387 64.1741C75.0728 62.202 75.5918 60.0224 75.5918 57.7389V53.8985C75.5918 50.1619 74.1387 46.6328 71.7514 43.9342C72.1666 43.519 72.6855 43.3114 73.3083 43.3114C73.8273 43.3114 74.2425 43.519 74.6576 43.7266C77.7715 46.0101 79.6398 49.7467 79.6398 53.5871V55.8706H79.7436Z" fill="#F9F9F9"/>
<path id="Vector_2" d="M40.3015 65.1083H38.2256V75.4877H40.3015V65.1083Z" fill="#F9F9F9"/>
<path id="Vector_3" d="M48.6052 65.1083H46.5293V75.4877H48.6052V65.1083Z" fill="#F9F9F9"/>
<path id="Vector_4" d="M56.9089 65.1083H54.833V75.4877H56.9089V65.1083Z" fill="#F9F9F9"/>
<path id="Vector_5" d="M65.2121 67.1842H63.1362V73.4119H65.2121V67.1842Z" fill="#F9F9F9"/>
<path id="Vector_6" d="M73.5158 68.2222H71.4399V72.374H73.5158V68.2222Z" fill="#F9F9F9"/>
</g>
</g>
</g>
<defs>
<linearGradient id="paint0_linear" x1="50" y1="0" x2="50" y2="100" gradientUnits="userSpaceOnUse">
<stop stop-color="#FF9029"/>
<stop offset="1" stop-color="#F34B14"/>
</linearGradient>
</defs>
</svg>
