<svg width="183" height="184" viewBox="0 0 183 184" fill="none" xmlns="http://www.w3.org/2000/svg">
<g id="Click 2">
<g id="Group">
<path id="Vector" d="M160.554 21.6494H22.4461C15.0832 21.6494 8.93555 27.7494 8.93555 35.4282V148.529C8.93555 156.208 15.0475 162.308 22.4461 162.308H160.59C167.953 162.308 174.1 156.208 174.1 148.529V56.5269V56.491V56.4552V35.4282C174.064 27.7494 167.953 21.6494 160.554 21.6494ZM22.4461 27.3906H160.59C164.807 27.3906 168.381 30.907 168.381 35.4282V53.5846H14.6543V35.4282C14.6543 30.907 18.1928 27.3906 22.4461 27.3906ZM160.554 156.567H22.4461C18.2285 156.567 14.6543 153.05 14.6543 148.529V59.3257H168.346V148.529C168.346 153.05 164.771 156.567 160.554 156.567Z" fill="#4F4F4F"/>
<path id="Vector_2" d="M50.4679 51.2165C55.9007 51.2165 60.3327 46.6236 60.3327 40.9542C60.3327 35.2848 55.9007 30.6919 50.4679 30.6919C45.0351 30.6919 40.603 35.2848 40.603 40.9542C40.603 46.6236 45.0351 51.2165 50.4679 51.2165ZM50.4679 36.4689C52.7554 36.4689 54.614 38.4783 54.614 40.9901C54.614 43.5018 52.7554 45.5112 50.4679 45.5112C48.1804 45.5112 46.3218 43.5018 46.3218 40.9901C46.3218 38.4783 48.1804 36.4689 50.4679 36.4689Z" fill="#4F4F4F"/>
<path id="Vector_3" d="M73.2716 51.2163C78.7044 51.2163 83.1364 46.6233 83.1364 40.954C83.1364 35.2846 78.7044 30.7275 73.2716 30.7275C67.8387 30.7275 63.4067 35.3205 63.4067 40.9898C63.4067 46.6592 67.803 51.2163 73.2716 51.2163ZM73.2716 36.4687C75.5591 36.4687 77.4176 38.4781 77.4176 40.9898C77.4176 43.5016 75.5591 45.511 73.2716 45.511C70.9841 45.511 69.1255 43.5016 69.1255 40.9898C69.1255 38.4781 70.9841 36.4687 73.2716 36.4687Z" fill="#4F4F4F"/>
<path id="Vector_4" d="M27.7003 51.2163C33.1331 51.2163 37.5651 46.6233 37.5651 40.954C37.5651 35.2846 33.1331 30.7275 27.7003 30.7275C22.2675 30.7275 17.8354 35.3205 17.8354 40.9898C17.8354 46.6592 22.2317 51.2163 27.7003 51.2163ZM27.7003 36.4687C29.9878 36.4687 31.8464 38.4781 31.8464 40.9898C31.8464 43.5016 29.9878 45.511 27.7003 45.511C25.4128 45.511 23.5542 43.5016 23.5542 40.9898C23.5542 38.4781 25.4128 36.4687 27.7003 36.4687Z" fill="#4F4F4F"/>
<path id="Vector_5" d="M106.297 90.0052L52.3624 107.874C50.8612 108.377 50.0392 109.992 50.5395 111.499C50.6825 111.929 50.9327 112.324 51.2187 112.647L61.2265 122.694L49.8962 134.176C48.7882 135.288 48.7882 137.118 49.8962 138.231L61.8698 150.251C62.9778 151.364 64.8007 151.364 65.9087 150.251L77.3462 138.877L87.354 148.924C88.462 150.036 90.2849 150.036 91.3929 148.924C91.7145 148.601 91.929 148.206 92.072 147.775L109.872 93.6293C110.372 92.1222 109.55 90.5075 108.049 90.0052C107.513 89.8258 106.869 89.8258 106.297 90.0052ZM88.1403 141.568L79.3835 132.777C78.2755 131.664 76.4526 131.664 75.3446 132.777L63.9071 144.151L55.9366 136.15L67.2669 124.667C68.3749 123.555 68.3749 121.725 67.2669 120.613L58.5101 111.822L102.652 97.2175L88.1403 141.568Z" fill="#4F4F4F"/>
<path id="Vector_6" d="M115.912 86.8476C116.662 86.8476 117.413 86.5605 117.949 86.0223L124.419 79.5276C125.527 78.4153 125.527 76.5853 124.419 75.4729C123.311 74.3606 121.488 74.3606 120.38 75.4729L113.91 81.9676C112.802 83.08 112.802 84.91 113.91 86.0223C114.446 86.5247 115.161 86.8476 115.912 86.8476Z" fill="#4F4F4F"/>
<path id="Vector_7" d="M117.949 110.852C116.841 109.74 115.018 109.74 113.91 110.852C112.802 111.965 112.802 113.795 113.91 114.907L120.38 121.402C121.488 122.514 123.311 122.514 124.419 121.402C125.527 120.289 125.527 118.459 124.419 117.347L117.949 110.852Z" fill="#4F4F4F"/>
<path id="Vector_8" d="M85.1021 85.9862C86.2101 87.0985 88.033 87.0985 89.141 85.9503C90.249 84.8379 90.249 83.0438 89.141 81.9315L82.6716 75.4368C81.5636 74.3245 79.7408 74.3245 78.6328 75.4368C77.5248 76.5491 77.5248 78.3791 78.6328 79.4915L85.1021 85.9862Z" fill="#4F4F4F"/>
<path id="Vector_9" d="M101.508 80.855C103.08 80.855 104.367 79.5632 104.367 77.9844V68.7627C104.367 67.1838 103.08 65.8921 101.508 65.8921C99.9352 65.8921 98.6484 67.1838 98.6484 68.7627V77.9844C98.6484 79.5632 99.9352 80.855 101.508 80.855Z" fill="#4F4F4F"/>
<path id="Vector_10" d="M131.067 95.5669H121.881C120.308 95.5669 119.021 96.8587 119.021 98.4375C119.021 100.016 120.308 101.308 121.881 101.308H131.067C132.639 101.308 133.926 100.016 133.926 98.4375C133.926 96.8587 132.639 95.5669 131.067 95.5669Z" fill="#4F4F4F"/>
</g>
</g>
</svg>
