<?xml version="1.0" encoding="utf-8"?>
<!-- Generator: Adobe Illustrator 24.1.2, SVG Export Plug-In . SVG Version: 6.00 Build 0)  -->
<svg version="1.1"
	 id="Capa_1" xmlns:cc="http://creativecommons.org/ns#" xmlns:dc="http://purl.org/dc/elements/1.1/" xmlns:inkscape="http://www.inkscape.org/namespaces/inkscape" xmlns:rdf="http://www.w3.org/1999/02/22-rdf-syntax-ns#" xmlns:sodipodi="http://sodipodi.sourceforge.net/DTD/sodipodi-0.dtd" xmlns:svg="http://www.w3.org/2000/svg"
	 xmlns="http://www.w3.org/2000/svg" xmlns:xlink="http://www.w3.org/1999/xlink" x="0px" y="0px" width="8.5px" height="8.5px"
	 viewBox="0 0 8.5 8.5" style="enable-background:new 0 0 8.5 8.5;" xml:space="preserve">
<g>
	<g>
		<path d="M1.3,1.6c-0.4,0-0.8,0.4-0.8,0.8v3.7c0,0.4,0.4,0.8,0.8,0.8h5.8c0.4,0,0.8-0.4,0.8-0.8V2.4c0-0.4-0.4-0.8-0.8-0.8H1.3z
			 M1.5,2.1H7L4.2,4.4L1.5,2.1z M1.1,2.5l2.1,1.7L1.1,6L1.1,2.5z M7.4,2.5V6L5.4,4.2L7.4,2.5z M3.5,4.5L4.1,5C4.2,5,4.3,5,4.4,5
			l0.5-0.5L7,6.3H1.5L3.5,4.5z"/>
	</g>
</g>
</svg>
