<svg width="100" height="100" viewBox="0 0 100 100" fill="none" xmlns="http://www.w3.org/2000/svg">
<g id="Icon">
<circle id="Ellipse 24" cx="50" cy="50" r="50" fill="url(#paint0_linear)"/>
<g id="Idea_Sustentable 1">
<path id="Vector" d="M41.3394 64.0962V73.5674C41.3394 77.9917 45.063 81.5856 49.6429 81.5856C54.2229 81.5856 57.9465 77.9917 57.9465 73.5674V64.1481C64.3039 61.0861 68.2741 54.8455 68.2741 48.0729C68.2741 43.2075 66.289 38.6535 62.6692 35.2413C58.9066 31.6993 53.7298 29.8439 48.4623 30.1553C43.7915 30.4278 39.3802 32.4258 36.1107 35.7732C32.8282 39.1206 31.0118 43.467 30.9858 48.008C30.9858 54.8714 34.9819 61.1121 41.3394 64.0962ZM55.8706 67.9366V71.4396H43.4152V67.9366H55.8706ZM49.6429 79.4578C46.2047 79.4578 43.4152 76.8889 43.4152 73.5155H55.8706C55.8706 76.8889 53.0811 79.4578 49.6429 79.4578ZM37.6027 37.2263C40.522 34.2552 44.4402 32.4648 48.592 32.2312C48.9293 32.2053 49.2667 32.2053 49.604 32.2053C53.9504 32.2053 58.1411 33.84 61.242 36.7593C64.4337 39.7693 66.1852 43.7913 66.1852 48.0729C66.1852 54.2486 62.3707 59.9184 56.4674 62.5392C56.0912 62.7079 55.8447 63.0712 55.8447 63.4864V65.8607H50.6549V60.2947L54.2488 53.3534C57.207 54.1968 60.2949 52.4712 61.1382 49.513C61.3069 48.9032 61.3847 48.2675 61.3328 47.6317L60.8527 40.2753V40.2623C60.8527 40.2364 60.8398 40.1975 60.8398 40.1715C60.8398 40.1585 60.8398 40.1585 60.8398 40.1456C60.8268 40.1066 60.8268 40.0677 60.8138 40.0288C60.8138 40.0158 60.8138 40.0158 60.8009 40.0028C60.7879 39.9769 60.7749 39.9509 60.7619 39.912C60.7619 39.899 60.749 39.8861 60.749 39.8731C60.736 39.8471 60.723 39.8212 60.71 39.7953C60.71 39.7823 60.6971 39.7823 60.6971 39.7693C60.6711 39.7304 60.6452 39.7044 60.6192 39.6655C60.5933 39.6396 60.5673 39.6136 60.5414 39.5877C60.5284 39.5747 60.5284 39.5747 60.5154 39.5617C60.4895 39.5358 60.4635 39.5228 60.4505 39.5098C60.4376 39.4968 60.4376 39.4968 60.4246 39.4839C60.3986 39.4709 60.3727 39.4449 60.3468 39.432L60.3338 39.419C60.2949 39.406 60.2689 39.3801 60.23 39.3671C60.217 39.3671 60.217 39.3671 60.204 39.3541C60.1781 39.3411 60.1392 39.3282 60.1132 39.3282C60.1002 39.3282 60.0873 39.3282 60.0873 39.3152C60.0613 39.3022 60.0224 39.3022 59.9964 39.3022C59.9835 39.3022 59.9835 39.3022 59.9705 39.3022C59.8927 39.2893 59.8148 39.3022 59.724 39.3022C59.711 39.3022 59.698 39.3022 59.6851 39.3022C59.6591 39.3022 59.6332 39.3152 59.5942 39.3152C59.5813 39.3152 59.5683 39.3152 59.5553 39.3282C59.5164 39.3411 59.4904 39.3541 59.4515 39.3671C59.4515 39.3671 59.4515 39.3671 59.4385 39.3671C59.3996 39.3801 59.3607 39.406 59.3348 39.419H59.3218L52.9514 43.1556C50.7198 44.466 49.6948 47.1387 50.4473 49.6168C50.7976 50.7326 51.4853 51.7057 52.4065 52.4063L48.7088 59.5422C48.6958 59.5551 48.6958 59.5811 48.6828 59.5941L48.1639 58.621C50.5511 56.6749 50.9014 53.1718 48.9553 50.7845C48.5401 50.2655 48.0211 49.8374 47.4503 49.5L41.0799 45.7894C41.0799 45.7894 41.0669 45.7894 41.0669 45.7764C41.0409 45.7634 41.015 45.7505 40.9761 45.7375C40.9631 45.7375 40.9631 45.7245 40.9501 45.7245C40.9112 45.7115 40.8723 45.6986 40.8463 45.6856C40.8334 45.6856 40.8204 45.6856 40.8074 45.6726C40.7815 45.6596 40.7555 45.6596 40.7296 45.6596C40.7166 45.6596 40.7036 45.6596 40.6906 45.6596C40.6647 45.6596 40.6258 45.6596 40.5998 45.6467C40.5868 45.6467 40.5868 45.6467 40.5739 45.6467C40.5349 45.6467 40.496 45.6467 40.4571 45.6467H40.4441C40.4052 45.6467 40.3793 45.6596 40.3403 45.6596C40.3274 45.6596 40.3144 45.6596 40.3014 45.6726C40.2755 45.6856 40.2495 45.6856 40.2106 45.6986C40.1976 45.6986 40.1846 45.7115 40.1717 45.7115C40.1327 45.7245 40.1068 45.7375 40.0679 45.7505H40.0549C40.016 45.7634 39.99 45.7894 39.9511 45.8153C39.9381 45.8153 39.9381 45.8283 39.9252 45.8283C39.8992 45.8413 39.8733 45.8672 39.8473 45.8932C39.8343 45.9062 39.8343 45.9062 39.8214 45.9191C39.7954 45.9451 39.7695 45.971 39.7565 45.984L39.7435 45.997C39.7176 46.0229 39.6916 46.0618 39.6657 46.1008C39.6657 46.1008 39.6657 46.1008 39.6657 46.1137C39.6527 46.1397 39.6267 46.1786 39.6138 46.2046C39.6138 46.2175 39.6008 46.2305 39.6008 46.2305C39.5878 46.2565 39.5748 46.2824 39.5619 46.3084C39.5619 46.3213 39.5489 46.3343 39.5489 46.3473C39.5359 46.3862 39.523 46.4251 39.523 46.4641C39.523 46.4641 39.523 46.4641 39.523 46.477C39.51 46.516 39.51 46.5549 39.51 46.5938V46.6068L39.0429 53.9632C38.8483 57.0381 41.1837 59.6979 44.2586 59.8925C44.3753 59.9055 44.4921 59.9055 44.6089 59.9055C45.1927 59.9055 45.7896 59.8146 46.3474 59.633L48.605 63.8237V65.8607H43.4152V63.4215C43.4152 63.0063 43.1687 62.6301 42.7795 62.4614C36.8632 59.9314 33.0617 54.2616 33.0747 48.008C33.0877 44.0249 34.6965 40.1845 37.6027 37.2263ZM52.4324 49.007C51.9524 47.4501 52.6011 45.7764 54.0023 44.9461L57.2718 43.0259L53.3925 50.525C52.9384 50.1228 52.614 49.5909 52.4324 49.007ZM59.0493 44.1287L59.2829 47.7615C59.3996 49.6947 57.9335 51.3554 56.0133 51.4851C55.7668 51.4981 55.5073 51.4851 55.2608 51.4462L59.0493 44.1287ZM47.9822 55.3644C47.8135 55.8834 47.5411 56.3635 47.1519 56.7657L43.2206 49.4481L46.3993 51.3035C47.8006 52.1338 48.4493 53.8205 47.9822 55.3644ZM41.1188 54.1189L41.3653 50.3823L45.3355 57.7777C44.7646 57.8944 44.1548 57.8685 43.5969 57.6998C42.027 57.2327 41.002 55.7407 41.1188 54.1189Z" fill="#F9F9F9"/>
<path id="Vector_2" d="M49.6429 27.6903C50.2138 27.6903 50.6809 27.2232 50.6809 26.6524V18.738C50.6809 18.1671 50.2138 17.7001 49.6429 17.7001C49.0721 17.7001 48.605 18.1671 48.605 18.738V26.6524C48.605 27.2232 49.0721 27.6903 49.6429 27.6903Z" fill="#F9F9F9"/>
<path id="Vector_3" d="M27.0938 47.3075H18.8421C18.2713 47.3075 17.8042 47.7746 17.8042 48.3454C17.8042 48.9163 18.2713 49.3834 18.8421 49.3834H27.0808C27.6517 49.3834 28.1188 48.9163 28.1188 48.3454C28.1188 47.7746 27.6647 47.3075 27.0938 47.3075Z" fill="#F9F9F9"/>
<path id="Vector_4" d="M80.4441 47.3075H72.2054C71.6346 47.3075 71.1675 47.7746 71.1675 48.3454C71.1675 48.9163 71.6346 49.3834 72.2054 49.3834H80.4441C81.015 49.3834 81.4821 48.9163 81.4821 48.3454C81.4821 47.7746 81.015 47.3075 80.4441 47.3075Z" fill="#F9F9F9"/>
<path id="Vector_5" d="M33.0359 33.7364C33.4511 34.1256 34.1128 34.1126 34.502 33.6974C34.8913 33.2823 34.8783 32.6206 34.4631 32.2313L28.5987 26.6524C28.1835 26.2631 27.5218 26.2761 27.1326 26.6913C26.7434 27.1065 26.7563 27.7682 27.1715 28.1574L33.0359 33.7364Z" fill="#F9F9F9"/>
<path id="Vector_6" d="M65.5365 34.0218C65.8089 34.0218 66.0555 33.918 66.2501 33.7364L72.1145 28.1574C72.5296 27.7682 72.5426 27.1065 72.1534 26.6913C71.7642 26.2761 71.1025 26.2631 70.6873 26.6524L64.8229 32.2313C64.4077 32.6206 64.3947 33.2823 64.784 33.6974C64.9786 33.905 65.251 34.0218 65.5365 34.0218Z" fill="#F9F9F9"/>
</g>
</g>
<defs>
<linearGradient id="paint0_linear" x1="50" y1="0" x2="50" y2="100" gradientUnits="userSpaceOnUse">
<stop stop-color="#FF9029"/>
<stop offset="1" stop-color="#F34B14"/>
</linearGradient>
</defs>
</svg>
