<svg width="38" height="42" viewBox="0 0 38 42" fill="none" xmlns="http://www.w3.org/2000/svg">
<path fill-rule="evenodd" clip-rule="evenodd" d="M16.2715 0.176224C15.12 0.352448 14.3715 1.11608 13.9685 1.93846C13.5654 2.7021 13.3927 3.7007 13.3351 4.46433C13.2775 5.6979 12.5866 6.93147 11.4927 7.63636C10.3988 8.28252 9.01694 8.28252 7.86542 7.69511C7.17452 7.34266 6.25329 7.04895 5.38966 6.99021C4.52602 6.99021 3.48966 7.28391 2.79875 8.16503C1.76238 9.57482 0.898747 11.1608 0.207837 12.7468C-0.195193 13.8042 0.0351101 14.8615 0.495716 15.6252C0.898746 16.3301 1.64723 17.035 2.28057 17.4461C3.31693 18.0923 4.00784 19.3259 4.00784 20.6769C4.00784 22.028 3.31693 23.2028 2.28057 23.9077C1.64723 24.3189 0.898746 25.0238 0.495716 25.7287C0.0351101 26.4923 -0.195193 27.5496 0.207837 28.607C0.841171 30.2517 1.76238 31.8378 2.79875 33.2476C3.48966 34.1874 4.46844 34.4811 5.38966 34.4224C6.19572 34.4224 7.17452 34.1287 7.86542 33.7762C8.95936 33.1888 10.3412 33.1888 11.4927 33.835C12.6442 34.4811 13.3351 35.7147 13.3927 37.007C13.4503 37.7706 13.623 38.7692 14.026 39.5329C14.4291 40.3552 15.1775 41.1189 16.3291 41.2951C18.0563 41.5301 19.8412 41.5301 21.5684 41.2951C22.72 41.1189 23.4684 40.3552 23.8715 39.5329C24.2745 38.7692 24.4472 37.7706 24.5048 37.007C24.5624 35.7734 25.2533 34.5399 26.3472 33.835C27.4412 33.1888 28.823 33.1888 29.9745 33.7762C30.6654 34.1287 31.5866 34.4224 32.4503 34.4811C33.3139 34.4811 34.3503 34.1874 35.0412 33.3063C36.0775 31.8965 36.9412 30.3105 37.6321 28.7245C38.0351 27.6671 37.8048 26.6098 37.3442 25.8462C36.9412 25.1413 36.1927 24.4364 35.5594 24.0252C34.523 23.379 33.8321 22.1454 33.8321 20.7944C33.8321 19.4434 34.523 18.2685 35.5594 17.5636C36.1927 17.1524 36.9412 16.4476 37.3442 15.7427C37.8048 14.979 38.0351 13.9217 37.6321 12.8643C36.9987 11.2196 36.0775 9.63356 35.0412 8.22377C34.3503 7.28391 33.3715 6.99021 32.4503 7.04895C31.6442 7.04895 30.6654 7.34266 29.9745 7.69511C28.8806 8.28252 27.4988 8.28252 26.3472 7.63636C25.1957 6.99021 24.5048 5.75664 24.4472 4.46433C24.3897 3.7007 24.2169 2.7021 23.8139 1.93846C23.4109 1.11608 22.6624 0.352448 21.5109 0.176224C19.7836 -0.0587413 17.9412 -0.0587413 16.2715 0.176224ZM15.5806 4.52307C15.5806 3.93566 15.6957 3.46573 15.926 2.9958C16.1563 2.64335 16.3291 2.52587 16.5018 2.46713C18.0563 2.23216 19.5533 2.29091 21.1078 2.46713C21.2806 2.46713 21.5109 2.58461 21.6836 2.9958C21.9139 3.46573 22.0291 3.93566 22.0291 4.52307C22.0866 6.57902 23.2381 8.51748 25.023 9.63356C26.8654 10.6909 29.0533 10.6909 30.8382 9.75105C31.3563 9.45734 31.7594 9.33986 32.2775 9.33986C32.6806 9.33986 32.9109 9.45734 33.026 9.63356C33.9472 10.9259 34.6957 12.2182 35.3291 13.7454C35.3866 13.9217 35.3866 14.1566 35.2139 14.5091C34.9836 14.9203 34.6381 15.214 34.1775 15.5077C32.5078 16.565 31.4139 18.5035 31.4139 20.7357C31.4139 22.9091 32.5078 24.8475 34.2351 25.9636C34.6957 26.2573 35.0412 26.551 35.2715 27.021C35.5018 27.3734 35.5018 27.6084 35.3866 27.7846C34.8109 29.2531 34.0624 30.6042 33.1412 31.8378C33.026 31.9552 32.8533 32.1315 32.4503 32.0727C31.9897 32.0727 31.5291 31.9552 31.0109 31.6615C29.226 30.7217 27.0382 30.7217 25.1957 31.779C23.3533 32.8364 22.2594 34.8336 22.2018 36.8895C22.2018 37.4769 22.0866 37.9468 21.8563 38.4168C21.626 38.7692 21.4533 38.8867 21.2806 38.9455C19.726 39.1804 18.2291 39.1217 16.6745 38.9455C16.5018 38.9455 16.2715 38.828 16.0988 38.4168C15.8684 37.9468 15.7533 37.4769 15.7533 36.8895C15.6957 34.8336 14.5442 32.8951 12.7594 31.779C10.9169 30.7217 8.72906 30.7217 6.94421 31.6615C6.42603 31.9552 6.023 32.0727 5.50481 32.0727C5.10178 32.0727 4.87149 31.9552 4.75634 31.779C3.83512 30.4867 3.08664 29.1944 2.45331 27.6671C2.39573 27.4909 2.39572 27.2559 2.56845 26.9035C2.79875 26.4923 3.14422 26.1986 3.60482 25.9049C5.27452 24.8476 6.36845 22.9091 6.36845 20.6769C6.36845 18.5035 5.27451 16.565 3.54724 15.449C3.08664 15.1552 2.74117 14.8615 2.51087 14.3916C2.28056 14.0392 2.28058 13.8042 2.39573 13.628C2.97148 12.1594 3.71997 10.8084 4.64118 9.57483C4.75633 9.45734 4.92906 9.28111 5.33209 9.33986C5.7927 9.33986 6.25331 9.45734 6.77149 9.75105C8.55634 10.6909 10.7442 10.6909 12.5866 9.63356C14.4291 8.51748 15.523 6.57902 15.5806 4.52307ZM24.4472 17.4461C26.3472 20.7944 25.2533 24.9063 22.2594 26.6685C19.2654 28.4308 15.2927 27.3734 13.3927 24.0252C11.4927 20.6769 12.5866 16.565 15.5806 14.8028C18.5745 12.9818 22.5472 14.0979 24.4472 17.4461ZM26.4048 16.2713C28.8806 20.6769 27.4988 26.2573 23.3533 28.7245C19.2078 31.1916 13.7957 29.6056 11.32 25.2C8.84421 20.7944 10.226 15.214 14.3715 12.7468C18.5745 10.2797 23.9291 11.8657 26.4048 16.2713Z" fill="#F9F9F9"/>
</svg>
