<svg width="100" height="100" viewBox="0 0 100 100" fill="none" xmlns="http://www.w3.org/2000/svg">
<g id="Icon">
<circle id="Ellipse 23" cx="50" cy="50" r="50" fill="url(#paint0_linear)"/>
<g id="Rocket 1">
<path id="Vector" d="M49.4415 31.9286C45.9188 31.9286 43.1006 34.7468 43.1006 38.2695C43.1006 41.7922 45.9188 44.6104 49.4415 44.6104C52.9642 44.6104 55.7824 41.7922 55.7824 38.2695C55.7824 34.7468 52.8636 31.9286 49.4415 31.9286ZM49.4415 42.6981C47.0259 42.6981 45.1136 40.7857 45.1136 38.3701C45.1136 35.9546 47.0259 34.0422 49.4415 34.0422C51.8571 34.0422 53.7694 35.9546 53.7694 38.3701C53.7694 40.7857 51.7564 42.6981 49.4415 42.6981Z" fill="#F9F9F9"/>
<path id="Vector_2" d="M49.4418 62.7273C46.5229 62.7273 44.208 65.0422 44.208 67.9611C44.208 70.4773 48.0327 79.737 48.5359 80.7435C48.7372 81.1461 49.0392 81.3474 49.4418 81.3474C49.8444 81.3474 50.247 81.1461 50.3476 80.7435C50.7502 79.737 54.6755 70.3766 54.6755 67.9611C54.6755 65.1429 52.26 62.7273 49.4418 62.7273ZM49.4418 77.7241C47.932 74 46.221 69.2695 46.221 67.9611C46.221 66.1494 47.6301 64.7403 49.4418 64.7403C51.2535 64.7403 52.6626 66.1494 52.6626 67.9611C52.6626 69.2695 50.9515 74 49.4418 77.7241Z" fill="#F9F9F9"/>
<path id="Vector_3" d="M64.8409 46.9253C64.7403 46.1201 64.237 45.4156 63.6331 45.2143C62.8279 44.8117 62.0227 44.6104 61.1169 44.3084C61.1169 35.25 57.7955 26.1915 51.2533 19.3474L50.1461 18.1396C49.7435 17.737 49.039 17.737 48.737 18.1396L47.6299 19.3474C41.0877 26.1915 37.6656 35.25 37.7662 44.3084C36.961 44.6104 36.0552 44.8117 35.25 45.2143C34.6461 45.5162 34.1429 46.1201 34.0422 46.9253C33.0357 52.763 34.3442 58.9026 37.7662 63.7338C38.2695 64.4383 38.974 64.8409 39.6786 64.8409C39.7792 64.8409 39.8799 64.8409 39.9805 64.8409C40.5844 64.7402 41.0877 64.237 41.1883 63.6331C41.3896 62.8279 41.6916 61.9221 42.0942 61.1169C42.3961 61.6201 42.6981 62.224 43 62.7273C43.1007 63.0292 43.4026 63.1299 43.7046 63.2305C44.0065 63.2305 44.3085 63.2305 44.5097 63.0292C47.5292 60.6136 51.6559 60.6136 54.5747 63.0292C54.776 63.1299 54.9773 63.2305 55.1786 63.2305C55.2792 63.2305 55.2792 63.2305 55.3799 63.2305C55.6818 63.2305 55.8831 63.0292 56.0844 62.7273C56.3864 62.224 56.6883 61.6201 56.9903 61.1169C57.2922 61.9221 57.5942 62.7273 57.7955 63.6331C57.9968 64.237 58.3994 64.7402 59.0033 64.8409C59.1039 64.8409 59.2046 64.8409 59.3052 64.8409C60.0097 64.8409 60.7143 64.4383 61.1169 63.7338C64.539 58.9026 65.9481 52.763 64.8409 46.9253ZM49.039 20.7565L49.4416 20.3539L49.8442 20.7565C51.7565 22.7695 53.3669 24.8831 54.6753 27.198H44.1072C45.5162 24.8831 47.1266 22.6688 49.039 20.7565ZM39.276 62.526C36.1559 58.0974 34.9481 52.5617 35.8539 47.2273C35.8539 47.026 35.9546 46.9253 35.9546 46.9253C36.5584 46.6234 37.0617 46.4221 37.6656 46.2208C37.9675 50.448 38.974 54.6753 40.7857 58.7013C40.1818 60.0097 39.6786 61.2175 39.276 62.526ZM54.776 60.7143C51.4546 58.6006 47.3279 58.6006 44.0065 60.7143C38.4708 50.8506 38.2695 38.974 43.1007 29.211H55.6818C60.513 39.0747 60.3117 50.8506 54.776 60.7143ZM59.5065 62.526C59.1039 61.2175 58.6007 60.0097 57.9968 58.8019C59.8085 54.776 60.8149 50.5487 61.1169 46.3214C61.7208 46.5227 62.3247 46.724 62.8279 46.9253C62.8279 46.9253 62.9286 47.026 62.9286 47.2273C63.8344 52.5617 62.6266 58.0974 59.5065 62.526Z" fill="#F9F9F9"/>
</g>
</g>
<defs>
<linearGradient id="paint0_linear" x1="50" y1="0" x2="50" y2="100" gradientUnits="userSpaceOnUse">
<stop stop-color="#FF9029"/>
<stop offset="1" stop-color="#F34B14"/>
</linearGradient>
</defs>
</svg>
