<svg width="42" height="42" viewBox="0 0 42 42" fill="none" xmlns="http://www.w3.org/2000/svg">
<path fill-rule="evenodd" clip-rule="evenodd" d="M31.5863 26.2857C33.4274 23.6 34.463 20.3429 34.463 16.9143C34.463 7.6 26.811 0 17.3753 0C7.93972 0 0.287663 7.54286 0.287663 16.9143C0.287663 26.2857 7.93972 33.8286 17.3753 33.8286C20.7699 33.8286 23.9918 32.8571 26.6384 31.1429L27.3288 31.8286L36.074 40.5143C37.4548 41.8286 39.6411 41.8286 40.9644 40.5143C42.3452 39.2 42.3452 36.9714 40.9644 35.6571L32.2192 26.9714L31.5863 26.2857ZM17.3753 31.5429C25.5452 31.5429 32.1616 24.9714 32.1616 16.9143C32.1616 8.85715 25.5452 2.28571 17.3753 2.28571C9.20547 2.28571 2.58903 8.85715 2.58903 16.9143C2.58903 24.9714 9.20547 31.5429 17.3753 31.5429ZM30.6082 28.5143L28.9397 30.1714L37.6849 38.8571C38.1452 39.3143 38.8931 39.3143 39.3534 38.8571C39.8137 38.4 39.8137 37.6571 39.3534 37.2L30.6082 28.5143Z" fill="#F9F9F9"/>
</svg>
