<?xml version="1.0" encoding="utf-8"?>
<!-- Generator: Adobe Illustrator 24.1.2, SVG Export Plug-In . SVG Version: 6.00 Build 0)  -->
<svg version="1.1" id="Capa_1" xmlns="http://www.w3.org/2000/svg" xmlns:xlink="http://www.w3.org/1999/xlink" x="0px" y="0px"
	 viewBox="0 0 512 512" style="enable-background:new 0 0 512 512;" xml:space="preserve">
<g>
	<path d="M449.2,59.8H62.8c-20.6,0-37.8,17-37.8,38.4v315.2c0,21.4,17.1,38.4,37.8,38.4h386.5c20.6,0,37.8-17,37.8-38.4V157
		c0,0,0-0.1,0-0.1s0-0.1,0-0.1V98.2C487,76.8,469.9,59.8,449.2,59.8z M62.8,75.8h386.5c11.8,0,21.8,9.8,21.8,22.4v50.6H41V98.2
		C41,85.6,50.9,75.8,62.8,75.8z M449.2,435.8H62.8c-11.8,0-21.8-9.8-21.8-22.4V164.8h430v248.6C471,426,461,435.8,449.2,435.8z"/>
	<path d="M141.2,142.2c15.2,0,27.6-12.8,27.6-28.6s-12.4-28.6-27.6-28.6s-27.6,12.8-27.6,28.6S126,142.2,141.2,142.2z M141.2,101.1
		c6.4,0,11.6,5.6,11.6,12.6s-5.2,12.6-11.6,12.6s-11.6-5.6-11.6-12.6S134.8,101.1,141.2,101.1z"/>
	<path d="M205,142.2c15.2,0,27.6-12.8,27.6-28.6S220.2,85.1,205,85.1s-27.6,12.8-27.6,28.6S189.7,142.2,205,142.2z M205,101.1
		c6.4,0,11.6,5.6,11.6,12.6s-5.2,12.6-11.6,12.6s-11.6-5.6-11.6-12.6S198.6,101.1,205,101.1z"/>
	<path d="M77.5,142.2c15.2,0,27.6-12.8,27.6-28.6S92.7,85.1,77.5,85.1s-27.6,12.8-27.6,28.6S62.2,142.2,77.5,142.2z M77.5,101.1
		c6.4,0,11.6,5.6,11.6,12.6s-5.2,12.6-11.6,12.6s-11.6-5.6-11.6-12.6S71.1,101.1,77.5,101.1z"/>
	<path d="M297.4,250.3l-150.9,49.8c-4.2,1.4-6.5,5.9-5.1,10.1c0.4,1.2,1.1,2.3,1.9,3.2l28,28l-31.7,32c-3.1,3.1-3.1,8.2,0,11.3
		l33.5,33.5c3.1,3.1,8.2,3.1,11.3,0l32-31.7l28,28c3.1,3.1,8.2,3.1,11.3,0c0.9-0.9,1.5-2,1.9-3.2l49.8-150.9
		c1.4-4.2-0.9-8.7-5.1-10.1C300.8,249.8,299,249.8,297.4,250.3L297.4,250.3z M246.6,394l-24.5-24.5c-3.1-3.1-8.2-3.1-11.3,0
		l-32,31.7l-22.3-22.3l31.7-32c3.1-3.1,3.1-8.2,0-11.3l-24.5-24.5l123.5-40.7L246.6,394z"/>
	<path d="M324.3,241.5c2.1,0,4.2-0.8,5.7-2.3l18.1-18.1c3.1-3.1,3.1-8.2,0-11.3s-8.2-3.1-11.3,0l-18.1,18.1c-3.1,3.1-3.1,8.2,0,11.3
		C320.2,240.6,322.2,241.5,324.3,241.5L324.3,241.5z"/>
	<path d="M330,308.4c-3.1-3.1-8.2-3.1-11.3,0s-3.1,8.2,0,11.3l18.1,18.1c3.1,3.1,8.2,3.1,11.3,0c3.1-3.1,3.1-8.2,0-11.3l0,0
		L330,308.4z"/>
	<path d="M238.1,239.1c3.1,3.1,8.2,3.1,11.3-0.1c3.1-3.1,3.1-8.1,0-11.2l-18.1-18.1c-3.1-3.1-8.2-3.1-11.3,0s-3.1,8.2,0,11.3
		L238.1,239.1z"/>
	<path d="M284,224.8c4.4,0,8-3.6,8-8v-25.7c0-4.4-3.6-8-8-8s-8,3.6-8,8v25.7C276,221.2,279.6,224.8,284,224.8
		C284,224.8,284,224.8,284,224.8z"/>
	<path d="M366.7,265.8H341c-4.4,0-8,3.6-8,8s3.6,8,8,8h25.7c4.4,0,8-3.6,8-8S371.1,265.8,366.7,265.8z"/>
</g>
</svg>
