<svg width="90" height="90" viewBox="0 0 90 90" fill="none" xmlns="http://www.w3.org/2000/svg">
<g id="Comida Sana-01 1">
<path id="Vector" d="M14.6249 10.3949C14.6249 9.71993 14.6249 9.17993 14.6249 8.59493C14.6699 6.65993 16.1549 5.17493 18.0899 5.12993C20.0249 5.08493 21.5999 6.52493 21.7349 8.45993C21.7799 9.08993 21.7349 9.67493 21.7349 10.3499C25.0199 10.3499 28.2149 10.3499 31.4999 10.3499C31.4999 9.80993 31.4999 9.22493 31.4999 8.68493C31.5449 6.70493 33.0299 5.17493 35.0099 5.12993C36.9899 5.12993 38.5199 6.61493 38.6099 8.59493C38.6099 9.13493 38.6099 9.71993 38.6099 10.3949C40.2749 10.3949 41.8499 10.3949 43.4699 10.3949C45.0899 10.3949 46.6649 10.3949 48.3749 10.3949C48.3749 9.80993 48.3749 9.31493 48.3749 8.77493C48.3749 6.70493 49.8599 5.17493 51.8849 5.12993C53.9099 5.08493 55.4399 6.65993 55.4849 8.72993C55.4849 9.22493 55.4849 9.76493 55.4849 10.3049C55.7549 10.3049 55.9799 10.3499 56.1599 10.3499C57.5099 10.3499 58.8599 10.3499 60.2099 10.3499C63.2699 10.3499 65.1149 12.1499 65.1149 15.2099C65.1149 25.1099 65.1149 35.0549 65.1149 44.9549C65.1149 45.6749 65.3399 46.1699 65.7449 46.7549C66.3749 47.7449 67.1399 48.1949 68.3099 48.2849C69.9299 48.4649 71.3249 49.3199 72.5399 50.5349C73.3949 48.2849 74.7899 46.5749 77.2199 45.8549C77.0849 45.5849 76.9499 45.3599 76.8149 45.1349C75.5549 42.8399 74.2499 40.5449 72.9899 38.2049C72.8999 38.0699 72.81 37.8899 72.7199 37.7549C72.45 37.2149 72.4499 36.7199 73.035 36.4499C73.5749 36.1799 73.9799 36.4049 74.2499 36.8999C75.1049 38.4749 76.0049 40.0499 76.8599 41.6249C77.0849 42.0299 77.3099 42.4799 77.7149 42.8399C77.7149 42.3899 77.7149 41.9849 77.7149 41.5349C77.7149 39.3749 77.7149 37.2599 77.7149 35.0999C77.7149 34.4699 77.8499 34.0199 78.5699 33.9749C79.1549 33.9299 79.4699 34.3349 79.5149 35.1449C79.5149 37.7099 79.5149 40.2749 79.5149 43.0199C79.7399 42.7049 79.8749 42.5249 79.9649 42.3449C80.8649 40.7249 81.7649 39.0599 82.6649 37.4399C82.7549 37.3049 82.7999 37.1699 82.8899 37.0349C83.2949 36.3599 83.7449 36.1349 84.2399 36.4499C84.7349 36.7649 84.7799 37.2149 84.42 37.9349C83.4299 39.7349 82.4399 41.4899 81.4499 43.2899C80.9999 44.0999 80.5499 44.9099 80.0999 45.7199C80.1449 45.8099 80.1449 45.8549 80.1899 45.8999C83.3849 47.0249 84.8699 49.4999 85.0949 52.6499C85.2749 54.5849 85.0049 56.5649 84.7349 58.5449C84.0599 64.0799 83.2949 69.6149 82.5749 75.1049C82.2599 77.6249 81.8999 80.1899 80.9549 82.5749C80.6399 83.3399 80.2349 84.1049 79.785 84.7799C79.02 85.8149 78.1199 85.8599 77.3549 84.7799C76.7699 83.9699 76.2749 83.0249 75.9599 82.0349C74.9699 79.2449 74.7 76.3199 74.2949 73.3949C74.2049 72.6299 74.0699 71.8199 73.9799 71.0549C73.0799 71.2349 72.1799 71.4149 71.3249 71.5949C71.1449 71.6399 70.9199 71.8199 70.785 71.9549C68.6699 74.0699 66.5549 76.1849 64.4399 78.2999C64.2149 78.5249 64.0799 78.8849 64.0799 79.1999C64.0349 80.4599 64.0799 81.7649 64.0799 83.0249C64.0799 83.8799 63.7649 84.1949 62.9099 84.1949C59.7149 84.1949 56.5649 84.1949 53.3699 84.1949C52.5149 84.1949 52.2449 83.8799 52.2449 83.0249C52.2449 81.7199 52.2449 80.4599 52.2449 79.1999C52.2449 78.8849 52.1099 78.5249 51.8849 78.2999C49.8149 76.1849 47.6999 74.1149 45.6299 71.9999C45.4049 71.7749 45.0899 71.5949 44.8199 71.5499C43.4699 71.3699 42.2549 70.9199 41.1299 70.1549C40.6799 69.8399 39.7799 70.2449 39.7349 70.7849C39.6899 72.4949 39.7349 74.2499 39.7349 75.9149C42.7499 76.9949 43.9649 79.3349 42.8399 81.7649C41.7599 84.1949 39.1949 84.8249 36.4949 83.3399C34.9199 84.4199 33.2999 84.5549 31.6799 83.4749C30.1949 82.4849 29.6099 81.0449 29.9249 79.2899C30.2849 77.4899 31.4549 76.4549 33.2549 75.9599C33.2549 74.1599 33.2549 72.3149 33.2549 70.3799C32.9399 70.3799 32.6699 70.3799 32.3549 70.3799C24.7499 70.3799 17.0999 70.3799 9.49494 70.3799C7.24494 70.3799 5.48994 69.0749 4.94994 67.0049C4.85994 66.5999 4.81494 66.1049 4.81494 65.6999C4.81494 48.8249 4.81494 31.9049 4.81494 15.0299C4.81494 12.0599 6.65994 10.2599 9.62994 10.2599C11.3849 10.3949 12.9599 10.3949 14.6249 10.3949ZM6.74994 24.2999C6.74994 24.6149 6.74994 24.7949 6.74994 25.0199C6.74994 38.6099 6.74994 52.2449 6.74994 65.8349C6.74994 67.7249 7.82994 68.8049 9.76494 68.8049C16.5599 68.8049 23.3549 68.8049 30.1949 68.8049C30.4199 68.8049 30.5999 68.7599 30.9149 68.7599C29.5649 67.2749 28.5299 65.7449 27.9899 63.9449C27.6299 62.7299 27.1349 62.1449 25.8299 62.3699C25.1549 62.4599 24.7499 62.0549 24.7499 61.3349C24.7499 58.9499 24.7499 56.5649 24.7499 54.1799C24.7499 53.5049 25.1099 53.1899 25.7399 53.1449C26.1449 53.1449 26.5499 53.1449 26.9549 53.1449C27.1349 52.3799 27.2699 51.7499 27.4499 50.9849C26.9549 50.9849 26.5049 50.9849 26.0549 50.9849C24.9749 50.9849 24.7049 50.7149 24.7049 49.6799C24.7049 47.4749 24.7049 45.2249 24.7049 43.0199C24.7049 41.9849 24.9299 41.7599 25.9649 41.7599C28.0799 41.7599 30.1949 41.7599 32.3099 41.7599C33.0749 41.7599 33.8399 41.7149 33.9299 42.7499C34.6499 42.5249 35.2799 42.3899 35.8649 42.1649C36.2699 42.0299 36.6299 41.7599 37.0349 41.7599C39.2399 41.7149 41.4899 41.7149 43.6949 41.7599C44.7299 41.7599 44.9549 42.0299 44.9549 43.0199C44.9549 44.8649 44.9549 46.6649 44.9549 48.5099C44.9549 48.8249 44.9999 49.0949 45.0449 49.4999C45.6299 49.2299 46.0349 48.9599 46.5299 48.7799C46.9799 48.5999 47.0699 48.3299 47.0699 47.8799C47.0249 46.2149 47.0699 44.5049 47.0699 42.8399C47.0699 42.2099 47.3399 41.7599 48.0149 41.7599C50.4449 41.7599 52.8749 41.7599 55.3499 41.7599C55.9349 41.7599 56.2499 42.0749 56.2949 42.6599C56.2949 42.8399 56.3399 43.0199 56.3399 43.2449C58.7699 42.7949 61.0199 43.2449 63.1799 44.4599C63.1799 37.6199 63.1799 30.9149 63.1799 24.1649C44.4599 24.2999 25.6499 24.2999 6.74994 24.2999ZM72.0449 54.9899C72.0449 52.5599 71.7299 52.0199 70.2899 51.0299C69.1649 50.2649 67.9049 49.8599 66.5099 49.9499C65.8349 49.9949 65.4749 49.7249 65.1599 49.1399C63.6749 46.4399 61.3799 44.9549 58.2749 44.9549C55.1699 44.9549 52.8749 46.4399 51.3899 49.1399C51.0749 49.7249 50.7149 49.9499 50.0399 49.9049C46.2149 49.7699 43.1999 52.9649 43.6049 56.7899C43.6949 57.5549 43.4699 58.0049 42.7499 58.3649C40.4099 59.6249 39.2399 62.0999 39.5999 64.7549C39.9599 67.1849 41.9849 69.2999 44.4149 69.7499C47.0249 70.2449 49.5899 69.1199 50.9399 66.8699C51.6149 65.7899 51.9749 65.7449 52.8749 66.5549C55.8899 69.3899 60.5249 69.3899 63.5399 66.5549C64.4399 65.6999 64.8449 65.7449 65.4749 66.8249C67.0949 69.5249 70.4699 70.6049 73.2599 69.2999C73.6199 69.1199 73.7999 68.9399 73.7099 68.5349C73.3949 66.1499 73.0799 63.8099 72.7649 61.4249C72.5399 59.1299 72.27 56.7449 72.0449 54.9899ZM6.79494 22.4099C25.6949 22.4099 44.5049 22.4099 63.3599 22.4099C63.3599 19.7549 63.4049 17.1449 63.3599 14.5349C63.3599 13.4099 62.4149 12.3749 61.2449 12.2849C59.3549 12.1499 57.4649 12.2399 55.5299 12.2399C55.5299 12.9149 55.5299 13.5899 55.5299 14.2199C55.5299 16.3799 53.9999 17.9549 51.9749 17.9999C49.9499 17.9999 48.4199 16.3799 48.4199 14.2649C48.4199 13.5899 48.4199 12.9149 48.4199 12.1949C45.1349 12.1949 41.9399 12.1949 38.6549 12.1949C38.6549 12.9599 38.6549 13.6349 38.6549 14.3549C38.6099 16.3799 37.1249 17.9549 35.1449 17.9999C33.1649 18.0449 31.5899 16.4249 31.5449 14.3549C31.5449 13.6349 31.5449 12.9599 31.5449 12.2399C28.2599 12.2399 25.0199 12.2399 21.7799 12.2399C21.7799 13.0049 21.7799 13.6799 21.7799 14.3549C21.7349 16.4249 20.2049 18.0449 18.1799 17.9999C16.1999 17.9999 14.6699 16.4249 14.6699 14.3549C14.6699 13.6349 14.6699 12.9599 14.6699 12.1949C12.7349 12.1949 10.8449 12.1049 8.99994 12.2399C7.82994 12.3299 6.88494 13.3199 6.83994 14.4449C6.74994 17.0999 6.79494 19.7549 6.79494 22.4099ZM41.9399 54.1349C41.6699 54.1349 41.3999 54.1349 41.1299 54.1349C39.1049 54.1349 37.0799 54.1349 35.0549 54.1349C34.2449 54.1349 33.7949 53.6399 34.0199 53.0099C34.1999 52.4699 34.6499 52.3799 35.1449 52.3799C37.3499 52.3799 39.5999 52.3799 41.8049 52.3799C42.5699 52.3799 43.5599 51.6599 43.7399 50.9399C43.7849 50.8499 43.7399 50.7149 43.6949 50.5799C42.9299 48.5099 41.8049 46.6649 40.0049 45.3149C37.8449 43.7399 35.3249 43.7399 33.1649 45.3599C31.9949 46.2149 31.1399 47.3849 30.4649 48.6449C29.1599 51.0749 28.5749 53.6849 28.5299 56.4749C28.4849 60.1199 29.2049 63.5849 31.4099 66.5999C32.3099 67.8599 33.4799 68.8499 34.9649 69.3449C36.5849 69.8849 38.1149 69.7049 39.5549 68.7599C37.8899 66.5099 37.4399 64.0799 38.1599 61.4249C37.1699 61.4249 36.3149 61.4249 35.4149 61.4249C34.4249 61.4249 34.0199 61.1549 34.0199 60.5249C34.0199 59.8949 34.4249 59.6699 35.4599 59.6699C36.4949 59.6699 37.5299 59.6699 38.5649 59.6699C38.7899 59.6699 39.0599 59.4899 39.2399 59.3549C40.0049 58.6349 40.7699 57.9149 41.4899 57.1499C41.6249 57.0149 41.8049 56.8349 41.8049 56.6549C41.8499 55.8449 41.8949 55.0349 41.9399 54.1349ZM83.2049 56.9249C83.7899 54.5399 83.6099 52.0649 82.6649 50.2649C81.8099 48.6449 80.5499 47.5649 78.66 47.5649C76.77 47.5649 75.5099 48.6449 74.6549 50.2649C73.7549 51.9749 73.6199 53.8649 73.8899 55.7549C74.2949 58.9949 74.6999 62.2349 75.1499 65.5199C75.7349 69.7949 76.2749 74.1149 76.9499 78.3899C77.2199 80.1899 77.7149 81.9899 78.7049 83.7899C80.3249 80.3249 80.7299 76.7699 81.1799 73.0799C80.7299 73.0799 80.4149 73.0799 80.0549 73.0799C79.4699 73.0799 79.02 72.8549 79.02 72.1799C79.02 71.5049 79.4699 71.3249 80.0549 71.2799C81.4049 71.2349 81.4049 71.2349 81.6299 69.8849C81.8099 68.4899 81.99 67.0499 82.17 65.5649C81.45 65.5649 80.8199 65.5649 80.145 65.5649C79.5149 65.5649 79.0649 65.4299 79.02 64.7099C78.9749 64.1249 79.3799 63.8099 80.1899 63.7649C80.9099 63.7649 81.6749 63.7649 82.395 63.7649C82.6199 62.0099 82.8449 60.3899 83.0699 58.6349C82.035 58.6349 81.0899 58.6349 80.1899 58.6349C79.3799 58.6349 78.9749 58.3199 79.02 57.7349C79.0649 57.0149 79.5599 56.8799 80.1899 56.8799C81.1799 56.9249 82.1699 56.9249 83.2049 56.9249ZM57.0149 70.5599C57.0149 70.7849 56.9699 71.0099 56.9699 71.2349C56.9699 72.4499 57.0149 73.6649 56.9249 74.8349C56.9249 75.1499 56.6549 75.6449 56.3849 75.7349C56.1149 75.8249 55.6649 75.6449 55.3499 75.4649C55.1249 75.3749 54.9899 75.1499 54.8099 74.9699C53.2799 73.4399 51.7499 71.9099 50.2649 70.3799C49.3649 70.7849 48.5549 71.1449 47.6999 71.5499C49.6799 73.5299 51.6149 75.4649 53.5949 77.3999C53.9999 77.8049 54.1799 78.2099 54.1799 78.7499C54.1349 79.9649 54.1799 81.1799 54.1799 82.3949C57.0149 82.3949 59.7149 82.3949 62.4599 82.3949C62.4599 81.1799 62.5049 80.0549 62.4599 78.9299C62.4149 78.2099 62.6849 77.6699 63.1799 77.1749C64.9799 75.4199 66.6899 73.6649 68.4899 71.9099C68.6249 71.7749 68.7599 71.5949 68.895 71.4599C68.0399 71.0549 67.2299 70.6949 66.3749 70.2899C64.7549 71.9099 63.0899 73.5749 61.4249 75.2399C61.0649 75.5999 60.7499 75.9149 60.2099 75.6899C59.6699 75.4649 59.6699 75.0149 59.6699 74.5199C59.6699 73.1699 59.6699 71.8199 59.6699 70.4699C58.7249 70.5599 57.8699 70.5599 57.0149 70.5599ZM35.1899 71.3699C35.1899 73.2149 35.1899 75.0149 35.1899 76.8599C35.1899 77.6699 34.9199 77.9399 34.1549 77.9849C32.9399 78.0299 32.0399 78.7049 31.8149 79.7399C31.5899 80.7749 32.0399 81.8099 32.9399 82.3499C33.9299 82.9349 34.9649 82.7099 35.8649 81.8099C36.4499 81.2249 36.8099 81.3149 37.4399 81.8099C37.9349 82.1699 38.5199 82.5749 39.1049 82.6199C40.3649 82.7999 41.4899 81.7199 41.5349 80.4149C41.5799 79.1099 40.5449 78.0299 39.1949 77.9849C38.2949 77.9399 38.0699 77.7149 38.0699 76.8149C38.0699 76.4999 38.0699 76.2299 38.0699 75.9149C38.0699 74.4299 38.0699 72.8999 38.0699 71.4149C37.0799 71.3699 36.1799 71.3699 35.1899 71.3699ZM33.2549 11.5649C33.2549 12.5099 33.2549 13.4999 33.2549 14.4449C33.2549 15.4799 34.0649 16.2449 35.0099 16.2449C35.9999 16.2449 36.7649 15.4799 36.7649 14.4449C36.8099 12.5549 36.7649 10.6649 36.7649 8.77493C36.7649 7.69493 35.9999 6.92993 34.9649 6.97493C33.9749 6.97493 33.2549 7.73993 33.2549 8.77493C33.2549 9.67493 33.2549 10.6199 33.2549 11.5649ZM50.1299 11.5199C50.1299 12.4649 50.1299 13.4099 50.1299 14.3099C50.1299 15.3899 50.8499 16.1999 51.8849 16.1999C52.8749 16.1999 53.6849 15.4349 53.6849 14.3549C53.6849 12.4649 53.6849 10.6199 53.6849 8.72993C53.6849 7.64993 52.9199 6.88493 51.8849 6.88493C50.8499 6.88493 50.1299 7.64993 50.1299 8.77493C50.1299 9.71993 50.1299 10.6199 50.1299 11.5199ZM16.4249 11.5649C16.4249 12.5099 16.4249 13.4549 16.4249 14.3549C16.4249 15.4349 17.1899 16.1999 18.2249 16.1999C19.2149 16.1999 19.9799 15.4349 19.9799 14.3999C19.9799 12.5099 19.9799 10.6199 19.9799 8.72993C19.9799 7.64993 19.2149 6.92993 18.2249 6.92993C17.1899 6.92993 16.4699 7.64993 16.4249 8.77493C16.3799 9.71993 16.4249 10.6649 16.4249 11.5649ZM26.5949 49.1849C28.0349 49.4099 28.0349 49.4099 28.6649 48.2399C29.4749 46.6649 30.4649 45.2699 31.8599 44.1449C31.9949 44.0549 32.0849 43.8749 32.3099 43.6499C30.3299 43.6499 28.4849 43.6499 26.5949 43.6499C26.5949 45.5399 26.5949 47.3849 26.5949 49.1849ZM49.0049 48.1049C49.6349 48.2399 49.9949 48.0149 50.3099 47.5199C51.2099 46.0349 52.5149 44.9549 54.0449 44.1449C54.2249 44.0549 54.4049 43.9199 54.6299 43.8299C54.6299 43.7849 54.5849 43.7399 54.5849 43.6499C52.7399 43.6499 50.8949 43.6499 49.0049 43.6499C49.0049 45.1799 49.0049 46.6199 49.0049 48.1049ZM55.2149 72.6749C55.2149 71.9099 55.2149 71.1899 55.2149 70.4699C55.2149 70.2899 55.1249 70.0649 54.9899 69.9749C54.0899 69.4799 53.1449 68.9849 52.1549 68.4899C51.9749 68.7149 51.7949 68.9399 51.6599 69.0749C52.8749 70.3349 53.9999 71.5049 55.2149 72.6749ZM64.4399 68.5349C63.4499 69.0299 62.5949 69.5249 61.6949 69.9749C61.5599 70.0649 61.3799 70.2449 61.3799 70.3799C61.3349 71.1449 61.3799 71.8649 61.3799 72.5849C62.5499 71.4149 63.7199 70.2449 64.8899 69.0749C64.7999 68.9399 64.6199 68.7149 64.4399 68.5349ZM43.2449 43.6949C42.4349 43.6949 41.6699 43.6949 40.9049 43.6949C41.7149 44.4599 42.4349 45.1799 43.2449 45.8999C43.2449 45.1349 43.2449 44.4149 43.2449 43.6949ZM26.9099 60.8399C26.8199 58.7699 26.7299 56.9249 26.6399 55.0799C26.5499 56.8349 26.5499 58.5899 26.5499 60.2999C26.5499 60.4349 26.7299 60.5699 26.9099 60.8399Z" fill="#F9F9F9"/>
<path id="Vector_2" d="M13.6802 57.8249C13.6802 56.6549 13.6802 55.5299 13.6802 54.3599C13.6802 53.5049 13.9502 53.2349 14.8052 53.2349C17.1002 53.2349 19.4402 53.2349 21.7352 53.2349C22.5902 53.2349 22.9052 53.5499 22.9052 54.4049C22.9052 56.6999 22.9052 58.9949 22.9052 61.2899C22.9052 62.1449 22.5902 62.4599 21.7352 62.4599C19.4402 62.4599 17.1002 62.4599 14.8052 62.4599C13.9952 62.4599 13.7252 62.1449 13.6802 61.3349C13.6802 60.1199 13.6802 58.9499 13.6802 57.8249ZM21.1052 54.9899C19.3052 54.9899 17.5952 54.9899 15.8852 55.0349C15.7502 55.0349 15.4802 55.3949 15.4802 55.5749C15.4352 57.1049 15.4802 58.6349 15.4352 60.1649C15.4352 60.5699 15.5702 60.7499 15.9752 60.7049C16.7852 60.6599 17.5952 60.7049 18.4052 60.7049C19.2602 60.7049 20.1602 60.7049 21.0602 60.7049C21.1052 58.7249 21.1052 56.9249 21.1052 54.9899Z" fill="#F9F9F9"/>
<path id="Vector_3" d="M18.2252 39.6901C17.0552 39.6901 15.9302 39.6901 14.7602 39.6901C13.9952 39.6901 13.6802 39.3751 13.6802 38.6101C13.6802 36.2251 13.6802 33.8851 13.6802 31.5001C13.6802 30.7801 13.9952 30.4651 14.7152 30.4651C17.1002 30.4651 19.4402 30.4651 21.8252 30.4651C22.5452 30.4651 22.8602 30.7801 22.8602 31.5001C22.8602 33.8851 22.8602 36.2251 22.8602 38.6101C22.8602 39.3751 22.5452 39.6901 21.7352 39.6901C20.6102 39.6901 19.4402 39.6901 18.2252 39.6901ZM21.0602 32.3101C19.1702 32.3101 17.3252 32.3101 15.4802 32.3101C15.4802 34.2001 15.4802 36.0001 15.4802 37.8451C17.3702 37.8451 19.2152 37.8451 21.0602 37.8451C21.0602 35.9551 21.0602 34.1551 21.0602 32.3101Z" fill="#F9F9F9"/>
<path id="Vector_4" d="M18.2702 41.8501C19.3952 41.8501 20.5202 41.8501 21.6902 41.8501C22.5902 41.8501 22.9052 42.1201 22.9052 43.0201C22.9052 45.3151 22.9052 47.6101 22.9052 49.9051C22.9052 50.7601 22.5902 51.0751 21.7352 51.0751C19.4402 51.0751 17.1452 51.0751 14.8502 51.0751C13.9952 51.0751 13.6802 50.7601 13.6802 49.9051C13.6802 47.6101 13.6802 45.2701 13.6802 42.9751C13.6802 42.1201 13.9502 41.8951 14.8052 41.8501C15.9752 41.8501 17.1002 41.8501 18.2702 41.8501ZM15.4802 49.2301C17.4152 49.2301 19.2152 49.2301 21.0602 49.2301C21.0602 47.3401 21.0602 45.4951 21.0602 43.6951C19.1702 43.6951 17.3252 43.6951 15.4802 43.6951C15.4802 45.5401 15.4802 47.3851 15.4802 49.2301Z" fill="#F9F9F9"/>
<path id="Vector_5" d="M29.43 39.6901C28.26 39.6901 27.045 39.6901 25.875 39.6901C25.11 39.6901 24.795 39.3751 24.75 38.6101C24.75 36.2251 24.75 33.8851 24.75 31.5001C24.75 30.7801 25.065 30.4651 25.785 30.4651C28.17 30.4651 30.51 30.4651 32.895 30.4651C33.66 30.4651 33.975 30.7801 33.975 31.5451C33.975 33.8851 33.975 36.2251 33.975 38.5651C33.975 39.3301 33.66 39.6451 32.895 39.6451C31.725 39.6901 30.555 39.6901 29.43 39.6901ZM32.13 37.8901C32.13 35.9551 32.13 34.1551 32.13 32.3101C30.24 32.3101 28.44 32.3101 26.595 32.3101C26.595 34.2001 26.595 36.0451 26.595 37.8901C28.485 37.8901 30.285 37.8901 32.13 37.8901Z" fill="#F9F9F9"/>
<path id="Vector_6" d="M40.4998 30.4651C41.6698 30.4651 42.7948 30.4651 43.9648 30.4651C44.7298 30.4651 45.0448 30.7351 45.0448 31.5001C45.0448 33.8851 45.0448 36.2251 45.0448 38.6101C45.0448 39.3301 44.7298 39.6451 44.0098 39.6451C41.6248 39.6451 39.2848 39.6451 36.8998 39.6451C36.1798 39.6451 35.8648 39.3301 35.8198 38.6101C35.8198 36.2251 35.8198 33.8401 35.8198 31.4551C35.8198 30.8251 36.1798 30.4651 36.8548 30.4651C38.0698 30.5101 39.2848 30.4651 40.4998 30.4651ZM43.2448 32.3101C41.3548 32.3101 39.5098 32.3101 37.6648 32.3101C37.6648 34.2001 37.6648 36.0001 37.6648 37.8451C39.5548 37.8451 41.3998 37.8451 43.2448 37.8451C43.2448 35.9551 43.2448 34.1551 43.2448 32.3101Z" fill="#F9F9F9"/>
<path id="Vector_7" d="M51.8401 39.6901C50.6701 39.6901 49.4551 39.6901 48.2851 39.6901C47.5201 39.6901 47.2051 39.3751 47.2051 38.6101C47.2051 36.2251 47.2051 33.8851 47.2051 31.5001C47.2051 30.7801 47.5201 30.4651 48.2401 30.4651C50.6251 30.4651 52.9651 30.4651 55.3501 30.4651C56.1151 30.4651 56.3851 30.7351 56.3851 31.5001C56.3851 33.8851 56.3851 36.2251 56.3851 38.6101C56.3851 39.3751 56.0701 39.6901 55.3051 39.6901C54.1801 39.6901 53.0101 39.6901 51.8401 39.6901ZM54.5851 37.8901C54.5851 36.0001 54.5851 34.1551 54.5851 32.3101C52.6951 32.3101 50.8951 32.3101 49.0501 32.3101C49.0501 34.2001 49.0501 36.0001 49.0501 37.8901C50.8951 37.8901 52.6951 37.8901 54.5851 37.8901Z" fill="#F9F9F9"/>
</g>
</svg>
