<svg width="90" height="90" viewBox="0 0 90 90" fill="none" xmlns="http://www.w3.org/2000/svg">
<g id="Abuelos 1">
<path id="Vector" d="M59.0401 26.55C59.8501 25.2 60.3001 23.67 60.3001 22.05C60.3001 17.1 56.2501 13.05 51.3001 13.05C46.3501 13.05 42.3001 17.1 42.3001 22.05C42.3001 23.67 42.7501 25.2 43.5601 26.55C40.5901 28.89 38.7001 32.4 38.7001 36.45V50.85C38.7001 51.48 38.9701 52.02 39.5101 52.38L44.1001 55.44V76.95C44.1001 77.94 44.9101 78.75 45.9001 78.75H56.7001C57.6901 78.75 58.5001 77.94 58.5001 76.95V55.44L63.0901 52.38C63.6301 52.02 63.9001 51.48 63.9001 50.85V36.45C63.9001 32.4 62.0101 28.89 59.0401 26.55ZM51.3001 16.65C54.2701 16.65 56.7001 19.08 56.7001 22.05C56.7001 25.02 54.2701 27.45 51.3001 27.45C48.3301 27.45 45.9001 25.02 45.9001 22.05C45.9001 19.08 48.3301 16.65 51.3001 16.65ZM60.3001 49.86L55.7101 52.92C55.1701 53.28 54.9001 53.82 54.9001 54.45V75.15H47.7001V54.45C47.7001 53.82 47.4301 53.28 46.8901 52.92L42.3001 49.86V36.45C42.3001 33.48 43.7401 30.87 45.9001 29.25C47.4301 30.33 49.2301 31.05 51.3001 31.05C53.3701 31.05 55.1701 30.33 56.7001 29.25C58.8601 30.87 60.3001 33.48 60.3001 36.45V49.86ZM28.4401 31.95C29.2501 30.6 29.7001 29.07 29.7001 27.45C29.7001 25.11 28.8001 22.95 27.2701 21.33C27.6301 20.43 27.9001 19.44 27.9001 18.45C27.9001 14.49 24.6601 11.25 20.7001 11.25C16.7401 11.25 13.5001 14.49 13.5001 18.45C13.5001 19.44 13.6801 20.43 14.1301 21.33C12.6001 22.95 11.7001 25.11 11.7001 27.45C11.7001 29.07 12.1501 30.6 12.9601 31.95C9.9901 34.29 8.1001 37.8 8.1001 41.85V63.45C8.1001 64.44 8.9101 65.25 9.9001 65.25H13.5001V76.95C13.5001 77.94 14.3101 78.75 15.3001 78.75H26.1001C27.0901 78.75 27.9001 77.94 27.9001 76.95V65.25H31.5001C32.4901 65.25 33.3001 64.44 33.3001 63.45V41.85C33.3001 37.8 31.4101 34.29 28.4401 31.95ZM20.7001 14.85C22.6801 14.85 24.3001 16.47 24.3001 18.45C24.3001 18.72 24.3001 18.9 24.2101 19.17C23.1301 18.72 21.9601 18.45 20.7001 18.45C19.4401 18.45 18.2701 18.72 17.1901 19.17C17.1901 18.9 17.1001 18.72 17.1001 18.45C17.1001 16.47 18.7201 14.85 20.7001 14.85ZM20.7001 22.05C23.6701 22.05 26.1001 24.48 26.1001 27.45C26.1001 30.42 23.6701 32.85 20.7001 32.85C17.7301 32.85 15.3001 30.42 15.3001 27.45C15.3001 24.48 17.7301 22.05 20.7001 22.05ZM29.7001 61.65H26.1001C25.1101 61.65 24.3001 62.46 24.3001 63.45V75.15H17.1001V63.45C17.1001 62.46 16.2901 61.65 15.3001 61.65H11.7001V41.85C11.7001 38.88 13.1401 36.27 15.3001 34.65C16.8301 35.73 18.6301 36.45 20.7001 36.45C22.7701 36.45 24.5701 35.73 26.1001 34.65C28.2601 36.27 29.7001 38.88 29.7001 41.85V61.65ZM81.9001 43.65C81.9001 44.64 81.0901 45.45 80.1001 45.45C79.1101 45.45 78.3001 44.64 78.3001 43.65C78.3001 42.12 77.1301 40.95 75.6001 40.95C74.0701 40.95 72.9001 42.12 72.9001 43.65V76.95C72.9001 77.94 72.0901 78.75 71.1001 78.75C70.1101 78.75 69.3001 77.94 69.3001 76.95V43.65C69.3001 40.14 72.0901 37.35 75.6001 37.35C79.1101 37.35 81.9001 40.14 81.9001 43.65Z" fill="#F9F9F9"/>
</g>
</svg>
