<svg width="90" height="90" viewBox="0 0 90 90" fill="none" xmlns="http://www.w3.org/2000/svg">
<g id="Eating 1">
<path id="Vector" d="M87.1875 77.2031H77.3438V56.25C77.3438 53.1562 75.2344 50.3437 72.1406 49.5L71.4375 49.2187C71.5781 48.7968 71.7188 48.2343 71.7188 47.6718V42.0468C71.7188 39.6562 69.8906 37.8281 67.5 37.8281H61.875C59.4844 37.8281 57.6562 39.6562 57.6562 42.0468V45.4218L52.0312 43.875V40.2187C55.5469 38.25 57.9375 34.875 58.7812 30.9375H60.4688C62.8594 30.9375 64.6875 29.1093 64.6875 26.7187C64.6875 24.3281 62.8594 22.5 60.4688 22.5H59.2031L60.6094 19.2656C63 13.6406 60.4688 7.03122 54.8438 4.35935L50.9062 2.53122C46.125 0.42185 40.6406 1.12498 36.5625 4.0781L34.3125 5.7656C29.6719 7.03122 26.8594 11.8125 27.9844 16.4531C28.125 17.0156 28.4062 17.5781 28.6875 18.1406L30.7969 22.3593H29.5312C27.1406 22.3593 25.3125 24.1875 25.3125 26.5781C25.3125 28.9687 27.1406 30.7968 29.5312 30.7968H31.2188C32.0625 34.7343 34.4531 38.1093 37.9688 40.0781V43.7343L32.3438 45.2812V39.0937C32.3438 38.25 31.7812 37.6875 30.9375 37.6875H19.6875C18.8438 37.6875 18.2812 38.25 18.2812 39.0937V47.5312C18.2812 48.0937 18.4219 48.5156 18.5625 49.0781L17.8594 49.3593C14.7656 50.3437 12.6562 53.0156 12.6562 56.25V77.3437H2.8125C1.96875 77.3437 1.40625 77.9062 1.40625 78.75V87.1875C1.40625 88.0312 1.96875 88.5937 2.8125 88.5937H87.1875C88.0312 88.5937 88.5938 88.0312 88.5938 87.1875V78.75C88.5938 77.9062 88.0312 77.2031 87.1875 77.2031ZM74.5312 56.25V77.3437H71.4375C71.5781 76.9218 71.7188 76.3593 71.7188 75.9375V70.3125C71.7188 68.4843 70.5938 66.9375 68.9062 66.375V51.6093C69.0469 51.6093 69.1875 51.4687 69.1875 51.4687L71.4375 52.0312C73.2656 52.5937 74.5312 54.2812 74.5312 56.25ZM39.6562 76.6406C37.9688 74.3906 36.8438 71.5781 36.5625 68.7656H53.4375C53.1562 71.5781 52.1719 74.3906 50.3438 76.6406L49.9219 77.2031H40.0781L39.6562 76.6406ZM39.6562 63.9843C39.2344 63.2812 39.375 62.4375 40.0781 62.0156C40.5 61.7343 41.2031 61.7343 41.625 62.0156C42.3281 62.4375 43.1719 62.2968 43.5938 61.5937C43.5938 61.4531 43.7344 61.4531 43.7344 61.3125C44.0156 60.6093 44.7188 60.1875 45.5625 60.4687C45.9844 60.6093 46.2656 60.8906 46.4062 61.3125C46.6875 62.0156 47.5312 62.4375 48.2344 62.1562C48.375 62.1562 48.5156 62.0156 48.5156 62.0156C49.2188 61.5937 50.0625 61.7343 50.4844 62.4375C50.7656 62.8593 50.7656 63.5625 50.4844 63.9843C50.2031 64.4062 50.2031 64.8281 50.3438 65.25C50.4844 65.6718 50.7656 65.9531 51.0469 66.0937H39.2344C39.5156 65.9531 39.7969 65.6718 39.9375 65.25C39.9375 64.8281 39.7969 64.2656 39.6562 63.9843ZM56.25 67.3593C56.25 66.5156 55.6875 65.9531 54.8438 65.9531H54.5625C54.2812 65.25 53.8594 64.5468 53.2969 64.125C53.8594 61.875 52.4531 59.625 50.2031 59.0625C49.5 58.9218 48.9375 58.9218 48.2344 59.0625C46.8281 57.2343 44.1562 57.0937 42.3281 58.5C42.1875 58.6406 41.9062 58.9218 41.7656 59.0625C39.5156 58.5 37.2656 59.9062 36.7031 62.1562C36.5625 62.8593 36.5625 63.4218 36.7031 64.125C36.1406 64.5468 35.7188 65.25 35.4375 65.9531H35.1562C34.3125 65.9531 33.75 66.5156 33.75 67.3593C33.75 70.875 34.7344 74.25 36.5625 77.2031H32.0625C32.2031 76.7812 32.3438 76.2187 32.3438 75.7968V70.1718C32.3438 68.3437 31.2188 66.7968 29.5312 66.2343V51.6093C30.9375 51.0468 32.0625 49.7812 32.3438 48.2343L38.9531 46.4062L44.0156 51.4687C44.5781 52.0312 45.4219 52.0312 45.9844 51.4687L51.0469 46.4062L57.6562 48.2343C57.9375 49.7812 58.9219 51.0468 60.4688 51.6093V66.2343C58.7812 66.7968 57.6562 68.3437 57.6562 70.1718V75.7968C57.6562 76.2187 57.7969 76.7812 57.9375 77.2031H53.4375C55.2656 74.25 56.25 70.875 56.25 67.3593ZM26.7188 65.9531H23.9062V51.8906H26.7188V65.9531ZM21.0938 75.7968V74.3906H26.7188V71.5781H21.0938V70.1718C21.0938 69.3281 21.6562 68.7656 22.5 68.7656H28.125C28.9688 68.7656 29.5312 69.3281 29.5312 70.1718V75.7968C29.5312 76.6406 28.9688 77.2031 28.125 77.2031H22.5C21.6562 77.2031 21.0938 76.6406 21.0938 75.7968ZM66.0938 65.9531H63.2812V51.8906H66.0938V65.9531ZM60.4688 75.7968V70.1718C60.4688 69.3281 61.0312 68.7656 61.875 68.7656H67.5C68.3438 68.7656 68.9062 69.3281 68.9062 70.1718V71.5781H63.2812V74.3906H68.9062V75.7968C68.9062 76.6406 68.3438 77.2031 67.5 77.2031H61.875C61.0312 77.2031 60.4688 76.6406 60.4688 75.7968ZM60.4688 42.0468C60.4688 41.2031 61.0312 40.6406 61.875 40.6406H67.5C68.3438 40.6406 68.9062 41.2031 68.9062 42.0468V47.6718C68.9062 48.5156 68.3438 49.0781 67.5 49.0781H61.875C61.0312 49.0781 60.4688 48.5156 60.4688 47.6718V42.0468ZM61.875 26.5781C61.875 27.4218 61.3125 27.9843 60.4688 27.9843H59.0625V25.1718H60.4688C61.3125 25.1718 61.875 25.875 61.875 26.5781ZM31.3594 11.25C32.4844 9.42185 34.3125 8.43747 36.4219 8.29685C38.6719 8.29685 40.6406 9.42185 41.9062 11.25L42.3281 11.9531L44.7188 10.4062L44.2969 9.7031C43.0312 7.87497 41.2031 6.46872 38.9531 5.90622C42.1875 3.93747 46.2656 3.65622 49.6406 5.2031L53.5781 7.03122C57.7969 8.99997 59.7656 13.9218 57.9375 18.1406L57.5156 19.125L56.1094 16.1718C55.9688 15.75 55.5469 15.4687 55.125 15.4687C54.7031 15.3281 54.2813 15.4687 54 15.75L51.75 17.4375C47.8125 20.3906 42.1875 20.3906 38.25 17.4375L36 15.75C35.4375 15.3281 34.4531 15.4687 34.0312 16.0312C34.0312 16.1718 33.8906 16.1718 33.8906 16.3125L32.3438 19.2656L31.2188 16.875C30.2344 15.1875 30.375 12.9375 31.3594 11.25ZM28.125 26.5781C28.125 25.7343 28.6875 25.1718 29.5312 25.1718H30.9375V27.9843H29.5312C28.6875 27.9843 28.125 27.4218 28.125 26.5781ZM33.75 27.9843V22.6406L35.7188 18.8437L36.5625 19.5468C41.625 23.3437 48.375 23.3437 53.4375 19.5468L54.2812 18.8437L56.25 22.6406V27.9843C56.25 34.1718 51.1875 39.2343 45 39.2343C38.8125 39.2343 33.75 34.1718 33.75 27.9843ZM45 42.0468C46.4062 42.0468 47.8125 41.7656 49.2188 41.3437V44.1562L45 48.375L40.7812 44.1562V41.3437C42.1875 41.9062 43.5938 42.0468 45 42.0468ZM21.0938 40.6406H23.9062V44.8593H26.7188V40.6406H29.5312V47.6718C29.5312 48.5156 28.9688 49.0781 28.125 49.0781H22.5C21.6562 49.0781 21.0938 48.5156 21.0938 47.6718V40.6406ZM15.4688 56.25C15.4688 54.4218 16.7344 52.7343 18.5625 52.1718L20.8125 51.6093C20.9531 51.6093 21.0938 51.75 21.0938 51.75V66.375C19.4062 66.9375 18.2812 68.4843 18.2812 70.3125V75.9375C18.2812 76.3593 18.4219 76.9218 18.5625 77.3437H15.4688V56.25ZM85.7812 85.6406H4.21875V80.0156H85.7812V85.6406Z" fill="#F9F9F9"/>
</g>
</svg>
