<svg width="90" height="90" viewBox="0 0 90 90" fill="none" xmlns="http://www.w3.org/2000/svg">
<g id="Restaurant 1">
<g id="Group">
<path id="Vector" d="M16.875 66.0938H14.0625V71.7188H16.875V66.0938Z" fill="#F9F9F9"/>
<path id="Vector_2" d="M87.1875 21.0938V9.84375C87.1875 9 86.625 8.4375 85.7812 8.4375V5.625C85.7812 4.07812 84.5156 2.8125 82.9688 2.8125H7.03125C5.48438 2.8125 4.21875 4.07812 4.21875 5.625V8.4375C3.375 8.4375 2.8125 9.14062 2.8125 9.84375V21.0938C2.8125 21.9375 3.375 22.5 4.21875 22.5V84.375H2.8125V87.1875H87.1875V84.375H85.7812V22.5C86.625 22.5 87.1875 21.9375 87.1875 21.0938ZM7.03125 5.625H82.9688V8.4375H7.03125V5.625ZM26.7188 84.375H12.6562V56.25H26.7188V84.375ZM26.7188 53.4375H12.6562V52.0312H26.7188V53.4375ZM26.7188 49.2188H12.6562V47.8125H26.7188V49.2188ZM82.9688 84.375H29.5312V46.4062C29.5312 45.5625 28.9688 45 28.125 45H11.25C10.4062 45 9.84375 45.5625 9.84375 46.4062V84.375H7.03125V35.1562C8.29688 36.1406 9.70312 36.5625 11.25 36.5625C13.5 36.5625 15.6094 35.4375 16.875 33.75C19.125 36.8438 23.4844 37.5469 26.5781 35.2969C27.1406 34.875 27.7031 34.3125 28.125 33.75C30.375 36.8438 34.7344 37.5469 37.8281 35.2969C38.3906 34.875 38.9531 34.3125 39.375 33.75C41.625 36.8438 45.9844 37.5469 49.0781 35.2969C49.6406 34.875 50.2031 34.3125 50.625 33.75C52.875 36.8438 57.2344 37.5469 60.3281 35.2969C60.8906 34.875 61.4531 34.3125 61.875 33.75C64.125 36.8438 68.4844 37.5469 71.5781 35.2969C72.1406 34.875 72.7031 34.3125 73.125 33.75C74.3906 35.5781 76.5 36.5625 78.75 36.5625C80.2969 36.5625 81.7031 36 82.9688 35.1562V84.375ZM7.03125 29.5312V22.5H15.4688V29.5312C15.4688 31.9219 13.6406 33.75 11.25 33.75C8.85938 33.75 7.03125 31.9219 7.03125 29.5312ZM18.2812 29.5312V22.5H26.7188V29.5312C26.7188 31.9219 24.8906 33.75 22.5 33.75C20.1094 33.75 18.2812 31.9219 18.2812 29.5312ZM29.5312 29.5312V22.5H37.9688V29.5312C37.9688 31.9219 36.1406 33.75 33.75 33.75C31.3594 33.75 29.5312 31.9219 29.5312 29.5312ZM40.7812 29.5312V22.5H49.2188V29.5312C49.2188 31.9219 47.3906 33.75 45 33.75C42.6094 33.75 40.7812 31.9219 40.7812 29.5312ZM52.0312 29.5312V22.5H60.4688V29.5312C60.4688 31.9219 58.6406 33.75 56.25 33.75C53.8594 33.75 52.0312 31.9219 52.0312 29.5312ZM63.2812 29.5312V22.5H71.7188V29.5312C71.7188 31.9219 69.8906 33.75 67.5 33.75C65.1094 33.75 63.2812 31.9219 63.2812 29.5312ZM82.9688 29.5312C82.9688 31.9219 81.1406 33.75 78.75 33.75C76.3594 33.75 74.5312 31.9219 74.5312 29.5312V22.5H82.9688V29.5312ZM84.375 19.6875H5.625V11.25H84.375V19.6875Z" fill="#F9F9F9"/>
<path id="Vector_3" d="M78.75 39.375H33.75C32.9062 39.375 32.3438 39.9375 32.3438 40.7812V80.1562C32.3438 81 32.9062 81.5625 33.75 81.5625H78.75C79.5938 81.5625 80.1562 81 80.1562 80.1562V40.7812C80.1562 40.0781 79.5938 39.375 78.75 39.375ZM77.3438 78.75H35.1562V42.1875H77.3438V78.75Z" fill="#F9F9F9"/>
<path id="Vector_4" d="M74.5311 52.0312V45H71.7186V52.0312C71.7186 53.0156 71.1561 54 70.3124 54.4219V45H67.4999V54.4219C66.6561 53.8594 66.0936 53.0156 66.0936 52.0312V45H63.2811V45.1406C61.0311 44.1562 58.6405 43.5938 56.2499 43.5938C53.2967 43.5938 50.3436 44.4375 47.6717 45.8437C46.6874 44.4375 45.1405 43.5938 43.5936 43.5938C40.4999 43.5938 37.9686 46.6875 37.9686 50.625C37.828 53.5781 39.5155 56.25 42.1874 57.375V59.3438C40.4999 59.9063 39.3749 61.5938 39.3749 63.2812V73.125C39.3749 75.5156 41.203 77.3438 43.5936 77.3438C45.2811 77.3438 46.828 76.3594 47.3905 74.8125C52.7342 78.1875 59.6249 78.1875 64.9686 74.8125C65.953 76.9219 68.3436 77.9062 70.453 76.9219C71.9999 76.2188 72.9842 74.6719 72.9842 73.125V63.2812C72.9842 61.4531 71.8592 59.9063 70.1717 59.3438V57.5156C72.8436 56.8125 74.5311 54.5625 74.5311 52.0312ZM40.7811 50.625C40.7811 48.375 42.0467 46.4062 43.5936 46.4062C45.1405 46.4062 46.4061 48.375 46.4061 50.625C46.4061 52.875 45.1405 54.8438 43.5936 54.8438C42.0467 54.8438 40.7811 52.875 40.7811 50.625ZM44.9999 73.125C44.9999 73.9688 44.4374 74.5312 43.5936 74.5312C42.7499 74.5312 42.1874 73.9688 42.1874 73.125V63.2812C42.1874 62.4375 42.7499 61.875 43.5936 61.875C44.4374 61.875 44.9999 62.4375 44.9999 63.2812V73.125ZM64.6874 63.2812V71.7188C59.6249 75.5156 52.8749 75.5156 47.8124 71.7188V63.2812C47.8124 61.4531 46.6874 59.9063 44.9999 59.3438V57.375C47.6717 56.25 49.3592 53.5781 49.2186 50.625C49.2186 49.9219 49.078 49.2188 48.9374 48.5156C51.1874 47.1094 53.7186 46.4062 56.2499 46.4062C58.7811 46.4062 61.1717 47.1094 63.2811 48.375V52.0312C63.2811 54.5625 64.9686 56.8125 67.4999 57.5156V59.3438C65.8124 59.9063 64.6874 61.4531 64.6874 63.2812ZM70.3124 73.125C70.3124 73.9688 69.7499 74.5312 68.9061 74.5312C68.0624 74.5312 67.4999 73.9688 67.4999 73.125V63.2812H70.3124V73.125Z" fill="#F9F9F9"/>
<path id="Vector_5" d="M56.25 68.9062C60.8906 68.9062 64.6875 65.1094 64.6875 60.4688C64.6875 55.8281 60.8906 52.0312 56.25 52.0312C51.6094 52.0312 47.8125 55.8281 47.8125 60.4688C47.8125 65.1094 51.6094 68.9062 56.25 68.9062ZM56.25 54.8438C59.3438 54.8438 61.875 57.375 61.875 60.4688C61.875 63.5625 59.3438 66.0938 56.25 66.0938C53.1562 66.0938 50.625 63.5625 50.625 60.4688C50.625 57.375 53.1562 54.8438 56.25 54.8438Z" fill="#F9F9F9"/>
</g>
</g>
</svg>
