<svg width="90" height="90" viewBox="0 0 90 90" fill="none" xmlns="http://www.w3.org/2000/svg">
<g id="Plato_Corazon 1">
<path id="Vector" d="M70.3125 45.1406C70.3125 31.2187 58.9219 19.8281 45 19.8281C31.0781 19.8281 19.6875 31.2187 19.6875 45.1406C19.6875 59.0625 31.0781 70.4531 45 70.4531C58.9219 70.4531 70.3125 59.0625 70.3125 45.1406ZM22.5 45.1406C22.5 32.7656 32.625 22.6406 45 22.6406C57.375 22.6406 67.5 32.7656 67.5 45.1406C67.5 57.5156 57.375 67.6406 45 67.6406C32.625 67.6406 22.5 57.5156 22.5 45.1406Z" fill="#F9F9F9"/>
<path id="Vector_2" d="M60.6094 38.5313L63.1406 37.4063C61.5938 33.6094 58.9219 30.5156 55.4063 28.2656L53.8594 30.6562C56.9531 32.625 59.2031 35.2969 60.6094 38.5313Z" fill="#F9F9F9"/>
<path id="Vector_3" d="M52.5938 26.8594C51.1875 26.2969 49.6406 25.875 48.0937 25.5938L47.6719 28.4062C49.0781 28.5469 50.3437 28.9687 51.6094 29.5312L52.5938 26.8594Z" fill="#F9F9F9"/>
<path id="Vector_4" d="M8.4375 33.0469V83.1094C8.4375 85.5 10.2656 87.3281 12.6562 87.3281C15.0469 87.3281 16.875 85.5 16.875 83.1094V33.0469L22.0781 27.8437C22.3594 27.5625 22.5 27.2812 22.5 26.8594V7.17188C22.5 4.78125 20.6719 2.95312 18.2812 2.95312C17.1562 2.95312 16.1719 3.375 15.4688 4.07813C14.7656 3.375 13.7812 2.95312 12.6562 2.95312C11.5312 2.95312 10.5469 3.375 9.84375 3.9375C9.14062 3.375 8.15625 2.95312 7.03125 2.95312C4.64062 2.95312 2.8125 4.78125 2.8125 7.17188V26.8594C2.8125 27.2812 2.95312 27.5625 3.23437 27.8437L8.4375 33.0469ZM5.625 7.17188C5.625 6.32812 6.1875 5.76562 7.03125 5.76562C7.875 5.76562 8.4375 6.32812 8.4375 7.17188V24.0469H11.25V7.17188C11.25 6.32812 11.8125 5.76562 12.6562 5.76562C13.5 5.76562 14.0625 6.32812 14.0625 7.17188V24.0469H16.875V7.17188C16.875 6.32812 17.4375 5.76562 18.2812 5.76562C19.125 5.76562 19.6875 6.32812 19.6875 7.17188V26.2969L14.4844 31.5C14.2031 31.7812 14.0625 32.0625 14.0625 32.4844V83.1094C14.0625 83.9531 13.5 84.5156 12.6562 84.5156C11.8125 84.5156 11.25 83.9531 11.25 83.1094V32.4844C11.25 32.0625 11.1094 31.7812 10.8281 31.5L5.625 26.1562V7.17188Z" fill="#F9F9F9"/>
<path id="Vector_5" d="M87.1875 4.35937C87.1875 3.9375 86.9062 3.375 86.4844 3.09375C86.0625 2.8125 85.5 2.8125 85.0781 3.09375C77.7656 6.75 73.125 14.2031 73.125 22.5V43.7344C73.125 44.1562 73.2656 44.4375 73.5469 44.7188L78.75 49.9219V85.9219C78.75 86.7656 79.3125 87.3281 80.1562 87.3281H85.7812C86.625 87.3281 87.1875 86.7656 87.1875 85.9219V4.35937ZM84.375 84.5156H81.5625V49.3594C81.5625 48.9375 81.4219 48.6563 81.1406 48.375L75.9375 43.0312V22.5C75.9375 16.0312 79.1719 10.2656 84.375 6.75V84.5156Z" fill="#F9F9F9"/>
<path id="Vector_6" d="M45 56.3906C45.4219 56.3906 45.7031 56.25 45.9844 55.9687L54.5625 47.1094C56.8125 44.7187 56.8125 40.9219 54.5625 38.5312C53.4375 37.4062 51.8906 36.7031 50.3437 36.7031C48.7969 36.7031 47.25 37.4062 46.125 38.5312L45 39.6563L43.875 38.5312C42.75 37.4062 41.2031 36.7031 39.6562 36.7031C38.1094 36.7031 36.5625 37.4062 35.4375 38.5312C33.1875 40.9219 33.1875 44.7187 35.4375 47.1094L44.0156 55.9687C44.2969 56.1094 44.5781 56.3906 45 56.3906ZM37.5469 40.3594C38.1094 39.7969 38.9531 39.375 39.7969 39.375C40.6406 39.375 41.3437 39.6563 42.0469 40.3594L44.1562 42.6094C44.7187 43.1719 45.7031 43.1719 46.125 42.6094L48.2344 40.3594C49.3594 39.0938 51.4688 39.0938 52.5938 40.3594C53.8594 41.625 53.8594 43.7344 52.5938 45L45 52.875L37.5469 45.1406C36.2813 43.7344 36.2813 41.625 37.5469 40.3594Z" fill="#F9F9F9"/>
<path id="Vector_7" d="M46.4062 59.2031H43.5938V62.0156H46.4062V59.2031Z" fill="#F9F9F9"/>
<path id="Vector_8" d="M52.0312 59.2031H49.2188V62.0156H52.0312V59.2031Z" fill="#F9F9F9"/>
<path id="Vector_9" d="M40.7812 59.2031H37.9688V62.0156H40.7812V59.2031Z" fill="#F9F9F9"/>
</g>
</svg>
