<svg width="90" height="90" viewBox="0 0 90 90" fill="none" xmlns="http://www.w3.org/2000/svg">
<g id="Ubicacion 1">
<path id="Vector" d="M74.3905 51.3281C74.1092 50.7656 73.6874 50.4844 73.1249 50.4844H53.2967C57.9374 43.0313 63.2811 33.4688 63.2811 27.9844C63.2811 17.8594 55.1249 9.70312 44.9999 9.70312C34.8749 9.70312 26.7186 17.8594 26.7186 27.9844C26.7186 33.4688 31.9217 43.0313 36.703 50.4844H16.8749C16.3124 50.4844 15.7499 50.7656 15.6092 51.3281L2.95299 80.8594C2.67174 81.5625 2.95299 82.4062 3.65612 82.6875C3.79674 82.8281 4.07799 82.8281 4.21862 82.8281H85.7811C86.6249 82.8281 87.1874 82.2656 87.1874 81.4219C87.1874 81.2812 87.1874 81 87.0467 80.8594L74.3905 51.3281ZM62.8592 53.2969H72.1405L73.6874 56.8125L71.8592 57.375L69.4686 56.25C69.1874 56.1094 68.7655 56.1094 68.4842 56.1094L63.5624 57.375L61.8749 55.6875L62.8592 53.2969ZM29.5311 27.9844C29.5311 19.4063 36.4217 12.5156 44.9999 12.5156C53.578 12.5156 60.4686 19.4063 60.4686 27.9844C60.4686 34.7344 50.203 50.625 44.9999 57.9375C39.7967 50.625 29.5311 34.7344 29.5311 27.9844ZM48.5155 57.9375C51.6092 58.6406 53.4374 60.0469 53.4374 61.0312C53.4374 62.4375 50.203 64.5469 44.9999 64.5469C39.7967 64.5469 36.5624 62.4375 36.5624 61.0312C36.5624 59.9062 38.3905 58.5 41.4842 57.9375C42.7499 59.7656 43.5936 61.0312 43.8749 61.1719C44.2967 61.7344 45.2811 61.875 45.8436 61.4531C45.9842 61.3125 46.1249 61.3125 46.1249 61.1719C46.2655 61.0312 47.1092 59.7656 48.5155 57.9375ZM17.8592 53.2969H26.9999L25.8749 54.8437L21.0936 56.1094L17.0155 55.125L17.8592 53.2969ZM45.1405 76.7812L44.0155 80.0156H6.32799L15.8905 57.6562L20.6717 58.9219C20.953 58.9219 21.0936 58.9219 21.3749 58.9219L26.9999 57.5156C27.2811 57.375 27.703 57.2344 27.8436 56.9531L30.2342 53.2969H38.3905C38.8124 54 39.3749 54.7031 39.7967 55.4062C35.9999 56.3906 33.7499 58.5 33.7499 61.0312C33.7499 64.6875 38.5311 67.3594 44.9999 67.3594C51.4686 67.3594 56.2499 64.6875 56.2499 61.0312C56.2499 58.5 53.8592 56.3906 50.203 55.4062C50.6249 54.7031 51.0467 54 51.6092 53.2969H60.0467L59.203 55.6875C59.0624 56.25 59.203 56.8125 59.4842 57.0937L62.2967 59.9062C62.578 60.1875 63.1405 60.3281 63.703 60.3281L68.7655 59.0625L71.1561 60.1875C71.4374 60.3281 71.8592 60.3281 72.2811 60.3281L74.953 59.4844L77.0624 64.2656L70.7342 63.1406C70.453 63.1406 70.1717 63.1406 69.8905 63.2812L61.5936 67.5L56.1092 68.9062C55.6874 69.0469 55.4061 69.3281 55.1249 69.6094L52.453 74.5312L46.1249 75.7969C45.703 75.9375 45.2811 76.3594 45.1405 76.7812ZM46.9686 80.0156L47.5311 78.4687L53.7186 77.2031C54.1405 77.0625 54.5624 76.7813 54.703 76.5L57.2342 71.4375L62.2967 70.1719C62.4374 70.1719 62.4374 70.1719 62.578 70.0312L70.5936 65.9531L78.1874 67.2187L83.6717 80.0156H46.9686Z" fill="#F9F9F9"/>
<path id="Vector_2" d="M56.25 27.9844C56.25 21.7969 51.1875 16.7344 45 16.7344C38.8125 16.7344 33.75 21.7969 33.75 27.9844C33.75 34.1719 38.8125 39.2344 45 39.2344C51.1875 39.2344 56.25 34.1719 56.25 27.9844ZM36.5625 27.9844C36.5625 23.3437 40.3594 19.5469 45 19.5469C49.6406 19.5469 53.4375 23.3437 53.4375 27.9844C53.4375 32.625 49.6406 36.4219 45 36.4219C40.3594 36.4219 36.5625 32.625 36.5625 27.9844Z" fill="#F9F9F9"/>
<path id="Vector_3" d="M37.8283 69.6094C37.6876 69.3281 37.547 69.1875 37.4064 69.0469L33.4689 66.375L30.797 62.4375C30.5158 62.0156 30.0939 61.875 29.672 61.875H25.4533C25.0314 61.875 24.7501 62.0156 24.4689 62.2969L22.2189 64.5469L17.1564 63.2812C16.4533 63.1406 15.6095 63.5625 15.4689 64.2656L14.0626 69.8906C13.922 70.3125 14.0626 70.7344 14.2033 71.0156L17.0158 75.2344C17.1564 75.5156 17.4376 75.7969 17.8595 75.7969L23.4845 77.2031C23.6251 77.2031 23.7658 77.2031 23.7658 77.2031H27.9845C28.2658 77.2031 28.4064 77.2031 28.547 77.0625L30.797 75.9375L34.4533 77.2031C34.5939 77.2031 34.7345 77.2031 34.8751 77.2031C35.297 77.2031 35.5783 77.0625 35.8595 76.7812L38.672 73.9687C39.0939 73.5469 39.2345 72.8438 38.9533 72.2813L37.8283 69.6094ZM34.7345 74.25L31.3595 73.125C30.9376 72.9844 30.6564 72.9844 30.2345 73.2656L27.7033 74.5312H24.047L19.1251 73.2656L17.0158 70.0312L17.8595 66.375L22.0783 67.5C22.5001 67.6406 23.0626 67.5 23.3439 67.0781L25.7345 64.6875H28.6876L31.0783 68.3437C31.2189 68.4844 31.3595 68.625 31.5001 68.7656L35.4376 71.4375L36.2814 72.9844L34.7345 74.25Z" fill="#F9F9F9"/>
</g>
</svg>
