<svg width="90" height="90" viewBox="0 0 90 90" fill="none" xmlns="http://www.w3.org/2000/svg">
<g id="Olla">
<path id="Vector" d="M85.5 86.9965V85.4947C85.4971 83.1026 84.7821 80.7657 83.4462 78.7824C82.1102 76.7991 80.2141 75.2596 78 74.3605V59.9649H82.5C83.6935 59.9649 84.8381 59.4902 85.682 58.6453C86.5259 57.8004 87 56.6545 87 55.4596C87 54.2648 86.5259 53.1188 85.682 52.2739C84.8381 51.429 83.6935 50.9544 82.5 50.9544H78V47.9509C79.1935 47.9509 80.3381 47.4762 81.182 46.6313C82.0259 45.7864 82.5 44.6405 82.5 43.4456C82.5 42.2507 82.0259 41.1048 81.182 40.2599C80.3381 39.415 79.1935 38.9403 78 38.9403H27.2206L77.0231 29.0163C77.6029 28.901 78.1544 28.6725 78.6459 28.3439C79.1375 28.0152 79.5596 27.5927 79.888 27.1007C80.2165 26.6087 80.4449 26.0567 80.5602 25.4762C80.6755 24.8958 80.6755 24.2983 80.5601 23.7179C80.4447 23.1374 80.2162 22.5855 79.8877 22.0935C79.5592 21.6015 79.137 21.1791 78.6454 20.8505C78.1538 20.5218 77.6023 20.2934 77.0225 20.1782C76.4427 20.063 75.8459 20.0633 75.2662 20.1791L74.8584 20.2604C72.4738 16.2558 68.9089 13.0889 64.6536 11.195C60.3983 9.30105 55.6616 8.77311 51.0945 9.6837L44.3864 11.0204L43.9894 9.02366C44.5693 8.02405 44.8488 6.87814 44.7944 5.72344C44.7399 4.56875 44.3538 3.45431 43.6824 2.51386C43.0109 1.57341 42.0827 0.846903 41.0091 0.421509C39.9355 -0.00388561 38.7621 -0.110093 37.6297 0.11563C36.4973 0.341354 35.454 0.889419 34.625 1.69406C33.796 2.49871 33.2165 3.52574 32.9561 4.65194C32.6956 5.77813 32.7653 6.95564 33.1568 8.04317C33.5482 9.1307 34.2447 10.0821 35.1628 10.7831L35.5596 12.7792L28.8516 14.1159C24.2843 15.0256 20.1105 17.3291 16.9039 20.7099C13.6973 24.0907 11.6152 28.3829 10.9439 32.9965L10.5359 33.0778C9.72193 33.239 8.96843 33.6226 8.35886 34.1862C7.74928 34.7498 7.30743 35.4713 7.08223 36.2708C6.85704 37.0704 6.8573 37.9167 7.08298 38.7161C7.30866 39.5155 7.75095 40.2367 8.36087 40.7999C7.87256 41.4717 7.57945 42.2657 7.514 43.0939C7.44856 43.9222 7.61332 44.7524 7.99006 45.4927C8.3668 46.233 8.94081 46.8545 9.64854 47.2883C10.3563 47.7222 11.1701 47.9515 12 47.9509V50.9544H7.5C6.30653 50.9544 5.16193 51.429 4.31802 52.2739C3.47411 53.1188 3 54.2648 3 55.4596C3 56.6545 3.47411 57.8004 4.31802 58.6453C5.16193 59.4902 6.30653 59.9649 7.5 59.9649H12V74.3605C9.78589 75.2596 7.88975 76.7991 6.55383 78.7824C5.21791 80.7657 4.50285 83.1026 4.5 85.4947V86.9965H0V90H90V86.9965H85.5ZM37.985 9.59341C37.9439 9.38613 37.8594 9.18989 37.7373 9.01752C37.6151 8.84515 37.458 8.70053 37.2762 8.59312C36.7283 8.26879 36.2976 7.77838 36.0464 7.1928C35.7952 6.60723 35.7366 5.95684 35.879 5.3357C36.0213 4.71455 36.3574 4.15484 36.8384 3.73751C37.3195 3.32017 37.9207 3.06685 38.5551 3.01416C38.6415 3.00646 38.7275 3.00264 38.8131 3.00271C39.448 3.00509 40.0659 3.20911 40.5777 3.58539C41.0894 3.96168 41.4688 4.49082 41.6611 5.09668V5.09677C41.8075 5.55309 41.8421 6.03802 41.7618 6.51053C41.6814 6.98304 41.4886 7.42923 41.1997 7.81137C41.0727 7.98025 40.9829 8.17408 40.9359 8.38015C40.889 8.58622 40.8861 8.79988 40.9274 9.00716L41.4441 11.6066L38.8865 12.1163L38.5018 12.193L37.985 9.59341ZM18.7473 23.1371C21.559 20.006 25.3105 17.8739 29.4371 17.0617L37.6162 15.4319L37.6163 15.4319L40.5586 14.8456L51.6801 12.6295C52.9466 12.3762 54.235 12.2482 55.5266 12.2475C58.7236 12.2556 61.8701 13.0473 64.6911 14.5534C67.5121 16.0596 69.9219 18.2343 71.71 20.8877L14.0922 32.3691C14.7815 28.9269 16.3903 25.7364 18.7473 23.1371V23.1371ZM84 55.4596C83.9995 55.8578 83.8414 56.2395 83.5602 56.521C83.279 56.8026 82.8977 56.9609 82.5 56.9614H72V53.9579H82.5C82.8977 53.9583 83.279 54.1167 83.5602 54.3982C83.8414 54.6798 83.9995 55.0615 84 55.4596V55.4596ZM11.1215 36.0235L12.5918 35.7305L12.5927 35.7304L64.9725 25.2928L75.8518 23.1249C75.9492 23.1054 76.0484 23.0956 76.1477 23.0955C76.5198 23.0963 76.8784 23.2356 77.1537 23.4862C77.429 23.7368 77.6015 24.0809 77.6376 24.4517C77.6738 24.8225 77.571 25.1935 77.3492 25.4927C77.1274 25.7918 76.8025 25.9978 76.4376 26.0706L11.8305 38.9446C11.6556 38.9508 11.4812 38.9672 11.3082 38.9937C10.946 38.9681 10.6053 38.8117 10.3495 38.5536C10.0936 38.2955 9.94004 37.9533 9.91722 37.5904C9.8944 37.2275 10.0039 36.8687 10.2254 36.5805C10.4469 36.2923 10.7653 36.0944 11.1215 36.0235L11.1215 36.0235ZM10.5 43.4456C10.5006 43.1163 10.6092 42.7963 10.809 42.5348C11.0089 42.2733 11.289 42.0847 11.6064 41.9981C11.7807 41.99 11.9545 41.9719 12.1268 41.9438H78C78.3978 41.9438 78.7794 42.1021 79.0607 42.3837C79.342 42.6653 79.5 43.0473 79.5 43.4456C79.5 43.8439 79.342 44.2259 79.0607 44.5075C78.7794 44.7891 78.3978 44.9473 78 44.9473H12C11.6023 44.9469 11.221 44.7885 10.9398 44.507C10.6586 44.2255 10.5005 43.8437 10.5 43.4456V43.4456ZM6 55.4596C6.00046 55.0615 6.15864 54.6798 6.43984 54.3982C6.72105 54.1167 7.10231 53.9583 7.5 53.9579H18V56.9614H7.5C7.10231 56.9609 6.72105 56.8026 6.43984 56.521C6.15864 56.2395 6.00046 55.8578 6 55.4596V55.4596ZM15 73.4807V59.9649H19.5C19.8978 59.9649 20.2794 59.8067 20.5607 59.525C20.842 59.2434 21 58.8614 21 58.4631V52.4561C21 52.0578 20.842 51.6759 20.5607 51.3942C20.2794 51.1126 19.8978 50.9544 19.5 50.9544H15V47.9509H75V50.9544H70.5C70.1022 50.9544 69.7206 51.1126 69.4393 51.3942C69.158 51.6759 69 52.0578 69 52.4561V58.4631C69 58.8614 69.158 59.2434 69.4393 59.525C69.7206 59.8067 70.1022 59.9649 70.5 59.9649H75V73.4807H63C63 73.1837 62.912 72.8934 62.7473 72.6465C62.5825 72.3995 62.3483 72.207 62.0742 72.0933C61.8002 71.9796 61.4986 71.9498 61.2077 72.0077C60.9167 72.0656 60.6495 72.2085 60.4396 72.4184L60.2884 72.5698C59.9772 72.8813 59.6438 73.1834 59.2894 73.4807H47.4085C46.9693 72.5456 46.5684 71.7493 46.3345 71.293C46.2085 71.0474 46.0172 70.8412 45.7818 70.6973C45.5464 70.5533 45.2759 70.4772 45 70.4772C44.7241 70.4772 44.4536 70.5533 44.2182 70.6973C43.9828 70.8412 43.7915 71.0474 43.6655 71.293C43.4316 71.7493 43.0307 72.5456 42.5915 73.4807H30.7106C30.3561 73.1833 30.0226 72.8811 29.7112 72.5694L29.5604 72.4184C29.3505 72.2085 29.0833 72.0656 28.7923 72.0077C28.5014 71.9499 28.1998 71.9797 27.9258 72.0933C27.6517 72.207 27.4175 72.3995 27.2527 72.6465C27.088 72.8934 27 73.1837 27 73.4807H15ZM72 82.4912H73.5C74.2954 82.4921 75.0579 82.8089 75.6203 83.3719C76.1827 83.935 76.4991 84.6984 76.5 85.4947V86.9965H66V80.9895C66 80.5912 65.842 80.2092 65.5607 79.9276C65.2794 79.6459 64.8978 79.4877 64.5 79.4877H62.998C62.9985 79.4596 63 79.4317 63 79.4035V76.4842H67.758C67.5177 77.1637 67.4438 77.891 67.5425 78.605C67.6412 79.319 67.9096 79.9989 68.3253 80.5875C68.7409 81.1761 69.2916 81.6562 69.931 81.9875C70.5705 82.3187 71.28 82.4915 72 82.4912V82.4912ZM54 79.4877H49.5C49.5 78.7905 49.165 77.6793 48.7063 76.4842H55.1501C54.4119 77.3104 54.0026 78.3792 54 79.4877V79.4877ZM40.5 79.4877H36C35.9974 78.3792 35.5881 77.3104 34.8499 76.4842H41.2937C40.835 77.6793 40.5 78.7905 40.5 79.4877ZM33 79.4877C33.0001 79.6912 32.9589 79.8925 32.8788 80.0796C32.7988 80.2666 32.6816 80.4354 32.5345 80.5757C32.3873 80.716 32.2131 80.8248 32.0226 80.8957C31.8321 80.9665 31.6292 80.9978 31.4262 80.9877C31.0322 80.9537 30.6659 80.7712 30.4012 80.4771C30.1364 80.183 29.993 79.7993 30 79.4035V76.7308C30.6808 77.2217 31.4271 77.7038 32.2564 78.19C32.4836 78.3215 32.6721 78.5107 32.8027 78.7386C32.9333 78.9665 33.0014 79.225 33 79.4877V79.4877ZM45 75.4313C45.8366 77.2747 46.4899 78.9525 46.5 79.4886C46.5 79.8869 46.342 80.2689 46.0608 80.5506C45.7795 80.8322 45.398 80.9905 45.0001 80.9905C44.6023 80.9906 44.2208 80.8324 43.9394 80.5508C43.6581 80.2692 43.5 79.8872 43.5 79.4889C43.5099 78.9532 44.1632 77.275 45 75.4313ZM57.7436 78.19C58.5727 77.7039 59.3192 77.2217 60 76.7308V79.4035C60.007 79.7993 59.8636 80.183 59.5988 80.4771C59.3341 80.7712 58.9678 80.9537 58.5738 80.9877C58.2383 81.0041 57.9069 80.9073 57.6328 80.7129C57.3588 80.5184 57.1578 80.2374 57.0621 79.915C56.9665 79.5926 56.9816 79.2474 57.1052 78.9346C57.2287 78.6219 57.4535 78.3597 57.7436 78.19V78.19ZM24 80.9895V86.9965H13.5V85.4947C13.5009 84.6984 13.8173 83.935 14.3797 83.3719C14.9421 82.8089 15.7046 82.4921 16.5 82.4912H18C18.72 82.4915 19.4295 82.3187 20.069 81.9875C20.7084 81.6562 21.2591 81.1761 21.6747 80.5875C22.0904 79.9989 22.3588 79.319 22.4575 78.605C22.5562 77.891 22.4823 77.1637 22.242 76.4842H27V79.4035C27 79.4317 27.0015 79.4596 27.002 79.4877H25.5C25.1022 79.4877 24.7206 79.6459 24.4393 79.9276C24.158 80.2092 24 80.5912 24 80.9895ZM7.5 86.9965V85.4947C7.50268 83.1058 8.45175 80.8155 10.139 79.1263C11.8262 77.4371 14.1139 76.4869 16.5 76.4842H18C18.3978 76.4842 18.7794 76.6424 19.0607 76.9241C19.342 77.2057 19.5 77.5877 19.5 77.986C19.5 78.3843 19.342 78.7662 19.0607 79.0479C18.7794 79.3295 18.3978 79.4877 18 79.4877H16.5C14.9093 79.4895 13.3842 80.123 12.2594 81.2491C11.1345 82.3753 10.5018 83.9021 10.5 85.4947V86.9965H7.5ZM27 86.9965V82.4912H28.1665C28.5601 82.937 29.0391 83.2992 29.575 83.5563C30.111 83.8134 30.693 83.9601 31.2867 83.9879C31.3594 83.9913 31.4315 83.9931 31.5037 83.9931C32.6604 83.9964 33.7731 83.5496 34.6071 82.7471C34.6928 82.6653 34.7738 82.5792 34.8523 82.4912H41.6495C42.0709 82.9636 42.5872 83.3416 43.1646 83.6004C43.7419 83.8592 44.3674 83.993 45 83.993C45.6326 83.993 46.2581 83.8592 46.8355 83.6004C47.4128 83.3416 47.9291 82.9636 48.3505 82.4912H55.1477C55.2262 82.5792 55.3072 82.6653 55.3929 82.7471C56.2268 83.5496 57.3395 83.9964 58.4962 83.9931C58.5683 83.9931 58.6407 83.9914 58.7133 83.9879C59.307 83.9601 59.889 83.8134 60.425 83.5563C60.9609 83.2992 61.4399 82.937 61.8335 82.4912H63V86.9965H27ZM79.5 86.9965V85.4947C79.4982 83.9021 78.8655 82.3753 77.7406 81.2491C76.6158 80.123 75.0907 79.4895 73.5 79.4877H72C71.6022 79.4877 71.2206 79.3295 70.9393 79.0479C70.658 78.7662 70.5 78.3843 70.5 77.986C70.5 77.5877 70.658 77.2057 70.9393 76.9241C71.2206 76.6424 71.6022 76.4842 72 76.4842H73.5C75.8861 76.4869 78.1738 77.4371 79.861 79.1263C81.5483 80.8155 82.4973 83.1058 82.5 85.4947V86.9965H79.5Z" fill="#F9F9F9"/>
</g>
</svg>
