<svg width="90" height="90" viewBox="0 0 90 90" fill="none" xmlns="http://www.w3.org/2000/svg">
<g id="Chef 02">
<path id="Vector" d="M68.6505 38.9432C66.6378 40.2292 65.0254 42.0532 63.9962 44.2086C62.967 46.3639 62.562 48.7645 62.8272 51.1382L45.0002 62.5654L27.1703 51.1452C27.4412 48.7707 27.0382 46.3679 26.0074 44.2118C24.9766 42.0556 23.3596 40.2332 21.3414 38.953C18.6625 37.1066 15.4049 36.2942 12.1727 36.6665C10.648 36.8157 9.17514 37.2998 7.85917 38.084C6.5432 38.8683 5.41662 39.9334 4.55986 41.2034C3.7031 42.4733 3.1373 43.9168 2.90286 45.4307C2.66841 46.9446 2.77111 48.4916 3.20361 49.9612C4.07002 53.096 6.04415 55.8101 8.75971 57.5999C10.7041 58.9937 13.002 59.8113 15.3898 59.9588C17.7776 60.1063 20.1586 59.5778 22.2597 58.4338L36.0986 68.2593L22.9291 76.7038C22.3066 77.0994 21.7698 77.6158 21.3506 78.2226C20.9313 78.8294 20.6381 79.5142 20.4884 80.2363C20.3386 80.9585 20.3353 81.7034 20.4787 82.4268C20.6221 83.1503 20.9093 83.8376 21.3231 84.448C21.7354 85.0572 22.2653 85.5778 22.8816 85.9793C23.4979 86.3808 24.1882 86.6551 24.912 86.7861C25.6358 86.9172 26.3785 86.9022 27.0964 86.7422C27.8143 86.5822 28.493 86.2803 29.0927 85.8543L45.0002 74.5734L60.9077 85.8627C61.508 86.3019 62.1908 86.6153 62.9151 86.7843C63.6395 86.9533 64.3905 86.9743 65.1231 86.8462C65.8558 86.718 66.5551 86.4432 67.179 86.0383C67.8029 85.6335 68.3388 85.1068 68.7543 84.4899C69.1699 83.873 69.4566 83.1786 69.5974 82.4483C69.7382 81.7179 69.73 80.9667 69.5735 80.2395C69.4171 79.5124 69.1154 78.8243 68.6866 78.2165C68.2579 77.6087 67.7108 77.0937 67.0783 76.7024L53.8933 68.2649L67.7421 58.4352C69.8429 59.5796 72.2238 60.1086 74.6116 59.9616C76.9994 59.8146 79.2974 58.9975 81.2421 57.6041C87.0217 53.7032 88.9089 46.3429 85.4453 41.196C81.9817 36.0491 74.4428 35.0423 68.6505 38.9432ZM27.4642 83.5663C26.8634 83.9708 26.1282 84.1244 25.4157 83.9943C24.7032 83.8643 24.0697 83.4609 23.6505 82.8702C23.4476 82.5709 23.3068 82.2338 23.2366 81.879C23.1663 81.5243 23.1681 81.159 23.2416 80.8049C23.3152 80.4508 23.4591 80.1151 23.6649 79.8176C23.8706 79.5202 24.134 79.2671 24.4394 79.0734L38.5708 70.0115L42.5631 72.8437L27.4642 83.5663ZM66.7549 80.8059C66.865 81.3394 66.8121 81.8938 66.6029 82.3968C66.3937 82.8999 66.0379 83.3283 65.5819 83.6264C65.1259 83.9245 64.5907 84.0785 64.046 84.0683C63.5012 84.0581 62.9722 83.8841 62.5277 83.5691L23.0978 55.5848C22.8574 55.4143 22.5695 55.3236 22.2748 55.3257C21.98 55.3277 21.6934 55.4223 21.4553 55.596C19.7894 56.6832 17.8307 57.2346 15.8422 57.176C13.8538 57.1174 11.9309 56.4518 10.3319 55.2684C8.18047 53.8572 6.61365 51.7138 5.92189 49.2355C5.59088 48.153 5.5061 47.0101 5.67374 45.8906C5.84139 44.771 6.25722 43.7031 6.89082 42.765C7.52441 41.8268 8.35973 41.0422 9.33566 40.4686C10.3116 39.8949 11.4034 39.5467 12.5313 39.4495C15.0879 39.1625 17.6619 39.812 19.7763 41.2776C21.4712 42.3179 22.8073 43.8519 23.6052 45.6736C24.4031 47.4953 24.6245 49.5175 24.2397 51.4687C24.1674 51.7547 24.1869 52.0562 24.2954 52.3305C24.404 52.6049 24.596 52.8381 24.8444 52.9973L65.561 79.072C65.8664 79.2658 66.1295 79.5193 66.3347 79.8172C66.5398 80.1151 66.6827 80.4514 66.7549 80.8059ZM79.6642 55.2655C78.0647 56.4486 76.1414 57.1139 74.1527 57.172C72.1641 57.23 70.2052 56.6781 68.5394 55.5904C68.3013 55.4166 68.0147 55.3221 67.72 55.32C67.4252 55.318 67.1373 55.4087 66.8969 55.5791L51.3396 66.6238L47.6102 64.2332L65.1517 52.9832C65.3996 52.8242 65.5913 52.5914 65.6998 52.3177C65.8083 52.0439 65.8281 51.743 65.7564 51.4574C65.3793 49.5059 65.6049 47.4858 66.4031 45.6656C67.2014 43.8453 68.5345 42.3109 70.2255 41.2663C74.7255 38.233 80.5108 38.9024 83.111 42.7541C85.7111 46.6059 84.1628 52.2323 79.6642 55.2655Z" fill="#F9F9F9"/>
<path id="Vector_2" d="M60.4408 50.9064L64.4444 30.8898C67.6994 30.6066 70.7187 29.0755 72.8707 26.617C75.0226 24.1585 76.1404 20.963 75.9902 17.6992C75.8399 14.4354 74.4333 11.3561 72.0646 9.10571C69.6959 6.85529 66.5487 5.60811 63.2814 5.62511C60.4379 5.61504 57.6759 6.57489 55.4515 8.3462C54.2928 6.64142 52.7347 5.24595 50.9131 4.28146C49.0914 3.31697 47.0614 2.81274 45.0002 2.81274C42.939 2.81274 40.909 3.31697 39.0873 4.28146C37.2657 5.24595 35.7076 6.64142 34.549 8.3462C32.3245 6.57489 29.5625 5.61504 26.719 5.62511C23.4629 5.62481 20.332 6.87943 17.9771 9.12815C15.6223 11.3769 14.2247 14.4466 14.0749 17.6993C13.9252 20.9519 15.0348 24.1371 17.173 26.5927C19.3113 29.0483 22.3137 30.5853 25.556 30.8842L29.5596 50.9064L32.3158 50.3551L31.5283 46.4064H58.4721L57.6846 50.3439L60.4408 50.9064ZM53.6529 43.5939L54.8299 35.356L52.0455 34.9567L50.8122 43.5939H46.4065V28.1251H43.594V43.5939H39.1882L37.9549 34.9567L35.1705 35.356L36.3475 43.5939H30.9658L28.0971 29.2501C28.0322 28.9325 27.8597 28.647 27.6085 28.442C27.3574 28.237 27.0431 28.125 26.719 28.1251C24.1082 28.1251 21.6044 27.088 19.7584 25.2419C17.9123 23.3959 16.8752 20.8921 16.8752 18.2814C16.8752 15.6706 17.9123 13.1668 19.7584 11.3208C21.6044 9.47472 24.1082 8.43761 26.719 8.43761C28.0591 8.43417 29.3855 8.70714 30.6154 9.23945C31.8453 9.77176 32.9522 10.552 33.8669 11.5314C34.0232 11.6966 34.2173 11.8215 34.4325 11.8953C34.6477 11.9691 34.8775 11.9896 35.1024 11.9551C35.3272 11.9205 35.5403 11.8319 35.7234 11.6969C35.9065 11.5618 36.0541 11.3844 36.1535 11.1798C36.9568 9.5161 38.213 8.11265 39.7778 7.13054C41.3427 6.14843 43.1527 5.62747 45.0002 5.62747C46.8477 5.62747 48.6577 6.14843 50.2226 7.13054C51.7874 8.11265 53.0436 9.5161 53.8469 11.1798C53.9464 11.3844 54.0939 11.5618 54.277 11.6969C54.4601 11.8319 54.6732 11.9205 54.898 11.9551C55.1229 11.9896 55.3527 11.9691 55.5679 11.8953C55.7831 11.8215 55.9772 11.6966 56.1335 11.5314C57.0482 10.552 58.1551 9.77176 59.385 9.23945C60.6149 8.70714 61.9413 8.43417 63.2814 8.43761C65.8922 8.43761 68.396 9.47472 70.242 11.3208C72.0881 13.1668 73.1252 15.6706 73.1252 18.2814C73.1252 20.8921 72.0881 23.3959 70.242 25.2419C68.396 27.088 65.8922 28.1251 63.2814 28.1251C62.9573 28.125 62.643 28.237 62.3919 28.442C62.1408 28.647 61.9682 28.9325 61.9033 29.2501L59.0346 43.5939H53.6529Z" fill="#F9F9F9"/>
</g>
</svg>
