<svg width="90" height="90" viewBox="0 0 90 90" fill="none" xmlns="http://www.w3.org/2000/svg">
<g id="Huerta_04 1">
<g id="Group">
<path id="Vector" d="M27.8438 51.1876H28.125C29.9531 51.047 31.3594 49.5001 31.3594 47.5314V46.8282L55.125 45.2814L57.7969 47.672C61.3125 50.7657 66.7969 50.3439 69.8906 46.8282L78.1875 37.2657C81.1406 33.8907 81 28.6876 77.7656 25.4532C81.7031 21.0939 81.2813 14.2032 76.9219 10.2657C76.9219 10.2657 76.9219 10.2657 76.7812 10.1251L76.6406 9.98449C72.1406 6.04699 65.3906 6.60949 61.4531 10.9689C58.0781 8.29699 53.1562 8.57824 50.0625 11.672L49.2188 11.3907C47.3906 9.84386 44.5781 9.98449 43.0313 11.8126L38.9531 16.4532C37.4063 18.2814 37.5469 21.0939 39.375 22.6407L40.2188 23.4845C38.25 27.0001 39.0938 31.3595 42.0469 34.0314L47.6719 38.9532L30.7969 40.0782V39.3751C30.6563 37.547 28.9688 36.1407 27.1406 36.1407C25.3125 36.1407 23.7656 37.6876 23.7656 39.6564V39.797L24.3281 47.9532C24.6094 49.7814 26.0156 51.1876 27.8438 51.1876ZM68.9062 10.4064C71.0156 10.2657 73.125 10.9689 74.6719 12.3751L74.8125 12.5157C78.0469 15.3282 78.4688 20.3907 75.5156 23.6251L72.2813 20.9532L63.2813 13.0782C64.8281 11.5314 66.7969 10.547 68.9062 10.4064ZM41.0625 18.2814L45 13.6407C45.5625 12.9376 46.5469 12.9376 47.25 13.5001L47.9531 14.2032L41.7656 21.2345L41.0625 20.5314C40.5 19.9689 40.5 18.9845 41.0625 18.2814ZM43.4531 23.7657L51.1875 14.9064L51.75 14.2032C52.7344 13.0782 54.1406 12.3751 55.6875 12.2345H56.1094C57.5156 12.2345 58.7812 12.797 59.9062 13.6407L60.6094 14.2032L67.6406 20.3907L69.6094 22.0782L65.25 27.1407C64.6875 27.7032 64.8281 28.6876 65.3906 29.1095C65.9531 29.672 66.9375 29.5314 67.3594 28.9689L71.7188 23.9064L72.7031 24.7501L64.6875 34.0314C64.125 34.5939 64.2656 35.5782 64.8281 36.0001C65.3906 36.5626 66.375 36.422 66.7969 35.8595L74.6719 26.7189L75.375 27.2814C77.7656 29.3907 78.0469 33.047 75.9375 35.4376L67.6406 45.0001C65.5313 47.3907 61.875 47.672 59.4844 45.5626L52.0313 39.0939L48.6562 36.1407L56.6719 27.0001C57.2344 26.4376 57.0938 25.4532 56.5313 25.0314C55.9688 24.4689 54.9844 24.6095 54.5625 25.172L46.5469 34.3126L45.5625 33.4689L49.9219 28.4064C50.4844 27.8439 50.4844 27.0001 49.9219 26.4376C49.3594 25.8751 48.5156 25.8751 47.9531 26.4376C47.9531 26.4376 47.9531 26.4376 47.8125 26.5782L43.5938 31.5001C41.4844 29.3907 41.4844 26.0157 43.4531 23.7657ZM50.625 41.6251L51.8906 42.7501L30.9375 44.1564V43.5939V42.8907L50.625 41.6251ZM26.8594 39.2345C27 39.0939 27.1406 39.0939 27.2813 39.0939C27.5625 39.0939 27.8438 39.2345 27.8438 39.6564L28.4063 47.8126C28.4063 48.0939 28.125 48.3751 27.8438 48.3751L27.9844 49.7814L27.8438 48.3751C27.5625 48.3751 27.2813 48.2345 27.2813 47.8126L26.7188 39.6564C26.7188 39.5157 26.7188 39.3751 26.8594 39.2345Z" fill="#F9F9F9"/>
<path id="Vector_2" d="M81.8436 79.3127H73.9686V75.5159C76.3592 75.5159 78.7498 74.6721 80.578 72.9846C83.3905 70.1721 83.1092 65.2502 83.1092 65.1096C83.1092 64.4065 82.5467 63.844 81.8436 63.844C81.703 63.844 76.7811 63.4221 73.9686 66.3752C73.2655 67.0784 72.703 67.9221 72.4217 68.7659C71.0155 67.6409 69.0467 67.0784 67.2186 67.219C66.5155 67.219 65.953 67.7815 65.953 68.4846C65.8123 70.4534 66.3748 72.4221 67.6405 73.8284C68.6248 74.8127 69.8905 75.3752 71.2967 75.5159V79.3127H59.6248V75.5159C61.0311 75.3752 62.2967 74.8127 63.2811 73.8284C64.5467 72.2815 65.1092 70.4534 64.9686 68.4846C64.9686 67.7815 64.4061 67.219 63.703 67.219C61.8748 67.0784 60.0467 67.6409 58.4998 68.7659C58.078 67.7815 57.5155 67.0784 56.8123 66.2346C53.9998 63.4221 49.078 63.7034 48.9373 63.7034C48.2342 63.7034 47.6717 64.2659 47.6717 64.969C47.6717 65.2502 47.2498 70.0315 50.203 72.844C52.0311 74.3909 54.4217 75.3752 56.8123 75.3752V79.1721H34.5936V75.5159C36.9842 75.5159 39.3748 74.6721 41.203 72.9846C44.0155 70.1721 43.7342 65.2502 43.7342 65.1096C43.7342 64.4065 43.1717 63.844 42.4686 63.844C42.328 63.844 37.4061 63.4221 34.5936 66.3752C33.8905 67.0784 33.328 67.9221 32.9061 68.7659C31.4998 67.6409 29.5311 67.0784 27.703 67.219C26.9998 67.219 26.4373 67.7815 26.4373 68.4846C26.2967 70.4534 26.8592 72.4221 28.1248 73.8284C29.1092 74.8127 30.3748 75.3752 31.7811 75.5159V79.3127H18.703V75.5159C20.1092 75.3752 21.3748 74.8127 22.3592 73.8284C23.6248 72.2815 24.1873 70.4534 24.0467 68.4846C24.0467 67.7815 23.4842 67.219 22.7811 67.219C20.953 67.0784 19.1248 67.6409 17.578 68.7659C17.1561 67.7815 16.5936 67.0784 16.0311 66.2346C13.2186 63.4221 8.29671 63.7034 8.15609 63.7034C7.45296 63.7034 6.89046 64.2659 6.89046 64.969C6.89046 65.2502 6.46859 70.0315 9.42171 72.844C11.2498 74.3909 13.6405 75.3752 16.0311 75.3752V79.1721H11.5311C10.6873 79.1721 10.1248 79.7346 10.1248 80.5784C10.1248 81.4221 10.6873 81.9846 11.5311 81.9846H81.8436C82.6873 81.9846 83.2498 81.4221 83.2498 80.5784C83.2498 79.7346 82.6873 79.3127 81.8436 79.3127ZM75.9373 68.344C77.203 67.3596 78.7498 66.7971 80.2967 66.6565C80.2967 68.2034 79.7342 69.7502 78.6092 71.0159C77.3436 72.0002 75.7967 72.5627 74.2498 72.7034C74.3905 71.1565 74.953 69.6096 75.9373 68.344ZM68.6248 70.1721C70.0311 70.3127 71.0155 71.2971 71.1561 72.7034C69.8905 72.5627 68.7655 71.5784 68.6248 70.1721ZM60.1873 71.0159C60.6092 70.594 61.3123 70.3127 61.8748 70.1721C61.7342 71.5784 60.7498 72.5627 59.3436 72.7034C59.4842 72.1409 59.7655 71.4377 60.1873 71.0159ZM52.0311 71.1565C51.0467 69.8909 50.4842 68.344 50.3436 66.7971C51.8905 66.7971 53.4373 67.3596 54.703 68.4846C55.6873 69.7502 56.2498 71.2971 56.3905 72.844C54.8436 72.7034 53.2967 72.1409 52.0311 71.1565ZM36.5623 68.344C37.828 67.3596 39.3748 66.7971 40.9217 66.6565C40.9217 68.2034 40.3592 69.7502 39.2342 71.0159C37.9686 72.0002 36.4217 72.5627 34.8748 72.7034C35.0155 71.1565 35.578 69.6096 36.5623 68.344ZM29.3905 70.1721C30.0936 70.3127 30.6561 70.594 31.078 71.0159C31.4998 71.4377 31.7811 72.1409 31.9217 72.7034C30.5155 72.5627 29.3905 71.5784 29.3905 70.1721ZM19.4061 71.0159C19.828 70.594 20.5311 70.3127 21.0936 70.1721C20.953 70.8752 20.6717 71.4377 20.2498 71.8596C19.828 72.2815 19.1248 72.5627 18.5623 72.7034C18.703 72.1409 18.9842 71.4377 19.4061 71.0159ZM11.2498 71.1565C10.2655 69.8909 9.70296 68.344 9.56234 66.7971C11.1092 66.7971 12.6561 67.3596 13.9217 68.4846C14.9061 69.7502 15.4686 71.2971 15.6092 72.844C14.0623 72.7034 12.5155 72.1409 11.2498 71.1565Z" fill="#F9F9F9"/>
<path id="Vector_3" d="M20.9527 43.3127C13.7808 46.5471 10.2652 54.0002 12.9371 59.9065C13.2183 60.6096 14.0621 61.0315 14.7652 60.7502C15.4683 60.469 15.8902 59.6252 15.609 58.9221C15.609 58.9221 15.609 58.7815 15.4683 58.7815C13.4996 54.2815 16.4527 48.5159 22.0777 45.9846C22.7808 45.7034 23.0621 44.8596 22.7808 44.1565C22.4996 43.3127 21.6558 43.0315 20.9527 43.3127Z" fill="#F9F9F9"/>
<path id="Vector_4" d="M23.4842 51.4689C24.1873 51.1876 24.4686 50.3439 24.1873 49.6407C23.9061 48.9376 23.0623 48.6564 22.3592 48.9376C20.2498 49.7814 18.5623 51.4689 17.4373 53.4376C16.4529 55.4064 16.3123 57.6564 17.1561 59.6251C17.4373 60.3282 18.2811 60.7501 18.9842 60.4689C19.6873 60.1876 20.1092 59.3439 19.8279 58.6407C19.8279 58.6407 19.8279 58.5001 19.6873 58.5001C19.1248 57.2345 19.2654 55.9689 19.9686 54.7032C20.8123 53.297 22.078 52.172 23.4842 51.4689Z" fill="#F9F9F9"/>
<path id="Vector_5" d="M8.71857 55.4063H8.8592C9.56232 55.2657 10.1248 54.5625 10.1248 53.8594C9.4217 47.8126 14.6248 42.0469 21.5154 41.3438C22.3592 41.2032 22.9217 40.5001 22.7811 39.7969C22.6404 38.9532 21.9373 38.3907 21.2342 38.5313C12.6561 39.5157 6.46857 46.5469 7.31232 54.2813C7.45295 54.9844 8.01545 55.4063 8.71857 55.4063Z" fill="#F9F9F9"/>
</g>
</g>
</svg>
