<svg width="159" height="160" viewBox="0 0 159 160" fill="none" xmlns="http://www.w3.org/2000/svg">
<path d="M99.375 130.459C99.375 130.21 99.375 129.96 99.375 129.711V124.723C99.375 123.725 99.1266 122.977 98.6297 122.229C99.1266 121.48 99.375 120.732 99.375 119.735V114.746C99.375 113.749 99.1266 113.001 98.6297 112.252C99.1266 111.504 99.375 110.756 99.375 109.758V104.77C99.375 102.026 97.1391 99.7817 94.4062 99.7817H64.5938C61.8609 99.7817 59.625 102.026 59.625 104.77V109.758C59.625 110.756 59.8734 111.504 60.3703 112.252C59.8734 113.001 59.625 113.749 59.625 114.746V119.735C59.625 120.732 59.8734 121.48 60.3703 122.229C59.8734 122.977 59.625 123.725 59.625 124.723V129.711C59.625 131.457 60.6187 133.203 62.1094 133.951C62.1094 134.2 62.1094 134.45 62.1094 134.699V139.687C62.1094 139.937 62.1094 140.186 62.1094 140.436C60.6187 141.184 59.625 142.93 59.625 144.676V149.664C59.625 152.407 61.8609 154.652 64.5938 154.652H94.4062C97.1391 154.652 99.375 152.407 99.375 149.664V144.676C99.375 144.426 99.375 144.177 99.375 143.927C100.866 143.179 101.859 141.433 101.859 139.687V134.699C101.859 132.953 100.866 131.207 99.375 130.459ZM96.8906 134.699V139.687H67.0781V134.699H96.8906ZM64.5938 129.711V124.723H94.4062V129.711H64.5938ZM64.5938 114.746H94.4062V119.735H64.5938V114.746ZM64.5938 104.77H94.4062V109.758H64.5938V104.77ZM94.4062 149.664H64.5938V144.676H94.4062V149.664Z" fill="#4F4F4F"/>
<path d="M44.7188 130.46C44.7188 130.21 44.7188 129.961 44.7188 129.711V124.723C44.7188 121.98 42.4828 119.735 39.75 119.735H9.9375C7.20469 119.735 4.96875 121.98 4.96875 124.723V129.711C4.96875 131.457 5.9625 133.203 7.45312 133.951C7.45312 134.201 7.45312 134.45 7.45312 134.7V139.688C7.45312 139.937 7.45312 140.187 7.45312 140.436C5.9625 141.184 4.96875 142.93 4.96875 144.676V149.664C4.96875 152.408 7.20469 154.652 9.9375 154.652H39.75C42.4828 154.652 44.7188 152.408 44.7188 149.664V144.676C44.7188 144.427 44.7188 144.177 44.7188 143.928C46.2094 143.179 47.2031 141.434 47.2031 139.688V134.7C47.2031 132.954 46.2094 131.208 44.7188 130.46ZM42.2344 134.7V139.688H12.4219V134.7H42.2344ZM9.9375 124.723H39.75V129.711H9.9375V124.723ZM39.75 149.664H9.9375V144.676H39.75V149.664Z" fill="#4F4F4F"/>
<path d="M149.062 79.8291H119.25C116.517 79.8291 114.281 82.0738 114.281 84.8173V89.8055C114.281 90.0549 114.281 90.3044 114.281 90.5538C112.791 91.302 111.797 93.0479 111.797 94.7938V99.782C111.797 101.528 112.791 103.274 114.281 104.022C114.281 104.271 114.281 104.521 114.281 104.77V109.758C114.281 110.756 114.53 111.504 115.027 112.253C114.53 113.001 114.281 113.749 114.281 114.747V119.735C114.281 119.984 114.281 120.234 114.281 120.483C112.791 121.231 111.797 122.977 111.797 124.723V129.711C111.797 131.457 112.791 133.203 114.281 133.951C114.281 134.201 114.281 134.45 114.281 134.699V139.688C114.281 139.937 114.281 140.187 114.281 140.436C112.791 141.184 111.797 142.93 111.797 144.676V149.664C111.797 152.408 114.033 154.652 116.766 154.652H146.578C149.311 154.652 151.547 152.408 151.547 149.664V144.676C151.547 144.427 151.547 144.177 151.547 143.928C153.037 143.179 154.031 141.434 154.031 139.688V134.699C154.031 132.954 153.037 131.208 151.547 130.459C151.547 130.21 151.547 129.961 151.547 129.711V124.723C151.547 124.474 151.547 124.224 151.547 123.975C153.037 123.227 154.031 121.481 154.031 119.735V114.747C154.031 113.749 153.783 113.001 153.286 112.253C153.783 111.504 154.031 110.756 154.031 109.758V104.77C154.031 103.024 153.037 101.278 151.547 100.53C151.547 100.281 151.547 100.031 151.547 99.782V94.7938C151.547 94.5443 151.547 94.2949 151.547 94.0455C153.037 93.2973 154.031 91.5514 154.031 89.8055V84.8173C154.031 82.0738 151.795 79.8291 149.062 79.8291ZM119.25 84.8173H149.062V89.8055H119.25V84.8173ZM146.578 99.782H116.766V94.7938H146.578V99.782ZM149.062 104.77V109.758H119.25V104.77H149.062ZM149.062 119.735H119.25V114.747H149.062V119.735ZM146.578 129.711H116.766V124.723H146.578V129.711ZM149.062 134.699V139.688H119.25V134.699H149.062ZM146.578 149.664H116.766V144.676H146.578V149.664Z" fill="#4F4F4F"/>
<path d="M64.5938 44.9114H69.5625V62.3701H74.5313V42.4173C74.5313 40.9208 73.5375 39.9231 72.0469 39.9231H70.5562L79.5 30.9444L88.4437 39.9231H86.9531C85.4625 39.9231 84.4688 40.9208 84.4688 42.4173V67.3583H89.4375V44.9114H94.4062C95.8969 44.9114 96.8906 43.9137 96.8906 42.4173C96.8906 41.669 96.6422 41.1702 96.1453 40.6714L81.2391 25.7067C80.2453 24.7091 78.7547 24.7091 77.7609 25.7067L62.8547 40.6714C61.8609 41.669 61.8609 43.1655 62.8547 44.1631C63.3516 44.662 63.8484 44.9114 64.5938 44.9114Z" fill="#4F4F4F"/>
<path d="M12.4219 77.3352H17.3906V89.8057H22.3594V74.8411C22.3594 73.3446 21.3656 72.347 19.875 72.347H18.3844L27.3281 63.3682L36.2719 72.347H34.7812C33.2906 72.347 32.2969 73.3446 32.2969 74.8411V94.7939H37.2656V77.3352H42.2344C43.725 77.3352 44.7188 76.3375 44.7188 74.8411C44.7188 74.0928 44.4703 73.594 43.9734 73.0952L29.0672 58.1306C28.0734 57.1329 26.5828 57.1329 25.5891 58.1306L10.6828 73.0952C9.68906 74.0928 9.68906 75.5893 10.6828 76.587C11.1797 77.0858 11.6766 77.3352 12.4219 77.3352Z" fill="#4F4F4F"/>
<path d="M74.5312 67.3584H69.5625V72.3466H74.5312V67.3584Z" fill="#4F4F4F"/>
<path d="M89.4375 72.3467H84.4688V77.3349H89.4375V72.3467Z" fill="#4F4F4F"/>
<path d="M131.672 34.9353C130.181 34.9353 129.188 33.9376 129.188 32.4411H124.219C124.219 35.6835 126.206 38.427 129.188 39.4246V42.4176H134.156V39.4246C138.131 38.1776 140.119 33.6882 138.628 29.947C137.634 26.9541 134.653 24.9588 131.672 24.9588C130.181 24.9588 129.188 23.9612 129.188 22.4647C129.188 20.9682 130.181 19.9706 131.672 19.9706C133.163 19.9706 134.156 20.9682 134.156 22.4647H139.125C139.125 19.2224 137.137 16.4789 134.156 15.4812V12.4883H129.188V15.4812C125.212 16.7283 123.225 21.2177 124.716 24.9588C125.709 27.9517 128.691 29.947 131.672 29.947C133.163 29.947 134.156 30.9447 134.156 32.4411C134.156 33.9376 133.163 34.9353 131.672 34.9353Z" fill="#4F4F4F"/>
<path d="M131.672 49.8998C144.094 49.8998 154.031 39.9234 154.031 27.4528C154.031 14.9823 144.094 5.00586 131.672 5.00586C119.25 5.00586 109.312 14.9823 109.312 27.4528C109.312 39.9234 119.25 49.8998 131.672 49.8998ZM131.672 9.99407C141.361 9.99407 149.062 17.7258 149.062 27.4528C149.062 37.1798 141.361 44.9116 131.672 44.9116C121.983 44.9116 114.281 37.1798 114.281 27.4528C114.281 17.9752 121.983 9.99407 131.672 9.99407Z" fill="#4F4F4F"/>
<path d="M22.3594 94.7939H17.3906V99.7822H22.3594V94.7939Z" fill="#4F4F4F"/>
<path d="M22.3594 104.77H17.3906V109.758H22.3594V104.77Z" fill="#4F4F4F"/>
<path d="M37.2656 99.7817H32.2969V114.746H37.2656V99.7817Z" fill="#4F4F4F"/>
<path d="M74.5312 77.335H69.5625V87.3114H74.5312V77.335Z" fill="#4F4F4F"/>
<path d="M89.4375 82.3232H84.4688V92.2997H89.4375V82.3232Z" fill="#4F4F4F"/>
</svg>
