<?xml version="1.0" encoding="utf-8"?>
<!-- Generator: Adobe Illustrator 24.1.2, SVG Export Plug-In . SVG Version: 6.00 Build 0)  -->
<svg version="1.1" id="Capa_1" xmlns="http://www.w3.org/2000/svg" xmlns:xlink="http://www.w3.org/1999/xlink" x="0px" y="0px"
	 viewBox="0 0 64 64" style="enable-background:new 0 0 64 64;" xml:space="preserve">
<g>
	<path d="M40,52.2c0-0.1,0-0.2,0-0.3v-2c0-0.4-0.1-0.7-0.3-1c0.2-0.3,0.3-0.6,0.3-1v-2c0-0.4-0.1-0.7-0.3-1c0.2-0.3,0.3-0.6,0.3-1
		v-2c0-1.1-0.9-2-2-2H26c-1.1,0-2,0.9-2,2v2c0,0.4,0.1,0.7,0.3,1c-0.2,0.3-0.3,0.6-0.3,1v2c0,0.4,0.1,0.7,0.3,1
		c-0.2,0.3-0.3,0.6-0.3,1v2c0,0.7,0.4,1.4,1,1.7c0,0.1,0,0.2,0,0.3v2c0,0.1,0,0.2,0,0.3c-0.6,0.3-1,1-1,1.7v2c0,1.1,0.9,2,2,2h12
		c1.1,0,2-0.9,2-2v-2c0-0.1,0-0.2,0-0.3c0.6-0.3,1-1,1-1.7v-2C41,53.2,40.6,52.5,40,52.2z M39,53.9v2H27v-2H39z M26,51.9v-2h12v2H26
		z M26,45.9h12v2H26V45.9z M26,41.9h12v2H26V41.9z M38,59.9H26v-2h12V59.9z"/>
	<path d="M18,52.2c0-0.1,0-0.2,0-0.3v-2c0-1.1-0.9-2-2-2H4c-1.1,0-2,0.9-2,2v2c0,0.7,0.4,1.4,1,1.7c0,0.1,0,0.2,0,0.3v2
		c0,0.1,0,0.2,0,0.3c-0.6,0.3-1,1-1,1.7v2c0,1.1,0.9,2,2,2h12c1.1,0,2-0.9,2-2v-2c0-0.1,0-0.2,0-0.3c0.6-0.3,1-1,1-1.7v-2
		C19,53.2,18.6,52.5,18,52.2z M17,53.9v2H5v-2H17z M4,49.9h12v2H4V49.9z M16,59.9H4v-2h12V59.9z"/>
	<path d="M60,31.9H48c-1.1,0-2,0.9-2,2v2c0,0.1,0,0.2,0,0.3c-0.6,0.3-1,1-1,1.7v2c0,0.7,0.4,1.4,1,1.7c0,0.1,0,0.2,0,0.3v2
		c0,0.4,0.1,0.7,0.3,1c-0.2,0.3-0.3,0.6-0.3,1v2c0,0.1,0,0.2,0,0.3c-0.6,0.3-1,1-1,1.7v2c0,0.7,0.4,1.4,1,1.7c0,0.1,0,0.2,0,0.3v2
		c0,0.1,0,0.2,0,0.3c-0.6,0.3-1,1-1,1.7v2c0,1.1,0.9,2,2,2h12c1.1,0,2-0.9,2-2v-2c0-0.1,0-0.2,0-0.3c0.6-0.3,1-1,1-1.7v-2
		c0-0.7-0.4-1.4-1-1.7c0-0.1,0-0.2,0-0.3v-2c0-0.1,0-0.2,0-0.3c0.6-0.3,1-1,1-1.7v-2c0-0.4-0.1-0.7-0.3-1c0.2-0.3,0.3-0.6,0.3-1v-2
		c0-0.7-0.4-1.4-1-1.7c0-0.1,0-0.2,0-0.3v-2c0-0.1,0-0.2,0-0.3c0.6-0.3,1-1,1-1.7v-2C62,32.8,61.1,31.9,60,31.9z M48,33.9h12v2H48
		V33.9z M59,39.9H47v-2h12V39.9z M60,41.9v2H48v-2H60z M60,47.9H48v-2h12V47.9z M59,51.9H47v-2h12V51.9z M60,53.9v2H48v-2H60z
		 M59,59.9H47v-2h12V59.9z"/>
	<path d="M26,17.9h2v7h2v-8c0-0.6-0.4-1-1-1h-0.6l3.6-3.6l3.6,3.6H35c-0.6,0-1,0.4-1,1v10h2v-9h2c0.6,0,1-0.4,1-1
		c0-0.3-0.1-0.5-0.3-0.7l-6-6c-0.4-0.4-1-0.4-1.4,0l-6,6c-0.4,0.4-0.4,1,0,1.4C25.5,17.8,25.7,17.9,26,17.9z"/>
	<path d="M5,30.9h2v5h2v-6c0-0.6-0.4-1-1-1H7.4l3.6-3.6l3.6,3.6H14c-0.6,0-1,0.4-1,1v8h2v-7h2c0.6,0,1-0.4,1-1
		c0-0.3-0.1-0.5-0.3-0.7l-6-6c-0.4-0.4-1-0.4-1.4,0l-6,6c-0.4,0.4-0.4,1,0,1.4C4.5,30.8,4.7,30.9,5,30.9z"/>
	<rect x="28" y="26.9" width="2" height="2"/>
	<rect x="34" y="28.9" width="2" height="2"/>
	<path d="M53,13.9c-0.6,0-1-0.4-1-1h-2c0,1.3,0.8,2.4,2,2.8v1.2h2v-1.2c1.6-0.5,2.4-2.3,1.8-3.8c-0.4-1.2-1.6-2-2.8-2
		c-0.6,0-1-0.4-1-1s0.4-1,1-1s1,0.4,1,1h2c0-1.3-0.8-2.4-2-2.8V4.9h-2v1.2c-1.6,0.5-2.4,2.3-1.8,3.8c0.4,1.2,1.6,2,2.8,2
		c0.6,0,1,0.4,1,1S53.6,13.9,53,13.9z"/>
	<path d="M53,19.9c5,0,9-4,9-9s-4-9-9-9s-9,4-9,9C44,15.9,48,19.9,53,19.9z M53,3.9c3.9,0,7,3.1,7,7s-3.1,7-7,7s-7-3.1-7-7
		C46,7.1,49.1,3.9,53,3.9z"/>
	<rect x="7" y="37.9" width="2" height="2"/>
	<rect x="7" y="41.9" width="2" height="2"/>
	<rect x="13" y="39.9" width="2" height="6"/>
	<rect x="28" y="30.9" width="2" height="4"/>
	<rect x="34" y="32.9" width="2" height="4"/>
</g>
</svg>
