<?xml version="1.0" encoding="utf-8"?>
<!-- Generator: Adobe Illustrator 16.0.0, SVG Export Plug-In . SVG Version: 6.00 Build 0)  -->
<!DOCTYPE svg PUBLIC "-//W3C//DTD SVG 1.1//EN" "http://www.w3.org/Graphics/SVG/1.1/DTD/svg11.dtd">
<svg version="1.1" xmlns="http://www.w3.org/2000/svg" xmlns:xlink="http://www.w3.org/1999/xlink" x="0px" y="0px" width="1200px"
	 height="500px" viewBox="0 0 1200 500" enable-background="new 0 0 1200 500" xml:space="preserve">
<g id="Layer_1">
	<g>
		<g>
			<linearGradient id="SVGID_1_" gradientUnits="userSpaceOnUse" x1="211.8081" y1="152.8921" x2="211.8081" y2="87.2959">
				<stop  offset="0" style="stop-color:#FDB924"/>
				<stop  offset="1" style="stop-color:#F9ED32"/>
			</linearGradient>
			<path fill-rule="evenodd" clip-rule="evenodd" fill="url(#SVGID_1_)" d="M197.395,90.551c4.4-2.189,9.233-3.255,14.462-3.255
				c5.28,0,10.076,1.066,14.41,3.255c3.132,1.555,6.026,3.688,8.674,6.388c6.429,6.425,9.629,14.1,9.629,23.013
				c0,9.088-3.2,16.815-9.629,23.188c-6.317,6.496-13.992,9.751-23.083,9.751c-9.017,0-16.812-3.255-23.435-9.751
				c-6.243-6.374-9.375-14.1-9.375-23.188c0-8.913,3.132-16.587,9.375-23.013C191.197,94.24,194.195,92.106,197.395,90.551z"/>
			<linearGradient id="SVGID_2_" gradientUnits="userSpaceOnUse" x1="211.8003" y1="412.0381" x2="211.8003" y2="118.5879">
				<stop  offset="0" style="stop-color:#DF2490"/>
				<stop  offset="1" style="stop-color:#33C6F4"/>
			</linearGradient>
			<path fill-rule="evenodd" clip-rule="evenodd" fill="url(#SVGID_2_)" d="M290.333,187.656
				c18.004-19.384,27.335-42.408,28.021-69.068H274.32c-0.671,15.961-6.698,29.71-18.042,41.219
				c-12.276,12.034-26.955,18.027-44.042,18.027c-17.072,0-31.698-5.993-43.863-18.027c-11.367-11.508-17.378-25.258-18.035-41.219
				h-44.049c0.514,26.283,9.562,49.024,27.141,68.255L99.019,412.038h43.087l15.454-110.063l0.022-0.515l2.983-21.384
				c-2.551-2.155-5.064-4.475-7.585-6.951c-15.573-15.528-23.599-34.346-24.091-56.452h34.428
				c0.462,12.481,5.168,23.229,14.104,32.253c9.502,9.45,20.966,14.175,34.383,14.175c13.321,0,24.777-4.726,34.443-14.175
				c8.838-9.024,13.5-19.772,13.992-32.253h34.502c-0.679,22.125-8.793,40.95-24.336,56.452c-2.334,2.395-4.729,4.624-7.16,6.683
				l18.534,132.23h42.804L290.333,187.656z M229.876,235.852c-4.915,5.079-10.941,7.63-18.042,7.63
				c-7.115,0-13.276-2.551-18.422-7.63c-4.877-5.023-7.339-11.035-7.339-18.042c0-7.037,2.461-13.06,7.339-18.083
				c5.146-5.057,11.307-7.604,18.422-7.604c7.101,0,13.127,2.547,18.042,7.604c5.116,5.023,7.667,11.046,7.667,18.083
				C237.543,224.817,234.992,230.829,229.876,235.852z"/>
			<linearGradient id="SVGID_3_" gradientUnits="userSpaceOnUse" x1="211.8115" y1="319.166" x2="211.8115" y2="285.6104">
				<stop  offset="0" style="stop-color:#008EB0"/>
				<stop  offset="1" style="stop-color:#23B0DC"/>
			</linearGradient>
			<path fill-rule="evenodd" clip-rule="evenodd" fill="url(#SVGID_3_)" d="M211.886,285.61c4.602,0,8.547,1.626,11.807,4.923
				c3.244,3.252,4.87,7.189,4.87,11.776c0,4.662-1.626,8.615-4.87,11.866c-3.259,3.342-7.205,4.99-11.807,4.99
				c-4.654,0-8.674-1.648-12.023-4.99c-3.2-3.251-4.803-7.204-4.803-11.866c0-4.587,1.604-8.524,4.803-11.776
				C203.212,287.236,207.232,285.61,211.886,285.61z"/>
			<linearGradient id="SVGID_4_" gradientUnits="userSpaceOnUse" x1="212.27" y1="412.0381" x2="212.27" y2="301.4521">
				<stop  offset="0" style="stop-color:#00A65D"/>
				<stop  offset="1" style="stop-color:#0099CC"/>
			</linearGradient>
			<path fill-rule="evenodd" clip-rule="evenodd" fill="url(#SVGID_4_)" d="M266.541,301.452c-0.38,14.35-5.69,26.724-15.909,37.076
				c-4.818,4.721-10.091,8.405-15.819,11.038L244.419,412v0.038h-64.202V412l9.532-62.352c-5.833-2.596-11.12-6.31-15.909-11.12
				c-10.233-10.233-15.528-22.413-15.841-36.599l0.037-0.478h22.465c0.35,8.167,3.416,15.2,9.248,21.13
				c6.258,6.094,13.746,9.144,22.442,9.144c8.846,0,16.319-3.05,22.479-9.144c5.825-5.93,8.928-12.963,9.301-21.13H266.541z"/>
		</g>
		<g>
			<g>
				<path fill="#1F99C9" d="M351.738,412.038v-88.65h19.034v72.055h37.441v16.596H351.738z"/>
				<path fill="#1F99C9" d="M482.23,412.038l-5.557-15.044h-37.985l-5.602,15.044h-21.413l34.205-88.65h23.605l34.174,88.65H482.23z
					 M457.64,342.265l-13.791,38.142h27.633L457.64,342.265z"/>
				<path fill="#1F99C9" d="M546.037,412.038v-88.65h41.476c19.25,0,29.789,13.074,29.789,28.58
					c0,15.432-10.65,28.438-29.789,28.438h-22.592v31.632H546.037z M598.022,351.968c0-7.406-5.713-11.956-13.164-11.956h-19.937
					v23.793h19.937C592.309,363.805,598.022,359.307,598.022,351.968z"/>
				<path fill="#1F99C9" d="M629.139,412.038v-88.65h18.847v88.65H629.139z"/>
				<path fill="#1F99C9" d="M726.649,412.038l-42.237-57.78v57.78h-18.877v-88.65h19.385l41.11,55.706v-55.706h18.848v88.65H726.649
					z"/>
				<path fill="#1F99C9" d="M782.908,412.038v-72.026h-25.926v-16.624h70.706v16.624h-25.813v72.026H782.908z"/>
				<path fill="#1F99C9" d="M892.517,412.038l-5.602-15.044h-37.948l-5.624,15.044h-21.397l34.174-88.65h23.673l34.152,88.65
					H892.517z M867.919,342.265l-13.843,38.142h27.686L867.919,342.265z"/>
				<path fill="#1F99C9" d="M983.308,412.038l-42.282-57.78v57.78h-18.84v-88.65h19.393l41.08,55.706v-55.706h18.855v88.65H983.308z
					"/>
				<path fill="#1F99C9" d="M1080.318,412.038l-5.563-15.044h-38.016l-5.563,15.044h-21.429l34.182-88.65h23.644l34.167,88.65
					H1080.318z M1055.721,342.265l-13.798,38.142h27.641L1055.721,342.265z"/>
			</g>
			<g>
				<path fill="#1F99C9" d="M351.738,282.971c0-17.767,13.321-29.711,30.684-29.711c12.538,0,19.832,6.783,23.896,14.056
					l-10.524,5.116c-2.409-4.646-7.563-8.316-13.373-8.316c-10.531,0-18.117,7.98-18.117,18.855
					c0,10.852,7.585,18.877,18.117,18.877c5.81,0,10.964-3.744,13.373-8.354l10.524,5.049c-4.065,7.116-11.359,14.127-23.896,14.127
					C365.059,312.67,351.738,300.609,351.738,282.971z"/>
				<path fill="#1F99C9" d="M410.898,282.971c0-17.334,12.642-29.711,30.072-29.711c17.281,0,29.96,12.377,29.96,29.711
					c0,17.318-12.679,29.699-29.96,29.699C423.541,312.67,410.898,300.289,410.898,282.971z M458.326,282.971
					c0-10.756-6.757-18.855-17.355-18.855c-10.718,0-17.512,8.1-17.512,18.855c0,10.673,6.794,18.877,17.512,18.877
					C451.569,301.848,458.326,293.644,458.326,282.971z"/>
				<path fill="#1F99C9" d="M519.127,311.655l-27.387-37.479v37.479h-12.202v-57.459h12.567l26.611,36.099v-36.099h12.247v57.459
					H519.127z"/>
				<path fill="#1F99C9" d="M577.75,311.655v-46.704h-16.819v-10.755h45.788v10.755h-16.7v46.704H577.75z"/>
				<path fill="#1F99C9" d="M609.769,282.971c0-17.334,12.649-29.711,30.035-29.711c17.333,0,29.968,12.377,29.968,29.711
					c0,17.318-12.635,29.699-29.968,29.699C622.418,312.67,609.769,300.289,609.769,282.971z M657.204,282.971
					c0-10.756-6.787-18.855-17.4-18.855c-10.673,0-17.46,8.1-17.46,18.855c0,10.673,6.787,18.877,17.46,18.877
					C650.417,301.848,657.204,293.644,657.204,282.971z"/>
				<path fill="#1F99C9" d="M678.416,311.655v-57.459h22.629c18.012,0,30.467,11.44,30.467,28.654
					c0,17.438-12.455,28.805-30.393,28.805H678.416z M719.057,282.851c0-10.023-6.213-17.899-17.938-17.899H690.61v35.919h10.435
					C712.411,300.87,719.057,292.659,719.057,282.851z"/>
				<path fill="#1F99C9" d="M737.456,282.971c0-17.334,12.688-29.711,30.088-29.711c17.28,0,29.99,12.377,29.99,29.711
					c0,17.318-12.71,29.699-29.99,29.699C750.144,312.67,737.456,300.289,737.456,282.971z M784.937,282.971
					c0-10.756-6.795-18.855-17.393-18.855c-10.688,0-17.476,8.1-17.476,18.855c0,10.673,6.787,18.877,17.476,18.877
					C778.142,301.848,784.937,293.644,784.937,282.971z"/>
				<path fill="#1F99C9" d="M802.181,303.511l6.683-9.547c4.064,4.222,10.359,7.884,18.266,7.884c6.839,0,10.002-3.051,10.002-6.392
					c0-9.987-33.056-3.043-33.056-24.658c0-9.554,8.278-17.475,21.785-17.475c9.114,0,16.678,2.767,22.376,8.032l-6.795,9.114
					c-4.64-4.325-10.859-6.279-16.699-6.279c-5.161,0-8.107,2.252-8.107,5.698c0,9.039,32.988,2.938,32.988,24.336
					c0,10.524-7.556,18.445-22.994,18.445C815.509,312.67,807.595,309,802.181,303.511z"/>
			</g>
		</g>
	</g>
</g>
<g id="Layer_2" display="none">
	<g display="inline">
		<g>
			<path fill-rule="evenodd" clip-rule="evenodd" fill="#FFFFFF" d="M197.395,90.551c4.4-2.189,9.233-3.255,14.462-3.255
				c5.28,0,10.076,1.066,14.41,3.255c3.132,1.555,6.026,3.688,8.674,6.388c6.429,6.425,9.629,14.1,9.629,23.013
				c0,9.088-3.2,16.815-9.629,23.188c-6.317,6.496-13.992,9.751-23.083,9.751c-9.017,0-16.812-3.255-23.435-9.751
				c-6.243-6.374-9.375-14.1-9.375-23.188c0-8.913,3.132-16.587,9.375-23.013C191.197,94.24,194.195,92.106,197.395,90.551z"/>
			<path fill-rule="evenodd" clip-rule="evenodd" fill="#FFFFFF" d="M290.333,187.656c18.004-19.384,27.335-42.408,28.021-69.068
				H274.32c-0.671,15.961-6.698,29.71-18.042,41.219c-12.276,12.034-26.955,18.027-44.042,18.027
				c-17.072,0-31.698-5.993-43.863-18.027c-11.367-11.508-17.378-25.258-18.035-41.219h-44.049
				c0.514,26.283,9.562,49.024,27.141,68.255L99.019,412.038h43.087l15.454-110.063l0.022-0.515l2.983-21.384
				c-2.551-2.155-5.064-4.475-7.585-6.951c-15.573-15.528-23.599-34.346-24.091-56.452h34.428
				c0.462,12.481,5.168,23.229,14.104,32.253c9.502,9.45,20.966,14.175,34.383,14.175c13.321,0,24.777-4.726,34.443-14.175
				c8.838-9.024,13.5-19.772,13.992-32.253h34.502c-0.679,22.125-8.793,40.95-24.336,56.452c-2.334,2.395-4.729,4.624-7.16,6.683
				l18.534,132.23h42.804L290.333,187.656z M229.876,235.852c-4.915,5.079-10.941,7.63-18.042,7.63
				c-7.115,0-13.276-2.551-18.422-7.63c-4.877-5.023-7.339-11.035-7.339-18.042c0-7.037,2.461-13.06,7.339-18.083
				c5.146-5.057,11.307-7.604,18.422-7.604c7.101,0,13.127,2.547,18.042,7.604c5.116,5.023,7.667,11.046,7.667,18.083
				C237.543,224.817,234.992,230.829,229.876,235.852z"/>
			<path fill-rule="evenodd" clip-rule="evenodd" fill="#FFFFFF" d="M211.886,285.61c4.602,0,8.547,1.626,11.807,4.923
				c3.244,3.252,4.87,7.189,4.87,11.776c0,4.662-1.626,8.615-4.87,11.866c-3.259,3.342-7.205,4.99-11.807,4.99
				c-4.654,0-8.674-1.648-12.023-4.99c-3.2-3.251-4.803-7.204-4.803-11.866c0-4.587,1.604-8.524,4.803-11.776
				C203.212,287.236,207.232,285.61,211.886,285.61z"/>
			<path fill-rule="evenodd" clip-rule="evenodd" fill="#FFFFFF" d="M266.541,301.452c-0.38,14.35-5.69,26.724-15.909,37.076
				c-4.818,4.721-10.091,8.405-15.819,11.038L244.419,412v0.038h-64.202V412l9.532-62.352c-5.833-2.596-11.12-6.31-15.909-11.12
				c-10.233-10.233-15.528-22.413-15.841-36.599l0.037-0.478h22.465c0.35,8.167,3.416,15.2,9.248,21.13
				c6.258,6.094,13.746,9.144,22.442,9.144c8.846,0,16.319-3.05,22.479-9.144c5.825-5.93,8.928-12.963,9.301-21.13H266.541z"/>
		</g>
		<g>
			<g>
				<path fill="#FFFFFF" d="M351.738,412.038v-88.65h19.034v72.055h37.441v16.596H351.738z"/>
				<path fill="#FFFFFF" d="M482.23,412.038l-5.557-15.044h-37.985l-5.602,15.044h-21.413l34.205-88.65h23.605l34.174,88.65H482.23z
					 M457.64,342.265l-13.791,38.142h27.633L457.64,342.265z"/>
				<path fill="#FFFFFF" d="M546.037,412.038v-88.65h41.476c19.25,0,29.789,13.074,29.789,28.58
					c0,15.432-10.65,28.438-29.789,28.438h-22.592v31.632H546.037z M598.022,351.968c0-7.406-5.713-11.956-13.164-11.956h-19.937
					v23.793h19.937C592.309,363.805,598.022,359.307,598.022,351.968z"/>
				<path fill="#FFFFFF" d="M629.139,412.038v-88.65h18.847v88.65H629.139z"/>
				<path fill="#FFFFFF" d="M726.649,412.038l-42.237-57.78v57.78h-18.877v-88.65h19.385l41.11,55.706v-55.706h18.848v88.65H726.649
					z"/>
				<path fill="#FFFFFF" d="M782.908,412.038v-72.026h-25.926v-16.624h70.706v16.624h-25.813v72.026H782.908z"/>
				<path fill="#FFFFFF" d="M892.517,412.038l-5.602-15.044h-37.948l-5.624,15.044h-21.397l34.174-88.65h23.673l34.152,88.65
					H892.517z M867.919,342.265l-13.843,38.142h27.686L867.919,342.265z"/>
				<path fill="#FFFFFF" d="M983.308,412.038l-42.282-57.78v57.78h-18.84v-88.65h19.393l41.08,55.706v-55.706h18.855v88.65H983.308z
					"/>
				<path fill="#FFFFFF" d="M1080.318,412.038l-5.563-15.044h-38.016l-5.563,15.044h-21.429l34.182-88.65h23.644l34.167,88.65
					H1080.318z M1055.721,342.265l-13.798,38.142h27.641L1055.721,342.265z"/>
			</g>
			<g>
				<path fill="#FFFFFF" d="M351.738,282.971c0-17.767,13.321-29.711,30.684-29.711c12.538,0,19.832,6.783,23.896,14.056
					l-10.524,5.116c-2.409-4.646-7.563-8.316-13.373-8.316c-10.531,0-18.117,7.98-18.117,18.855
					c0,10.852,7.585,18.877,18.117,18.877c5.81,0,10.964-3.744,13.373-8.354l10.524,5.049c-4.065,7.116-11.359,14.127-23.896,14.127
					C365.059,312.67,351.738,300.609,351.738,282.971z"/>
				<path fill="#FFFFFF" d="M410.898,282.971c0-17.334,12.642-29.711,30.072-29.711c17.281,0,29.96,12.377,29.96,29.711
					c0,17.318-12.679,29.699-29.96,29.699C423.541,312.67,410.898,300.289,410.898,282.971z M458.326,282.971
					c0-10.756-6.757-18.855-17.355-18.855c-10.718,0-17.512,8.1-17.512,18.855c0,10.673,6.794,18.877,17.512,18.877
					C451.569,301.848,458.326,293.644,458.326,282.971z"/>
				<path fill="#FFFFFF" d="M519.127,311.655l-27.387-37.479v37.479h-12.202v-57.459h12.567l26.611,36.099v-36.099h12.247v57.459
					H519.127z"/>
				<path fill="#FFFFFF" d="M577.75,311.655v-46.704h-16.819v-10.755h45.788v10.755h-16.7v46.704H577.75z"/>
				<path fill="#FFFFFF" d="M609.769,282.971c0-17.334,12.649-29.711,30.035-29.711c17.333,0,29.968,12.377,29.968,29.711
					c0,17.318-12.635,29.699-29.968,29.699C622.418,312.67,609.769,300.289,609.769,282.971z M657.204,282.971
					c0-10.756-6.787-18.855-17.4-18.855c-10.673,0-17.46,8.1-17.46,18.855c0,10.673,6.787,18.877,17.46,18.877
					C650.417,301.848,657.204,293.644,657.204,282.971z"/>
				<path fill="#FFFFFF" d="M678.416,311.655v-57.459h22.629c18.012,0,30.467,11.44,30.467,28.654
					c0,17.438-12.455,28.805-30.393,28.805H678.416z M719.057,282.851c0-10.023-6.213-17.899-17.938-17.899H690.61v35.919h10.435
					C712.411,300.87,719.057,292.659,719.057,282.851z"/>
				<path fill="#FFFFFF" d="M737.456,282.971c0-17.334,12.688-29.711,30.088-29.711c17.28,0,29.99,12.377,29.99,29.711
					c0,17.318-12.71,29.699-29.99,29.699C750.144,312.67,737.456,300.289,737.456,282.971z M784.937,282.971
					c0-10.756-6.795-18.855-17.393-18.855c-10.688,0-17.476,8.1-17.476,18.855c0,10.673,6.787,18.877,17.476,18.877
					C778.142,301.848,784.937,293.644,784.937,282.971z"/>
				<path fill="#FFFFFF" d="M802.181,303.511l6.683-9.547c4.064,4.222,10.359,7.884,18.266,7.884c6.839,0,10.002-3.051,10.002-6.392
					c0-9.987-33.056-3.043-33.056-24.658c0-9.554,8.278-17.475,21.785-17.475c9.114,0,16.678,2.767,22.376,8.032l-6.795,9.114
					c-4.64-4.325-10.859-6.279-16.699-6.279c-5.161,0-8.107,2.252-8.107,5.698c0,9.039,32.988,2.938,32.988,24.336
					c0,10.524-7.556,18.445-22.994,18.445C815.509,312.67,807.595,309,802.181,303.511z"/>
			</g>
		</g>
	</g>
</g>
</svg>
