<svg width="190" height="190" viewBox="0 0 190 190" fill="none" xmlns="http://www.w3.org/2000/svg">
<g id="Mano_estrellas-04 1">
<g id="Group">
<g id="Group_2">
<g id="Capa 2">
<g id="Group_3">
<path id="Vector" d="M50.0234 82.1602L35.2539 74.4785L20.5215 82.2715L23.2676 65.8691L11.3184 54.291L27.7578 51.8047L35.0684 36.8496L42.5273 51.7305L59.0039 54.0684L47.1289 65.7578L50.0234 82.1602Z" stroke="#F9F9F9" stroke-width="4" stroke-miterlimit="10" stroke-linecap="round" stroke-linejoin="round"/>
<path id="Vector_2" d="M70.4336 40.4121L60.4141 35.1797L50.4316 40.4863L52.2871 29.3535L44.123 21.4863L55.3301 19.8164L60.2656 9.64844L65.3125 19.7793L76.5195 21.3379L68.4668 29.2793L70.4336 40.4121Z" stroke="#F9F9F9" stroke-width="4" stroke-miterlimit="10" stroke-linecap="round" stroke-linejoin="round"/>
<path id="Vector_3" d="M59.1895 100.455C59.1895 100.455 83.5703 70.3593 87.9121 52.3241L88.2832 33.6581C88.2832 33.6581 86.7988 23.4159 98.7109 22.5253C110.623 21.6347 121.682 34.8827 118.936 59.746L110.957 89.5819L171.52 90.8066C171.52 90.8066 179.424 91.5487 178.645 102.83C178.645 102.83 179.572 112.478 163.727 111.588C163.727 111.588 174.488 111.254 173.672 124.799C173.672 124.799 172.893 134.967 157.641 133.519C157.641 133.519 168.996 132.629 168.105 147.324C168.105 147.324 165.656 156.342 149.811 155.451C149.811 155.451 161.648 157.381 160.832 169.85C160.832 169.85 160.646 179.461 143.65 179.127L73.4766 177.754C73.4766 177.754 63.9023 175.861 58.9297 169.516L59.1895 100.455Z" stroke="#F9F9F9" stroke-width="4" stroke-miterlimit="10" stroke-linecap="round" stroke-linejoin="round"/>
<path id="Vector_4" d="M53.9941 180.352H19.1113C16.5508 180.352 14.4727 178.273 14.4727 175.713V96.6699C14.4727 94.1094 16.5508 92.0312 19.1113 92.0312H54.0313C56.5918 92.0312 58.6699 94.1094 58.6699 96.6699V175.75C58.6328 178.273 56.5547 180.352 53.9941 180.352Z" stroke="#F9F9F9" stroke-width="4" stroke-miterlimit="10" stroke-linecap="round" stroke-linejoin="round"/>
<path id="Vector_5" d="M35.6992 166.77C39.9212 166.77 43.3438 163.347 43.3438 159.125C43.3438 154.903 39.9212 151.48 35.6992 151.48C31.4773 151.48 28.0547 154.903 28.0547 159.125C28.0547 163.347 31.4773 166.77 35.6992 166.77Z" stroke="#F9F9F9" stroke-width="4" stroke-miterlimit="10" stroke-linecap="round" stroke-linejoin="round"/>
</g>
</g>
</g>
</g>
</g>
</svg>
