<svg width="200" height="200" viewBox="0 0 200 200" fill="none" xmlns="http://www.w3.org/2000/svg">
<g id="Nutricion 1">
<path id="Vector" d="M162.5 77.0832C162.5 64.3748 152.292 54.1665 139.584 54.1665C126.875 54.1665 116.667 64.3748 116.667 77.0832C116.667 89.7915 126.875 99.9998 139.584 99.9998C152.292 99.9998 162.5 89.5832 162.5 77.0832ZM139.584 95.8332C129.167 95.8332 120.834 87.4998 120.834 77.0832C120.834 66.6665 129.167 58.3332 139.584 58.3332C150 58.3332 158.334 66.6665 158.334 77.0832C158.334 87.2915 150 95.8332 139.584 95.8332Z" fill="#F9F9F9"/>
<path id="Vector_2" d="M141.666 64.5835H137.5V75.0002H127.083V79.1668H137.5V89.5835H141.666V79.1668H152.083V75.0002H141.666V64.5835Z" fill="#F9F9F9"/>
<path id="Vector_3" d="M118.75 33.3332C118.75 20.6248 108.542 10.4165 95.8337 10.4165C83.1253 10.4165 72.917 20.6248 72.917 33.3332C72.917 46.0415 83.1253 56.2498 95.8337 56.2498C108.542 56.2498 118.75 45.8332 118.75 33.3332ZM95.8337 52.0832C85.417 52.0832 77.0837 43.7498 77.0837 33.3332C77.0837 22.9165 85.417 14.5832 95.8337 14.5832C106.25 14.5832 114.584 22.9165 114.584 33.3332C114.584 43.5415 106.25 52.0832 95.8337 52.0832Z" fill="#F9F9F9"/>
<path id="Vector_4" d="M97.9163 20.8335H93.7497V31.2502H83.333V35.4168H93.7497V45.8335H97.9163V35.4168H108.333V31.2502H97.9163V20.8335Z" fill="#F9F9F9"/>
<path id="Vector_5" d="M50.0003 193.959C63.542 193.959 82.0837 190.834 93.7503 182.5C94.167 190 99.5837 196.042 106.25 196.042C109.375 196.042 112.5 194.584 114.584 192.292C117.5 194.792 121.25 196.042 125 196.042C132.917 196.042 141.667 190.625 141.667 183.542V183.334C143.125 183.334 144.584 183.125 146.042 183.125C149.792 190 155.625 196.042 162.084 196.042C162.917 196.042 163.542 196.042 164.375 195.834C165.834 195.417 167.5 194.792 168.75 193.959C170 194.792 171.667 195.417 173.125 195.834C183.125 198.125 192.292 184.584 195 174.375C196.667 168.542 195.834 162.5 192.917 157.292C192.084 156.042 191.25 155 190.209 153.959C193.75 146.875 195.834 139.167 195.834 131.25V127.084C195.834 125.834 195 125 193.75 125H121.459C121.459 124.792 121.459 124.584 121.459 124.375C121.459 122.709 120.834 121.042 119.584 120C118.542 118.959 117.084 118.334 115.417 118.125C115.417 116.667 114.584 115.209 113.542 114.167C111.042 111.667 107.084 111.667 104.792 114.167C102.917 116.042 102.5 118.75 103.542 121.25L99.792 125H96.042C96.667 123.959 97.0837 122.709 97.7087 121.667C102.709 110.209 104.792 97.7086 103.959 85.4169L103.75 81.2502C103.75 80.6252 103.334 80.0002 102.917 79.7919C102.292 79.1669 101.667 79.1669 101.042 79.1669C88.1253 82.9169 76.2503 90.0002 66.8753 99.7919C62.5003 104.375 58.7503 109.375 55.6253 114.792L49.167 125.834C47.292 125.834 45.6253 126.042 43.7503 126.25L45.0003 101.042C45.417 94.7919 40.417 89.3752 34.167 89.1669C33.3337 89.1669 32.5003 89.1669 31.667 89.3752L26.667 90.2086L25.0003 83.9586L32.292 78.5419L29.792 75.2086L23.9587 79.5836L22.917 74.3752L18.7503 75.4169L20.2087 81.2502H12.5003V85.4169H21.2503L22.7087 91.2502L20.0003 91.6669C13.7503 92.7086 9.79199 98.7502 10.8337 104.792C11.042 105.834 11.2503 106.667 11.667 107.709L24.3753 134.584C12.292 142.917 4.16699 156.459 4.16699 168.125C4.16699 185 20.0003 193.959 50.0003 193.959ZM106.25 191.875C101.667 191.875 97.917 187.292 97.917 181.459C97.917 175.209 102.084 168.959 106.25 168.959C110.417 168.959 114.584 175.209 114.584 181.459C114.584 187.084 110.834 191.875 106.25 191.875ZM125 191.875C122.084 191.875 119.167 190.834 117.084 188.75C118.334 186.459 118.75 183.959 118.75 181.459C118.75 180 118.542 178.542 118.334 177.292C120.417 176.042 122.709 175.209 125 175.209C131.25 175.209 137.5 179.375 137.5 183.542C137.5 187.709 131.25 191.875 125 191.875ZM140.417 179.167C137.709 174.375 131.042 171.042 125 171.042C122.084 171.042 119.375 171.667 116.875 173.125C114.792 168.334 110.834 164.792 106.25 164.792C105.625 164.792 104.792 164.792 104.167 165C104.167 162.709 103.75 160.209 102.917 158.125C113.334 166.459 126.25 170.834 139.584 170.834C140.417 170.834 141.25 170.834 141.875 170.834C142.084 171.875 142.292 173.125 142.5 174.167C142.917 175.834 143.542 177.5 144.167 178.959C142.917 178.959 141.667 178.959 140.417 179.167ZM89.5837 135.625C91.8753 135.417 94.167 136.25 95.8337 137.709C97.292 139.375 98.1253 141.667 97.917 143.959C97.5003 150.625 94.792 157.084 90.2087 161.875C84.167 167.917 75.0003 168.542 69.792 163.334C67.5003 161.042 66.2503 157.917 66.2503 154.792C66.2503 150.417 68.1253 146.459 71.2503 143.334C76.2503 138.75 82.7087 136.042 89.5837 135.625ZM184.375 150C186.875 147.084 188.959 143.75 190.625 140.209C189.792 143.959 188.542 147.5 186.875 151.042C186.042 150.625 185.209 150.209 184.375 150ZM179.375 149.375C176.25 149.584 173.334 150.625 170.834 152.292C170.834 148.542 171.875 144.792 173.75 141.667L170.417 139.375C167.917 143.125 166.667 147.709 166.667 152.292C162.917 149.584 158.334 148.75 153.959 149.584C150 150.625 146.459 153.125 144.584 156.667C142.917 159.584 141.875 162.917 141.875 166.25C141.25 166.25 140.417 166.25 139.792 166.25C125.417 166.25 111.459 160.625 101.25 150.417C101.875 148.125 102.292 145.834 102.292 143.542C102.292 142.5 102.084 141.25 101.875 140.209L112.709 129.375C114.792 130.417 117.292 130 119.167 128.75H190.417C188.542 136.667 184.584 143.75 179.375 149.375ZM191.042 172.917C188.542 182.5 180.417 192.917 174.167 191.459C172.709 191.042 171.25 190.417 170.209 189.375C169.375 188.75 168.334 188.75 167.5 189.375C166.25 190.417 165 191.042 163.542 191.459C157.292 192.917 149.167 182.709 146.667 172.917C145.417 168.334 145.834 163.334 148.334 158.959C149.792 156.25 152.292 154.375 155.209 153.75C156.042 153.542 156.875 153.542 157.709 153.542C161.459 153.75 165 155.417 167.5 158.334C168.334 159.167 169.584 159.167 170.417 158.542C170.417 158.542 170.417 158.542 170.625 158.334C173.542 154.792 178.334 152.917 182.917 153.75C185.834 154.584 188.334 156.459 189.792 158.959C191.667 163.334 192.292 168.334 191.042 172.917ZM107.917 122.709C108.75 121.875 108.75 120.625 107.917 119.792C107.084 118.959 107.084 117.709 107.917 116.875C108.75 116.042 110 116.042 110.834 116.875C111.667 117.709 111.667 118.959 110.834 119.792C110 120.625 110 121.875 110.834 122.709C111.667 123.542 112.917 123.542 113.75 122.709C114.584 121.875 115.834 121.875 116.667 122.709C117.5 123.542 117.5 124.792 116.667 125.625C115.834 126.459 114.584 126.459 113.75 125.625C112.917 124.792 111.667 124.792 110.834 125.625L100 136.459C99.167 135.209 98.3337 134.375 97.0837 133.542L107.917 122.709ZM92.917 131.875C91.042 131.459 89.3753 131.459 87.5003 131.667C87.5003 131.459 87.5003 131.25 87.5003 131.042V129.167H95.6253L92.917 131.875ZM72.292 100.417C72.7087 100 73.1253 99.5836 73.542 99.1669C74.167 98.5419 74.792 97.9169 75.6253 97.5002C76.042 97.0836 76.4587 96.6669 76.8753 96.4586C77.5003 95.8336 78.3337 95.4169 78.9587 94.7919C79.3753 94.3752 79.792 94.1669 80.417 93.7502C81.042 93.3336 81.8753 92.7086 82.7087 92.2919C83.1253 92.0836 83.542 91.6669 84.167 91.4586C85.0003 91.0419 85.8337 90.6252 86.4587 90.0002C86.8753 89.7919 87.292 89.3752 87.917 89.1669C88.7503 88.7502 89.5837 88.3336 90.6253 87.9169C91.042 87.7086 91.4587 87.5002 91.8753 87.2919C92.917 86.8752 93.9587 86.4586 95.0003 86.0419C95.2087 85.8336 95.6253 85.8336 95.8337 85.6252C97.292 85.0002 98.542 84.5836 100 84.1669L100.209 85.8336C100.209 87.0836 100.417 88.5419 100.417 90.0002C100.417 90.0002 100.417 90.0002 100.417 90.2086C100.417 91.2502 100.417 92.0836 100.417 93.1252C100.417 93.5419 100.417 94.1669 100.417 94.5836C100.417 94.7919 100.417 95.0002 100.417 95.0002L92.0837 105.209L95.417 107.709L99.5837 102.5C99.5837 102.709 99.5837 102.709 99.5837 102.917C99.3753 103.75 99.3753 104.584 99.167 105.209C98.9587 105.834 98.9587 106.459 98.7503 107.084C98.542 107.917 98.3337 108.542 98.1253 109.375C97.917 110 97.7087 110.625 97.7087 111.25C97.5003 112.084 97.292 112.709 97.0837 113.542C96.8753 114.167 96.667 114.792 96.4587 115.417C96.2503 116.042 95.8337 116.875 95.6253 117.5C95.417 117.917 95.2087 118.334 95.2087 118.75C85.0003 117.709 76.042 111.25 71.667 101.875C71.2503 101.25 71.8753 100.834 72.292 100.417ZM59.167 116.875C61.667 112.5 64.5837 108.542 67.917 104.792C72.917 114.375 82.0837 120.834 92.7087 122.5C92.292 123.334 91.8753 124.167 91.4587 125H85.417C84.167 125 83.3337 125.834 83.3337 127.084V131.042C83.3337 131.459 83.3337 131.875 83.3337 132.5C81.8753 132.917 80.417 133.334 78.9587 133.959C71.2503 129.792 62.7087 127.084 53.9587 126.25L59.167 116.875ZM19.3753 114.167L33.542 112.292L33.1253 108.125L17.5003 110L15.417 105.625C13.7503 102.292 15.2087 97.9169 18.7503 96.2502C19.3753 96.0419 20.0003 95.8336 20.6253 95.6252L32.5003 93.5419C36.042 92.9169 39.3753 95.0002 40.417 98.1252L28.9587 100L29.5837 104.167L41.042 102.5L40.2087 116.875L28.7503 118.75L29.3753 122.917L39.792 121.25L39.3753 127.5C35.2087 128.542 31.2503 130.209 27.5003 132.5L19.3753 114.167ZM50.0003 130C58.3337 130.209 66.667 132.292 74.167 135.834C72.0837 137.084 70.0003 138.542 68.3337 140.209C64.3753 143.959 62.0837 149.167 62.0837 154.584C62.0837 158.959 63.7503 163.125 66.8753 166.25C70.0003 169.375 74.167 171.042 78.542 170.834C83.9587 170.834 89.167 168.542 93.1253 164.584C95.2087 162.5 96.8753 160 98.3337 157.5C99.3753 159.792 100 162.292 100 164.792C100 165.625 100 166.25 99.792 167.084C97.0837 169.584 95.2087 172.917 94.3753 176.459C86.042 184.167 68.3337 189.375 50.0003 189.375C31.042 189.375 8.33366 185.625 8.33366 167.709C8.33366 151.042 27.5003 130 50.0003 130Z" fill="#F9F9F9"/>
<path id="Vector_6" d="M164.584 137.5H160.417V143.75H164.584V137.5Z" fill="#F9F9F9"/>
<path id="Vector_7" d="M152.084 137.5H147.917V143.75H152.084V137.5Z" fill="#F9F9F9"/>
<path id="Vector_8" d="M139.584 137.5H135.417V143.75H139.584V137.5Z" fill="#F9F9F9"/>
<path id="Vector_9" d="M127.084 137.5H122.917V143.75H127.084V137.5Z" fill="#F9F9F9"/>
<path id="Vector_10" d="M114.584 137.5H110.417V143.75H114.584V137.5Z" fill="#F9F9F9"/>
<path id="Vector_11" d="M52.083 140.625V136.458C34.7913 136.458 20.833 147.292 20.833 160.417H24.9997C24.9997 149.375 37.083 140.625 52.083 140.625Z" fill="#F9F9F9"/>
<path id="Vector_12" d="M22.917 41.6665C33.3337 41.6665 41.667 33.3332 41.667 22.9165C41.667 12.4998 33.3337 4.1665 22.917 4.1665C12.5003 4.1665 4.16699 12.4998 4.16699 22.9165C4.16699 33.1248 12.5003 41.6665 22.917 41.6665ZM22.917 8.33317C31.042 8.33317 37.5003 14.7915 37.5003 22.9165C37.5003 31.0415 31.042 37.4998 22.917 37.4998C14.792 37.4998 8.33366 31.0415 8.33366 22.9165C8.33366 14.7915 14.792 8.33317 22.917 8.33317Z" fill="#F9F9F9"/>
<path id="Vector_13" d="M20.8333 33.3333H25V25H33.3333V20.8333H25V12.5H20.8333V20.8333H12.5V25H20.8333V33.3333Z" fill="#F9F9F9"/>
<path id="Vector_14" d="M195.833 22.9165C195.833 12.4998 187.5 4.1665 177.083 4.1665C166.666 4.1665 158.333 12.4998 158.333 22.9165C158.333 33.3332 166.666 41.6665 177.083 41.6665C187.5 41.6665 195.833 33.1248 195.833 22.9165ZM177.083 37.4998C168.958 37.4998 162.5 31.0415 162.5 22.9165C162.5 14.7915 168.958 8.33317 177.083 8.33317C185.208 8.33317 191.666 14.7915 191.666 22.9165C191.666 30.8332 185.208 37.4998 177.083 37.4998Z" fill="#F9F9F9"/>
<path id="Vector_15" d="M179.167 20.8333V12.5H175V20.8333H166.667V25H175V33.3333H179.167V25H187.5V20.8333H179.167Z" fill="#F9F9F9"/>
<path id="Vector_16" d="M24.9997 45.8335H20.833V50.0002H24.9997V45.8335Z" fill="#F9F9F9"/>
<path id="Vector_17" d="M24.9997 54.1665H20.833V58.3332H24.9997V54.1665Z" fill="#F9F9F9"/>
<path id="Vector_18" d="M24.9997 62.5H20.833V66.6667H24.9997V62.5Z" fill="#F9F9F9"/>
<path id="Vector_19" d="M97.9167 60.4165H93.75V64.5832H97.9167V60.4165Z" fill="#F9F9F9"/>
<path id="Vector_20" d="M97.9167 68.75H93.75V72.9167H97.9167V68.75Z" fill="#F9F9F9"/>
<path id="Vector_21" d="M179.167 45.8335H175V50.0002H179.167V45.8335Z" fill="#F9F9F9"/>
<path id="Vector_22" d="M179.167 54.1665H175V58.3332H179.167V54.1665Z" fill="#F9F9F9"/>
<path id="Vector_23" d="M179.167 62.5H175V66.6667H179.167V62.5Z" fill="#F9F9F9"/>
<path id="Vector_24" d="M179.167 70.8335H175V75.0002H179.167V70.8335Z" fill="#F9F9F9"/>
<path id="Vector_25" d="M179.167 79.1665H175V83.3332H179.167V79.1665Z" fill="#F9F9F9"/>
<path id="Vector_26" d="M179.167 87.5H175V91.6667H179.167V87.5Z" fill="#F9F9F9"/>
<path id="Vector_27" d="M179.167 95.8335H175V100H179.167V95.8335Z" fill="#F9F9F9"/>
<path id="Vector_28" d="M179.167 104.167H175V108.333H179.167V104.167Z" fill="#F9F9F9"/>
<path id="Vector_29" d="M179.167 112.5H175V116.667H179.167V112.5Z" fill="#F9F9F9"/>
<path id="Vector_30" d="M141.667 104.167H137.5V108.333H141.667V104.167Z" fill="#F9F9F9"/>
<path id="Vector_31" d="M141.667 112.5H137.5V116.667H141.667V112.5Z" fill="#F9F9F9"/>
<path id="Vector_32" d="M83.3337 97.9165H79.167V102.083H83.3337V97.9165Z" fill="#F9F9F9"/>
</g>
</svg>
