<?xml version="1.0"?>
<svg xmlns="http://www.w3.org/2000/svg" fill="#F9F9F9" id="Out_line" data-name="Out line" viewBox="0 0 512 512" width="512" height="512"><path d="M472,480v-8a64.08941,64.08941,0,0,0-40-59.31335V336h24a24,24,0,0,0,0-48H432V272a24,24,0,0,0,0-48H161.17676L426.79,171.13379a24.00006,24.00006,0,1,0-9.37012-47.07666l-2.17529.433A120.21784,120.21784,0,0,0,288.50391,68.147l-35.77637,7.12061-2.11719-10.63672a31.99886,31.99886,0,1,0-47.07519,9.37256l2.11621,10.63379L169.875,91.75781A120.21854,120.21854,0,0,0,74.36768,192.33636l-2.17627.43317a23.97166,23.97166,0,0,0-11.6001,41.13678A23.98206,23.98206,0,0,0,80,272v16H56a24,24,0,0,0,0,48H80v76.68665A64.08941,64.08941,0,0,0,40,472v8H16v16H496V480ZM218.58691,67.666a7.99975,7.99975,0,0,0-3.78027-5.32862A16.0008,16.0008,0,0,1,221.627,32.61768q.69141-.06153,1.376-.061a16.00085,16.00085,0,0,1,15.18945,11.15479v.00048a15.89931,15.89931,0,0,1-2.46093,14.46094A7.99484,7.99484,0,0,0,234.2793,64.543l2.75586,13.84765-13.64063,2.71515-2.05176.40833ZM115.98535,139.81445a103.51946,103.51946,0,0,1,57.0127-32.36425l43.62158-8.68207.00049-.00006,15.69238-3.12329L291.627,83.83936a105.01884,105.01884,0,0,1,20.51465-2.03467A104.43653,104.43653,0,0,1,398.45312,127.832L91.1582,188.99414A103.4087,103.4087,0,0,1,115.98535,139.81445ZM464,312a8.00917,8.00917,0,0,1-8,8H400V304h56A8.00917,8.00917,0,0,1,464,312ZM75.31445,208.46191l7.842-1.56085.00464-.00067L362.52,151.2981l58.023-11.54859a8.06583,8.06583,0,0,1,1.57812-.15625,8.00115,8.00115,0,0,1,1.5459,15.84815L79.096,224.023a24.03038,24.03038,0,0,0-2.7854.26111,7.99774,7.99774,0,0,1-.9961-15.82215ZM72,248a8.00764,8.00764,0,0,1,5.90063-7.71106A24.24761,24.24761,0,0,0,80.67627,240H432a8,8,0,0,1,0,16H80A8.00917,8.00917,0,0,1,72,248ZM48,312a8.00917,8.00917,0,0,1,8-8h56v16H56A8.00917,8.00917,0,0,1,48,312Zm48,96V336h24a8.00008,8.00008,0,0,0,8-8V296a8.00008,8.00008,0,0,0-8-8H96V272H416v16H392a8.00008,8.00008,0,0,0-8,8v32a8.00008,8.00008,0,0,0,8,8h24v72H352a8.00014,8.00014,0,0,0-13.65527-5.65869l-.80664.80615c-1.65967,1.65961-3.43775,3.26856-5.32788,4.85254H268.84546c-2.34253-4.98126-4.48071-9.22333-5.72827-11.65381a8.00054,8.00054,0,0,0-14.23438,0c-1.24756,2.43048-3.38574,6.67255-5.72827,11.65381H179.79c-1.89087-1.58447-3.66968-3.19409-5.33008-4.85449l-.80469-.8042A8.00014,8.00014,0,0,0,160,408H96Zm304,48h8a16.01833,16.01833,0,0,1,16,16v8H368V448a8.00008,8.00008,0,0,0-8-8h-8.01074c.00268-.14984.01074-.29828.01074-.44873V424h25.37622A23.99123,23.99123,0,0,0,400,456Zm-96-16H280c0-3.71436-1.78662-9.63342-4.23315-16h34.36694A24.085,24.085,0,0,0,304,440Zm-72,0H208a24.085,24.085,0,0,0-6.13379-16h34.36694C233.78662,430.36658,232,436.28564,232,440Zm-40,0a7.99687,7.99687,0,0,1-8.39355,7.99072A8.3239,8.3239,0,0,1,176,439.55127V425.31348c3.63086,2.61523,7.61133,5.18359,12.03418,7.77343A7.93716,7.93716,0,0,1,192,440Zm64-21.60889c4.46191,9.81983,7.94629,18.75782,8,21.61377a8,8,0,0,1-16,.00147C248.05273,437.15234,251.53711,428.2124,256,418.39111Zm67.96582,14.6958c4.42188-2.58935,8.40332-5.1582,12.03418-7.77343v14.23779a8.3239,8.3239,0,0,1-7.60645,8.43945,8.00316,8.00316,0,0,1-4.42773-14.90381ZM144,448v32H88v-8a16.01833,16.01833,0,0,1,16-16h8a23.99123,23.99123,0,0,0,22.62378-32H160v15.55127c0,.15045.00806.29889.01074.44873H152A8.00008,8.00008,0,0,0,144,448ZM56,480v-8a48.054,48.054,0,0,1,48-48h8a8,8,0,0,1,0,16h-8a32.03635,32.03635,0,0,0-32,32v8Zm104,0V456h6.22144a23.6877,23.6877,0,0,0,16.64086,7.97314c.3877.01807.77247.02735,1.15723.02735a23.7877,23.7877,0,0,0,16.55176-6.63721c.457-.43622.88916-.89441,1.30762-1.36328h36.252a23.95664,23.95664,0,0,0,35.73828,0h36.25195c.41846.46887.85059.92706,1.30762,1.36328a23.78537,23.78537,0,0,0,16.55078,6.63721q.57716,0,1.15821-.02735A23.6877,23.6877,0,0,0,345.77856,456H352v24Zm280,0v-8a32.03635,32.03635,0,0,0-32-32h-8a8,8,0,0,1,0-16h8a48.054,48.054,0,0,1,48,48v8Z"/><path d="M413.65625,82.34277a14.62673,14.62673,0,0,1,0-20.68554,30.62563,30.62563,0,0,0,0-43.31446l-11.3125,11.31446a14.62673,14.62673,0,0,1,0,20.68554,30.62563,30.62563,0,0,0,0,43.31446Z"/><path d="M445.65625,98.34277a14.62673,14.62673,0,0,1,0-20.68554,30.62563,30.62563,0,0,0,0-43.31446l-11.3125,11.31446a14.62673,14.62673,0,0,1,0,20.68554,30.62563,30.62563,0,0,0,0,43.31446Z"/><path d="M45.65625,122.34277a14.62673,14.62673,0,0,1,0-20.68554,30.62563,30.62563,0,0,0,0-43.31446L34.34375,69.65723a14.62673,14.62673,0,0,1,0,20.68554,30.62563,30.62563,0,0,0,0,43.31446Z"/><path d="M77.65625,138.34277a14.62673,14.62673,0,0,1,0-20.68554,30.62563,30.62563,0,0,0,0-43.31446L66.34375,85.65723a14.62673,14.62673,0,0,1,0,20.68554,30.62563,30.62563,0,0,0,0,43.31446Z"/></svg>
