<svg width="198" height="194" viewBox="0 0 198 194" fill="none" xmlns="http://www.w3.org/2000/svg">
<g id="Group">
<g id="Group_2">
<g id="Capa 2">
<g id="Group_3">
<g id="Group_4">
<path id="Vector" d="M99.1172 79.2656C120.367 79.2656 137.594 62.0391 137.594 40.7891C137.594 19.539 120.367 2.3125 99.1172 2.3125C77.8672 2.3125 60.6406 19.539 60.6406 40.7891C60.6406 62.0391 77.8672 79.2656 99.1172 79.2656Z" stroke="#F9F9F9" stroke-width="4" stroke-miterlimit="10"/>
<path id="Vector_2" d="M128.102 66.4922C121.031 74.6562 110.602 79.8516 98.9609 79.8516C87.3203 79.8516 76.8906 74.6562 69.8203 66.4922C47.9844 77.2344 32.9844 99.7344 32.9844 125.711C32.9844 162.156 62.5156 191.727 99 191.727C135.484 191.727 165.016 162.195 165.016 125.711C164.977 99.7344 149.938 77.2344 128.102 66.4922Z" stroke="#F9F9F9" stroke-width="4" stroke-miterlimit="10"/>
</g>
<path id="Vector_3" d="M96.4214 17.3516L73.0229 52.5078C71.5776 54.6953 73.1401 57.625 75.7573 57.625H122.554C125.171 57.625 126.734 54.6953 125.289 52.5078L101.89 17.3516C100.601 15.3984 97.7495 15.3984 96.4214 17.3516Z" stroke="#F9F9F9" stroke-width="4" stroke-miterlimit="10"/>
<g id="Group_5">
<path id="Vector_4" d="M87.2026 29.7734L87.4761 42.7813" stroke="#F9F9F9" stroke-width="4" stroke-miterlimit="10"/>
<path id="Vector_5" d="M88.3745 30.6328L75.8354 34.1875" stroke="#F9F9F9" stroke-width="4" stroke-miterlimit="10"/>
</g>
<g id="Group_6">
<path id="Vector_6" d="M117.32 39.5L105.25 34.6172" stroke="#F9F9F9" stroke-width="4" stroke-miterlimit="10"/>
<path id="Vector_7" d="M116.07 40.2031L117.75 27.3125" stroke="#F9F9F9" stroke-width="4" stroke-miterlimit="10"/>
</g>
<g id="Group_7">
<path id="Vector_8" d="M91.4604 57.9375L101.89 50.125" stroke="#F9F9F9" stroke-width="4" stroke-miterlimit="10"/>
<path id="Vector_9" d="M91.4604 56.4922L101.695 64.5781" stroke="#F9F9F9" stroke-width="4" stroke-miterlimit="10"/>
</g>
<path id="Vector_10" d="M43.3353 90.1641C43.3353 90.1641 39.5463 85.75 36.9682 79.2266C33.101 69.5 31.89 55.0469 49.976 43.7188C49.976 43.7188 67.1244 57.3516 45.2494 75.0859" stroke="#F9F9F9" stroke-width="4" stroke-miterlimit="10"/>
<path id="Vector_11" d="M34.5855 70.9453C34.5855 70.9453 35.1715 47.2734 3.21832 53.7968C3.21832 53.7968 -1.50824 80.4374 32.8277 78.0546" stroke="#F9F9F9" stroke-width="4" stroke-miterlimit="10"/>
<path id="Vector_12" d="M154.664 89.6563C154.664 89.6563 158.453 85.2422 161.031 78.7188C164.898 68.9922 166.109 54.5391 148.023 43.2109C148.023 43.2109 130.875 56.8438 152.75 74.5781" stroke="#F9F9F9" stroke-width="4" stroke-miterlimit="10" stroke-linejoin="round"/>
<path id="Vector_13" d="M163.414 70.4765C163.414 70.4765 162.828 46.8047 194.781 53.3281C194.781 53.3281 199.508 79.9687 165.172 77.5859" stroke="#F9F9F9" stroke-width="4" stroke-miterlimit="10"/>
<path id="Vector_14" d="M54.7803 77.6641C56.3037 81.7656 58.8037 85.4766 62.0068 88.4063C64.0772 90.2813 66.46 91.9219 67.6318 94.4609C69.7412 99.0313 67.1631 105.086 70.21 109.031C71.2256 110.359 72.8272 111.219 74.5068 111.414C75.6397 111.531 76.7725 111.336 77.8662 111.688C79.3896 112.195 80.3662 113.68 81.0303 115.125C82.4756 118.289 83.0615 121.883 82.1631 125.242C81.3037 128.602 78.8428 131.57 75.5225 132.664C70.7959 134.227 64.8584 131.883 61.0693 135.125C58.8428 137.039 58.335 140.203 57.1631 142.938C54.2334 149.852 46.1865 154.148 38.8037 152.742" stroke="#F9F9F9" stroke-width="4" stroke-miterlimit="10"/>
<path id="Vector_15" d="M52.2803 172.391C56.0303 167.313 60.249 162.586 64.8584 158.289C65.3272 157.859 65.874 157.391 66.499 157.43C67.0459 157.469 67.4756 157.938 67.8662 158.328C70.6787 161.258 74.3115 163.953 78.335 163.602C82.71 163.211 85.835 159.422 89.5068 157.039C91.2256 155.945 93.5693 155.125 95.249 156.375C95.835 156.805 96.2256 157.43 96.6162 158.094C99.2334 162.625 100.64 167.859 100.679 173.094C100.679 175.789 100.327 178.523 100.718 181.219C101.226 184.734 102.944 187.977 104.663 191.102" stroke="#F9F9F9" stroke-width="4" stroke-miterlimit="10"/>
<path id="Vector_16" d="M125.562 185.516C120.289 181.922 116.539 176.18 115.406 169.891C114.273 163.602 115.757 156.883 119.468 151.687C121.695 148.562 124.664 145.984 126.539 142.625C128.414 139.266 128.882 134.656 126.226 131.883C124.468 130.086 121.773 129.539 119.234 129.5C116.695 129.461 114.156 129.852 111.656 129.5C106.499 128.797 101.968 124.773 100.64 119.734C100.406 118.914 100.289 118.016 100.484 117.195C101.031 115.008 103.531 114.031 105.679 113.562C108.218 112.977 110.796 112.586 113.218 111.648C115.64 110.711 117.945 109.187 119.156 106.922C120.054 105.281 120.328 103.367 120.367 101.531C120.484 98.6406 120.093 95.5937 118.414 93.25C116.539 90.6328 113.374 89.3047 110.64 87.5469C107.906 85.7891 105.328 82.9766 105.796 79.7734" stroke="#F9F9F9" stroke-width="4" stroke-miterlimit="10"/>
</g>
</g>
</g>
</g>
</svg>
