<?xml version="1.0" encoding="utf-8"?>
<!-- Generator: Adobe Illustrator 24.1.2, SVG Export Plug-In . SVG Version: 6.00 Build 0)  -->
<svg fill="#F9F9F9" version="1.1" id="Capa_1" xmlns="http://www.w3.org/2000/svg" xmlns:xlink="http://www.w3.org/1999/xlink" x="0px" y="0px"
	 viewBox="0 0 64 64" style="enable-background:new 0 0 64 64;" xml:space="preserve">
<path d="M50,32.1c0-9.9-8.1-18-18-18s-18,8.1-18,18s8.1,18,18,18S50,42,50,32.1z M16,32.1c0-8.8,7.2-16,16-16s16,7.2,16,16
	s-7.2,16-16,16S16,40.9,16,32.1z"/>
<path d="M43.1,27.4l1.8-0.8c-1.1-2.7-3-4.9-5.5-6.5l-1.1,1.7C40.5,23.2,42.1,25.1,43.1,27.4z"/>
<path d="M37.4,19.1c-1-0.4-2.1-0.7-3.2-0.9l-0.3,2c1,0.1,1.9,0.4,2.8,0.8L37.4,19.1z"/>
<path d="M6,23.5v35.6c0,1.7,1.3,3,3,3s3-1.3,3-3V23.5l3.7-3.7c0.2-0.2,0.3-0.4,0.3-0.7v-14c0-1.7-1.3-3-3-3c-0.8,0-1.5,0.3-2,0.8
	c-0.5-0.5-1.2-0.8-2-0.8S7.5,2.4,7,2.8C6.5,2.4,5.8,2.1,5,2.1c-1.7,0-3,1.3-3,3v14c0,0.3,0.1,0.5,0.3,0.7L6,23.5z M4,5.1
	c0-0.6,0.4-1,1-1s1,0.4,1,1v12h2v-12c0-0.6,0.4-1,1-1s1,0.4,1,1v12h2v-12c0-0.6,0.4-1,1-1s1,0.4,1,1v13.6l-3.7,3.7
	c-0.2,0.2-0.3,0.4-0.3,0.7v36c0,0.6-0.4,1-1,1s-1-0.4-1-1v-36c0-0.3-0.1-0.5-0.3-0.7L4,18.6V5.1z"/>
<path d="M62,3.1c0-0.3-0.2-0.7-0.5-0.9c-0.3-0.2-0.7-0.2-1,0C55.3,4.8,52,10.1,52,16v15.1c0,0.3,0.1,0.5,0.3,0.7l3.7,3.7v25.6
	c0,0.6,0.4,1,1,1h4c0.6,0,1-0.4,1-1V3.1z M60,60.1h-2v-25c0-0.3-0.1-0.5-0.3-0.7L54,30.6V16c0-4.6,2.3-8.7,6-11.2V60.1z"/>
<path d="M32,40.1c0.3,0,0.5-0.1,0.7-0.3l6.1-6.3c1.6-1.7,1.6-4.4,0-6.1c-0.8-0.8-1.9-1.3-3-1.3s-2.2,0.5-3,1.3L32,28.2l-0.8-0.8
	c-0.8-0.8-1.9-1.3-3-1.3c-1.1,0-2.2,0.5-3,1.3c-1.6,1.7-1.6,4.4,0,6.1l6.1,6.3C31.5,39.9,31.7,40.1,32,40.1z M26.7,28.7
	c0.4-0.4,1-0.7,1.6-0.7s1.1,0.2,1.6,0.7l1.5,1.6c0.4,0.4,1.1,0.4,1.4,0l1.5-1.6c0.8-0.9,2.3-0.9,3.1,0c0.9,0.9,0.9,2.4,0,3.3
	L32,37.6l-5.3-5.5C25.8,31.1,25.8,29.6,26.7,28.7z"/>
<rect x="31" y="42.1" width="2" height="2"/>
<rect x="35" y="42.1" width="2" height="2"/>
<rect x="27" y="42.1" width="2" height="2"/>
</svg>
