<?xml version="1.0" encoding="utf-8"?>
<!-- Generator: Adobe Illustrator 24.1.2, SVG Export Plug-In . SVG Version: 6.00 Build 0)  -->
<svg version="1.1" id="Capa_1" xmlns="http://www.w3.org/2000/svg" xmlns:xlink="http://www.w3.org/1999/xlink" x="0px" y="0px"
	 width="140px" height="143.7px" viewBox="0 0 140 143.7" style="enable-background:new 0 0 140 143.7;" xml:space="preserve">
<desc>Created with Sketch.</desc>
<g>
	<g>
		<path d="M86.7,81.5c0.4,0,0.7-0.1,1.1-0.3l14.5-7.2c1.2-0.6,1.7-2,1.1-3.2c-0.2-0.5-0.6-0.8-1.1-1.1l-14.5-7.2
			c-1.2-0.6-2.6-0.1-3.2,1.1c-0.2,0.3-0.3,0.7-0.3,1.1v4.8h-9.6V19.2h9.6V24c0,1.3,1.1,2.4,2.4,2.4c0.4,0,0.7-0.1,1.1-0.3l14.5-7.2
			c1.2-0.6,1.7-2,1.1-3.2c-0.2-0.5-0.6-0.8-1.1-1.1L87.8,7.5c-1.2-0.6-2.6-0.1-3.2,1.1c-0.2,0.3-0.3,0.7-0.3,1.1v4.8h-12
			c-1.3,0-2.4,1.1-2.4,2.4c0,0,0,0,0,0v52.7h-17C51.6,55,38.7,44.3,24.1,45.7C9.5,47-1.2,59.8,0.1,74.3
			c1.2,13.6,12.7,23.9,26.4,23.9c13.7,0,25.1-10.4,26.4-24h17V127c0,1.3,1.1,2.4,2.4,2.4c0,0,0,0,0,0h12v4.8c0,1.3,1.1,2.4,2.4,2.4
			c0.4,0,0.7-0.1,1.1-0.3l14.5-7.2c1.2-0.6,1.7-2,1.1-3.2c-0.2-0.5-0.6-0.8-1.1-1.1l-14.5-7.2c-1.2-0.6-2.6-0.1-3.2,1.1
			c-0.2,0.3-0.3,0.7-0.3,1.1v4.8h-9.6V74.3h9.6v4.8C84.3,80.4,85.4,81.5,86.7,81.5z M89.1,68.6l6.7,3.3l-6.7,3.3V68.6z M89.1,13.5
			l6.7,3.3l-6.7,3.3V13.5z M26.5,93.4c-12,0-21.7-9.7-21.7-21.6c0-11.9,9.7-21.5,21.7-21.6c12,0,21.7,9.7,21.7,21.6
			C48.2,83.8,38.5,93.4,26.5,93.4z M89.1,123.7l6.7,3.3l-6.7,3.3V123.7z"/>
		<path d="M132.2,16.2c3.7-3.8,3.5-9.9-0.3-13.5C128.1-1,122-0.9,118.3,3c-3.6,3.7-3.6,9.5,0,13.2c-4.6,2.5-7.5,7.3-7.5,12.6v12
			c0,1.3,1.1,2.4,2.4,2.4c0,0,0,0,0,0h24.1c1.3,0,2.4-1.1,2.4-2.4c0,0,0,0,0,0v-12C139.7,23.5,136.8,18.7,132.2,16.2z M125.3,4.8
			c2.7,0,4.8,2.1,4.8,4.8s-2.2,4.8-4.8,4.8c-2.7,0-4.8-2.1-4.8-4.8C120.4,7,122.6,4.8,125.3,4.8z M134.9,38.4h-19.3v-9.6
			c0-5.3,4.3-9.6,9.6-9.6s9.6,4.3,9.6,9.6V38.4z"/>
		<path d="M132.2,66.5c3.7-3.8,3.5-9.9-0.3-13.5c-3.8-3.7-9.9-3.5-13.6,0.3c-3.6,3.7-3.6,9.5,0,13.2c-4.6,2.5-7.5,7.3-7.5,12.6v12
			c0,1.3,1.1,2.4,2.4,2.4c0,0,0,0,0,0h24.1c1.3,0,2.4-1.1,2.4-2.4c0,0,0,0,0,0v-12C139.7,73.8,136.8,69,132.2,66.5z M125.3,55.1
			c2.7,0,4.8,2.1,4.8,4.8s-2.2,4.8-4.8,4.8c-2.7,0-4.8-2.1-4.8-4.8C120.4,57.3,122.6,55.1,125.3,55.1z M134.9,88.7h-19.3v-9.6
			c0-5.3,4.3-9.6,9.6-9.6s9.6,4.3,9.6,9.6V88.7z"/>
		<path d="M132.2,116.8c3.7-3.8,3.5-9.9-0.3-13.5c-3.8-3.7-9.9-3.5-13.6,0.3c-3.6,3.7-3.6,9.5,0,13.2c-4.6,2.5-7.5,7.3-7.5,12.6v12
			c0,1.3,1.1,2.4,2.4,2.4c0,0,0,0,0,0h24.1c1.3,0,2.4-1.1,2.4-2.4c0,0,0,0,0,0v-12C139.7,124.1,136.8,119.3,132.2,116.8z
			 M125.3,105.4c2.7,0,4.8,2.1,4.8,4.8c0,2.6-2.2,4.8-4.8,4.8c-2.7,0-4.8-2.1-4.8-4.8C120.4,107.6,122.6,105.4,125.3,105.4z
			 M134.9,138.9h-19.3v-9.6c0-5.3,4.3-9.6,9.6-9.6s9.6,4.3,9.6,9.6V138.9z"/>
		<path d="M27.2,69.6c-2.7-0.8-3.1-1.2-3.1-2.5c0-1.3,1.1-2.4,2.4-2.4s2.4,1.1,2.4,2.4h4.8c0-3-1.9-5.7-4.8-6.7v-5.2h-4.8v5.2
			c-2.9,1-4.8,3.7-4.8,6.7c0,5.1,4.1,6.3,6.5,7.1c2.7,0.8,3.1,1.2,3.1,2.5c0,1.3-1.1,2.4-2.4,2.4c-1.3,0-2.4-1.1-2.4-2.4h-4.8
			c0,3,1.9,5.7,4.8,6.7v5.2h4.8v-5.2c2.9-1,4.8-3.7,4.8-6.7C33.7,71.6,29.7,70.3,27.2,69.6z"/>
	</g>
</g>
</svg>
