<svg width="147" height="152" viewBox="0 0 147 152" fill="none" xmlns="http://www.w3.org/2000/svg">
<g clip-path="url(#clip0)">
<path d="M91.035 86.2544C91.455 86.2544 91.77 86.1489 92.19 85.9379L107.415 78.3425C108.675 77.7096 109.2 76.2327 108.57 74.9668C108.36 74.4394 107.94 74.1229 107.415 73.8064L92.19 66.211C90.93 65.578 89.46 66.1055 88.83 67.3714C88.62 67.6879 88.515 68.1098 88.515 68.5318V73.5954H78.435V20.5331H88.515V25.5967C88.515 26.9681 89.67 28.1285 91.035 28.1285C91.455 28.1285 91.77 28.023 92.19 27.812L107.415 20.2166C108.675 19.5837 109.2 18.1068 108.57 16.8409C108.36 16.3134 107.94 15.997 107.415 15.6805L92.19 8.19057C90.93 7.55762 89.46 8.08507 88.83 9.35097C88.62 9.66745 88.515 10.0894 88.515 10.5114V15.575H75.915C74.55 15.575 73.395 16.7354 73.395 18.1068V73.7009H55.545C54.18 58.2991 40.635 47.0115 25.305 48.4884C9.97497 49.8598 -1.26003 63.3627 0.104972 78.659C1.36497 93.0059 13.44 103.872 27.825 103.872C42.21 103.872 54.18 92.9004 55.545 78.5535H73.395V134.253C73.395 135.625 74.55 136.785 75.915 136.785H88.515V141.849C88.515 143.22 89.67 144.38 91.035 144.38C91.455 144.38 91.77 144.275 92.19 144.064L107.415 136.468C108.675 135.836 109.2 134.359 108.57 133.093C108.36 132.565 107.94 132.249 107.415 131.932L92.19 124.337C90.93 123.704 89.46 124.231 88.83 125.497C88.62 125.814 88.515 126.236 88.515 126.658V131.721H78.435V78.659H88.515V83.7226C88.515 85.094 89.67 86.2544 91.035 86.2544ZM93.555 72.646L100.59 76.1272L93.555 79.6084V72.646ZM93.555 14.5201L100.59 18.0013L93.555 21.4825V14.5201ZM27.825 98.8079C15.225 98.8079 5.03997 88.5752 5.03997 76.0217C5.03997 63.4682 15.225 53.341 27.825 53.2355C40.425 53.2355 50.61 63.4682 50.61 76.0217C50.61 88.6807 40.425 98.8079 27.825 98.8079ZM93.555 130.772L100.59 134.253L93.555 137.734V130.772Z" fill="#4F4F4F"/>
<path d="M138.81 17.3681C142.695 13.3594 142.485 6.92443 138.495 3.12673C134.505 -0.776468 128.1 -0.670976 124.215 3.4432C120.435 7.34639 120.435 13.4649 124.215 17.3681C119.385 20.0054 116.34 25.069 116.34 30.6601V43.3191C116.34 44.6905 117.495 45.8509 118.86 45.8509H144.165C145.53 45.8509 146.685 44.6905 146.685 43.3191V30.6601C146.685 25.069 143.64 20.0054 138.81 17.3681ZM131.565 5.34205C134.4 5.34205 136.605 7.55738 136.605 10.4057C136.605 13.2539 134.295 15.4693 131.565 15.4693C128.73 15.4693 126.525 13.2539 126.525 10.4057C126.42 7.66287 128.73 5.34205 131.565 5.34205ZM141.645 40.7873H121.38V30.6601C121.38 25.069 125.895 20.5329 131.46 20.5329C137.025 20.5329 141.54 25.069 141.54 30.6601V40.7873H141.645Z" fill="#4F4F4F"/>
<path d="M138.81 70.4303C142.695 66.4217 142.485 59.9867 138.495 56.189C134.505 52.2858 128.1 52.4968 124.215 56.5054C120.435 60.4086 120.435 66.5271 124.215 70.4303C119.385 73.0676 116.34 78.1312 116.34 83.7223V96.3813C116.34 97.7527 117.495 98.9131 118.86 98.9131H144.165C145.53 98.9131 146.685 97.7527 146.685 96.3813V83.7223C146.685 78.1312 143.64 73.0676 138.81 70.4303ZM131.565 58.4043C134.4 58.4043 136.605 60.6196 136.605 63.4679C136.605 66.3162 134.295 68.5315 131.565 68.5315C128.73 68.5315 126.525 66.3162 126.525 63.4679C126.42 60.7251 128.73 58.4043 131.565 58.4043ZM141.645 93.8495H121.38V83.7223C121.38 78.1312 125.895 73.5951 131.46 73.5951C137.025 73.5951 141.54 78.1312 141.54 83.7223V93.8495H141.645Z" fill="#4F4F4F"/>
<path d="M138.81 123.493C142.695 119.484 142.485 113.049 138.495 109.251C134.505 105.348 128.1 105.559 124.215 109.568C120.435 113.471 120.435 119.59 124.215 123.493C119.385 126.13 116.34 131.194 116.34 136.785V149.444C116.34 150.815 117.495 151.976 118.86 151.976H144.165C145.53 151.976 146.685 150.815 146.685 149.444V136.785C146.685 131.194 143.64 126.13 138.81 123.493ZM131.565 111.467C134.4 111.467 136.605 113.682 136.605 116.53C136.605 119.273 134.295 121.594 131.565 121.594C128.73 121.594 126.525 119.379 126.525 116.53C126.42 113.788 128.73 111.467 131.565 111.467ZM141.645 146.807H121.38V136.679C121.38 131.088 125.895 126.552 131.46 126.552C137.025 126.552 141.54 131.088 141.54 136.679V146.807H141.645Z" fill="#4F4F4F"/>
<path d="M28.5599 73.7006C25.7249 72.8566 25.3049 72.4347 25.3049 71.0633C25.3049 69.6919 26.4599 68.5315 27.8249 68.5315C29.1899 68.5315 30.3449 69.6919 30.3449 71.0633H35.3849C35.3849 67.8985 33.3899 65.0503 30.3449 63.9953V58.5098H25.3049V63.9953C22.2599 65.0503 20.2649 67.8985 20.2649 71.0633C20.2649 76.4434 24.5699 77.7093 27.0899 78.5532C29.9249 79.3971 30.3449 79.8191 30.3449 81.1905C30.3449 82.5619 29.1899 83.7223 27.8249 83.7223C26.4599 83.7223 25.3049 82.5619 25.3049 81.1905H20.2649C20.2649 84.3552 22.2599 87.2035 25.3049 88.2584V93.744H30.3449V88.2584C33.3899 87.2035 35.3849 84.3552 35.3849 81.1905C35.3849 75.8104 31.1849 74.439 28.5599 73.7006Z" fill="#4F4F4F"/>
</g>
<defs>
<clipPath id="clip0">
<rect width="147" height="151.592" fill="white" transform="translate(0 0.27832)"/>
</clipPath>
</defs>
</svg>
