<?xml version="1.0" encoding="utf-8"?>
<!-- Generator: Adobe Illustrator 24.1.2, SVG Export Plug-In . SVG Version: 6.00 Build 0)  -->
<svg version="1.1" id="Capa_1" xmlns="http://www.w3.org/2000/svg" xmlns:xlink="http://www.w3.org/1999/xlink" x="0px" y="0px"
	 viewBox="0 0 64 64" style="enable-background:new 0 0 64 64;" xml:space="preserve">
<g>
	<rect x="10" y="47" width="2" height="4"/>
	<path d="M62,15V7c0-0.6-0.4-1-1-1V4c0-1.1-0.9-2-2-2H5C3.9,2,3,2.9,3,4v2C2.4,6,2,6.5,2,7v8c0,0.6,0.4,1,1,1v44H2v2h60v-2h-1V16
		C61.6,16,62,15.6,62,15z M5,4h54v2H5V4z M19,60H9V40h10V60z M19,38H9v-1h10V38z M19,35H9v-1h10V35z M59,60H21V33c0-0.6-0.4-1-1-1H8
		c-0.6,0-1,0.4-1,1v27H5V25c0.9,0.7,1.9,1,3,1c1.6,0,3.1-0.8,4-2c1.6,2.2,4.7,2.7,6.9,1.1c0.4-0.3,0.8-0.7,1.1-1.1
		c1.6,2.2,4.7,2.7,6.9,1.1c0.4-0.3,0.8-0.7,1.1-1.1c1.6,2.2,4.7,2.7,6.9,1.1c0.4-0.3,0.8-0.7,1.1-1.1c1.6,2.2,4.7,2.7,6.9,1.1
		c0.4-0.3,0.8-0.7,1.1-1.1c1.6,2.2,4.7,2.7,6.9,1.1c0.4-0.3,0.8-0.7,1.1-1.1c0.9,1.3,2.4,2,4,2c1.1,0,2.1-0.4,3-1V60z M5,21v-5h6v5
		c0,1.7-1.3,3-3,3S5,22.7,5,21z M13,21v-5h6v5c0,1.7-1.3,3-3,3S13,22.7,13,21z M21,21v-5h6v5c0,1.7-1.3,3-3,3S21,22.7,21,21z M29,21
		v-5h6v5c0,1.7-1.3,3-3,3C30.3,24,29,22.7,29,21z M37,21v-5h6v5c0,1.7-1.3,3-3,3S37,22.7,37,21z M45,21v-5h6v5c0,1.7-1.3,3-3,3
		S45,22.7,45,21z M59,21c0,1.7-1.3,3-3,3s-3-1.3-3-3v-5h6V21z M60,14H4V8h56V14z"/>
	<path d="M56,28H24c-0.6,0-1,0.4-1,1v28c0,0.6,0.4,1,1,1h32c0.6,0,1-0.4,1-1V29C57,28.5,56.6,28,56,28z M55,56H25V30h30V56z"/>
	<path d="M53,37v-5h-2v5c0,0.7-0.4,1.4-1,1.7V32h-2v6.7c-0.6-0.4-1-1-1-1.7v-5h-2v0.1c-1.6-0.7-3.3-1.1-5-1.1
		c-2.1,0-4.2,0.6-6.1,1.6c-0.7-1-1.8-1.6-2.9-1.6c-2.2,0-4,2.2-4,5c-0.1,2.1,1.1,4,3,4.8v1.4c-1.2,0.4-2,1.6-2,2.8v7
		c0,1.7,1.3,3,3,3c1.2,0,2.3-0.7,2.7-1.8c3.8,2.4,8.7,2.4,12.5,0c0.7,1.5,2.4,2.2,3.9,1.5c1.1-0.5,1.8-1.6,1.8-2.7v-7
		c0-1.3-0.8-2.4-2-2.8v-1.3C51.8,40.4,53,38.8,53,37z M29,36c0-1.6,0.9-3,2-3c1.1,0,2,1.4,2,3s-0.9,3-2,3S29,37.6,29,36z M32,52
		c0,0.6-0.4,1-1,1s-1-0.4-1-1v-7c0-0.6,0.4-1,1-1s1,0.4,1,1V52z M46,45v6c-3.6,2.7-8.4,2.7-12,0v-6c0-1.3-0.8-2.4-2-2.8v-1.4
		c1.9-0.8,3.1-2.7,3-4.8c0-0.5-0.1-1-0.2-1.5c1.6-1,3.4-1.5,5.2-1.5c1.8,0,3.5,0.5,5,1.4V37c0,1.8,1.2,3.4,3,3.9v1.3
		C46.8,42.6,46,43.7,46,45z M50,52c0,0.6-0.4,1-1,1s-1-0.4-1-1v-7h2V52z"/>
	<path d="M40,49c3.3,0,6-2.7,6-6s-2.7-6-6-6s-6,2.7-6,6C34,46.3,36.7,49,40,49z M40,39c2.2,0,4,1.8,4,4s-1.8,4-4,4s-4-1.8-4-4
		S37.8,39,40,39z"/>
</g>
</svg>
