<?xml version="1.0" encoding="utf-8"?>
<!-- Generator: Adobe Illustrator 24.1.2, SVG Export Plug-In . SVG Version: 6.00 Build 0)  -->
<svg version="1.1" id="Capa_1" xmlns:figma="http://www.figma.com/figma/ns"
	 xmlns="http://www.w3.org/2000/svg" xmlns:xlink="http://www.w3.org/1999/xlink" x="0px" y="0px" width="73px" height="73.5px"
	 viewBox="0 0 73 73.5" style="enable-background:new 0 0 73 73.5;" xml:space="preserve">
<style type="text/css">
	.st0{fill-rule:evenodd;clip-rule:evenodd;}
</style>
<desc>Created using Figma</desc>
<g transform="translate(269 -114)" figma:type="canvas">
	<g figma:type="vector">
		<g transform="translate(-269 114)">
			<path id="a" class="st0" d="M-250.9,160c-3.2-4.7-5-10.4-5-16.4c0-16.3,13.3-29.6,29.7-29.6s29.7,13.2,29.7,29.6
				s-13.3,29.6-29.7,29.6c-5.9,0-11.5-1.7-16.1-4.7l-1.2,1.2l-15.2,15.2c-2.4,2.3-6.2,2.3-8.5,0c-2.4-2.3-2.4-6.2,0-8.5l15.2-15.2
				L-250.9,160z M-226.2,169.2c-14.2,0-25.7-11.5-25.7-25.6s11.5-25.6,25.7-25.6s25.7,11.5,25.7,25.6S-212,169.2-226.2,169.2z
				 M-249.2,163.9l2.9,2.9l-15.2,15.2c-0.8,0.8-2.1,0.8-2.9,0c-0.8-0.8-0.8-2.1,0-2.9L-249.2,163.9z"/>
		</g>
	</g>
</g>
</svg>
