<?xml version="1.0" encoding="utf-8"?>
<!-- Generator: Adobe Illustrator 24.1.2, SVG Export Plug-In . SVG Version: 6.00 Build 0)  -->
<svg version="1.1" id="Capa_1" xmlns:figma="http://www.figma.com/figma/ns"
	 xmlns="http://www.w3.org/2000/svg" xmlns:xlink="http://www.w3.org/1999/xlink" x="0px" y="0px" width="66px" height="71.5px"
	 viewBox="0 0 66 71.5" style="enable-background:new 0 0 66 71.5;" xml:space="preserve">
<style type="text/css">
	.st0{fill-rule:evenodd;clip-rule:evenodd;}
</style>
<desc>Created using Figma</desc>
<g transform="translate(-396 -115)" figma:type="canvas">
	<g figma:type="vector">
		<g transform="translate(396 115.995)">
			<path id="a" class="st0" d="M424.2,116.3c-2,0.3-3.3,1.6-4,3c-0.7,1.3-1,3-1.1,4.3c-0.1,2.1-1.3,4.2-3.2,5.4
				c-1.9,1.1-4.3,1.1-6.3,0.1c-1.2-0.6-2.8-1.1-4.3-1.2c-1.5,0-3.3,0.5-4.5,2c-1.8,2.4-3.3,5.1-4.5,7.8c-0.7,1.8-0.3,3.6,0.5,4.9
				c0.7,1.2,2,2.4,3.1,3.1c1.8,1.1,3,3.2,3,5.5c0,2.3-1.2,4.3-3,5.5c-1.1,0.7-2.4,1.9-3.1,3.1c-0.8,1.3-1.2,3.1-0.5,4.9
				c1.1,2.8,2.7,5.5,4.5,7.9c1.2,1.6,2.9,2.1,4.5,2c1.4,0,3.1-0.5,4.3-1.1c1.9-1,4.3-1,6.3,0.1c2,1.1,3.2,3.2,3.3,5.4
				c0.1,1.3,0.4,3,1.1,4.3c0.7,1.4,2,2.7,4,3c3,0.4,6.1,0.4,9.1,0c2-0.3,3.3-1.6,4-3c0.7-1.3,1-3,1.1-4.3c0.1-2.1,1.3-4.2,3.2-5.4
				c1.9-1.1,4.3-1.1,6.3-0.1c1.2,0.6,2.8,1.1,4.3,1.2c1.5,0,3.3-0.5,4.5-2c1.8-2.4,3.3-5.1,4.5-7.8c0.7-1.8,0.3-3.6-0.5-4.9
				c-0.7-1.2-2-2.4-3.1-3.1c-1.8-1.1-3-3.2-3-5.5c0-2.3,1.2-4.3,3-5.5c1.1-0.7,2.4-1.9,3.1-3.1c0.8-1.3,1.2-3.1,0.5-4.9
				c-1.1-2.8-2.7-5.5-4.5-7.9c-1.2-1.6-2.9-2.1-4.5-2c-1.4,0-3.1,0.5-4.3,1.1c-1.9,1-4.3,1-6.3-0.1c-2-1.1-3.2-3.2-3.3-5.4
				c-0.1-1.3-0.4-3-1.1-4.3c-0.7-1.4-2-2.7-4-3C430.3,115.9,427.1,115.9,424.2,116.3z M423,123.7c0-1,0.2-1.8,0.6-2.6
				c0.4-0.6,0.7-0.8,1-0.9c2.7-0.4,5.3-0.3,8,0c0.3,0,0.7,0.2,1,0.9c0.4,0.8,0.6,1.6,0.6,2.6c0.1,3.5,2.1,6.8,5.2,8.7
				c3.2,1.8,7,1.8,10.1,0.2c0.9-0.5,1.6-0.7,2.5-0.7c0.7,0,1.1,0.2,1.3,0.5c1.6,2.2,2.9,4.4,4,7c0.1,0.3,0.1,0.7-0.2,1.3
				c-0.4,0.7-1,1.2-1.8,1.7c-2.9,1.8-4.8,5.1-4.8,8.9c0,3.7,1.9,7,4.9,8.9c0.8,0.5,1.4,1,1.8,1.8c0.4,0.6,0.4,1,0.2,1.3
				c-1,2.5-2.3,4.8-3.9,6.9c-0.2,0.2-0.5,0.5-1.2,0.4c-0.8,0-1.6-0.2-2.5-0.7c-3.1-1.6-6.9-1.6-10.1,0.2c-3.2,1.8-5.1,5.2-5.2,8.7
				c0,1-0.2,1.8-0.6,2.6c-0.4,0.6-0.7,0.8-1,0.9c-2.7,0.4-5.3,0.3-8,0c-0.3,0-0.7-0.2-1-0.9c-0.4-0.8-0.6-1.6-0.6-2.6
				c-0.1-3.5-2.1-6.8-5.2-8.7c-3.2-1.8-7-1.8-10.1-0.2c-0.9,0.5-1.6,0.7-2.5,0.7c-0.7,0-1.1-0.2-1.3-0.5c-1.6-2.2-2.9-4.4-4-7
				c-0.1-0.3-0.1-0.7,0.2-1.3c0.4-0.7,1-1.2,1.8-1.7c2.9-1.8,4.8-5.1,4.8-8.9c0-3.7-1.9-7-4.9-8.9c-0.8-0.5-1.4-1-1.8-1.8
				c-0.4-0.6-0.4-1-0.2-1.3c1-2.5,2.3-4.8,3.9-6.9c0.2-0.2,0.5-0.5,1.2-0.4c0.8,0,1.6,0.2,2.5,0.7c3.1,1.6,6.9,1.6,10.1-0.2
				C421,130.5,422.9,127.2,423,123.7z M438.4,145.7c3.3,5.7,1.4,12.7-3.8,15.7c-5.2,3-12.1,1.2-15.4-4.5c-3.3-5.7-1.4-12.7,3.8-15.7
				C428.2,138.1,435.1,140,438.4,145.7z M441.8,143.7c4.3,7.5,1.9,17-5.3,21.2c-7.2,4.2-16.6,1.5-20.9-6c-4.3-7.5-1.9-17,5.3-21.2
				C428.2,133.5,437.5,136.2,441.8,143.7z"/>
		</g>
	</g>
</g>
</svg>
