<?xml version="1.0" encoding="utf-8"?>
<!-- Generator: Adobe Illustrator 24.1.2, SVG Export Plug-In . SVG Version: 6.00 Build 0)  -->
<svg version="1.1" id="Capa_1" xmlns="http://www.w3.org/2000/svg" xmlns:xlink="http://www.w3.org/1999/xlink" x="0px" y="0px"
	 viewBox="0 0 512 512" style="enable-background:new 0 0 512 512;" xml:space="preserve">
<g>
	<g>
		<g>
			<path d="M190.5,486.5c-7.3,0-14.3-2.8-19.8-7.9c-0.1-0.1-0.2-0.2-0.4-0.4c-3.8-4.2-6.2-9.1-7.2-14.3l-1.8,1.8
				c-5.2,5.2-12.2,8.1-19.8,8.1s-14.5-2.9-19.8-8.1c-4.2-4.2-6.8-9.3-7.7-14.6l-5,4.8c-5.2,5.2-12.2,8.1-19.7,8.1
				c-7.5,0-14.5-2.9-19.8-8.1c-10.9-10.9-10.9-28.6,0-39.5l48.7-48c2.3-2.3,6.1-2.3,8.5,0l55.7,55.7l22.5,23.2
				c3.3,2.9,7.6,4.5,11.9,4.5c1.8,0,3.5-0.3,5.2-0.9c2.7-1,5.6,0.1,7.1,2.5s1.1,5.5-0.9,7.5l-18.3,17.6
				C204.7,483.7,197.8,486.5,190.5,486.5z M179,470c3.3,3,7.4,4.6,11.5,4.6c4.1,0,8-1.6,11-4.6c0,0,0.1-0.1,0.1-0.1l7.4-7.1
				c-4.5-1.2-8.7-3.5-12.2-6.6c-0.1-0.1-0.2-0.2-0.3-0.3l-22.6-23.3l-51.4-51.4l-44.4,43.8c-6.1,6.1-6.1,16.4,0,22.5
				c3,3,7,4.6,11.3,4.6s8.3-1.6,11.3-4.6c0,0,0,0,0.1-0.1l21.2-20.4c2.4-2.3,6.1-2.2,8.4,0.1c2.3,2.3,2.3,6.1,0,8.4
				c-6.1,6.1-6.1,15.7,0,21.8c3,3,7,4.6,11.3,4.6s8.3-1.6,11.3-4.6l17.6-17.6l0,0c2.3-2.3,6.1-2.3,8.5,0c2.3,2.3,2.3,6.1,0,8.5
				C172.5,454.6,173.9,464.2,179,470z"/>
		</g>
		<g>
			<path d="M244.5,495c-7.5,0-14.5-2.9-19.8-8.1c-8.9-8.9-10.8-23.2-4.5-34.1c0.7-1.3,1.9-2.2,3.3-2.7c0.9-0.3,2.9-1.7,4-2.8
				c6.1-6.1,6.3-15.9,0.4-22.9c-2.1-2.5-1.8-6.1,0.5-8.3s6-2.1,8.3,0.2l22.6,22.6c3,3,6.9,4.6,11,4.6c4.1,0,8.2-1.6,11.5-4.6
				c5.1-5.7,6.5-15.4,0-21.8v0c-2.3-2.3-2.3-6.1,0-8.5c2.3-2.3,6.1-2.3,8.5,0c0,0,0,0,0,0l17.6,17.6c0.9,0.9,2.1,2.1,2.7,2.4
				c1.7,0.9,2.9,2.5,3.2,4.4c0.3,1.9-0.3,3.8-1.6,5.2l-47.9,48.6C259,492.1,252,495,244.5,495z M229.9,460.5
				c-2.6,6-1.3,13.3,3.4,17.9c3,3,7,4.6,11.3,4.6s8.3-1.6,11.3-4.6l24.3-24.6c-3.1,1.1-6.4,1.7-9.7,1.7c-7.3,0-14.3-2.9-19.5-8.1
				l-6.9-6.9c-0.9,5.7-3.5,11-7.9,15.4C235,457,232.5,459,229.9,460.5z M297.7,433c-0.3,1.3-0.6,2.7-1,4l2.5-2.5L297.7,433z"/>
		</g>
		<g>
			<path d="M216.3,464c-7.5,0-14.5-2.9-19.8-8.1l-22.6-23.3l-76.8-76.8c-0.7-0.7-1.2-1.6-1.5-2.6l-8.5-29.6c-0.6-2.1,0-4.4,1.5-5.9
				l69.8-69.8c2.3-2.3,6.1-2.3,8.5,0c0.9,0.9,2.2,1.7,3.3,2.1c0.3,0.1,0.7,0.3,1,0.4c5.1,2.8,11.3,4.2,19,4.2
				c13.5,0,29.3-4.3,44.4-8.5c3.3-0.9,6.5-1.8,9.7-2.6c2.1-0.5,4.3,0.1,5.8,1.6l123.3,123.3l17.6,16.9c0,0,0.1,0.1,0.1,0.1
				c5.2,5.2,8.1,12.2,8.1,19.8s-2.9,14.5-8.1,19.8c-5.2,5.2-12.2,8.1-19.8,8.1c-7.5,0-14.5-2.9-19.7-8.1l-5-4.8
				c-1,5.5-3.6,10.6-7.7,14.7c-5.2,5.2-12.2,8.1-19.8,8.1c-7.5,0-14.5-2.9-19.8-8.1l-1.8-1.8c-1,5.1-3.4,10.1-7.2,14.3
				c-0.1,0.1-0.2,0.2-0.4,0.4c-5.5,5.1-12.6,7.9-19.8,7.9c-7.3,0-14.3-2.9-19.5-8.1l-6.9-6.9c-0.9,5.7-3.5,11-7.9,15.4
				C230.8,461.1,223.8,464,216.3,464z M106.7,348.4l75.8,75.8l22.6,23.3c2.9,2.9,6.9,4.5,11.2,4.5s8.3-1.6,11.3-4.6
				c6.1-6.1,6.3-15.9,0.4-22.9c-2.1-2.5-1.8-6.1,0.5-8.3c2.4-2.2,6-2.1,8.3,0.2l22.6,22.6c3,3,6.9,4.6,11,4.6
				c4.1,0,8.2-1.6,11.5-4.6c5.1-5.7,6.5-15.4,0-21.8h0c-2.3-2.3-2.3-6.1,0-8.5c2.3-2.3,6.1-2.3,8.5,0h0l17.6,17.6
				c3,3,7,4.6,11.3,4.6c4.3,0,8.3-1.6,11.3-4.6c3-3,4.6-6.8,4.6-10.9s-1.6-8-4.6-10.9c-2.3-2.3-2.3-6.1,0-8.4
				c2.3-2.4,6.1-2.4,8.4-0.1l21.2,20.4c0,0,0,0,0.1,0.1c3,3,7,4.6,11.3,4.6s8.3-1.6,11.3-4.6c6.1-6.1,6.1-16.4,0-22.5L365.2,377
				c0,0-0.1-0.1-0.1-0.1L244.1,256c-2.1,0.6-4.1,1.1-6.2,1.7c-16,4.4-32.5,8.9-47.6,8.9c-9.5,0-17.5-1.8-24.4-5.4
				c-0.9-0.3-1.7-0.7-2.6-1.2l-63.7,63.7L106.7,348.4z"/>
		</g>
		<g>
			<path d="M200.1,221.4c-2.1,0-4.1-1.1-5.2-2.9c-1.3-2.2-1.1-5,0.5-6.9l3.5-4.2c0.1-0.1,0.2-0.3,0.4-0.4l2.1-2.1
				c2.2-2.2,5.8-2.4,8.2-0.3l5.6,4.9c1.7,1.5,2.5,3.9,1.8,6.2s-2.5,3.9-4.8,4.3c-2.2,0.4-4.3,0.6-6,0.7c-1.9,0.2-3.5,0.3-5,0.6
				C200.9,221.4,200.5,221.4,200.1,221.4z"/>
		</g>
		<g>
			<path d="M89.4,332.1c-1.6,0-3.1-0.6-4.2-1.8l-54.3-54.3c-2.3-2.3-2.3-6.1,0-8.5l124.8-125.5c1.1-1.1,2.7-1.8,4.2-1.8c0,0,0,0,0,0
				c1.6,0,3.1,0.6,4.2,1.8l54.3,54.3c2.3,2.3,2.3,6,0.1,8.4l-14.1,14.8c-1,1-2.3,1.7-3.7,1.8c-25.4,2.8-36.4,10.4-38.3,16.5
				c-1.3,4.2,2,7.8,4.1,9.6c1.3,1.1,2,2.6,2.1,4.3c0.1,1.7-0.6,3.3-1.7,4.5l-73.3,74C92.5,331.5,91,332.1,89.4,332.1
				C89.4,332.1,89.4,332.1,89.4,332.1z M43.6,271.8l45.8,45.8l65-65.6c-4-5.4-5.2-11.5-3.4-17.5c2.3-7.4,11.3-20.3,46.2-24.7l8.6-9
				l-45.9-45.9L43.6,271.8z"/>
		</g>
		<g>
			<path d="M90.5,281.4c-2.3,0-4.4-0.9-6-2.5c-1.6-1.6-2.5-3.7-2.5-6c0-2.3,0.9-4.4,2.5-6c1.6-1.6,3.7-2.5,6-2.5s4.4,0.9,6,2.5
				c1.6,1.6,2.5,3.7,2.5,6c0,2.3-0.9,4.4-2.5,6C94.9,280.5,92.7,281.4,90.5,281.4z M90.5,269.4c-0.9,0-1.8,0.4-2.5,1
				c-0.6,0.6-1,1.5-1,2.5c0,0.9,0.4,1.8,1,2.5c0.6,0.6,1.5,1,2.5,1c0.9,0,1.8-0.4,2.5-1c0.6-0.6,1-1.5,1-2.5c0-0.9-0.4-1.8-1-2.5
				C92.3,269.8,91.4,269.4,90.5,269.4z"/>
		</g>
		<g>
			<path d="M369.3,378.7c-1.5,0-3.1-0.6-4.2-1.8L244.1,256c-2.1,0.6-4.1,1.1-6.2,1.7c-16,4.4-32.5,8.9-47.6,8.9
				c-9.8,0-17.9-1.9-24.8-5.7c-11.3-6-17-15.7-14.8-25.3c3.6-15.9,26.1-25.9,61.8-27.6c0,0,0.1,0,0.1,0c7.5-0.2,13.3-4.7,20.1-9.9
				c8.6-6.6,18.3-14,33.2-14c8.2,0,17.1,2.3,27,7l6.5-3.5c2.3-1.3,5.2-0.8,7.1,1l112.8,112.8c1.5,1.5,2.1,3.7,1.6,5.8l-7.8,29.6
				c-0.3,1-0.8,2-1.6,2.8L373.5,377C372.3,378.1,370.8,378.7,369.3,378.7z M245.9,243.3c1.6,0,3.1,0.6,4.2,1.8l119.2,119.2l32.6-32
				l6.5-24.7L301.2,200.3l-5.2,2.8c-1.7,0.9-3.8,1-5.6,0.1c-9.4-4.8-17.4-7.1-24.5-7.1c-10.9,0-18.2,5.6-25.9,11.6
				c-7.7,5.9-15.7,12-27.1,12.4c-37.1,1.7-49.3,12.2-50.6,18.2c-0.9,4.1,2.5,8.7,8.8,12.1c5.2,2.9,11.4,4.2,19.1,4.2
				c13.5,0,29.3-4.3,44.4-8.5c3.3-0.9,6.5-1.8,9.7-2.6C244.9,243.4,245.4,243.3,245.9,243.3z"/>
		</g>
		<g>
			<path d="M425.7,322.3c-1.5,0-3.1-0.6-4.2-1.8L296.7,195.7c-2.3-2.3-2.3-6.1,0-8.5l54.3-54.3c1.1-1.1,2.7-1.8,4.2-1.8
				c1.6,0,3.1,0.6,4.2,1.8l124.8,124.8c1.1,1.1,1.8,2.7,1.8,4.2c0,1.6-0.6,3.1-1.8,4.2L430,320.5
				C428.8,321.7,427.2,322.3,425.7,322.3z M309.4,191.5l116.3,116.3l45.8-45.8L355.2,145.7L309.4,191.5z"/>
		</g>
		<g>
			<path d="M425.1,269.4c-2.2,0-4.2-0.9-5.8-2.4c-1.6-1.6-2.4-3.6-2.4-5.8s0.9-4.3,2.4-5.8c0.1-0.1,0.2-0.2,0.3-0.3
				c1.5-1.3,3.4-2,5.5-2c2.2,0,4.2,0.8,5.7,2.3c1.6,1.6,2.4,3.6,2.4,5.8c0,2.1-0.8,4.1-2.3,5.7C429.4,268.4,427.3,269.4,425.1,269.4
				z M422.1,258.6c-0.6,0.7-1,1.6-1,2.5c0,1,0.4,2,1.1,2.7c1.4,1.4,3.7,1.6,5.1,0.3l-3.9-4.6l4.3,4.2c0.7-0.7,1.1-1.7,1.1-2.6
				c0-1-0.4-2-1.1-2.7c-0.7-0.7-1.7-1.1-2.7-1.1C424,257.4,422.9,257.8,422.1,258.6z"/>
		</g>
		<g>
			<path d="M250,155c-36.4,0-66-29.6-66-66s29.6-66,66-66c3.3,0,6,2.7,6,6s-2.7,6-6,6c-29.8,0-54,24.2-54,54s24.2,54,54,54
				c29.8,0,54-24.2,54-54c0-3.3,2.7-6,6-6s6,2.7,6,6C316,125.4,286.4,155,250,155z"/>
		</g>
		<g>
			<path d="M240,115c-1.5,0-3.1-0.6-4.2-1.8l-20-20c-2.3-2.3-2.3-6.1,0-8.5s6.1-2.3,8.5,0l16.1,16.1l55.8-46.5
				c2.5-2.1,6.3-1.8,8.5,0.8c2.1,2.5,1.8,6.3-0.8,8.5l-60,50C242.7,114.5,241.4,115,240,115z"/>
		</g>
	</g>
</g>
</svg>
