<svg width="192" height="192" viewBox="0 0 192 192" fill="none" xmlns="http://www.w3.org/2000/svg">
<path d="M54.1876 133.838H128.175C129.038 133.838 129.825 133.425 130.313 132.713C130.8 132 130.913 131.138 130.65 130.313C130.2 129.038 129.975 127.725 129.975 126.375C129.975 125.025 130.2 123.713 130.65 122.438C130.95 121.65 130.8 120.75 130.313 120.038C129.825 119.325 129.038 118.913 128.175 118.913H54.1876C53.3251 118.913 52.5376 119.325 52.0501 120.038C51.5626 120.75 51.4501 121.613 51.7126 122.438C52.1626 123.713 52.3876 125.025 52.3876 126.375C52.3876 127.725 52.1626 129.038 51.7126 130.313C51.4126 131.1 51.5626 132 52.0501 132.713C52.5376 133.425 53.3251 133.838 54.1876 133.838ZM124.838 128.588H57.4876C57.6001 127.875 57.6376 127.125 57.6376 126.375C57.6376 125.625 57.6001 124.913 57.4876 124.163H124.838C124.725 124.875 124.688 125.625 124.688 126.375C124.688 127.125 124.763 127.875 124.838 128.588Z" fill="#4F4F4F"/>
<path d="M155.438 133.838H175.537C179.625 133.838 183 130.5 183 126.375C183 122.25 179.662 118.913 175.537 118.913H155.438C154.575 118.913 153.788 119.325 153.3 120.038C152.813 120.75 152.7 121.613 152.963 122.438C153.413 123.713 153.637 125.025 153.637 126.375C153.637 127.725 153.413 129.038 152.963 130.313C152.663 131.1 152.813 132 153.3 132.713C153.788 133.425 154.575 133.838 155.438 133.838ZM175.537 124.2C176.737 124.2 177.75 125.175 177.75 126.413C177.75 127.65 176.775 128.625 175.537 128.625H158.738C158.85 127.913 158.887 127.163 158.887 126.413C158.887 125.663 158.85 124.95 158.738 124.2H175.537Z" fill="#4F4F4F"/>
<path d="M11.625 133.838H26.925C27.7875 133.838 28.575 133.425 29.0625 132.713C29.55 132 29.6625 131.138 29.4 130.313C28.95 129.038 28.725 127.725 28.725 126.375C28.725 125.025 28.95 123.713 29.4 122.438C29.7 121.65 29.55 120.75 29.0625 120.038C28.575 119.325 27.7875 118.913 26.925 118.913H11.625C10.1625 118.913 8.99998 120.075 8.99998 121.538V131.175C8.99998 132.675 10.1625 133.838 11.625 133.838ZM23.5875 128.588H14.25V124.2H23.5875C23.475 124.913 23.4375 125.663 23.4375 126.413C23.475 127.125 23.5125 127.875 23.5875 128.588Z" fill="#4F4F4F"/>
<path d="M16.4623 124.2H26.9248C28.0498 124.2 29.0248 123.488 29.3998 122.438C31.0498 117.713 35.5499 114.563 40.5748 114.563C45.5998 114.563 50.0623 117.75 51.7498 122.438C52.1248 123.488 53.0998 124.2 54.2248 124.2H128.175C129.3 124.2 130.275 123.488 130.65 122.438C132.337 117.713 136.8 114.563 141.825 114.563C146.85 114.563 151.312 117.75 153 122.438C153.375 123.488 154.35 124.2 155.475 124.2H175.537C177 124.2 178.162 123.038 178.162 121.575V101.888C178.162 98.5126 177.187 95.2126 175.387 92.3626L148.462 50.0626C145.2 44.9251 139.575 41.8501 133.5 41.8501H26.1373C19.3498 41.8501 13.7998 47.3626 13.7998 54.1876V121.65C13.8373 123.038 14.9998 124.2 16.4623 124.2ZM25.1623 118.95H19.0498V54.1501C19.0498 50.2501 22.2374 47.0626 26.1373 47.0626H133.5C137.812 47.0626 141.75 49.2376 144.037 52.8376L170.962 95.1751C172.237 97.2001 172.912 99.4876 172.912 101.888V118.95H157.162C154.35 113.1 148.387 109.313 141.787 109.313C135.187 109.313 129.225 113.1 126.412 118.95H55.9123C53.0998 113.1 47.1373 109.313 40.5373 109.313C33.9373 109.313 28.0123 113.1 25.1623 118.95Z" fill="#4F4F4F"/>
<path d="M40.5377 143.475C47.7752 143.475 54.2252 138.9 56.6627 132.075C57.3002 130.237 57.6377 128.325 57.6377 126.375C57.6377 124.425 57.3002 122.512 56.6627 120.675C54.2627 113.85 47.7752 109.275 40.5377 109.275C33.3002 109.275 26.8502 113.85 24.4127 120.675C23.7752 122.512 23.4377 124.425 23.4377 126.375C23.4377 128.325 23.7752 130.237 24.4127 132.075C26.8502 138.9 33.3377 143.475 40.5377 143.475ZM51.7127 122.437C52.1627 123.712 52.3877 125.025 52.3877 126.375C52.3877 127.725 52.1627 129.037 51.7127 130.312C50.0252 135.037 45.5627 138.187 40.5377 138.187C35.5127 138.187 31.0502 135 29.3627 130.312C28.9127 129.037 28.6877 127.725 28.6877 126.375C28.6877 125.025 28.9127 123.712 29.3627 122.437C31.0502 117.712 35.5127 114.562 40.5377 114.562C45.5627 114.562 50.0627 117.75 51.7127 122.437Z" fill="#4F4F4F"/>
<path d="M141.788 143.475C149.025 143.475 155.475 138.9 157.913 132.075C158.55 130.237 158.888 128.325 158.888 126.375C158.888 124.425 158.55 122.512 157.913 120.675C155.513 113.85 149.025 109.275 141.788 109.275C134.55 109.275 128.1 113.85 125.663 120.675C125.025 122.512 124.688 124.425 124.688 126.375C124.688 128.325 125.025 130.237 125.663 132.075C128.1 138.9 134.588 143.475 141.788 143.475ZM152.963 122.437C153.413 123.712 153.638 125.025 153.638 126.375C153.638 127.725 153.413 129.037 152.963 130.312C151.275 135.037 146.813 138.187 141.788 138.187C136.763 138.187 132.3 135 130.613 130.312C130.163 129.037 129.938 127.725 129.938 126.375C129.938 125.025 130.163 123.712 130.613 122.437C132.3 117.712 136.763 114.562 141.788 114.562C146.813 114.562 151.313 117.75 152.963 122.437Z" fill="#4F4F4F"/>
<path d="M116.325 84.5624H143.7C145.987 84.5624 148.05 83.2874 149.1 81.2624C150.15 79.2374 149.962 76.8374 148.65 74.9624L137.55 59.3249C136.425 57.7124 134.55 56.7749 132.6 56.7749H116.325C112.987 56.7749 110.25 59.5124 110.25 62.8499V78.4874C110.25 81.8249 112.987 84.5624 116.325 84.5624ZM132.562 62.0624C132.825 62.0624 133.087 62.1749 133.237 62.3999L144.337 78.0374C144.6 78.3749 144.487 78.7124 144.412 78.8999C144.337 79.0874 144.112 79.3499 143.7 79.3499H116.325C115.875 79.3499 115.5 78.9749 115.5 78.5249V62.8874C115.5 62.4374 115.875 62.0624 116.325 62.0624H132.562Z" fill="#4F4F4F"/>
<path d="M79.9876 84.5626H89.4752C95.5502 84.5626 100.463 79.6126 100.463 73.5751V67.8376C100.463 61.7626 95.5127 56.8501 89.4752 56.8501H79.9876C73.9126 56.8501 69.0002 61.8001 69.0002 67.8376V73.5751C69.0002 79.6126 73.9501 84.5626 79.9876 84.5626ZM89.5127 62.0626C92.7002 62.0626 95.2501 64.6501 95.2501 67.8001V73.5376C95.2501 76.7251 92.6627 79.2751 89.5127 79.2751H80.0252C76.8377 79.2751 74.2877 76.6876 74.2877 73.5376V67.8001C74.2877 64.6126 76.8752 62.0626 80.0252 62.0626H89.5127Z" fill="#4F4F4F"/>
<path d="M38.7376 84.5626H48.2252C54.3002 84.5626 59.2126 79.6126 59.2126 73.5751V67.8376C59.2126 61.7626 54.2627 56.8501 48.2252 56.8501H38.7376C32.6626 56.8501 27.7502 61.8001 27.7502 67.8376V73.5751C27.7502 79.6126 32.7001 84.5626 38.7376 84.5626ZM48.2627 62.0626C51.4502 62.0626 54.0001 64.6501 54.0001 67.8001V73.5376C54.0001 76.7251 51.4127 79.2751 48.2627 79.2751H38.7752C35.5877 79.2751 33.0377 76.6876 33.0377 73.5376V67.8001C33.0377 64.6126 35.6252 62.0626 38.7752 62.0626H48.2627Z" fill="#4F4F4F"/>
<path d="M19.1248 103.312H175.537C177 103.312 178.162 102.15 178.162 100.688C178.162 99.225 177 98.0625 175.537 98.0625H19.1248C17.6623 98.0625 16.4998 99.225 16.4998 100.688C16.4998 102.15 17.6623 103.312 19.1248 103.312Z" fill="#4F4F4F"/>
<path d="M26.625 148.312H169.125C170.588 148.312 171.75 147.15 171.75 145.688C171.75 144.225 170.588 143.062 169.125 143.062H26.625C25.1625 143.062 24 144.225 24 145.688C24 147.15 25.1625 148.312 26.625 148.312Z" fill="#4F4F4F"/>
<path d="M15.375 159.562H105.375C106.838 159.562 108 158.4 108 156.938C108 155.475 106.838 154.312 105.375 154.312H15.375C13.9125 154.312 12.75 155.475 12.75 156.938C12.75 158.4 13.9125 159.562 15.375 159.562Z" fill="#4F4F4F"/>
<path d="M36 47.0625H96C100.538 47.0625 104.25 43.35 104.25 38.8125C104.25 34.275 100.538 30.5625 96 30.5625H36C31.4625 30.5625 27.75 34.275 27.75 38.8125C27.75 43.35 31.4625 47.0625 36 47.0625ZM96 35.8125C97.65 35.8125 99 37.1625 99 38.8125C99 40.4625 97.65 41.8125 96 41.8125H36C34.35 41.8125 33 40.4625 33 38.8125C33 37.1625 34.35 35.8125 36 35.8125H96Z" fill="#4F4F4F"/>
</svg>
