<?xml version="1.0" encoding="utf-8"?>
<!-- Generator: Adobe Illustrator 24.1.2, SVG Export Plug-In . SVG Version: 6.00 Build 0)  -->
<svg version="1.1" id="Capa_1" xmlns="http://www.w3.org/2000/svg" xmlns:xlink="http://www.w3.org/1999/xlink" x="0px" y="0px"
	 viewBox="0 0 512 512" style="enable-background:new 0 0 512 512;" xml:space="preserve">
<g>
	<path d="M367.5,356.9H170.2c-2.3,0-4.4-1.1-5.7-3s-1.6-4.2-0.9-6.4c1.2-3.4,1.8-6.9,1.8-10.5s-0.6-7.1-1.8-10.5
		c-0.8-2.1-0.4-4.5,0.9-6.4c1.3-1.9,3.4-3,5.7-3h197.3c2.3,0,4.4,1.1,5.7,3c1.3,1.9,1.6,4.2,0.9,6.4c-1.2,3.4-1.8,6.9-1.8,10.5
		s0.6,7.1,1.8,10.5c0.8,2.1,0.4,4.5-0.9,6.4C371.9,355.8,369.8,356.9,367.5,356.9z M179.1,342.9h179.6c-0.3-1.9-0.4-3.9-0.4-5.9
		s0.1-3.9,0.4-5.9H179.1c0.3,1.9,0.4,3.9,0.4,5.9S179.3,341,179.1,342.9z"/>
</g>
<g>
	<path d="M97.5,356.9H43.9c-10.9,0-19.9-8.9-19.9-19.9s8.9-19.9,19.9-19.9h53.6c2.3,0,4.4,1.1,5.7,3s1.6,4.2,0.9,6.4
		c-1.2,3.4-1.8,6.9-1.8,10.5c0,3.6,0.6,7.1,1.8,10.5c0.8,2.1,0.4,4.5-0.9,6.4C101.9,355.8,99.8,356.9,97.5,356.9z M43.9,331.2
		c-3.2,0-5.9,2.6-5.9,5.9s2.6,5.9,5.9,5.9h44.8c-0.3-1.9-0.4-3.9-0.4-5.9s0.1-3.9,0.4-5.9H43.9z"/>
</g>
<g>
	<path d="M481,356.9h-40.8c-2.3,0-4.4-1.1-5.7-3c-1.3-1.9-1.6-4.2-0.9-6.4c1.2-3.4,1.8-6.9,1.8-10.5c0-3.6-0.6-7.1-1.8-10.5
		c-0.8-2.1-0.4-4.5,0.9-6.4s3.4-3,5.7-3H481c3.9,0,7,3.1,7,7v25.7C488,353.8,484.9,356.9,481,356.9z M449.1,342.9H474v-11.7h-24.9
		c0.3,1.9,0.4,3.9,0.4,5.9C449.4,339,449.3,341,449.1,342.9z"/>
</g>
<g>
	<path d="M468.1,331.2h-27.9c-3,0-5.6-1.9-6.6-4.7c-4.4-12.6-16.4-21-29.8-21s-25.3,8.5-29.8,21c-1,2.8-3.6,4.7-6.6,4.7H170.2
		c-3,0-5.6-1.9-6.6-4.7c-4.5-12.6-16.4-21-29.8-21s-25.3,8.5-29.8,21c-1,2.8-3.6,4.7-6.6,4.7H43.9c-3.9,0-7-3.1-7-7v-52.5
		c0-9,2.6-17.8,7.4-25.4l71.8-112.8c8.7-13.7,23.7-21.9,39.9-21.9h286.3c18.1,0,32.9,14.7,32.9,32.9v179.9
		C475.1,328.1,472,331.2,468.1,331.2z M444.9,317.2h16.3V144.4c0-10.4-8.5-18.9-18.9-18.9H156c-11.5,0-22,5.8-28.1,15.4L56.1,253.8
		c-3.4,5.4-5.2,11.5-5.2,17.9v45.5h42c7.5-15.6,23.4-25.7,41-25.7s33.5,10.1,41,25.7h188c7.5-15.6,23.4-25.7,41-25.7
		S437.3,301.6,444.9,317.2z"/>
</g>
<g>
	<path d="M403.9,382.6c-19.3,0-36.5-12.2-43-30.4c-1.7-4.9-2.6-10-2.6-15.2c0-5.2,0.9-10.3,2.6-15.2l0,0c6.4-18.2,23.7-30.4,43-30.4
		c19.3,0,36.5,12.2,43,30.4c1.7,4.9,2.6,10,2.6,15.2c0,5.2-0.9,10.3-2.6,15.2C440.4,370.4,423.1,382.6,403.9,382.6z M374.1,326.5
		c-1.2,3.4-1.8,6.9-1.8,10.5c0,3.6,0.6,7.1,1.8,10.5c4.5,12.6,16.4,21,29.8,21c13.4,0,25.3-8.5,29.8-21c1.2-3.4,1.8-6.9,1.8-10.5
		c0-3.6-0.6-7.1-1.8-10.5c-4.5-12.6-16.4-21-29.8-21C390.5,305.5,378.5,314,374.1,326.5L374.1,326.5z"/>
</g>
<g>
	<path d="M133.9,382.6c-19.3,0-36.5-12.2-43-30.4c-1.7-4.9-2.6-10-2.6-15.2c0-5.2,0.9-10.3,2.6-15.2c0,0,0,0,0,0
		c6.4-18.2,23.7-30.4,43-30.4s36.5,12.2,43,30.4c1.7,4.9,2.6,10,2.6,15.2c0,5.2-0.9,10.3-2.6,15.2
		C170.4,370.4,153.1,382.6,133.9,382.6z M104.1,326.5c-1.2,3.4-1.8,6.9-1.8,10.5c0,3.6,0.6,7.1,1.8,10.5c4.5,12.6,16.4,21,29.8,21
		s25.3-8.5,29.8-21c1.2-3.4,1.8-6.9,1.8-10.5c0-3.6-0.6-7.1-1.8-10.5c-4.5-12.6-16.4-21-29.8-21S108.5,314,104.1,326.5L104.1,326.5z
		"/>
</g>
<g>
	<path d="M201.8,225.5h-73c-6.1,0-11.6-3.4-14.4-8.8c-2.8-5.4-2.3-11.8,1.2-16.8l29.6-41.7c3-4.3,8-6.8,13.2-6.8h43.4
		c8.9,0,16.2,7.3,16.2,16.2v41.7C218,218.2,210.7,225.5,201.8,225.5z M158.5,165.5c-0.7,0-1.4,0.3-1.8,0.9l-29.6,41.7
		c-0.7,0.9-0.4,1.8-0.2,2.3s0.8,1.2,1.9,1.2h73c1.2,0,2.2-1,2.2-2.2v-41.7c0-1.2-1-2.2-2.2-2.2L158.5,165.5L158.5,165.5z"/>
</g>
<g>
	<path d="M298.7,225.5h-25.3c-16.2,0-29.3-13.2-29.3-29.3v-15.3c0-16.2,13.2-29.3,29.3-29.3h25.3c16.2,0,29.3,13.2,29.3,29.3v15.3
		C328,212.3,314.8,225.5,298.7,225.5z M273.3,165.5c-8.5,0-15.3,6.9-15.3,15.3v15.3c0,8.5,6.9,15.3,15.3,15.3h25.3
		c8.5,0,15.3-6.9,15.3-15.3v-15.3c0-8.5-6.9-15.3-15.3-15.3H273.3z"/>
</g>
<g>
	<path d="M408.7,225.5h-25.3c-16.2,0-29.3-13.2-29.3-29.3v-15.3c0-16.2,13.2-29.3,29.3-29.3h25.3c16.2,0,29.3,13.2,29.3,29.3v15.3
		C438,212.3,424.8,225.5,408.7,225.5z M383.3,165.5c-8.5,0-15.3,6.9-15.3,15.3v15.3c0,8.5,6.9,15.3,15.3,15.3h25.3
		c8.5,0,15.3-6.9,15.3-15.3v-15.3c0-8.5-6.9-15.3-15.3-15.3H383.3z"/>
</g>
<g>
	<path d="M461,275.5H43.9c-3.9,0-7-3.1-7-7s3.1-7,7-7H461c3.9,0,7,3.1,7,7S464.9,275.5,461,275.5z"/>
</g>
<g>
	<path d="M441,395.5H61c-3.9,0-7-3.1-7-7s3.1-7,7-7h380c3.9,0,7,3.1,7,7S444.9,395.5,441,395.5z"/>
</g>
<g>
	<path d="M471,425.5H231c-3.9,0-7-3.1-7-7s3.1-7,7-7h240c3.9,0,7,3.1,7,7S474.9,425.5,471,425.5z"/>
</g>
<g>
	<path d="M416,125.5H256c-12.1,0-22-9.9-22-22s9.9-22,22-22h160c12.1,0,22,9.9,22,22S428.1,125.5,416,125.5z M256,95.5
		c-4.4,0-8,3.6-8,8s3.6,8,8,8h160c4.4,0,8-3.6,8-8s-3.6-8-8-8H256z"/>
</g>
</svg>
