<svg width="1853" height="1024" viewBox="0 0 1853 1024" fill="none" xmlns="http://www.w3.org/2000/svg">
<g id="Group 3">
<rect id="Background" width="1853" height="1024" fill="#4F4F4F"/>
<g id="Vectores">
<path id="Cifras Moradas" d="M179.188 838.498C127.227 901.851 41.6989 918.175 1 919.498V1024H1853V889.498C1791.89 874.998 1788.03 870.436 1753.29 851.998C1658.6 801.74 1590.56 518.34 1515.28 519.001C1439.99 519.662 1406.27 681.016 1342.88 764.999C1279.48 848.982 1227.09 899.998 744.738 907.614C515.536 911.232 406.413 857.676 371.529 817.999C347.79 790.999 326.499 735.973 278.896 736.999C231.294 738.026 211.995 798.499 179.188 838.498Z" fill="url(#paint0_linear)"/>
<path id="Cufras Naranjas" fill-rule="evenodd" clip-rule="evenodd" d="M1 799.963C1 799.963 10.4041 813.17 38.9271 834.507C67.4502 855.844 99.6589 885.311 156.705 906.648C213.751 927.985 366.861 924.942 429.126 906.648C495.981 887.005 503.695 895.005 566.692 828.007C613.756 777.955 618.119 706.012 682.402 706.012C746.686 706.012 762.38 828.007 858.538 828.007C976.333 828.007 989.676 615.015 1060.39 617.015C1131.1 619.015 1158.77 768.261 1194.63 820.007C1209.52 841.507 1264.81 906.648 1394.66 906.648C1489.95 906.648 1522.45 881.343 1581.08 860.006C1638.13 838.669 1661.7 824.409 1712.8 799.008C1761.07 775.009 1824.48 715.349 1853 694.012V718.011V1024H1822.14C1793.62 1024 1769.84 1024 1712.8 1024C1655.75 1024 1597.12 1024 1540.07 1024C1481.44 1024 1424.4 1024 1367.35 1024C1308.72 1024 1251.67 1024 1194.63 1024C1136 1024 1078.95 1024 1021.9 1024C963.274 1024 906.227 1024 847.597 1024C790.551 1024 733.505 1024 674.874 1024C617.828 1024 560.782 1024 502.151 1024C445.105 1024 388.059 1024 329.428 1024C272.382 1024 213.751 1024 156.705 1024C99.6589 1024 41.0282 1024 12.5051 1024H1V799.963Z" fill="url(#paint1_linear)"/>
</g>
</g>
<defs>
<linearGradient id="paint0_linear" x1="934.112" y1="655" x2="934.112" y2="1024" gradientUnits="userSpaceOnUse">
<stop stop-color="#AE95E2"/>
<stop offset="1" stop-color="#6D428E"/>
</linearGradient>
<linearGradient id="paint1_linear" x1="927" y1="617.001" x2="927" y2="1024" gradientUnits="userSpaceOnUse">
<stop stop-color="#FEC163"/>
<stop offset="1" stop-color="#FB784F"/>
</linearGradient>
</defs>
</svg>
