<svg width="1440" height="506" viewBox="0 0 1440 506" fill="none" xmlns="http://www.w3.org/2000/svg">
<g id="Vectores">
<path id="Cifras-Moradas" d="M139.5 319.5C99.1124 382.853 32.634 399.178 1 400.5V505.003H1440.5V370.5C1393 356 1390 351.438 1363 333C1289.4 282.742 1236.52 -0.661114 1178 0.000178855C1119.48 0.661471 1093.27 162.016 1044 246C994.725 329.984 954 381 579.084 388.616C400.932 392.235 316.115 338.678 289 299C270.549 272 254 216.974 217 218C180 219.026 165 279.5 139.5 319.5Z" fill="url(#paint0_linear)"/>
<path id="Cufras-Naranjas" fill-rule="evenodd" clip-rule="evenodd" d="M0 280.955C0 280.955 7.31454 294.162 29.5 315.5C51.6855 336.838 76.7377 366.306 121.109 387.644C165.479 408.981 284.57 405.938 333 387.644C385 368 391 376 440 309C476.607 258.946 480 187 530 187C580 187 592.207 309 667 309C758.621 309 769 96.0002 824 98.0002C879 100 900.523 249.251 928.413 301C940 322.5 983 387.644 1084 387.644C1158.12 387.644 1183.4 362.338 1229 341C1273.37 319.662 1291.7 305.402 1331.45 280C1369 256 1418.31 196.338 1440.5 175V199V505.001H1416.5C1394.31 505.001 1375.82 505.001 1331.45 505.001C1287.08 505.001 1241.47 505.001 1197.1 505.001C1151.5 505.001 1107.13 505.001 1062.76 505.001C1017.15 505.001 972.784 505.001 928.413 505.001C882.809 505.001 838.438 505.001 794.067 505.001C748.464 505.001 704.093 505.001 658.49 505.001C614.119 505.001 569.748 505.001 524.144 505.001C479.773 505.001 435.402 505.001 389.799 505.001C345.428 505.001 301.057 505.001 255.454 505.001C211.083 505.001 165.479 505.001 121.109 505.001C76.7377 505.001 31.1342 505.001 8.94878 505.001H0V280.955Z" fill="url(#paint1_linear)"/>
</g>
<defs>
<linearGradient id="paint0_linear" x1="726.278" y1="136" x2="726.278" y2="505.004" gradientUnits="userSpaceOnUse">
<stop stop-color="#AE95E2"/>
<stop offset="1" stop-color="#6D428E"/>
</linearGradient>
<linearGradient id="paint1_linear" x1="720.25" y1="97.9863" x2="720.25" y2="505.001" gradientUnits="userSpaceOnUse">
<stop stop-color="#FEC163"/>
<stop offset="1" stop-color="#FB784F"/>
</linearGradient>
</defs>
</svg>
