<?xml version="1.0" encoding="utf-8"?>
<!-- Generator: Adobe Illustrator 24.1.2, SVG Export Plug-In . SVG Version: 6.00 Build 0)  -->
<svg version="1.1" id="Capa_1" xmlns="http://www.w3.org/2000/svg" xmlns:xlink="http://www.w3.org/1999/xlink" x="0px" y="0px"
	 viewBox="0 0 64 80" style="enable-background:new 0 0 64 80;" xml:space="preserve">
<g>
	<rect x="38.1" y="41.7" transform="matrix(0.7632 -0.6461 0.6461 0.7632 -18.327 35.406)" width="2" height="2"/>
	<rect x="35.1" y="44.3" transform="matrix(0.7632 -0.6461 0.6461 0.7632 -20.7196 34.0447)" width="2" height="2"/>
	<rect x="32" y="46.9" transform="matrix(0.7637 -0.6455 0.6455 0.7637 -23.1009 32.6398)" width="2" height="2"/>
	<path d="M57,51v-5.7l2-2.7c0.6-0.9,1-1.9,1-3l0-3.2c0-1.3,0.5-2.6,1.4-3.5l0.7-0.7c0.6-0.6,0.9-1.4,0.9-2.2c0-1.7-1.4-3.1-3.1-3.1
		c-1.9,0-3.6,0.8-4.9,2v-5c0-1.7-1.3-3-3-3c-0.4,0-0.7,0.1-1,0.2V20c0-1.7-1.3-3-3-3s-3,1.3-3,3V10c0-1.7-1.3-3-3-3
		c-0.4,0-0.7,0.1-1,0.2V7c0-1.7-1.3-3-3-3c-0.4,0-0.7,0.1-1,0.2V4c0-1.7-1.3-3-3-3s-3,1.3-3,3v1.2C30.7,5.1,30.4,5,30,5
		c-1.7,0-3,1.3-3,3v5c-1.2-1.3-3-2-4.9-2c-1.7,0-3.1,1.4-3.1,3.1c0,0.8,0.3,1.6,0.9,2.2l0.6,0.6c0.9,0.9,1.4,2.2,1.4,3.5l0,0.3
		c-0.5-0.5-1.2-0.8-2-0.8c-0.4,0-0.7,0.1-1,0.2V20c0-1.7-1.3-3-3-3s-3,1.3-3,3v1.2c-0.3-0.1-0.6-0.2-1-0.2c-1.7,0-3,1.3-3,3v5
		c-1.2-1.3-3-2-4.9-2C2.4,27,1,28.4,1,30.1c0,0.8,0.3,1.6,0.9,2.2L2.6,33C3.5,33.9,4,35.2,4,36.4l0,3.2c0,1.1,0.4,2.1,1,3l2,2.7V51
		H1.5l2.4,6l-2.4,6H24v-7h16v7h22.5l-2.4-6l2.4-6H57z M47,20c0-0.6,0.4-1,1-1s1,0.4,1,1v4v6h2v-6c0-0.6,0.4-1,1-1s1,0.4,1,1v9.9v0.7
		l-0.5,0.5c-0.9,0.9-1.5,2.2-1.5,3.5V42h2v-3.3c0-0.8,0.3-1.6,0.9-2.1l1.1-1.1V35v-1.1c0-2.7,2.2-4.9,4.9-4.9c0.6,0,1.1,0.5,1.1,1.1
		c0,0.3-0.1,0.6-0.3,0.8L60,31.6c-1.3,1.3-2,3.1-2,4.9l0,3.2c0,0.6-0.2,1.3-0.6,1.8L55,44.7V51h-4v-6h-7c1.3-1.5,2-3.3,2-5.3v-0.6
		c0-2.5-1.2-4.8-3-6.3v-3.6l1.3-2.5c0.5-1,0.7-2.1,0.7-3.1V30h2v-7V20z M26.1,33c1.6,0,3.1,0.6,4.3,1.8l1.6,1.6l1.6-1.6
		c1.1-1.1,2.7-1.8,4.3-1.8c3.3,0,6.1,2.7,6.1,6.1v0.6c0,1.8-0.8,3.5-2.1,4.6L32,52.7l-9.9-8.3c-1.4-1.2-2.1-2.8-2.1-4.6v-0.6
		C20,35.7,22.7,33,26.1,33z M22.2,47l8.3,7H15v-7H22.2z M41.8,47H49v7H33.5L41.8,47z M22,15.6l-0.6-0.6c-0.2-0.2-0.3-0.5-0.3-0.8
		c0-0.6,0.5-1.1,1.1-1.1c2.7,0,4.9,2.2,4.9,4.9V19v0.4l1.1,1.1c0.6,0.6,0.9,1.3,0.9,2.1V26h2v-3.3c0-1.3-0.5-2.6-1.5-3.5L29,18.6
		v-0.7V8c0-0.6,0.4-1,1-1s1,0.4,1,1v6h2V8V4c0-0.6,0.4-1,1-1s1,0.4,1,1v3v7h2V7c0-0.6,0.4-1,1-1s1,0.4,1,1v3v4h2v-4c0-0.6,0.4-1,1-1
		s1,0.4,1,1v13.6c0,0.8-0.2,1.5-0.5,2.2L41,28.8v2.8c-0.9-0.4-2-0.6-3.1-0.6c-2.2,0-4.2,0.8-5.7,2.4L32,33.6l-0.2-0.2
		c-1.3-1.3-3-2.1-4.8-2.3v-2.4l-2.4-3.2c-0.4-0.5-0.6-1.2-0.6-1.8l0-3.2C24,18.6,23.3,16.9,22,15.6z M6.6,41.4
		C6.2,40.9,6,40.3,6,39.6l0-3.2c0-1.8-0.7-3.6-2-4.9l-0.6-0.6C3.1,30.7,3,30.4,3,30.1C3,29.5,3.5,29,4.1,29C6.8,29,9,31.2,9,33.9V35
		v0.4l1.1,1.1c0.6,0.6,0.9,1.3,0.9,2.1V42h2v-3.3c0-1.3-0.5-2.6-1.5-3.5L11,34.6v-0.7V24c0-0.6,0.4-1,1-1s1,0.4,1,1v6h2v-6v-4
		c0-0.6,0.4-1,1-1s1,0.4,1,1v3v7h2v-7c0-0.6,0.4-1,1-1s1,0.4,1,1v7h2v-3.3l2,2.7v1.7c-3.9,0.5-7,3.9-7,8v0.6c0,2,0.7,3.8,2,5.3h-7v6
		H9v-6.3L6.6,41.4z M4.5,53H13v2.5l7.1,5.5H4.5l1.6-4L4.5,53z M22,60l-5.1-4H22V60z M47.1,56L42,60v-4H47.1z M59.5,61H43.9l7.1-5.5
		V53h8.5l-1.6,4L59.5,61z"/>
</g>
</svg>
